<svg width="654" height="592" viewBox="0 0 654 592" fill="none" xmlns="http://www.w3.org/2000/svg">
    <g opacity="0.8">
        <path d="M643.538 351.973C648.84 278.541 523.897 209.681 364.471 198.169C205.044 186.657 71.5046 236.854 66.2023 310.286C60.8999 383.718 185.842 452.578 345.269 464.09C504.696 475.602 638.235 425.405 643.538 351.973Z" stroke="url(#paint0_linear_592_2324)" stroke-width="0.8" stroke-miterlimit="10"/>
        <path d="M632.918 336.691C634.999 264.898 510.304 203.035 354.405 198.517C198.506 193.999 70.4378 248.536 68.3571 320.33C66.2765 392.124 190.971 453.987 346.87 458.505C502.77 463.023 630.838 408.485 632.918 336.691Z" stroke="url(#paint1_linear_592_2324)" stroke-width="0.8" stroke-miterlimit="10"/>
        <path d="M348.776 452.922C501.122 450.449 623.699 391.564 622.56 321.398C621.421 251.233 496.998 196.358 344.652 198.831C192.306 201.304 69.728 260.189 70.867 330.354C72.006 400.519 196.43 455.395 348.776 452.922Z" stroke="url(#paint2_linear_592_2324)" stroke-width="0.8" stroke-miterlimit="10"/>
        <path d="M350.419 447.356C499.229 437.89 616.328 374.656 611.968 306.119C607.608 237.583 483.44 189.697 334.631 199.164C185.821 208.63 68.722 271.864 73.082 340.401C77.4419 408.937 201.61 456.823 350.419 447.356Z" stroke="url(#paint3_linear_592_2324)" stroke-width="0.8" stroke-miterlimit="10"/>
        <path d="M351.919 441.882C497.209 425.431 608.849 357.864 601.275 290.966C593.7 224.068 469.779 183.172 324.489 199.623C179.199 216.074 67.5585 283.642 75.1333 350.54C82.708 417.438 206.629 458.333 351.919 441.882Z" stroke="url(#paint4_linear_592_2324)" stroke-width="0.8" stroke-miterlimit="10"/>
        <path d="M353.53 436.391C495.274 412.951 601.429 341.027 590.633 275.745C579.838 210.463 456.18 176.543 314.435 199.984C172.691 223.424 66.5368 295.347 77.3325 360.63C88.1282 425.912 211.786 459.832 353.53 436.391Z" stroke="url(#paint5_linear_592_2324)" stroke-width="0.8" stroke-miterlimit="10"/>
        <path d="M355.177 430.714C493.391 400.275 594.076 324.011 580.061 260.374C566.046 196.737 442.639 169.825 304.424 200.264C166.209 230.703 65.5253 306.967 79.5401 370.604C93.5549 434.241 216.962 461.153 355.177 430.714Z" stroke="url(#paint6_linear_592_2324)" stroke-width="0.8" stroke-miterlimit="10"/>
        <path d="M356.749 425.239C491.416 387.816 586.615 307.202 569.38 245.183C552.146 183.164 429.005 163.224 294.337 200.647C159.67 238.069 64.4713 318.683 81.7058 380.702C98.9402 442.722 222.081 462.661 356.749 425.239Z" stroke="url(#paint7_linear_592_2324)" stroke-width="0.8" stroke-miterlimit="10"/>
        <path d="M358.568 419.278C489.687 374.846 579.394 289.883 558.934 229.507C538.475 169.131 415.596 156.206 284.478 200.638C153.359 245.07 63.6522 330.034 84.1118 390.41C104.571 450.786 227.45 463.711 358.568 419.278Z" stroke="url(#paint8_linear_592_2324)" stroke-width="0.8" stroke-miterlimit="10"/>
        <path d="M360.135 413.852C487.727 362.431 571.967 273.12 548.29 214.37C524.614 155.62 401.986 149.68 274.394 201.101C146.801 252.522 62.561 341.833 86.2378 400.583C109.915 459.332 232.543 465.273 360.135 413.852Z" stroke="url(#paint9_linear_592_2324)" stroke-width="0.8" stroke-miterlimit="10"/>
        <path d="M361.685 408.497C485.739 350.095 564.501 256.434 537.604 199.301C510.706 142.167 388.336 143.195 264.281 201.597C140.226 259.999 61.4647 353.66 88.362 410.793C115.259 467.927 237.63 466.899 361.685 408.497Z" stroke="url(#paint10_linear_592_2324)" stroke-width="0.8" stroke-miterlimit="10"/>
        <path d="M363.406 402.696C483.916 337.291 557.189 239.278 527.067 183.777C496.945 128.275 374.833 136.304 254.324 201.708C133.814 267.112 60.5399 365.125 90.6621 420.627C120.784 476.128 242.896 468.1 363.406 402.696Z" stroke="url(#paint11_linear_592_2324)" stroke-width="0.8" stroke-miterlimit="10"/>
        <path d="M364.994 397.295C481.972 324.907 549.782 222.56 516.451 168.698C483.12 114.836 361.27 129.854 244.292 202.242C127.314 274.63 59.5045 376.977 92.8356 430.839C126.167 484.701 248.016 469.683 364.994 397.295Z" stroke="url(#paint12_linear_592_2324)" stroke-width="0.8" stroke-miterlimit="10"/>
        <path d="M360.954 399.749C474.495 320.825 537.081 214.468 500.745 162.194C464.408 109.921 342.909 131.526 229.368 210.45C115.828 289.375 53.2417 395.732 89.5782 448.005C125.915 500.279 247.414 478.674 360.954 399.749Z" stroke="url(#paint13_linear_592_2324)" stroke-width="0.798919" stroke-miterlimit="10"/>
        <path d="M368.329 385.812C478.231 299.421 535.075 188.363 495.295 137.757C455.515 87.1512 334.174 116.161 224.272 202.552C114.37 288.943 57.5255 400.001 97.3057 450.607C137.086 501.213 258.427 472.203 368.329 385.812Z" stroke="url(#paint14_linear_592_2324)" stroke-width="0.8" stroke-miterlimit="10"/>
        <path d="M369.938 380.278C476.311 286.893 527.693 171.493 484.703 122.524C441.713 73.5548 320.631 109.561 214.258 202.946C107.885 296.331 56.5026 411.732 99.4926 460.701C142.483 509.67 263.565 473.664 369.938 380.278Z" stroke="url(#paint15_linear_592_2324)" stroke-width="0.8" stroke-miterlimit="10"/>
        <path d="M371.581 374.568C474.402 274.195 520.296 154.455 474.09 107.121C427.883 59.7883 307.072 102.786 204.252 203.16C101.431 303.533 55.536 423.273 101.743 470.607C147.949 517.94 268.76 474.942 371.581 374.568Z" stroke="url(#paint16_linear_592_2324)" stroke-width="0.8" stroke-miterlimit="10"/>
        <path d="M373.212 368.973C472.498 261.603 512.914 137.508 463.483 91.799C414.053 46.0897 293.494 96.0756 194.207 203.445C94.9211 310.815 54.505 434.91 103.936 480.619C153.366 526.329 273.925 476.343 373.212 368.973Z" stroke="url(#paint17_linear_592_2324)" stroke-width="0.8" stroke-miterlimit="10"/>
        <path d="M374.817 363.486C470.571 249.128 505.523 120.693 452.885 76.6183C400.247 32.5437 279.952 89.5197 184.198 203.878C88.4442 318.236 53.4918 446.671 106.13 490.746C158.768 534.82 279.063 477.844 374.817 363.486Z" stroke="url(#paint18_linear_592_2324)" stroke-width="0.8" stroke-miterlimit="10"/>
        <path d="M376.459 357.819C468.668 236.469 498.138 103.688 442.282 61.2439C386.425 18.8002 266.393 82.7663 174.183 204.116C81.9735 325.466 52.5035 458.247 108.36 500.691C164.217 543.135 284.249 479.169 376.459 357.819Z" stroke="url(#paint19_linear_592_2324)" stroke-width="0.8" stroke-miterlimit="10"/>
        <path d="M378.093 352.204C466.758 223.868 490.746 86.7453 431.671 45.9315C372.596 5.11766 252.829 76.0684 164.164 204.404C75.4986 332.74 51.5106 469.863 110.585 510.677C169.66 551.491 289.427 480.54 378.093 352.204Z" stroke="url(#paint20_linear_592_2324)" stroke-width="0.8" stroke-miterlimit="10"/>
        <path d="M379.771 346.975C464.922 211.651 483.451 70.1734 421.156 30.9745C358.861 -8.22439 239.332 69.6997 154.18 205.023C69.0289 340.346 50.5001 481.824 112.795 521.023C175.09 560.222 294.619 482.298 379.771 346.975Z" stroke="url(#paint21_linear_592_2324)" stroke-width="0.8" stroke-miterlimit="10"/>
    </g>
    <defs>
        <linearGradient id="paint0_linear_592_2324" x1="289.488" y1="450.355" x2="312.22" y2="190.266" gradientUnits="userSpaceOnUse">
            <stop stop-color="#37A0E7"/>
            <stop offset="1" stop-color="#C507D9"/>
        </linearGradient>
        <linearGradient id="paint1_linear_592_2324" x1="291.915" y1="447.463" x2="303.135" y2="193.01" gradientUnits="userSpaceOnUse">
            <stop stop-color="#37A0E7"/>
            <stop offset="1" stop-color="#C507D9"/>
        </linearGradient>
        <linearGradient id="paint2_linear_592_2324" x1="90.4971" y1="305.172" x2="628.703" y2="334.701" gradientUnits="userSpaceOnUse">
            <stop stop-color="#37A0E7"/>
            <stop offset="1" stop-color="#C507D9"/>
        </linearGradient>
        <linearGradient id="paint3_linear_592_2324" x1="91.1059" y1="314.876" x2="618.588" y2="318.839" gradientUnits="userSpaceOnUse">
            <stop stop-color="#37A0E7"/>
            <stop offset="1" stop-color="#C507D9"/>
        </linearGradient>
        <linearGradient id="paint4_linear_592_2324" x1="91.5556" y1="324.677" x2="608.373" y2="303.12" gradientUnits="userSpaceOnUse">
            <stop stop-color="#37A0E7"/>
            <stop offset="1" stop-color="#C507D9"/>
        </linearGradient>
        <linearGradient id="paint5_linear_592_2324" x1="92.1474" y1="334.42" x2="598.208" y2="287.3" gradientUnits="userSpaceOnUse">
            <stop stop-color="#37A0E7"/>
            <stop offset="1" stop-color="#C507D9"/>
        </linearGradient>
        <linearGradient id="paint6_linear_592_2324" x1="92.7506" y1="344.057" x2="588.116" y2="271.365" gradientUnits="userSpaceOnUse">
            <stop stop-color="#37A0E7"/>
            <stop offset="1" stop-color="#C507D9"/>
        </linearGradient>
        <linearGradient id="paint7_linear_592_2324" x1="93.3092" y1="353.81" x2="577.91" y2="255.575" gradientUnits="userSpaceOnUse">
            <stop stop-color="#37A0E7"/>
            <stop offset="1" stop-color="#C507D9"/>
        </linearGradient>
        <linearGradient id="paint8_linear_592_2324" x1="94.1059" y1="363.178" x2="567.945" y2="239.322" gradientUnits="userSpaceOnUse">
            <stop stop-color="#37A0E7"/>
            <stop offset="1" stop-color="#C507D9"/>
        </linearGradient>
        <linearGradient id="paint9_linear_592_2324" x1="94.6285" y1="373.008" x2="557.78" y2="223.606" gradientUnits="userSpaceOnUse">
            <stop stop-color="#37A0E7"/>
            <stop offset="1" stop-color="#C507D9"/>
        </linearGradient>
        <linearGradient id="paint10_linear_592_2324" x1="95.1467" y1="382.874" x2="547.566" y2="207.941" gradientUnits="userSpaceOnUse">
            <stop stop-color="#37A0E7"/>
            <stop offset="1" stop-color="#C507D9"/>
        </linearGradient>
        <linearGradient id="paint11_linear_592_2324" x1="95.8382" y1="392.364" x2="537.507" y2="191.833" gradientUnits="userSpaceOnUse">
            <stop stop-color="#37A0E7"/>
            <stop offset="1" stop-color="#C507D9"/>
        </linearGradient>
        <linearGradient id="paint12_linear_592_2324" x1="96.4105" y1="402.239" x2="527.374" y2="176.184" gradientUnits="userSpaceOnUse">
            <stop stop-color="#37A0E7"/>
            <stop offset="1" stop-color="#C507D9"/>
        </linearGradient>
        <linearGradient id="paint13_linear_592_2324" x1="91.6363" y1="419.108" x2="512.113" y2="169.129" gradientUnits="userSpaceOnUse">
            <stop stop-color="#37A0E7"/>
            <stop offset="1" stop-color="#C507D9"/>
        </linearGradient>
        <linearGradient id="paint14_linear_592_2324" x1="97.6653" y1="421.319" x2="507.175" y2="144.073" gradientUnits="userSpaceOnUse">
            <stop stop-color="#37A0E7"/>
            <stop offset="1" stop-color="#C507D9"/>
        </linearGradient>
        <linearGradient id="paint15_linear_592_2324" x1="98.2511" y1="431.073" x2="497.07" y2="128.269" gradientUnits="userSpaceOnUse">
            <stop stop-color="#37A0E7"/>
            <stop offset="1" stop-color="#C507D9"/>
        </linearGradient>
        <linearGradient id="paint16_linear_592_2324" x1="98.8945" y1="440.639" x2="486.935" y2="112.282" gradientUnits="userSpaceOnUse">
            <stop stop-color="#37A0E7"/>
            <stop offset="1" stop-color="#C507D9"/>
        </linearGradient>
        <linearGradient id="paint17_linear_592_2324" x1="99.4807" y1="450.307" x2="476.805" y2="96.3734" gradientUnits="userSpaceOnUse">
            <stop stop-color="#37A0E7"/>
            <stop offset="1" stop-color="#C507D9"/>
        </linearGradient>
        <linearGradient id="paint18_linear_592_2324" x1="100.074" y1="460.094" x2="466.694" y2="80.618" gradientUnits="userSpaceOnUse">
            <stop stop-color="#37A0E7"/>
            <stop offset="1" stop-color="#C507D9"/>
        </linearGradient>
        <linearGradient id="paint19_linear_592_2324" x1="100.698" y1="469.697" x2="456.568" y2="64.6588" gradientUnits="userSpaceOnUse">
            <stop stop-color="#37A0E7"/>
            <stop offset="1" stop-color="#C507D9"/>
        </linearGradient>
        <linearGradient id="paint20_linear_592_2324" x1="101.317" y1="479.342" x2="446.434" y2="48.7606" gradientUnits="userSpaceOnUse">
            <stop stop-color="#37A0E7"/>
            <stop offset="1" stop-color="#C507D9"/>
        </linearGradient>
        <linearGradient id="paint21_linear_592_2324" x1="101.924" y1="489.341" x2="436.395" y2="33.2196" gradientUnits="userSpaceOnUse">
            <stop stop-color="#37A0E7"/>
            <stop offset="1" stop-color="#C507D9"/>
        </linearGradient>
    </defs>
</svg>
