<svg width="863" height="981" viewBox="0 0 863 981" fill="none" xmlns="http://www.w3.org/2000/svg">
    <g opacity="0.2">
        <path d="M1140.98 555.259C1150.38 425.01 928.86 302.87 646.201 282.451C363.542 262.032 126.78 351.067 117.379 481.316C107.978 611.565 329.498 733.705 612.157 754.124C894.817 774.543 1131.58 685.508 1140.98 555.259Z" stroke="url(#paint0_linear_592_5627)" stroke-width="0.8" stroke-miterlimit="10"/>
        <path d="M1122.15 528.149C1125.84 400.806 904.759 291.077 628.354 283.063C351.949 275.05 124.888 371.785 121.199 499.128C117.51 626.471 338.59 736.2 614.995 744.213C891.401 752.227 1118.46 655.492 1122.15 528.149Z" stroke="url(#paint1_linear_592_5627)" stroke-width="0.8" stroke-miterlimit="10"/>
        <path d="M618.374 734.306C888.479 729.919 1105.81 625.473 1103.79 501.018C1101.77 376.564 881.167 279.23 611.061 283.616C340.956 288.003 123.629 392.449 125.649 516.903C127.668 641.358 348.269 738.692 618.374 734.306Z" stroke="url(#paint2_linear_592_5627)" stroke-width="0.8" stroke-miterlimit="10"/>
        <path d="M621.281 724.442C885.116 707.65 1092.73 595.49 1085 473.925C1077.27 352.359 857.122 267.423 593.288 284.214C329.453 301.005 121.839 413.165 129.569 534.731C137.299 656.297 357.446 741.233 621.281 724.442Z" stroke="url(#paint3_linear_592_5627)" stroke-width="0.8" stroke-miterlimit="10"/>
        <path d="M623.942 714.732C881.537 685.553 1079.47 565.706 1066.04 447.046C1052.61 328.387 832.903 255.849 575.308 285.029C317.713 314.209 119.778 434.056 133.208 552.715C146.637 671.374 366.346 743.912 623.942 714.732Z" stroke="url(#paint4_linear_592_5627)" stroke-width="0.8" stroke-miterlimit="10"/>
        <path d="M626.799 704.993C878.108 663.416 1066.32 535.842 1047.18 420.049C1028.04 304.256 808.794 244.091 557.485 285.668C306.177 327.245 117.968 454.818 137.108 570.612C156.249 686.405 375.491 746.569 626.799 704.993Z" stroke="url(#paint5_linear_592_5627)" stroke-width="0.8" stroke-miterlimit="10"/>
        <path d="M629.718 694.924C874.77 640.933 1053.28 505.661 1028.43 392.786C1003.58 279.911 784.788 232.176 539.736 286.167C294.685 340.157 116.174 475.429 141.022 588.305C165.87 701.18 384.667 748.915 629.718 694.924Z" stroke="url(#paint6_linear_592_5627)" stroke-width="0.8" stroke-miterlimit="10"/>
        <path d="M632.508 685.21C871.27 618.832 1040.05 475.845 1009.5 365.84C978.942 255.834 760.616 220.466 521.854 286.844C283.092 353.221 114.308 496.209 144.864 606.215C175.42 716.22 393.746 751.588 632.508 685.21Z" stroke="url(#paint7_linear_592_5627)" stroke-width="0.8" stroke-miterlimit="10"/>
        <path d="M635.732 674.641C868.202 595.83 1027.25 445.127 990.976 338.036C954.701 230.946 736.841 208.02 504.371 286.831C271.901 365.642 112.853 516.345 149.128 623.436C185.402 730.527 403.262 753.452 635.732 674.641Z" stroke="url(#paint8_linear_592_5627)" stroke-width="0.8" stroke-miterlimit="10"/>
        <path d="M638.505 665.015C864.723 573.808 1014.08 415.394 972.1 311.188C930.121 206.981 712.706 196.444 486.488 287.651C260.271 378.859 110.915 537.273 152.893 641.479C194.871 745.685 412.288 756.223 638.505 665.015Z" stroke="url(#paint9_linear_592_5627)" stroke-width="0.8" stroke-miterlimit="10"/>
        <path d="M641.259 655.517C861.205 551.927 1000.85 385.798 953.159 284.458C905.471 183.118 688.511 184.942 468.565 288.532C248.62 392.121 108.977 558.25 156.665 659.59C204.353 760.93 421.314 759.106 641.259 655.517Z" stroke="url(#paint10_linear_592_5627)" stroke-width="0.8" stroke-miterlimit="10"/>
        <path d="M644.311 645.222C857.972 529.212 987.885 355.362 934.479 256.918C881.073 158.473 664.573 172.713 450.912 288.723C237.251 404.733 107.339 578.582 160.745 677.027C214.15 775.471 430.651 761.232 644.311 645.222Z" stroke="url(#paint11_linear_592_5627)" stroke-width="0.8" stroke-miterlimit="10"/>
        <path d="M647.125 635.652C854.524 507.255 974.748 325.719 915.653 230.182C856.558 134.644 640.522 161.282 433.123 289.68C225.724 418.077 105.5 599.613 164.595 695.15C223.69 790.688 439.726 764.05 647.125 635.652Z" stroke="url(#paint12_linear_592_5627)" stroke-width="0.8" stroke-miterlimit="10"/>
        <path d="M639.964 639.998C841.268 500.007 952.232 311.358 887.808 218.638C823.384 125.919 607.969 164.24 406.665 304.231C205.361 444.222 94.3976 632.871 158.821 725.59C223.245 818.31 438.66 779.989 639.964 639.998Z" stroke="url(#paint13_linear_592_5627)" stroke-width="0.798919" stroke-miterlimit="10"/>
        <path d="M653.041 615.283C847.894 462.048 948.678 265.061 878.149 175.299C807.62 85.5377 592.486 136.993 397.633 290.228C202.78 443.462 101.995 640.45 172.525 730.211C243.054 819.973 458.188 768.518 653.041 615.283Z" stroke="url(#paint14_linear_592_5627)" stroke-width="0.8" stroke-miterlimit="10"/>
        <path d="M655.892 605.465C844.488 439.825 935.587 235.135 859.367 148.277C783.147 61.4189 568.471 125.285 379.875 290.925C191.278 456.566 100.179 661.256 176.399 748.114C252.619 834.972 467.295 771.105 655.892 605.465Z" stroke="url(#paint15_linear_592_5627)" stroke-width="0.8" stroke-miterlimit="10"/>
        <path d="M658.803 595.334C841.102 417.298 922.472 204.911 840.549 120.955C758.626 36.9983 544.432 113.265 362.133 291.301C179.835 469.337 98.4645 681.724 180.388 765.681C262.311 849.637 476.505 773.37 658.803 595.334Z" stroke="url(#paint16_linear_592_5627)" stroke-width="0.8" stroke-miterlimit="10"/>
        <path d="M661.698 585.411C837.73 394.966 909.386 174.854 821.747 93.7778C734.108 12.7018 520.36 101.363 344.328 291.809C168.296 482.254 96.6394 702.366 184.279 783.442C271.918 864.518 485.666 775.857 661.698 585.411Z" stroke="url(#paint17_linear_592_5627)" stroke-width="0.8" stroke-miterlimit="10"/>
        <path d="M664.536 575.682C834.305 372.841 896.275 145.032 802.949 66.8552C709.623 -11.3214 496.343 89.7387 326.574 292.58C156.805 495.42 94.8351 723.23 188.161 801.407C281.486 879.583 494.767 778.523 664.536 575.682Z" stroke="url(#paint18_linear_592_5627)" stroke-width="0.8" stroke-miterlimit="10"/>
        <path d="M667.45 565.626C830.935 350.384 883.185 114.866 784.152 39.5818C685.12 -35.7021 472.307 77.7568 308.821 292.999C145.336 508.242 93.0865 743.76 192.119 819.044C291.152 894.328 503.964 780.869 667.45 565.626Z" stroke="url(#paint19_linear_592_5627)" stroke-width="0.8" stroke-miterlimit="10"/>
        <path d="M670.348 555.67C827.549 328.036 870.079 84.8159 765.341 12.423C660.603 -59.9699 448.259 65.878 291.058 293.512C133.857 521.146 91.3267 764.366 196.065 836.759C300.803 909.151 513.146 783.304 670.348 555.67Z" stroke="url(#paint20_linear_592_5627)" stroke-width="0.8" stroke-miterlimit="10"/>
        <path d="M673.323 546.392C824.294 306.365 857.146 55.4204 746.698 -14.1081C636.251 -83.6365 424.329 54.5801 273.358 294.607C122.386 534.634 89.5352 785.579 199.983 855.107C310.43 924.636 522.352 786.419 673.323 546.392Z" stroke="url(#paint21_linear_592_5627)" stroke-width="0.8" stroke-miterlimit="10"/>
    </g>
    <defs>
        <linearGradient id="paint0_linear_592_5627" x1="513.259" y1="729.763" x2="553.596" y2="268.435" gradientUnits="userSpaceOnUse">
            <stop stop-color="#37A0E7"/>
            <stop offset="1" stop-color="#C507D9"/>
        </linearGradient>
        <linearGradient id="paint1_linear_592_5627" x1="517.562" y1="724.629" x2="537.471" y2="273.297" gradientUnits="userSpaceOnUse">
            <stop stop-color="#37A0E7"/>
            <stop offset="1" stop-color="#C507D9"/>
        </linearGradient>
        <linearGradient id="paint2_linear_592_5627" x1="160.452" y1="472.237" x2="1114.68" y2="524.569" gradientUnits="userSpaceOnUse">
            <stop stop-color="#37A0E7"/>
            <stop offset="1" stop-color="#C507D9"/>
        </linearGradient>
        <linearGradient id="paint3_linear_592_5627" x1="161.525" y1="489.457" x2="1096.74" y2="496.48" gradientUnits="userSpaceOnUse">
            <stop stop-color="#37A0E7"/>
            <stop offset="1" stop-color="#C507D9"/>
        </linearGradient>
        <linearGradient id="paint4_linear_592_5627" x1="162.324" y1="506.842" x2="1078.63" y2="468.637" gradientUnits="userSpaceOnUse">
            <stop stop-color="#37A0E7"/>
            <stop offset="1" stop-color="#C507D9"/>
        </linearGradient>
        <linearGradient id="paint5_linear_592_5627" x1="163.375" y1="524.123" x2="1060.61" y2="440.616" gradientUnits="userSpaceOnUse">
            <stop stop-color="#37A0E7"/>
            <stop offset="1" stop-color="#C507D9"/>
        </linearGradient>
        <linearGradient id="paint6_linear_592_5627" x1="164.444" y1="541.218" x2="1042.73" y2="412.388" gradientUnits="userSpaceOnUse">
            <stop stop-color="#37A0E7"/>
            <stop offset="1" stop-color="#C507D9"/>
        </linearGradient>
        <linearGradient id="paint7_linear_592_5627" x1="165.437" y1="558.515" x2="1024.65" y2="384.416" gradientUnits="userSpaceOnUse">
            <stop stop-color="#37A0E7"/>
            <stop offset="1" stop-color="#C507D9"/>
        </linearGradient>
        <linearGradient id="paint8_linear_592_5627" x1="166.847" y1="575.135" x2="1007" y2="355.623" gradientUnits="userSpaceOnUse">
            <stop stop-color="#37A0E7"/>
            <stop offset="1" stop-color="#C507D9"/>
        </linearGradient>
        <linearGradient id="paint9_linear_592_5627" x1="167.77" y1="592.569" x2="988.991" y2="327.775" gradientUnits="userSpaceOnUse">
            <stop stop-color="#37A0E7"/>
            <stop offset="1" stop-color="#C507D9"/>
        </linearGradient>
        <linearGradient id="paint10_linear_592_5627" x1="168.694" y1="610.067" x2="970.911" y2="300.016" gradientUnits="userSpaceOnUse">
            <stop stop-color="#37A0E7"/>
            <stop offset="1" stop-color="#C507D9"/>
        </linearGradient>
        <linearGradient id="paint11_linear_592_5627" x1="169.922" y1="626.897" x2="953.104" y2="271.461" gradientUnits="userSpaceOnUse">
            <stop stop-color="#37A0E7"/>
            <stop offset="1" stop-color="#C507D9"/>
        </linearGradient>
        <linearGradient id="paint12_linear_592_5627" x1="170.933" y1="644.421" x2="935.16" y2="243.729" gradientUnits="userSpaceOnUse">
            <stop stop-color="#37A0E7"/>
            <stop offset="1" stop-color="#C507D9"/>
        </linearGradient>
        <linearGradient id="paint13_linear_592_5627" x1="162.47" y1="674.335" x2="908.13" y2="231.219" gradientUnits="userSpaceOnUse">
            <stop stop-color="#37A0E7"/>
            <stop offset="1" stop-color="#C507D9"/>
        </linearGradient>
        <linearGradient id="paint14_linear_592_5627" x1="173.162" y1="678.262" x2="899.407" y2="186.792" gradientUnits="userSpaceOnUse">
            <stop stop-color="#37A0E7"/>
            <stop offset="1" stop-color="#C507D9"/>
        </linearGradient>
        <linearGradient id="paint15_linear_592_5627" x1="174.198" y1="695.562" x2="881.515" y2="158.76" gradientUnits="userSpaceOnUse">
            <stop stop-color="#37A0E7"/>
            <stop offset="1" stop-color="#C507D9"/>
        </linearGradient>
        <linearGradient id="paint16_linear_592_5627" x1="175.338" y1="712.527" x2="863.569" y2="130.4" gradientUnits="userSpaceOnUse">
            <stop stop-color="#37A0E7"/>
            <stop offset="1" stop-color="#C507D9"/>
        </linearGradient>
        <linearGradient id="paint17_linear_592_5627" x1="176.38" y1="729.676" x2="845.634" y2="102.178" gradientUnits="userSpaceOnUse">
            <stop stop-color="#37A0E7"/>
            <stop offset="1" stop-color="#C507D9"/>
        </linearGradient>
        <linearGradient id="paint18_linear_592_5627" x1="177.424" y1="747.038" x2="827.719" y2="74.2286" gradientUnits="userSpaceOnUse">
            <stop stop-color="#37A0E7"/>
            <stop offset="1" stop-color="#C507D9"/>
        </linearGradient>
        <linearGradient id="paint19_linear_592_5627" x1="178.534" y1="764.07" x2="809.788" y2="45.9075" gradientUnits="userSpaceOnUse">
            <stop stop-color="#37A0E7"/>
            <stop offset="1" stop-color="#C507D9"/>
        </linearGradient>
        <linearGradient id="paint20_linear_592_5627" x1="179.632" y1="781.179" x2="791.835" y2="17.6977" gradientUnits="userSpaceOnUse">
            <stop stop-color="#37A0E7"/>
            <stop offset="1" stop-color="#C507D9"/>
        </linearGradient>
        <linearGradient id="paint21_linear_592_5627" x1="180.709" y1="798.912" x2="774.048" y2="-9.88299" gradientUnits="userSpaceOnUse">
            <stop stop-color="#37A0E7"/>
            <stop offset="1" stop-color="#C507D9"/>
        </linearGradient>
    </defs>
</svg>
