<svg width="179" height="40" viewBox="0 0 179 40" fill="none" xmlns="http://www.w3.org/2000/svg">
    <g clip-path="url(#clip0_801_3836)">
        <path d="M37.7589 26.4772C35.0638 34.4918 27.6852 39.877 19.3909 39.877C17.2512 39.877 15.1373 39.5125 13.0991 38.7955C5.12929 35.9929 -0.0777482 28.2655 -0.000120338 19.8333C0.00386058 19.4728 0.300439 19.1856 0.654741 19.208H0.660712C0.748292 19.212 1.31159 19.3322 1.38524 19.3709C1.58827 19.4748 1.24591 19.595 1.24193 19.8455C1.1643 27.7379 6.03893 34.9705 13.5032 37.5959C15.41 38.268 17.3925 38.6081 19.3909 38.6081C19.3929 38.6081 19.3929 38.6081 19.3929 38.6081C23.7341 38.6081 27.9479 37.0072 31.2561 34.1008L31.3914 33.9827C31.7656 33.6486 32.1259 33.2983 32.4682 32.9337C32.2433 33.1374 32.0124 33.335 31.7756 33.5264C28.7302 35.9889 24.9364 37.3392 21.0868 37.3392C19.1919 37.3392 17.3189 37.0174 15.5155 36.382C11.7774 35.0682 8.57478 32.4469 6.49674 29.0028C4.86854 26.3061 3.98478 23.2061 3.92307 20.0716C3.9171 19.7029 4.21965 19.4076 4.57794 19.43H4.58391C4.64362 19.4341 5.17905 19.5481 5.2328 19.5705C5.46767 19.6561 5.16114 19.7783 5.16512 20.0471C5.29251 26.7888 9.55209 32.9398 15.9196 35.1803C17.5916 35.7689 19.3292 36.0663 21.0848 36.0663C24.9125 36.0663 28.6227 34.6507 31.5307 32.0803C31.903 31.7504 32.2612 31.4041 32.5996 31.0436C32.4185 31.2065 32.2294 31.3654 32.0383 31.5182C29.4029 33.6344 26.1147 34.7994 22.7807 34.7994C21.1326 34.7994 19.5004 34.5183 17.9299 33.9684C14.6934 32.8278 12.0163 30.6648 10.1791 27.7094C8.7997 25.4832 8.00352 22.923 7.86219 20.318C7.84229 19.9432 8.14683 19.6337 8.51307 19.654H8.51705C8.59269 19.6581 9.10623 19.764 9.17192 19.7946C9.38091 19.8903 9.08633 20.0105 9.10026 20.2549C9.38689 25.9028 12.9737 30.8766 18.336 32.7626C19.7771 33.2678 21.2739 33.5244 22.7827 33.5244C26.0968 33.5244 29.3034 32.2942 31.8114 30.0578L31.8432 30.0313C32.1657 29.7421 32.4762 29.4366 32.7708 29.1168C32.6235 29.2472 32.4702 29.3735 32.315 29.4957C30.0797 31.2778 27.297 32.2596 24.4746 32.2596C23.0713 32.2596 21.682 32.0212 20.3483 31.5508C15.625 29.8908 12.3328 25.5423 11.8272 20.5706C11.7874 20.1856 12.0999 19.8577 12.4781 19.8781L12.484 19.8801C12.5656 19.8842 13.1031 19.9962 13.1727 20.0288C13.3618 20.1225 13.0394 20.2202 13.0633 20.4443C13.525 24.9272 16.4948 28.85 20.7524 30.3491C21.9586 30.7727 23.2106 30.9886 24.4766 30.9886C27.2751 30.9886 29.9762 29.9438 32.0861 28.0435C32.3807 27.7787 32.6613 27.4976 32.928 27.2023C32.8126 27.3021 32.6972 27.3958 32.5777 27.4895C30.7465 28.9274 28.4714 29.7197 26.1744 29.7197C25.016 29.7197 23.8715 29.5221 22.7668 29.1331C19.1083 27.8479 16.4988 24.6482 15.8419 20.8516C15.7723 20.4484 16.0848 20.0817 16.4849 20.1041H16.4908C16.5565 20.1082 17.1278 20.2345 17.1855 20.2569C17.3845 20.3343 17.0263 20.4015 17.0641 20.6256C17.6433 23.972 19.9522 26.799 23.1708 27.9294C24.1422 28.2716 25.1513 28.4447 26.1704 28.4447C27.311 28.4447 28.4296 28.2308 29.4786 27.8194C30.5276 27.41 31.5029 26.8051 32.3568 26.025C32.5359 25.8621 32.7071 25.6951 32.8703 25.5179C31.4551 26.5912 29.6955 27.1839 27.9081 27.1839C26.9766 27.1839 26.063 27.0291 25.1832 26.7175C22.6294 25.8193 20.7086 23.7316 19.9522 21.1592C19.8288 20.7355 20.1473 20.3139 20.5772 20.3363H20.5852C20.6608 20.3404 21.2222 20.4626 21.2878 20.4911C21.4511 20.5645 21.0888 20.6072 21.1425 20.7885C21.7914 22.976 23.4276 24.7541 25.5872 25.5138C26.3257 25.7725 27.094 25.9049 27.8683 25.9049C29.6338 25.9049 31.3277 25.2307 32.6335 24.0045L32.6653 23.9781C33.5073 23.1776 34.1522 22.1654 34.5304 21.0451C35.6988 17.5623 34.1263 13.7576 30.8699 12.1954C30.645 12.0854 30.4081 11.9876 30.1613 11.9021C29.4228 11.6394 28.6565 11.509 27.8802 11.509C25.5096 11.509 23.3261 12.7392 22.0402 14.6925C21.873 14.9471 22.088 15.1976 21.8034 15.0611C21.674 15 21.1366 14.89 20.9833 14.6436C20.8619 14.4501 20.8897 14.1772 21.0331 13.9592C22.5478 11.674 25.1016 10.2442 27.8962 10.2442C28.8098 10.2442 29.7135 10.399 30.5833 10.7045C30.6231 10.7167 30.6808 10.7391 30.7206 10.7534C30.7983 10.7819 30.8759 10.8104 30.9515 10.843C30.6629 10.6637 30.3623 10.5028 30.0558 10.3582C29.7712 10.2279 29.4806 10.1097 29.1939 10.0059C28.2226 9.66573 27.2114 9.49261 26.1923 9.49261C23.0514 9.49261 20.1234 11.1628 18.4355 13.7902C18.2922 14.0142 18.6007 14.2485 18.3459 14.1853L17.7647 14.055C17.5876 14.0101 17.4502 13.892 17.3686 13.7454C17.2631 13.5498 17.2592 13.3014 17.3905 13.0956C19.3053 10.1118 22.6175 8.21963 26.1923 8.21963C27.3229 8.21963 28.4435 8.40905 29.5264 8.77974C29.4049 8.7166 29.2835 8.6555 29.1601 8.59847C28.9889 8.53737 28.8237 8.45182 28.6605 8.36831C28.5052 8.28888 28.3599 8.21352 28.2087 8.16056C26.9925 7.73284 25.7305 7.51491 24.4586 7.51491C20.4956 7.51491 16.8969 9.56797 14.8228 12.8838C14.787 12.9408 14.7432 12.9918 14.6934 13.0325L14.6238 13.2565C14.5681 13.2341 14.2973 13.1771 14.0446 13.0549C13.7301 12.9021 13.5887 12.505 13.7719 12.2056C13.7739 12.2015 13.7758 12.2015 13.7758 12.1995C14.7173 10.6923 15.9594 9.39892 17.4383 8.39479C19.5462 6.96295 21.9865 6.20731 24.5004 6.20731C25.9037 6.20731 27.2931 6.44561 28.6287 6.91406C28.7481 6.95684 28.8655 7.00165 28.983 7.04645C29.172 7.11774 29.3611 7.19718 29.5463 7.28068C29.1561 7.05257 28.7501 6.84481 28.3341 6.65947C27.9897 6.50264 27.6255 6.35599 27.2532 6.2236C25.8122 5.71848 24.3173 5.46185 22.8085 5.46185C18.0494 5.46185 13.6962 7.963 11.2121 11.9836C11.0708 12.2117 11.3336 12.4418 11.0748 12.3767L10.5374 12.2545C10.3483 12.2056 10.207 12.0793 10.1313 11.9225C10.0398 11.731 10.0398 11.4947 10.1652 11.2951C12.8742 6.91203 17.6095 4.18887 22.8085 4.18887C24.4566 4.18887 26.0868 4.46791 27.6573 5.02191C27.8185 5.07894 27.9798 5.13597 28.139 5.19911C28.3699 5.29076 28.5988 5.38649 28.8257 5.48833C28.3918 5.24188 27.9439 5.0158 27.4861 4.81212C27.096 4.63696 26.6939 4.47606 26.2859 4.33349C24.6119 3.74486 22.8722 3.44546 21.1187 3.44546C15.5752 3.44546 10.4896 6.38043 7.60343 11.0854C7.4641 11.3135 7.75869 11.5477 7.50391 11.4846L6.93066 11.3562C6.73559 11.3074 6.59029 11.1709 6.51465 11.0039C6.43304 10.8185 6.43702 10.5945 6.55446 10.401C9.65958 5.33354 15.1313 2.17452 21.1167 2.17452C23.0116 2.17452 24.8846 2.49632 26.6899 3.13179C26.8989 3.20308 27.086 3.27437 27.2652 3.34769H27.2732L27.3209 3.36806C27.6036 3.48008 27.8822 3.60025 28.1549 3.72653C27.6852 3.46379 27.2055 3.22141 26.7118 2.9994L26.7079 2.99737L26.6501 2.97089C26.2242 2.77943 25.7743 2.60224 25.3165 2.44133C23.4077 1.7692 21.4272 1.4311 19.4268 1.4311C13.1031 1.43313 7.277 4.7999 3.99672 10.1851C3.85739 10.4173 3.86734 10.5843 3.86734 10.5843C3.67825 10.5375 3.06718 10.4132 2.91391 10.126C2.81638 9.94477 2.82036 9.71258 2.93979 9.51501C6.44499 3.75504 12.6572 0.160156 19.4248 0.160156C21.5625 0.160156 23.6804 0.5227 25.7166 1.24168C35.8381 4.80194 41.2382 16.1223 37.7589 26.4772Z" fill="url(#paint0_linear_801_3836)"/>
        <path d="M29.2317 20.8275C29.2576 20.8397 29.2835 20.8499 29.3094 20.8581C29.5064 20.9273 30.1613 21.0821 30.3683 21.0821C31.1665 21.0821 31.4272 20.4426 31.688 19.6706C32.0223 18.6726 31.9069 17.6624 30.9316 17.3182C30.8241 17.2795 30.3106 17.1715 30.1991 17.1552C30.1055 17.141 30.012 17.1328 29.9184 17.1328C29.1203 17.1328 28.4077 17.6522 28.1489 18.4262C27.9857 18.9089 28.0175 19.4282 28.2365 19.8886C28.4455 20.3224 28.7958 20.6523 29.2317 20.8275Z" fill="url(#paint1_linear_801_3836)"/>
        <path d="M26.2621 1.36464C24.2238 0.6477 22.108 0.285156 19.9702 0.285156C13.2007 0.285156 6.98844 3.88004 3.48324 9.64001C3.2623 10.0046 3.45936 10.4832 3.86541 10.5851L3.87337 10.5871C4.13014 10.6502 4.40085 10.5423 4.54217 10.3121C7.82046 4.9249 13.6465 1.55813 19.9682 1.55813C21.9686 1.55813 23.9491 1.89827 25.858 2.56837C26.3158 2.72927 26.7656 2.90647 27.1936 3.09793L27.2513 3.1244L27.2553 3.12644C27.7489 3.34845 28.2286 3.59082 28.6984 3.85357C29.8369 4.49107 30.8998 5.25079 31.8712 6.11845C33.1749 7.2794 34.3174 8.63589 35.2609 10.1553C35.5754 10.6584 35.862 11.1737 36.1268 11.6971C37.8883 15.1963 38.5313 19.0926 37.966 22.8158V22.8179C37.8565 23.5491 37.6992 24.2721 37.4962 24.985C37.4285 25.1887 37.3688 25.3944 37.3131 25.594C37.2574 25.7915 37.1996 25.9932 37.1339 26.1887C36.6881 27.5126 36.1009 28.7754 35.3823 29.9547C34.7056 31.0708 33.9114 32.1116 33.0177 33.0587C32.6733 33.4213 32.315 33.7716 31.9408 34.1056L31.8055 34.2238C28.4973 37.1302 24.2835 38.7311 19.9424 38.7311C19.9424 38.7311 19.9424 38.7311 19.9404 38.7311C17.9419 38.7311 15.9594 38.391 14.0506 37.7209C6.58637 35.0934 1.71373 27.8629 1.79135 19.9705C1.79135 19.6303 1.53459 19.3493 1.20417 19.3309H1.1982C0.845886 19.3106 0.547318 19.5957 0.543337 19.9583C0.465709 28.3905 5.67275 36.1179 13.6425 38.9226C15.6808 39.6395 17.7966 40.002 19.9344 40.002C28.2266 40.002 35.6073 34.6168 38.3004 26.6022C41.7817 16.2452 36.3816 4.9249 26.2621 1.36464Z" fill="url(#paint2_linear_801_3836)"/>
        <path d="M35.7328 9.83273C34.6977 8.30923 33.4497 6.97923 32.0305 5.87734C31.0034 5.07689 29.8868 4.39865 28.6965 3.8528C28.4218 3.72652 28.1451 3.60838 27.8625 3.49432L27.8147 3.47192H27.8068C27.6296 3.40063 27.4425 3.33138 27.2315 3.25806C25.4262 2.62259 23.5532 2.30078 21.6582 2.30078C15.6729 2.30078 10.2012 5.4598 7.09604 10.5273C6.87111 10.8939 7.06021 11.3807 7.47223 11.4825L7.4802 11.4845C7.73696 11.5497 8.00767 11.4377 8.14899 11.2075C11.0332 6.50466 16.1188 3.57172 21.6602 3.57172C23.4158 3.57172 25.1535 3.87113 26.8275 4.45975C27.2355 4.60232 27.6396 4.76323 28.0277 4.93839C28.4875 5.14207 28.9354 5.36815 29.3673 5.6146C30.3645 6.17878 31.294 6.84684 32.142 7.61062C33.2785 8.629 34.2718 9.81644 35.0958 11.1464C35.3665 11.5843 35.6153 12.0324 35.8422 12.4907C37.3888 15.611 37.9223 19.1693 37.357 22.6012C37.2734 23.1022 37.1679 23.6033 37.0385 24.1003C36.945 24.4587 36.8355 24.8233 36.7141 25.1797C36.3299 26.3244 35.8223 27.4181 35.2033 28.4406C34.6141 29.4203 33.9234 30.3328 33.1452 31.1638C32.8048 31.5263 32.4485 31.8705 32.0763 32.2005C29.1682 34.7709 25.458 36.1864 21.6284 36.1864C19.8728 36.1864 18.1351 35.889 16.4631 35.2984C10.0976 33.06 5.83807 26.911 5.71068 20.1693C5.70471 19.8373 5.45192 19.5664 5.12747 19.5481H5.1215C4.76322 19.5277 4.46067 19.8231 4.46664 20.1917C4.52834 23.3243 5.41211 26.4262 7.0403 29.1229C9.11834 32.5671 12.321 35.1864 16.0571 36.5021C17.8604 37.1376 19.7335 37.4574 21.6284 37.4574C25.4779 37.4574 29.2717 36.107 32.3171 33.6445C32.554 33.4531 32.7849 33.2555 33.0098 33.0518C33.9971 32.1638 34.8729 31.1699 35.6313 30.0863C36.5867 28.7176 37.349 27.2063 37.8904 25.5932C37.9143 25.524 37.9382 25.4527 37.9601 25.3814C37.982 25.3121 38.0059 25.2408 38.0298 25.1716L38.0357 25.1533C39.5684 19.8231 38.7284 14.2383 35.7328 9.83273Z" fill="url(#paint3_linear_801_3836)"/>
        <path d="M36.1248 11.6956C35.9516 11.4003 35.7645 11.111 35.5695 10.8239C34.6578 9.49386 33.5611 8.3329 32.3111 7.37563C32.3111 7.37359 32.3111 7.37359 32.3091 7.37359C31.4014 6.67701 30.4162 6.08635 29.3672 5.61586C29.1423 5.51402 28.9114 5.4183 28.6805 5.32664C28.5212 5.2635 28.362 5.20647 28.1988 5.14944C26.6283 4.59748 24.9981 4.31641 23.35 4.31641C18.151 4.31641 13.4157 7.03956 10.7066 11.4227C10.4797 11.7913 10.6668 12.2781 11.0808 12.382L11.0888 12.384C11.3456 12.4472 11.6143 12.3392 11.7556 12.1111C14.2397 8.09053 18.5928 5.58938 23.352 5.58938C24.8628 5.58938 26.3576 5.84602 27.7987 6.35317C28.1729 6.48352 28.5352 6.63017 28.8815 6.787C29.2955 6.97438 29.7016 7.1801 30.0917 7.40821C30.9357 7.895 31.7239 8.4714 32.4425 9.12724C33.4038 10.003 34.2458 11.0214 34.9425 12.1559C35.1813 12.5449 35.4003 12.9462 35.5993 13.3535C36.8812 15.983 37.329 18.9689 36.8752 21.857C36.8055 22.3071 36.712 22.7552 36.5965 23.1992C36.5109 23.5312 36.4134 23.8632 36.3059 24.181C35.9875 25.1321 35.5695 26.0405 35.0619 26.8939C34.5623 27.7351 33.9771 28.5233 33.3163 29.2403C33.0217 29.5601 32.7112 29.8656 32.3887 30.1528L32.3589 30.1813C29.8489 32.4176 26.6423 33.6478 23.3281 33.6478C21.8174 33.6478 20.3206 33.3912 18.8815 32.8841C13.5192 30.998 9.93434 26.0222 9.64572 20.3743C9.6298 20.0504 9.379 19.7917 9.06252 19.7734H9.06053C8.69428 19.753 8.38775 20.0606 8.40766 20.4333C8.54898 23.0383 9.34516 25.6006 10.7265 27.8268C12.5617 30.7821 15.2409 32.9472 18.4754 34.0857C20.0459 34.6377 21.678 34.9167 23.3261 34.9167C26.6602 34.9167 29.9484 33.7517 32.5838 31.6355C32.7749 31.4828 32.964 31.3239 33.1451 31.161C34.0269 30.3809 34.8091 29.501 35.4819 28.5417C36.3278 27.34 37.0006 26.01 37.4783 24.5883C37.5161 24.4783 37.55 24.3704 37.5838 24.2624C37.7331 23.7818 37.8585 23.299 37.962 22.8143C37.962 22.8123 37.962 22.8123 37.962 22.8123C38.7701 18.9994 38.1212 15.0583 36.1248 11.6956Z" fill="url(#paint4_linear_801_3836)"/>
        <path d="M35.8442 12.4951C35.7089 12.2711 35.5656 12.0511 35.4163 11.8332C34.632 10.6966 33.6866 9.70678 32.6137 8.89411C31.8354 8.30549 30.9915 7.80648 30.0918 7.40931C29.9067 7.3258 29.7176 7.24637 29.5285 7.17508C29.4111 7.13028 29.2936 7.08547 29.1742 7.04269C27.8386 6.5722 26.4493 6.33594 25.046 6.33594C22.532 6.33594 20.0917 7.09158 17.9858 8.52342C16.5069 9.52958 15.2649 10.8229 14.3214 12.3301C14.0925 12.6947 14.2856 13.1835 14.6976 13.2874L14.7056 13.2894C14.9603 13.3526 15.229 13.2446 15.3704 13.0186C17.4444 9.70271 21.0432 7.64965 25.0042 7.64965C26.2781 7.64965 27.54 7.86758 28.7562 8.2953C28.9075 8.34826 29.0528 8.42362 29.208 8.50305C29.3693 8.58656 29.5345 8.67007 29.7057 8.73117C29.8291 8.79024 29.9525 8.85134 30.0739 8.91448C30.7944 9.28313 31.4652 9.71289 32.0803 10.1936C33.1631 11.0429 34.0727 12.0572 34.7654 13.1978L34.7734 13.2121L34.841 13.2976C34.859 13.32 34.8749 13.3444 34.8908 13.3709C34.9863 13.5339 35.0779 13.7009 35.1635 13.8679C35.1655 13.8679 35.1655 13.8699 35.1655 13.8699C35.6313 14.7681 35.9776 15.7193 36.2045 16.697C36.3996 17.5483 36.5031 18.418 36.511 19.2918C36.521 20.2002 36.4274 21.1106 36.2264 22.0027C36.2045 22.1046 36.1786 22.2084 36.1528 22.3103C36.0831 22.5995 35.9995 22.8846 35.896 23.1881C35.6412 23.9478 35.3108 24.675 34.9127 25.3593C34.5047 26.0661 34.025 26.726 33.4776 27.3289C33.2128 27.6242 32.9322 27.9053 32.6356 28.17C30.5277 30.0683 27.8247 31.1152 25.0281 31.1152C23.7641 31.1152 22.5101 30.9013 21.3039 30.4757C17.0463 28.9786 14.0766 25.0558 13.6148 20.5709C13.5829 20.2613 13.3381 20.021 13.0356 20.0047H13.0296C12.6474 19.9823 12.3389 20.3163 12.3787 20.7073C12.8883 25.673 16.1785 30.0174 20.8999 31.6773C22.2355 32.1478 23.6248 32.3861 25.0281 32.3861C27.8486 32.3861 30.6312 31.4065 32.8685 29.6243C33.0238 29.5021 33.175 29.3758 33.3243 29.2455C34.0727 28.5917 34.7395 27.8564 35.3148 27.0519C36.0632 26.005 36.6583 24.842 37.0763 23.5975C37.1022 23.5221 37.1261 23.4468 37.15 23.3694C37.2296 23.1168 37.3013 22.8643 37.3649 22.6097C38.2169 19.1879 37.6635 15.5095 35.8442 12.4951Z" fill="url(#paint5_linear_801_3836)"/>
        <path d="M35.5973 13.354C35.4898 13.1809 35.3783 13.0078 35.2609 12.8408L35.2489 12.8224C34.4309 11.6554 33.4058 10.6798 32.2294 9.94041C31.6442 9.57175 31.0192 9.26216 30.3644 9.01571C30.2907 8.9872 30.2151 8.95869 30.1414 8.93221C30.1175 8.92406 30.0936 8.91388 30.0678 8.90777C28.987 8.53504 27.8643 8.34766 26.7338 8.34766C23.1589 8.34766 19.8468 10.2398 17.9319 13.2237C17.6991 13.5882 17.8921 14.0791 18.3062 14.183L18.3141 14.185C18.5669 14.2482 18.8316 14.1422 18.9749 13.9182C20.6629 11.2887 23.5908 9.62063 26.7318 9.62063C27.7529 9.62063 28.762 9.79376 29.7354 10.1359C30.022 10.2378 30.3126 10.3559 30.5972 10.4883C30.9058 10.6329 31.2043 10.7938 31.4929 10.973C32.0204 11.2969 32.5121 11.6717 32.9639 12.0973C33.6068 12.6961 34.1681 13.3948 34.6299 14.1708C35.9317 16.3644 36.3138 18.9307 35.7067 21.4013C35.643 21.6599 35.5694 21.9227 35.4818 22.1814C35.233 22.9187 34.8986 23.6213 34.4846 24.269C34.1701 24.7619 33.8138 25.2222 33.4157 25.6479C33.2525 25.8231 33.0813 25.9921 32.9042 26.1551C32.0503 26.9352 31.073 27.5421 30.026 27.9515C28.977 28.3609 27.8584 28.5768 26.7178 28.5768C25.6987 28.5768 24.6896 28.4037 23.7182 28.0615C20.5016 26.9311 18.1927 24.1061 17.6135 20.7617C17.5637 20.4705 17.3268 20.2525 17.0382 20.2362H17.0323C16.6342 20.2138 16.3177 20.5764 16.3873 20.9776C17.0422 24.7762 19.6537 27.98 23.3141 29.2652C24.4169 29.6542 25.5634 29.8498 26.7198 29.8498C29.0168 29.8498 31.2919 29.0575 33.1251 27.6195C33.2426 27.5258 33.36 27.4321 33.4754 27.3323C34.1084 26.7926 34.6737 26.1816 35.1574 25.5115C35.7983 24.6295 36.3059 23.6499 36.6602 22.5928C36.6761 22.5459 36.692 22.4991 36.702 22.4645C36.7657 22.2649 36.8254 22.0653 36.8751 21.8636C37.6216 18.9796 37.1558 15.8816 35.5973 13.354Z" fill="url(#paint6_linear_801_3836)"/>
        <path d="M36.505 16.7258C36.2363 15.7156 35.7865 14.744 35.1595 13.8641C35.1595 13.8641 35.1595 13.8621 35.1575 13.8621C34.5962 13.0698 33.9075 12.3916 33.1232 11.8477C32.6177 11.4974 32.0723 11.2021 31.4931 10.9699C31.4174 10.9373 31.3398 10.9088 31.2622 10.8803C31.2224 10.864 31.1646 10.8436 31.1248 10.8314C30.255 10.5259 29.3513 10.3711 28.4377 10.3711C25.6351 10.3711 23.0754 11.8111 21.5607 14.1086C21.3178 14.4772 21.501 14.9803 21.9229 15.0842C22.1757 15.1473 22.4365 15.0394 22.5818 14.8194C23.8696 12.8661 26.0511 11.6359 28.4238 11.6359C29.2 11.6359 29.9664 11.7663 30.7048 12.029C30.9517 12.1146 31.1885 12.2144 31.4114 12.3223C34.6658 13.8845 36.2403 17.6892 35.0699 21.1721C34.6937 22.2902 34.0488 23.3045 33.2068 24.103L33.175 24.1315C31.8693 25.3576 30.1754 26.0318 28.4118 26.0318C27.6375 26.0318 26.8712 25.9014 26.1328 25.6407C23.9711 24.881 22.3369 23.1029 21.6881 20.9154C21.6124 20.6588 21.3915 20.4775 21.1307 20.4633H21.1248C20.6928 20.4388 20.3744 20.8625 20.4998 21.2841C21.2581 23.8565 23.1789 25.9442 25.7307 26.8424C26.6085 27.152 27.5241 27.3088 28.4536 27.3088C30.2411 27.3088 32.0006 26.7182 33.4158 25.6448C33.4278 25.6366 33.4397 25.6265 33.4537 25.6163C33.9194 25.2578 34.3414 24.8647 34.7156 24.4411C35.3665 23.7078 35.8741 22.885 36.2204 22.001C36.2702 21.8768 36.3159 21.7525 36.3597 21.6283L36.3677 21.6059C36.6364 20.8014 36.7797 19.9622 36.7976 19.121C36.8116 18.3145 36.714 17.51 36.505 16.7258Z" fill="url(#paint7_radial_801_3836)"/>
        <path d="M32.2333 19.7956C31.9726 20.5696 31.262 21.089 30.4638 21.089C30.2568 21.089 30.0518 21.0523 29.8547 20.9831C29.8269 20.9749 29.801 20.9647 29.7771 20.9525C29.3412 20.7773 28.9909 20.4453 28.7839 20.0136C28.5649 19.5532 28.5331 19.0339 28.6963 18.5512C28.955 17.7772 29.6676 17.2578 30.4658 17.2578C30.5593 17.2578 30.6549 17.266 30.7465 17.2802C30.8559 17.2985 30.9654 17.323 31.0729 17.3617C32.0462 17.7059 32.5677 18.7976 32.2333 19.7956Z" fill="url(#paint8_linear_801_3836)"/>
        <path d="M53.3302 33.2016H51.9707V26.6228H49.5344V25.3438H55.7666V26.6228H53.3302V33.2016Z" fill="white"/>
        <path d="M68.3603 26.5882H64.0151V28.6087H67.8667V29.8552H64.0151V31.9551H68.414V33.2016H62.6755V25.3438H68.3583V26.5882H68.3603Z" fill="white"/>
        <path d="M81.5749 32.525C81.36 32.694 81.1271 32.8386 80.8783 32.9629C80.6295 33.0871 80.3568 33.1808 80.0602 33.2439C79.7636 33.3071 79.4372 33.3397 79.0789 33.3397C78.5156 33.3397 77.9961 33.2358 77.5204 33.026C77.0447 32.8162 76.6326 32.5311 76.2863 32.1665C75.938 31.8039 75.6673 31.3742 75.4682 30.8813C75.2712 30.3884 75.1716 29.8568 75.1716 29.2865C75.1716 28.7244 75.2692 28.1968 75.4622 27.7039C75.6553 27.211 75.928 26.7772 76.2803 26.4065C76.6306 26.0358 77.0486 25.7446 77.5303 25.5307C78.012 25.3168 78.5474 25.2109 79.1326 25.2109C79.483 25.2109 79.8034 25.2415 80.092 25.3006C80.3807 25.3596 80.6454 25.4452 80.8882 25.5531C81.1291 25.6611 81.352 25.7914 81.557 25.9401C81.762 26.0908 81.9551 26.2538 82.1382 26.433L81.2704 27.4555C80.9639 27.1642 80.6374 26.9279 80.2951 26.7487C79.9507 26.5695 79.5606 26.4798 79.1207 26.4798C78.7545 26.4798 78.4161 26.5532 78.1056 26.6978C77.7951 26.8444 77.5263 27.042 77.2994 27.2925C77.0725 27.543 76.8974 27.8363 76.772 28.1744C76.6486 28.5105 76.5849 28.8751 76.5849 29.2641C76.5849 29.6531 76.6466 30.0177 76.772 30.3578C76.8954 30.698 77.0725 30.9953 77.2994 31.2499C77.5263 31.5045 77.7951 31.7041 78.1056 31.8508C78.4161 31.9974 78.7545 32.0687 79.1207 32.0687C79.5885 32.0687 79.9905 31.9771 80.3269 31.7938C80.6633 31.6104 80.9957 31.362 81.3261 31.0463L82.194 31.9445C81.9969 32.1624 81.7899 32.3559 81.5749 32.525Z" fill="white"/>
        <path d="M90.4323 29.8898V33.2016H89.0947V25.3438H90.4323V28.6107H94.1186V25.3438H95.4562V33.2016H94.1186V29.8898H90.4323Z" fill="white"/>
        <path d="M108.271 25.3438H109.608V33.2016H108.48L104.254 27.6107V33.2016H102.917V25.3438H104.165L108.271 30.7778V25.3438Z" fill="white"/>
        <path d="M124.463 30.8326C124.266 31.3275 123.987 31.7593 123.629 32.13C123.271 32.5007 122.847 32.794 122.357 33.0119C121.868 33.2298 121.326 33.3378 120.733 33.3378C120.14 33.3378 119.599 33.2319 119.109 33.018C118.619 32.8042 118.199 32.5149 117.847 32.1483C117.497 31.7817 117.222 31.3519 117.025 30.857C116.828 30.3621 116.728 29.8386 116.728 29.2846C116.728 28.7306 116.828 28.2072 117.025 27.7122C117.222 27.2194 117.501 26.7855 117.859 26.4148C118.217 26.0441 118.641 25.7508 119.131 25.5329C119.62 25.315 120.162 25.207 120.755 25.207C121.348 25.207 121.888 25.3129 122.379 25.5268C122.869 25.7407 123.291 26.0299 123.641 26.3965C123.991 26.7631 124.266 27.1929 124.463 27.6878C124.66 28.1807 124.76 28.7062 124.76 29.2602C124.76 29.8142 124.66 30.3376 124.463 30.8326ZM123.153 28.199C123.026 27.8589 122.847 27.5615 122.616 27.3069C122.385 27.0523 122.11 26.8507 121.788 26.7C121.466 26.5513 121.115 26.4759 120.735 26.4759C120.355 26.4759 120.005 26.5493 119.688 26.6939C119.372 26.8385 119.097 27.0381 118.87 27.2886C118.643 27.5391 118.466 27.8345 118.339 28.1746C118.211 28.5147 118.147 28.8752 118.147 29.2582C118.147 29.639 118.211 30.0016 118.339 30.3417C118.466 30.6819 118.645 30.9792 118.876 31.2338C119.107 31.4884 119.382 31.69 119.704 31.8408C120.026 31.9915 120.377 32.0648 120.757 32.0648C121.137 32.0648 121.487 31.9915 121.804 31.8469C122.122 31.7002 122.395 31.5027 122.622 31.2521C122.849 31.0016 123.026 30.7063 123.153 30.3662C123.281 30.026 123.345 29.6635 123.345 29.2826C123.345 28.9017 123.281 28.5412 123.153 28.199Z" fill="white"/>
        <path d="M131.88 25.3438H133.217V31.9551H137.254V33.2016H131.878V25.3438H131.88Z" fill="white"/>
        <path d="M151.112 30.8326C150.915 31.3275 150.636 31.7593 150.278 32.13C149.919 32.5007 149.495 32.794 149.006 33.0119C148.516 33.2298 147.975 33.3378 147.382 33.3378C146.788 33.3378 146.247 33.2319 145.757 33.018C145.268 32.8042 144.848 32.5149 144.495 32.1483C144.145 31.7817 143.87 31.3519 143.673 30.857C143.476 30.3621 143.377 29.8386 143.377 29.2846C143.377 28.7306 143.476 28.2072 143.673 27.7122C143.87 27.2194 144.149 26.7855 144.507 26.4148C144.866 26.0441 145.29 25.7508 145.779 25.5329C146.269 25.315 146.81 25.207 147.403 25.207C147.997 25.207 148.536 25.3129 149.028 25.5268C149.517 25.7407 149.939 26.0299 150.29 26.3965C150.64 26.7631 150.915 27.1929 151.112 27.6878C151.309 28.1807 151.408 28.7062 151.408 29.2602C151.408 29.8142 151.309 30.3376 151.112 30.8326ZM149.8 28.199C149.673 27.8589 149.493 27.5615 149.262 27.3069C149.032 27.0523 148.757 26.8507 148.434 26.7C148.112 26.5513 147.762 26.4759 147.382 26.4759C147.001 26.4759 146.651 26.5493 146.335 26.6939C146.018 26.8385 145.743 27.0381 145.516 27.2886C145.29 27.5391 145.112 27.8345 144.985 28.1746C144.858 28.5147 144.794 28.8752 144.794 29.2582C144.794 29.639 144.858 30.0016 144.985 30.3417C145.112 30.6819 145.292 30.9792 145.522 31.2338C145.753 31.4884 146.028 31.69 146.35 31.8408C146.673 31.9915 147.023 32.0648 147.403 32.0648C147.784 32.0648 148.134 31.9915 148.45 31.8469C148.769 31.7002 149.042 31.5027 149.268 31.2521C149.495 31.0016 149.673 30.7063 149.8 30.3662C149.927 30.026 149.991 29.6635 149.991 29.2826C149.991 28.9017 149.929 28.5412 149.8 28.199Z" fill="white"/>
        <path d="M164.742 32.5842C164.511 32.7329 164.262 32.8653 163.996 32.9773C163.729 33.0893 163.442 33.1769 163.134 33.2421C162.827 33.3052 162.505 33.3378 162.168 33.3378C161.569 33.3378 161.024 33.2339 160.534 33.0282C160.045 32.8225 159.625 32.5373 159.278 32.1748C158.932 31.8123 158.663 31.3825 158.472 30.8896C158.281 30.3967 158.188 29.861 158.188 29.2846C158.188 28.7306 158.285 28.2072 158.478 27.7122C158.671 27.2194 158.944 26.7855 159.296 26.4148C159.647 26.0441 160.066 25.7508 160.552 25.5329C161.038 25.315 161.571 25.207 162.149 25.207C162.485 25.207 162.789 25.2315 163.064 25.2804C163.339 25.3292 163.592 25.3985 163.826 25.4881C164.061 25.5777 164.282 25.6877 164.491 25.8201C164.7 25.9504 164.903 26.1032 165.1 26.2743L164.244 27.3192C164.099 27.1929 163.948 27.0768 163.795 26.9709C163.641 26.867 163.48 26.7774 163.313 26.7061C163.144 26.6348 162.961 26.5798 162.76 26.537C162.559 26.4963 162.338 26.4759 162.097 26.4759C161.746 26.4759 161.418 26.5493 161.115 26.6959C160.811 26.8426 160.548 27.0422 160.325 27.2988C160.102 27.5534 159.927 27.8507 159.798 28.1868C159.67 28.5249 159.607 28.8834 159.607 29.2663C159.607 29.6716 159.668 30.0464 159.794 30.3906C159.917 30.7348 160.096 31.0342 160.325 31.2847C160.556 31.5353 160.829 31.7328 161.147 31.8754C161.466 32.018 161.822 32.0893 162.216 32.0893C162.582 32.0893 162.925 32.0343 163.241 31.9263C163.56 31.8163 163.834 31.6717 164.069 31.4925V30.0138H162.105V28.8121H165.375V32.1117C165.182 32.2766 164.973 32.4335 164.742 32.5842Z" fill="white"/>
        <path d="M175.905 33.2016H174.545V30.1037L171.496 25.3438H173.086L175.236 28.8246L177.408 25.3438H178.954L175.905 30.069V33.2016Z" fill="white"/>
        <path d="M146.155 9.79555H133.508V12.1297H146.155C147.145 12.1297 147.949 11.6062 147.949 10.9626C147.947 10.317 147.145 9.79555 146.155 9.79555ZM146.155 6.87891C149.621 6.87891 152.429 8.70792 152.429 10.9626C152.429 12.4841 151.153 13.81 149.258 14.5127L152.545 20.2971H148.062L145.078 15.0463H133.506L133.508 20.2971H129.025V15.0463L129.023 8.33723V6.87891H146.155Z" fill="white"/>
        <path d="M160.541 18.0731C160.033 18.7473 160.077 18.7269 160.077 19.6292V20.2932H155.594V19.6292C155.594 18.1281 155.702 17.8694 156.659 16.5985L162.475 9.1134C163.186 8.26407 164.101 6.875 165.861 6.875H168.733C170.527 6.875 171.398 8.25389 172.119 9.1134L177.947 16.6168C178.853 17.8939 179 18.124 179 19.6312V20.2952H174.518V19.6312C174.518 18.7799 174.533 18.7575 174.127 18.1892C174.066 18.1037 167.754 9.98921 167.595 9.79368H167.002C166.842 9.98921 160.541 18.0731 160.541 18.0731Z" fill="white"/>
        <path d="M54.4907 18.0731C53.9832 18.7473 54.0269 18.7269 54.0269 19.6292V20.2932H49.5444V19.6292C49.5444 18.1281 49.6519 17.8694 50.6093 16.5985L56.4255 9.1134C57.136 8.26407 58.0517 6.875 59.8112 6.875H62.6835C64.4769 6.875 65.3487 8.25389 66.0692 9.1134L71.8973 16.6148C72.8029 17.8919 72.9502 18.122 72.9502 19.6292V20.2932H68.4677V19.6292C68.4677 18.7778 68.4837 18.7554 68.0776 18.1872C68.0159 18.1016 61.7042 9.98717 61.5449 9.79165H60.9518C60.7925 9.98921 54.4907 18.0731 54.4907 18.0731Z" fill="white"/>
        <path d="M99.4154 9.79555H82.3313C81.342 9.79555 80.5379 10.317 80.5379 10.9626C80.5379 11.6062 81.3401 12.1297 82.3313 12.1297H87.7593H93.1873C96.6527 12.1297 99.4612 13.9587 99.4612 16.2134C99.4612 18.4681 96.6527 20.2971 93.1873 20.2971H76.1609V17.3805H93.1873C94.1765 17.3805 94.9807 16.857 94.9807 16.2134C94.9807 15.5698 94.1785 15.0463 93.1873 15.0463H87.7593H82.3313C78.8659 15.0463 76.0574 13.2173 76.0574 10.9626C76.0574 8.70792 78.8659 6.87891 82.3313 6.87891H99.4154V9.79555Z" fill="white"/>
        <path d="M102.596 6.87891H125.95V9.79555H116.513V20.2971H112.033L112.031 9.79555H102.596V6.87891Z" fill="white"/>
    </g>
    <defs>
        <linearGradient id="paint0_linear_801_3836" x1="-0.000120338" y1="20.0189" x2="38.8157" y2="20.0189" gradientUnits="userSpaceOnUse">
            <stop stop-color="white"/>
            <stop offset="0.0248" stop-color="#E6E6E6"/>
            <stop offset="0.0777" stop-color="#A5A5A5"/>
            <stop offset="0.1513" stop-color="#424242"/>
            <stop offset="0.1761" stop-color="#484848"/>
            <stop offset="0.2103" stop-color="#5A5A5A"/>
            <stop offset="0.2499" stop-color="#777777"/>
            <stop offset="0.2936" stop-color="#A0A0A0"/>
            <stop offset="0.3401" stop-color="#D3D3D3"/>
            <stop offset="0.375" stop-color="white"/>
            <stop offset="0.5327"/>
            <stop offset="0.6576" stop-color="#ADADAD"/>
            <stop offset="0.7499" stop-color="#D4D4D4"/>
            <stop offset="0.7846" stop-color="#AAAAAA"/>
            <stop offset="0.8232" stop-color="#838383"/>
            <stop offset="0.8587" stop-color="#666666"/>
            <stop offset="0.8896" stop-color="#555555"/>
            <stop offset="0.9123" stop-color="#4F4F4F"/>
        </linearGradient>
        <linearGradient id="paint1_linear_801_3836" x1="26.8518" y1="19.1087" x2="33.0724" y2="19.1087" gradientUnits="userSpaceOnUse">
            <stop stop-color="white"/>
            <stop offset="0.0567" stop-color="#E6E6E6"/>
            <stop offset="0.1777" stop-color="#A5A5A5"/>
            <stop offset="0.3461" stop-color="#424242"/>
            <stop offset="0.3854" stop-color="#484848"/>
            <stop offset="0.4395" stop-color="#5A5A5A"/>
            <stop offset="0.5023" stop-color="#777777"/>
            <stop offset="0.5715" stop-color="#A0A0A0"/>
            <stop offset="0.6453" stop-color="#D3D3D3"/>
            <stop offset="0.6896" stop-color="#F6F6F6"/>
            <stop offset="0.9123" stop-color="#4F4F4F"/>
        </linearGradient>
        <linearGradient id="paint2_linear_801_3836" x1="0.543217" y1="20.143" x2="39.3589" y2="20.143" gradientUnits="userSpaceOnUse">
            <stop offset="0.0358" stop-color="#25B2E8"/>
            <stop offset="0.0948" stop-color="#389EE6"/>
            <stop offset="0.2444" stop-color="#6270E2"/>
            <stop offset="0.3946" stop-color="#854ADE"/>
            <stop offset="0.5429" stop-color="#A12CDC"/>
            <stop offset="0.6888" stop-color="#B417DA"/>
            <stop offset="0.8312" stop-color="#C00AD8"/>
            <stop offset="0.9659" stop-color="#C406D8"/>
        </linearGradient>
        <linearGradient id="paint3_linear_801_3836" x1="4.4698" y1="19.8831" x2="38.7874" y2="19.8831" gradientUnits="userSpaceOnUse">
            <stop offset="0.0358" stop-color="#25B2E8"/>
            <stop offset="0.0948" stop-color="#389EE6"/>
            <stop offset="0.2444" stop-color="#6270E2"/>
            <stop offset="0.3946" stop-color="#854ADE"/>
            <stop offset="0.5429" stop-color="#A12CDC"/>
            <stop offset="0.6888" stop-color="#B417DA"/>
            <stop offset="0.8312" stop-color="#C00AD8"/>
            <stop offset="0.9659" stop-color="#C406D8"/>
        </linearGradient>
        <linearGradient id="paint4_linear_801_3836" x1="8.40786" y1="19.6177" x2="38.3006" y2="19.6177" gradientUnits="userSpaceOnUse">
            <stop offset="0.0358" stop-color="#25B2E8"/>
            <stop offset="0.0948" stop-color="#389EE6"/>
            <stop offset="0.2444" stop-color="#6270E2"/>
            <stop offset="0.3946" stop-color="#854ADE"/>
            <stop offset="0.5429" stop-color="#A12CDC"/>
            <stop offset="0.6888" stop-color="#B417DA"/>
            <stop offset="0.8312" stop-color="#C00AD8"/>
            <stop offset="0.9659" stop-color="#C406D8"/>
        </linearGradient>
        <linearGradient id="paint5_linear_801_3836" x1="12.3707" y1="19.3596" x2="37.7541" y2="19.3596" gradientUnits="userSpaceOnUse">
            <stop offset="0.0358" stop-color="#25B2E8"/>
            <stop offset="0.0948" stop-color="#389EE6"/>
            <stop offset="0.2444" stop-color="#6270E2"/>
            <stop offset="0.3946" stop-color="#854ADE"/>
            <stop offset="0.5429" stop-color="#A12CDC"/>
            <stop offset="0.6888" stop-color="#B417DA"/>
            <stop offset="0.8312" stop-color="#C00AD8"/>
            <stop offset="0.9659" stop-color="#C406D8"/>
        </linearGradient>
        <linearGradient id="paint6_linear_801_3836" x1="16.3769" y1="19.0964" x2="37.2232" y2="19.0964" gradientUnits="userSpaceOnUse">
            <stop offset="0.0358" stop-color="#25B2E8"/>
            <stop offset="0.0948" stop-color="#389EE6"/>
            <stop offset="0.2444" stop-color="#6270E2"/>
            <stop offset="0.3946" stop-color="#854ADE"/>
            <stop offset="0.5429" stop-color="#A12CDC"/>
            <stop offset="0.6888" stop-color="#B417DA"/>
            <stop offset="0.8312" stop-color="#C00AD8"/>
            <stop offset="0.9659" stop-color="#C406D8"/>
        </linearGradient>
        <radialGradient id="paint7_radial_801_3836" cx="0" cy="0" r="1" gradientUnits="userSpaceOnUse" gradientTransform="translate(28.6347 18.8392) scale(10.6515 10.8993)">
            <stop offset="0.0358" stop-color="#25B2E8"/>
            <stop offset="0.0948" stop-color="#389EE6"/>
            <stop offset="0.2444" stop-color="#6270E2"/>
            <stop offset="0.3946" stop-color="#854ADE"/>
            <stop offset="0.5429" stop-color="#A12CDC"/>
            <stop offset="0.6888" stop-color="#B417DA"/>
            <stop offset="0.8312" stop-color="#C00AD8"/>
            <stop offset="0.9659" stop-color="#C406D8"/>
        </radialGradient>
        <linearGradient id="paint8_linear_801_3836" x1="26.5511" y1="19.1732" x2="32.0421" y2="19.1732" gradientUnits="userSpaceOnUse">
            <stop offset="0.0358" stop-color="#25B2E8"/>
            <stop offset="0.0948" stop-color="#389EE6"/>
            <stop offset="0.2444" stop-color="#6270E2"/>
            <stop offset="0.3946" stop-color="#854ADE"/>
            <stop offset="0.5429" stop-color="#A12CDC"/>
            <stop offset="0.6888" stop-color="#B417DA"/>
            <stop offset="0.8312" stop-color="#C00AD8"/>
            <stop offset="0.9659" stop-color="#C406D8"/>
        </linearGradient>
        <clipPath id="clip0_801_3836">
            <rect width="179" height="40" fill="white"/>
        </clipPath>
    </defs>
</svg>
