<svg width="80" height="80" viewBox="0 0 80 80" fill="none" xmlns="http://www.w3.org/2000/svg">
<g clip-path="url(#clip0_3_3390)">
<rect width="80" height="80" fill="white"/>
<g clip-path="url(#clip1_3_3390)">
<path fill-rule="evenodd" clip-rule="evenodd" d="M2.90186 33.3242H14.7446V68.8533H2.90186V33.3242Z" stroke="url(#paint0_linear_3_3390)" stroke-width="0.755794" stroke-miterlimit="22.9256"/>
<path fill-rule="evenodd" clip-rule="evenodd" d="M20.6663 33.3242H32.5095V68.8533H20.6663V33.3242Z" stroke="url(#paint1_linear_3_3390)" stroke-width="0.755794" stroke-miterlimit="22.9256"/>
<path fill-rule="evenodd" clip-rule="evenodd" d="M68.0385 21.481C70.4683 21.5429 79.8817 21.481 79.8817 27.4026V45.1669V57.0101C79.8817 62.9317 79.8817 62.9317 73.9601 62.9317H62.1169C56.1953 62.9317 56.1953 62.9317 56.1953 57.0101V45.1669V27.4026C56.1953 21.481 65.4709 21.6712 68.0385 21.481Z" stroke="url(#paint2_linear_3_3390)" stroke-width="0.755794" stroke-miterlimit="22.9256"/>
<path d="M50.2739 67.3781V68.8533H38.4312V33.3242H50.2739V64.4074" stroke="url(#paint3_linear_3_3390)" stroke-width="0.755794" stroke-miterlimit="22.9256"/>
<path fill-rule="evenodd" clip-rule="evenodd" d="M2.90186 27.4026H50.2737V33.3242H2.90186V27.4026Z" stroke="url(#paint4_linear_3_3390)" stroke-width="0.755794" stroke-miterlimit="22.9256"/>
<path d="M14.7351 17.0399H50.2739V25.9226H14.7505" stroke="url(#paint5_linear_3_3390)" stroke-width="0.755794" stroke-miterlimit="22.9256"/>
<path fill-rule="evenodd" clip-rule="evenodd" d="M14.3182 11.1188H46.1518C51.693 11.1188 51.6036 17.0404 46.1518 17.0404H14.3182C8.96587 17.0404 8.96587 11.1188 14.3182 11.1188Z" stroke="url(#paint6_linear_3_3390)" stroke-width="0.755794" stroke-miterlimit="22.9256"/>
<path fill-rule="evenodd" clip-rule="evenodd" d="M59.156 62.9317H76.9208V68.8533H59.156V62.9317Z" stroke="url(#paint7_linear_3_3390)" stroke-width="0.755794" stroke-miterlimit="22.9256"/>
<path d="M14.7446 17.0466V27.4026H2.90186V15.5599H10.8785" stroke="url(#paint8_linear_3_3390)" stroke-width="0.755794" stroke-miterlimit="22.9256"/>
<path d="M53.13 62.9188C52.9316 38.814 54.8618 30.6605 62.0732 30.3339C67.9886 30.0663 70.9433 34.4036 70.8924 40.709" stroke="url(#paint9_linear_3_3390)" stroke-width="0.755794" stroke-miterlimit="22.9256"/>
<path d="M54.7178 64.4123H59.1415V67.3729H54.7322M51.7433 67.3729H47.2983V64.4123H51.7433" stroke="url(#paint10_linear_3_3390)" stroke-width="0.755794" stroke-miterlimit="22.9256"/>
<path fill-rule="evenodd" clip-rule="evenodd" d="M51.74 68.8534V62.9318H54.701V68.8534H51.74Z" stroke="url(#paint11_linear_3_3390)" stroke-width="0.755794" stroke-miterlimit="22.9256"/>
<path d="M48.6838 64.3215V58.3999" stroke="url(#paint12_linear_3_3390)" stroke-width="0.755794" stroke-miterlimit="22.9256"/>
<path d="M57.625 64.3215V58.3999" stroke="url(#paint13_linear_3_3390)" stroke-width="0.755794" stroke-miterlimit="22.9256"/>
<path fill-rule="evenodd" clip-rule="evenodd" d="M56.1953 42.2064H79.8812V48.128H56.1953V42.2064Z" stroke="url(#paint14_linear_3_3390)" stroke-width="0.755794" stroke-miterlimit="22.9256"/>
<path d="M14.7485 24.0649H2.90576" stroke="url(#paint15_linear_3_3390)" stroke-width="0.755794" stroke-miterlimit="22.9256"/>
<path d="M14.7485 18.1433H2.90576" stroke="url(#paint16_linear_3_3390)" stroke-width="0.755794" stroke-miterlimit="22.9256"/>
<path d="M10.3036 14.0793H0.118652V21.0539H2.90195" stroke="url(#paint17_linear_3_3390)" stroke-width="0.755794" stroke-miterlimit="22.9256"/>
</g>
</g>
<defs>
<linearGradient id="paint0_linear_3_3390" x1="3.3319" y1="47.6131" x2="14.9288" y2="47.7397" gradientUnits="userSpaceOnUse">
<stop stop-color="#37A0E7"/>
<stop offset="1" stop-color="#C507D9"/>
</linearGradient>
<linearGradient id="paint1_linear_3_3390" x1="21.0963" y1="47.6131" x2="32.6937" y2="47.7398" gradientUnits="userSpaceOnUse">
<stop stop-color="#37A0E7"/>
<stop offset="1" stop-color="#C507D9"/>
</linearGradient>
<linearGradient id="paint2_linear_3_3390" x1="57.0554" y1="38.1514" x2="80.2449" y2="38.5857" gradientUnits="userSpaceOnUse">
<stop stop-color="#37A0E7"/>
<stop offset="1" stop-color="#C507D9"/>
</linearGradient>
<linearGradient id="paint3_linear_3_3390" x1="38.8612" y1="47.6131" x2="50.4581" y2="47.7397" gradientUnits="userSpaceOnUse">
<stop stop-color="#37A0E7"/>
<stop offset="1" stop-color="#C507D9"/>
</linearGradient>
<linearGradient id="paint4_linear_3_3390" x1="4.62206" y1="29.7841" x2="48.0321" y2="41.1659" gradientUnits="userSpaceOnUse">
<stop stop-color="#37A0E7"/>
<stop offset="1" stop-color="#C507D9"/>
</linearGradient>
<linearGradient id="paint5_linear_3_3390" x1="16.0256" y1="20.6123" x2="50.2426" y2="25.0991" gradientUnits="userSpaceOnUse">
<stop stop-color="#37A0E7"/>
<stop offset="1" stop-color="#C507D9"/>
</linearGradient>
<linearGradient id="paint6_linear_3_3390" x1="11.7554" y1="13.5003" x2="49.0743" y2="21.7562" gradientUnits="userSpaceOnUse">
<stop stop-color="#37A0E7"/>
<stop offset="1" stop-color="#C507D9"/>
</linearGradient>
<linearGradient id="paint7_linear_3_3390" x1="59.8011" y1="65.3132" x2="77.0327" y2="67.0075" gradientUnits="userSpaceOnUse">
<stop stop-color="#37A0E7"/>
<stop offset="1" stop-color="#C507D9"/>
</linearGradient>
<linearGradient id="paint8_linear_3_3390" x1="3.3319" y1="20.3227" x2="14.9178" y2="20.7024" gradientUnits="userSpaceOnUse">
<stop stop-color="#37A0E7"/>
<stop offset="1" stop-color="#C507D9"/>
</linearGradient>
<linearGradient id="paint9_linear_3_3390" x1="53.762" y1="43.4317" x2="71.1662" y2="43.7427" gradientUnits="userSpaceOnUse">
<stop stop-color="#37A0E7"/>
<stop offset="1" stop-color="#C507D9"/>
</linearGradient>
<linearGradient id="paint10_linear_3_3390" x1="47.7284" y1="65.603" x2="59.1312" y2="67.098" gradientUnits="userSpaceOnUse">
<stop stop-color="#37A0E7"/>
<stop offset="1" stop-color="#C507D9"/>
</linearGradient>
<linearGradient id="paint11_linear_3_3390" x1="51.8475" y1="65.3133" x2="54.7467" y2="65.3608" gradientUnits="userSpaceOnUse">
<stop stop-color="#37A0E7"/>
<stop offset="1" stop-color="#C507D9"/>
</linearGradient>
<linearGradient id="paint12_linear_3_3390" x1="48.7202" y1="60.7814" x2="49.6995" y2="60.7868" gradientUnits="userSpaceOnUse">
<stop stop-color="#37A0E7"/>
<stop offset="1" stop-color="#C507D9"/>
</linearGradient>
<linearGradient id="paint13_linear_3_3390" x1="57.6613" y1="60.7814" x2="58.6406" y2="60.7868" gradientUnits="userSpaceOnUse">
<stop stop-color="#37A0E7"/>
<stop offset="1" stop-color="#C507D9"/>
</linearGradient>
<linearGradient id="paint14_linear_3_3390" x1="57.0554" y1="44.5879" x2="79.8606" y2="47.5775" gradientUnits="userSpaceOnUse">
<stop stop-color="#37A0E7"/>
<stop offset="1" stop-color="#C507D9"/>
</linearGradient>
<linearGradient id="paint15_linear_3_3390" x1="3.3358" y1="24.4671" x2="13.4156" y2="28.3795" gradientUnits="userSpaceOnUse">
<stop stop-color="#37A0E7"/>
<stop offset="1" stop-color="#C507D9"/>
</linearGradient>
<linearGradient id="paint16_linear_3_3390" x1="3.3358" y1="18.5455" x2="13.4156" y2="22.4579" gradientUnits="userSpaceOnUse">
<stop stop-color="#37A0E7"/>
<stop offset="1" stop-color="#C507D9"/>
</linearGradient>
<linearGradient id="paint17_linear_3_3390" x1="0.488497" y1="16.8843" x2="10.4404" y2="17.3607" gradientUnits="userSpaceOnUse">
<stop stop-color="#37A0E7"/>
<stop offset="1" stop-color="#C507D9"/>
</linearGradient>
<clipPath id="clip0_3_3390">
<rect width="80" height="80" fill="white"/>
</clipPath>
<clipPath id="clip1_3_3390">
<rect width="80" height="57.9716" fill="white" transform="translate(0 11)"/>
</clipPath>
</defs>
</svg>
