<svg width="80" height="80" viewBox="0 0 80 80" fill="none" xmlns="http://www.w3.org/2000/svg">
<g clip-path="url(#clip0_3_2906)">
<rect width="80" height="80" fill="white"/>
<g clip-path="url(#clip1_3_2906)">
<path d="M62.7924 4.53857H11.5103V7.38753H62.7924V4.53857Z" stroke="url(#paint0_linear_3_2906)" stroke-width="0.755041" stroke-miterlimit="22.9256"/>
<path d="M74.1883 3.11383H62.7925V8.81173H74.1883V3.11383Z" stroke="url(#paint1_linear_3_2906)" stroke-width="0.755041" stroke-miterlimit="22.9256"/>
<path d="M2.96289 31.6039H25.755" stroke="url(#paint2_linear_3_2906)" stroke-width="0.755041" stroke-miterlimit="22.9256"/>
<path d="M59.943 28.7549H25.755V34.4528H59.943V28.7549Z" stroke="url(#paint3_linear_3_2906)" stroke-width="0.755041" stroke-miterlimit="22.9256"/>
<path d="M59.943 25.906V37.3023" stroke="url(#paint4_linear_3_2906)" stroke-width="0.755041" stroke-miterlimit="22.9256"/>
<path d="M65.6409 30.1797H59.943V33.0286H65.6409V30.1797Z" stroke="url(#paint5_linear_3_2906)" stroke-width="0.755041" stroke-miterlimit="22.9256"/>
<path d="M68.4903 25.906H65.6414V37.3018H68.4903V25.906Z" stroke="url(#paint6_linear_3_2906)" stroke-width="0.755041" stroke-miterlimit="22.9256"/>
<path d="M8.66074 54.396H2.96284C1.38941 54.396 0.113892 55.6715 0.113892 57.245V74.3392C0.113892 75.9127 1.38941 77.1882 2.96284 77.1882H8.66074C10.2342 77.1882 11.5097 75.9127 11.5097 74.3392V57.245C11.5097 55.6715 10.2342 54.396 8.66074 54.396Z" stroke="url(#paint7_linear_3_2906)" stroke-width="0.755041" stroke-miterlimit="22.9256"/>
<path d="M11.5097 48.6981H0.113892V54.396H11.5097V48.6981Z" stroke="url(#paint8_linear_3_2906)" stroke-width="0.755041" stroke-miterlimit="22.9256"/>
<path d="M25.755 54.396H20.0571C18.4836 54.396 17.2081 55.6715 17.2081 57.245V74.3392C17.2081 75.9127 18.4836 77.1882 20.0571 77.1882H25.755C27.3284 77.1882 28.6039 75.9127 28.6039 74.3392V57.245C28.6039 55.6715 27.3284 54.396 25.755 54.396Z" stroke="url(#paint9_linear_3_2906)" stroke-width="0.755041" stroke-miterlimit="22.9256"/>
<path d="M28.6039 48.6981H17.2081V54.396H28.6039V48.6981Z" stroke="url(#paint10_linear_3_2906)" stroke-width="0.755041" stroke-miterlimit="22.9256"/>
<path d="M42.8492 54.396H37.1513C35.5779 54.396 34.3024 55.6715 34.3024 57.245V74.3392C34.3024 75.9127 35.5779 77.1882 37.1513 77.1882H42.8492C44.4227 77.1882 45.6982 75.9127 45.6982 74.3392V57.245C45.6982 55.6715 44.4227 54.396 42.8492 54.396Z" stroke="url(#paint11_linear_3_2906)" stroke-width="0.755041" stroke-miterlimit="22.9256"/>
<path d="M45.6982 48.6981H34.3024V54.396H45.6982V48.6981Z" stroke="url(#paint12_linear_3_2906)" stroke-width="0.755041" stroke-miterlimit="22.9256"/>
<path d="M59.943 54.396H54.2451C52.6716 54.396 51.3961 55.6715 51.3961 57.245V74.3392C51.3961 75.9127 52.6716 77.1882 54.2451 77.1882H59.943C61.5164 77.1882 62.7919 75.9127 62.7919 74.3392V57.245C62.7919 55.6715 61.5164 54.396 59.943 54.396Z" stroke="url(#paint13_linear_3_2906)" stroke-width="0.755041" stroke-miterlimit="22.9256"/>
<path d="M62.7919 48.6981H51.3961V54.396H62.7919V48.6981Z" stroke="url(#paint14_linear_3_2906)" stroke-width="0.755041" stroke-miterlimit="22.9256"/>
<path d="M77.0372 54.396H71.3393C69.7659 54.396 68.4904 55.6715 68.4904 57.245V74.3392C68.4904 75.9127 69.7659 77.1882 71.3393 77.1882H77.0372C78.6106 77.1882 79.8862 75.9127 79.8862 74.3392V57.245C79.8862 55.6715 78.6106 54.396 77.0372 54.396Z" stroke="url(#paint15_linear_3_2906)" stroke-width="0.755041" stroke-miterlimit="22.9256"/>
<path d="M79.8862 48.6981H68.4904V54.396H79.8862V48.6981Z" stroke="url(#paint16_linear_3_2906)" stroke-width="0.755041" stroke-miterlimit="22.9256"/>
<path d="M31.4529 31.6039V28.7549" stroke="url(#paint17_linear_3_2906)" stroke-width="0.755041" stroke-miterlimit="22.9256"/>
<path d="M37.1514 31.6039V28.7549" stroke="url(#paint18_linear_3_2906)" stroke-width="0.755041" stroke-miterlimit="22.9256"/>
<path d="M42.8492 31.6039V28.7549" stroke="url(#paint19_linear_3_2906)" stroke-width="0.755041" stroke-miterlimit="22.9256"/>
<path d="M48.5471 31.6039V28.7549" stroke="url(#paint20_linear_3_2906)" stroke-width="0.755041" stroke-miterlimit="22.9256"/>
<path d="M11.5097 3.11383H0.113892V8.81173H11.5097V3.11383Z" stroke="url(#paint21_linear_3_2906)" stroke-width="0.755041" stroke-miterlimit="22.9256"/>
<path d="M5.81177 3.11383V8.81173" stroke="url(#paint22_linear_3_2906)" stroke-width="0.755041" stroke-miterlimit="22.9256"/>
<path d="M68.4904 3.11383V8.81173" stroke="url(#paint23_linear_3_2906)" stroke-width="0.755041" stroke-miterlimit="22.9256"/>
</g>
</g>
<defs>
<linearGradient id="paint0_linear_3_2906" x1="13.3725" y1="5.68435" x2="50.6291" y2="27.6642" gradientUnits="userSpaceOnUse">
<stop stop-color="#37A0E7"/>
<stop offset="1" stop-color="#C507D9"/>
</linearGradient>
<linearGradient id="paint1_linear_3_2906" x1="63.2063" y1="5.40538" x2="74.3192" y2="6.13382" gradientUnits="userSpaceOnUse">
<stop stop-color="#37A0E7"/>
<stop offset="1" stop-color="#C507D9"/>
</linearGradient>
<linearGradient id="paint2_linear_3_2906" x1="3.79054" y1="32.0061" x2="18.1176" y2="42.7084" gradientUnits="userSpaceOnUse">
<stop stop-color="#37A0E7"/>
<stop offset="1" stop-color="#C507D9"/>
</linearGradient>
<linearGradient id="paint3_linear_3_2906" x1="26.9965" y1="31.0465" x2="59.2322" y2="37.3857" gradientUnits="userSpaceOnUse">
<stop stop-color="#37A0E7"/>
<stop offset="1" stop-color="#C507D9"/>
</linearGradient>
<linearGradient id="paint4_linear_3_2906" x1="59.9793" y1="30.4893" x2="60.9587" y2="30.4921" gradientUnits="userSpaceOnUse">
<stop stop-color="#37A0E7"/>
<stop offset="1" stop-color="#C507D9"/>
</linearGradient>
<linearGradient id="paint5_linear_3_2906" x1="60.1499" y1="31.3254" x2="65.7063" y2="31.6897" gradientUnits="userSpaceOnUse">
<stop stop-color="#37A0E7"/>
<stop offset="1" stop-color="#C507D9"/>
</linearGradient>
<linearGradient id="paint6_linear_3_2906" x1="65.7448" y1="30.4891" x2="68.5348" y2="30.5119" gradientUnits="userSpaceOnUse">
<stop stop-color="#37A0E7"/>
<stop offset="1" stop-color="#C507D9"/>
</linearGradient>
<linearGradient id="paint7_linear_3_2906" x1="0.527706" y1="63.5624" x2="11.6853" y2="63.7453" gradientUnits="userSpaceOnUse">
<stop stop-color="#37A0E7"/>
<stop offset="1" stop-color="#C507D9"/>
</linearGradient>
<linearGradient id="paint8_linear_3_2906" x1="0.527706" y1="50.9897" x2="11.6406" y2="51.7181" gradientUnits="userSpaceOnUse">
<stop stop-color="#37A0E7"/>
<stop offset="1" stop-color="#C507D9"/>
</linearGradient>
<linearGradient id="paint9_linear_3_2906" x1="17.6219" y1="63.5624" x2="28.7796" y2="63.7453" gradientUnits="userSpaceOnUse">
<stop stop-color="#37A0E7"/>
<stop offset="1" stop-color="#C507D9"/>
</linearGradient>
<linearGradient id="paint10_linear_3_2906" x1="17.6219" y1="50.9897" x2="28.7348" y2="51.7181" gradientUnits="userSpaceOnUse">
<stop stop-color="#37A0E7"/>
<stop offset="1" stop-color="#C507D9"/>
</linearGradient>
<linearGradient id="paint11_linear_3_2906" x1="34.7162" y1="63.5624" x2="45.8738" y2="63.7453" gradientUnits="userSpaceOnUse">
<stop stop-color="#37A0E7"/>
<stop offset="1" stop-color="#C507D9"/>
</linearGradient>
<linearGradient id="paint12_linear_3_2906" x1="34.7162" y1="50.9897" x2="45.8291" y2="51.7181" gradientUnits="userSpaceOnUse">
<stop stop-color="#37A0E7"/>
<stop offset="1" stop-color="#C507D9"/>
</linearGradient>
<linearGradient id="paint13_linear_3_2906" x1="51.8099" y1="63.5624" x2="62.9676" y2="63.7453" gradientUnits="userSpaceOnUse">
<stop stop-color="#37A0E7"/>
<stop offset="1" stop-color="#C507D9"/>
</linearGradient>
<linearGradient id="paint14_linear_3_2906" x1="51.8099" y1="50.9897" x2="62.9228" y2="51.7181" gradientUnits="userSpaceOnUse">
<stop stop-color="#37A0E7"/>
<stop offset="1" stop-color="#C507D9"/>
</linearGradient>
<linearGradient id="paint15_linear_3_2906" x1="68.9042" y1="63.5624" x2="80.0618" y2="63.7453" gradientUnits="userSpaceOnUse">
<stop stop-color="#37A0E7"/>
<stop offset="1" stop-color="#C507D9"/>
</linearGradient>
<linearGradient id="paint16_linear_3_2906" x1="68.9042" y1="50.9897" x2="80.017" y2="51.7181" gradientUnits="userSpaceOnUse">
<stop stop-color="#37A0E7"/>
<stop offset="1" stop-color="#C507D9"/>
</linearGradient>
<linearGradient id="paint17_linear_3_2906" x1="31.4892" y1="29.9007" x2="32.4684" y2="29.912" gradientUnits="userSpaceOnUse">
<stop stop-color="#37A0E7"/>
<stop offset="1" stop-color="#C507D9"/>
</linearGradient>
<linearGradient id="paint18_linear_3_2906" x1="37.1877" y1="29.9007" x2="38.1669" y2="29.912" gradientUnits="userSpaceOnUse">
<stop stop-color="#37A0E7"/>
<stop offset="1" stop-color="#C507D9"/>
</linearGradient>
<linearGradient id="paint19_linear_3_2906" x1="42.8856" y1="29.9007" x2="43.8648" y2="29.912" gradientUnits="userSpaceOnUse">
<stop stop-color="#37A0E7"/>
<stop offset="1" stop-color="#C507D9"/>
</linearGradient>
<linearGradient id="paint20_linear_3_2906" x1="48.5834" y1="29.9007" x2="49.5627" y2="29.912" gradientUnits="userSpaceOnUse">
<stop stop-color="#37A0E7"/>
<stop offset="1" stop-color="#C507D9"/>
</linearGradient>
<linearGradient id="paint21_linear_3_2906" x1="0.527706" y1="5.40538" x2="11.6406" y2="6.13382" gradientUnits="userSpaceOnUse">
<stop stop-color="#37A0E7"/>
<stop offset="1" stop-color="#C507D9"/>
</linearGradient>
<linearGradient id="paint22_linear_3_2906" x1="5.84808" y1="5.40538" x2="6.82741" y2="5.41101" gradientUnits="userSpaceOnUse">
<stop stop-color="#37A0E7"/>
<stop offset="1" stop-color="#C507D9"/>
</linearGradient>
<linearGradient id="paint23_linear_3_2906" x1="68.5267" y1="5.40538" x2="69.506" y2="5.41101" gradientUnits="userSpaceOnUse">
<stop stop-color="#37A0E7"/>
<stop offset="1" stop-color="#C507D9"/>
</linearGradient>
<clipPath id="clip0_3_2906">
<rect width="80" height="80" fill="white"/>
</clipPath>
<clipPath id="clip1_3_2906">
<rect width="80" height="74.302" fill="white" transform="translate(0 3)"/>
</clipPath>
</defs>
</svg>
