<svg width="80" height="80" viewBox="0 0 80 80" fill="none" xmlns="http://www.w3.org/2000/svg">
<g clip-path="url(#clip0_3_3368)">
<rect width="80" height="80" fill="white"/>
<g clip-path="url(#clip1_3_3368)">
<path d="M40.7286 31.83L39.2759 35.8215C37.2817 41.3006 31.8021 39.3064 33.7968 33.8272L35.2495 29.8358" stroke="url(#paint0_linear_3_3368)" stroke-width="0.755698" stroke-miterlimit="22.9256"/>
<path d="M46.3439 30.0745L47.7561 33.1023C50.2204 38.3868 44.9356 40.8512 42.4712 35.5667L40.4326 31.1947" stroke="url(#paint1_linear_3_3368)" stroke-width="0.755698" stroke-miterlimit="22.9256"/>
<path d="M32.4682 24.6988L29.0483 26.2934C23.7635 28.7578 26.2279 34.0422 31.5127 31.5778L35.9118 29.5266" stroke="url(#paint2_linear_3_3368)" stroke-width="0.755698" stroke-miterlimit="22.9256"/>
<path d="M40.1564 33.4033L34.677 31.409L33.6798 34.1487L39.1592 36.143L40.1564 33.4033Z" stroke="url(#paint3_linear_3_3368)" stroke-width="0.534359" stroke-miterlimit="22.9256"/>
<path d="M46.6954 30.8111L41.4106 33.2754L42.6428 35.9178L47.9275 33.4535L46.6954 30.8111Z" stroke="url(#paint4_linear_3_3368)" stroke-width="0.53436" stroke-miterlimit="22.9256"/>
<path d="M31.3411 25.224L33.8054 30.5087L31.1631 31.7409L28.6988 26.4562L31.3411 25.224Z" stroke="url(#paint5_linear_3_3368)" stroke-width="0.53436" stroke-miterlimit="22.9256"/>
<path d="M3.1167 62.3906V79.8833H49.7642V62.3906H14.7788" stroke="url(#paint6_linear_3_3368)" stroke-width="0.755698" stroke-miterlimit="22.9256"/>
<path d="M3.1167 62.3906L9.59615 15.7431H21.2582M19.9407 26.2579L14.7788 62.3906" stroke="url(#paint7_linear_3_3368)" stroke-width="0.755698" stroke-miterlimit="22.9256"/>
<path d="M43.9336 56.5596H32.2715V62.3906H43.9336V56.5596Z" stroke="url(#paint8_linear_3_3368)" stroke-width="0.755698" stroke-miterlimit="22.9256"/>
<path d="M16.4199 50.9013L32.2715 50.7285V44.8979" stroke="url(#paint9_linear_3_3368)" stroke-width="0.755698" stroke-miterlimit="22.9256"/>
<path d="M17.6909 41.7543H49.7641V44.8979H17.2773" stroke="url(#paint10_linear_3_3368)" stroke-width="0.755698" stroke-miterlimit="22.9256"/>
<path d="M19.9402 26.2579L49.7641 19.6302V15.7431H21.2581" stroke="url(#paint11_linear_3_3368)" stroke-width="0.755698" stroke-miterlimit="22.9256"/>
<path d="M31.8464 23.6119C36.0579 31.0431 37.5913 32.6896 46.7484 29.9553V20.1401" stroke="url(#paint12_linear_3_3368)" stroke-width="0.755698" stroke-miterlimit="22.9256"/>
<path d="M35.187 15.7431L38.1025 9.91209L49.7642 4.08105L54.5468 13.3518L49.7642 15.7431" stroke="url(#paint13_linear_3_3368)" stroke-width="0.755698" stroke-miterlimit="22.9256"/>
<path d="M10.406 72.0821C13.6264 72.0821 16.237 69.4715 16.237 66.2511C16.237 63.0307 13.6264 60.42 10.406 60.42C7.1856 60.42 4.57495 63.0307 4.57495 66.2511C4.57495 69.4715 7.1856 72.0821 10.406 72.0821Z" stroke="url(#paint14_linear_3_3368)" stroke-width="0.755698" stroke-miterlimit="22.9256"/>
<path fill-rule="evenodd" clip-rule="evenodd" d="M60.9809 0.178772L66.2138 10.6006L61.0029 13.2171C56.9507 15.2949 55.5951 15.7431 53.1755 10.6226L50.5591 5.41167L60.9809 0.178772Z" stroke="url(#paint15_linear_3_3368)" stroke-width="0.755698" stroke-miterlimit="22.9256"/>
<path d="M76.6358 5.36775L74.0193 0.156738L63.5973 5.38984L66.2138 10.6008L76.6358 5.36775Z" stroke="url(#paint16_linear_3_3368)" stroke-width="0.755698" stroke-miterlimit="22.9256"/>
</g>
</g>
<defs>
<linearGradient id="paint0_linear_3_3368" x1="33.634" y1="33.5483" x2="40.8391" y2="33.7367" gradientUnits="userSpaceOnUse">
<stop stop-color="#37A0E7"/>
<stop offset="1" stop-color="#C507D9"/>
</linearGradient>
<linearGradient id="paint1_linear_3_3368" x1="40.7218" y1="33.4655" x2="48.5126" y2="33.7066" gradientUnits="userSpaceOnUse">
<stop stop-color="#37A0E7"/>
<stop offset="1" stop-color="#C507D9"/>
</linearGradient>
<linearGradient id="paint2_linear_3_3368" x1="26.4646" y1="27.7225" x2="36.0479" y2="28.132" gradientUnits="userSpaceOnUse">
<stop stop-color="#37A0E7"/>
<stop offset="1" stop-color="#C507D9"/>
</linearGradient>
<linearGradient id="paint3_linear_3_3368" x1="34.4749" y1="32.5832" x2="39.6908" y2="34.8783" gradientUnits="userSpaceOnUse">
<stop stop-color="#37A0E7"/>
<stop offset="1" stop-color="#C507D9"/>
</linearGradient>
<linearGradient id="paint4_linear_3_3368" x1="42.0981" y1="34.2486" x2="47.4091" y2="32.1833" gradientUnits="userSpaceOnUse">
<stop stop-color="#37A0E7"/>
<stop offset="1" stop-color="#C507D9"/>
</linearGradient>
<linearGradient id="paint5_linear_3_3368" x1="32.6532" y1="30.8124" x2="29.9123" y2="25.8164" gradientUnits="userSpaceOnUse">
<stop stop-color="#37A0E7"/>
<stop offset="1" stop-color="#C507D9"/>
</linearGradient>
<linearGradient id="paint6_linear_3_3368" x1="4.8106" y1="69.4257" x2="50.149" y2="73.3883" gradientUnits="userSpaceOnUse">
<stop stop-color="#37A0E7"/>
<stop offset="1" stop-color="#C507D9"/>
</linearGradient>
<linearGradient id="paint7_linear_3_3368" x1="3.77547" y1="34.5035" x2="21.5397" y2="34.73" gradientUnits="userSpaceOnUse">
<stop stop-color="#37A0E7"/>
<stop offset="1" stop-color="#C507D9"/>
</linearGradient>
<linearGradient id="paint8_linear_3_3368" x1="32.695" y1="58.9047" x2="44.0675" y2="59.6501" gradientUnits="userSpaceOnUse">
<stop stop-color="#37A0E7"/>
<stop offset="1" stop-color="#C507D9"/>
</linearGradient>
<linearGradient id="paint9_linear_3_3368" x1="16.9955" y1="47.3123" x2="32.4046" y2="48.6458" gradientUnits="userSpaceOnUse">
<stop stop-color="#37A0E7"/>
<stop offset="1" stop-color="#C507D9"/>
</linearGradient>
<linearGradient id="paint10_linear_3_3368" x1="18.457" y1="43.0186" x2="46.9991" y2="52.6857" gradientUnits="userSpaceOnUse">
<stop stop-color="#37A0E7"/>
<stop offset="1" stop-color="#C507D9"/>
</linearGradient>
<linearGradient id="paint11_linear_3_3368" x1="21.0232" y1="19.9719" x2="49.9813" y2="22.6639" gradientUnits="userSpaceOnUse">
<stop stop-color="#37A0E7"/>
<stop offset="1" stop-color="#C507D9"/>
</linearGradient>
<linearGradient id="paint12_linear_3_3368" x1="32.3876" y1="24.5863" x2="46.9536" y2="25.2298" gradientUnits="userSpaceOnUse">
<stop stop-color="#37A0E7"/>
<stop offset="1" stop-color="#C507D9"/>
</linearGradient>
<linearGradient id="paint13_linear_3_3368" x1="35.89" y1="8.77124" x2="54.7943" y2="9.79978" gradientUnits="userSpaceOnUse">
<stop stop-color="#37A0E7"/>
<stop offset="1" stop-color="#C507D9"/>
</linearGradient>
<linearGradient id="paint14_linear_3_3368" x1="4.99843" y1="65.1102" x2="16.4076" y2="65.4842" gradientUnits="userSpaceOnUse">
<stop stop-color="#37A0E7"/>
<stop offset="1" stop-color="#C507D9"/>
</linearGradient>
<linearGradient id="paint15_linear_3_3368" x1="51.1276" y1="6.01118" x2="66.4401" y2="6.55293" gradientUnits="userSpaceOnUse">
<stop stop-color="#37A0E7"/>
<stop offset="1" stop-color="#C507D9"/>
</linearGradient>
<linearGradient id="paint16_linear_3_3368" x1="69.9228" y1="2.45058" x2="72.4011" y2="7.59466" gradientUnits="userSpaceOnUse">
<stop stop-color="#37A0E7"/>
<stop offset="1" stop-color="#C507D9"/>
</linearGradient>
<clipPath id="clip0_3_3368">
<rect width="80" height="80" fill="white"/>
</clipPath>
<clipPath id="clip1_3_3368">
<rect width="73.7924" height="80" fill="white" transform="translate(3)"/>
</clipPath>
</defs>
</svg>
