<svg width="80" height="80" viewBox="0 0 80 80" fill="none" xmlns="http://www.w3.org/2000/svg">
<g clip-path="url(#clip0_3_3486)">
<rect width="80" height="80" fill="white"/>
<g clip-path="url(#clip1_3_3486)">
<path d="M79.8856 17.1138H0.11377V56.9997H79.8856V17.1138Z" stroke="url(#paint0_linear_3_3486)" stroke-width="0.75663" stroke-miterlimit="22.9256"/>
<path d="M17.2073 56.9996H5.81152V62.6975H17.2073V56.9996Z" stroke="url(#paint1_linear_3_3486)" stroke-width="0.75663" stroke-miterlimit="22.9256"/>
<path d="M74.1878 56.9996H62.792V62.6975H74.1878V56.9996Z" stroke="url(#paint2_linear_3_3486)" stroke-width="0.75663" stroke-miterlimit="22.9256"/>
<path d="M51.3955 22.8123H0.11377V51.3024H51.3955V22.8123Z" stroke="url(#paint3_linear_3_3486)" stroke-width="0.75663" stroke-miterlimit="22.9256"/>
<path d="M45.6974 28.5101H5.81152V45.6038H45.6974V28.5101Z" stroke="url(#paint4_linear_3_3486)" stroke-width="0.75663" stroke-miterlimit="22.9256"/>
<path d="M5.81152 45.6039C8.658 45.6039 11.5051 39.3038 14.3522 39.3038C17.1993 39.3038 20.0458 44.9813 22.8929 44.9813C25.7393 44.9813 28.5864 39.3038 31.4335 39.3038C34.2806 39.3038 37.1271 45.6039 39.9742 45.6039" stroke="url(#paint5_linear_3_3486)" stroke-width="0.75663" stroke-miterlimit="22.9256"/>
<path d="M5.63623 38.4309C8.50002 38.4309 11.3638 30.0386 14.227 30.0386C17.0908 30.0386 20.422 39.8349 23.2858 39.8349C26.1495 39.8349 28.5453 30.0386 31.4091 30.0386C34.2729 30.0386 37.1367 38.4309 39.9998 38.4309" stroke="url(#paint6_linear_3_3486)" stroke-width="0.75663" stroke-miterlimit="22.9256"/>
<path d="M51.4176 41.3094H45.7197V44.1584H51.4176V41.3094Z" stroke="url(#paint7_linear_3_3486)" stroke-width="0.75663" stroke-miterlimit="22.9256"/>
<path d="M51.4176 35.6116H45.7197V38.4605H51.4176V35.6116Z" stroke="url(#paint8_linear_3_3486)" stroke-width="0.75663" stroke-miterlimit="22.9256"/>
<path d="M51.4176 29.9137H45.7197V32.7626H51.4176V29.9137Z" stroke="url(#paint9_linear_3_3486)" stroke-width="0.75663" stroke-miterlimit="22.9256"/>
<path d="M39.9995 28.5101V45.6038V34.208H45.6974V39.9059H39.9995" stroke="url(#paint10_linear_3_3486)" stroke-width="0.75663" stroke-miterlimit="22.9256"/>
<path d="M48.569 28.5102C49.3557 28.5102 49.9935 27.8724 49.9935 27.0857C49.9935 26.299 49.3557 25.6613 48.569 25.6613C47.7823 25.6613 47.1445 26.299 47.1445 27.0857C47.1445 27.8724 47.7823 28.5102 48.569 28.5102Z" stroke="url(#paint11_linear_3_3486)" stroke-width="0.75663" stroke-miterlimit="22.9256"/>
<path d="M57.0941 42.7549C58.6675 42.7549 59.943 41.4794 59.943 39.906C59.943 38.3325 58.6675 37.057 57.0941 37.057C55.5206 37.057 54.2451 38.3325 54.2451 39.906C54.2451 41.4794 55.5206 42.7549 57.0941 42.7549Z" stroke="url(#paint12_linear_3_3486)" stroke-width="0.75663" stroke-miterlimit="22.9256"/>
<path d="M68.4896 42.7549C70.063 42.7549 71.3385 41.4794 71.3385 39.906C71.3385 38.3325 70.063 37.057 68.4896 37.057C66.9161 37.057 65.6406 38.3325 65.6406 39.906C65.6406 41.4794 66.9161 42.7549 68.4896 42.7549Z" stroke="url(#paint13_linear_3_3486)" stroke-width="0.75663" stroke-miterlimit="22.9256"/>
<path d="M57.0939 52.7263C57.8806 52.7263 58.5184 52.0885 58.5184 51.3018C58.5184 50.5151 57.8806 49.8773 57.0939 49.8773C56.3072 49.8773 55.6694 50.5151 55.6694 51.3018C55.6694 52.0885 56.3072 52.7263 57.0939 52.7263Z" stroke="url(#paint14_linear_3_3486)" stroke-width="0.75663" stroke-miterlimit="22.9256"/>
<path d="M68.4899 52.7263C69.2766 52.7263 69.9144 52.0885 69.9144 51.3018C69.9144 50.5151 69.2766 49.8773 68.4899 49.8773C67.7032 49.8773 67.0654 50.5151 67.0654 51.3018C67.0654 52.0885 67.7032 52.7263 68.4899 52.7263Z" stroke="url(#paint15_linear_3_3486)" stroke-width="0.75663" stroke-miterlimit="22.9256"/>
<path d="M57.0939 34.2081C57.8806 34.2081 58.5184 33.5703 58.5184 32.7836C58.5184 31.9969 57.8806 31.3591 57.0939 31.3591C56.3072 31.3591 55.6694 31.9969 55.6694 32.7836C55.6694 33.5703 56.3072 34.2081 57.0939 34.2081Z" stroke="url(#paint16_linear_3_3486)" stroke-width="0.75663" stroke-miterlimit="22.9256"/>
<path d="M59.9432 28.5102C61.5166 28.5102 62.7921 27.2346 62.7921 25.6612C62.7921 24.0878 61.5166 22.8123 59.9432 22.8123C58.3698 22.8123 57.0942 24.0878 57.0942 25.6612C57.0942 27.2346 58.3698 28.5102 59.9432 28.5102Z" stroke="url(#paint17_linear_3_3486)" stroke-width="0.75663" stroke-miterlimit="22.9256"/>
<path d="M58.5184 44.1794H55.6694V47.0284H58.5184V44.1794Z" stroke="url(#paint18_linear_3_3486)" stroke-width="0.75663" stroke-miterlimit="22.9256"/>
<path d="M69.9144 44.1794H67.0654V47.0284H69.9144V44.1794Z" stroke="url(#paint19_linear_3_3486)" stroke-width="0.75663" stroke-miterlimit="22.9256"/>
<path d="M71.0334 27.0858C71.8201 27.0858 72.4578 26.448 72.4578 25.6613C72.4578 24.8746 71.8201 24.2368 71.0334 24.2368C70.2466 24.2368 69.6089 24.8746 69.6089 25.6613C69.6089 26.448 70.2466 27.0858 71.0334 27.0858Z" stroke="url(#paint20_linear_3_3486)" stroke-width="0.75663" stroke-miterlimit="22.9256"/>
<path d="M74.1879 22.8116H57.0942V28.5095H74.1879V22.8116Z" stroke="url(#paint21_linear_3_3486)" stroke-width="0.75663" stroke-miterlimit="22.9256"/>
<path d="M79.8854 34.2081H74.1875V57.0004H79.8854V34.2081Z" stroke="url(#paint22_linear_3_3486)" stroke-width="0.75663" stroke-miterlimit="22.9256"/>
<path d="M79.8854 49.8773H74.1875V52.7263H79.8854V49.8773Z" stroke="url(#paint23_linear_3_3486)" stroke-width="0.75663" stroke-miterlimit="22.9256"/>
<path d="M79.8854 44.1794H74.1875V47.0284H79.8854V44.1794Z" stroke="url(#paint24_linear_3_3486)" stroke-width="0.75663" stroke-miterlimit="22.9256"/>
<path d="M79.8854 38.4816H74.1875V41.3305H79.8854V38.4816Z" stroke="url(#paint25_linear_3_3486)" stroke-width="0.75663" stroke-miterlimit="22.9256"/>
<path d="M65.6409 31.3591H62.792V34.2081H65.6409V31.3591Z" stroke="url(#paint26_linear_3_3486)" stroke-width="0.75663" stroke-miterlimit="22.9256"/>
<path d="M71.3387 31.3591H68.4897V34.2081H71.3387V31.3591Z" stroke="url(#paint27_linear_3_3486)" stroke-width="0.75663" stroke-miterlimit="22.9256"/>
<path d="M11.5246 52.7263H5.82666V55.5753H11.5246V52.7263Z" stroke="url(#paint28_linear_3_3486)" stroke-width="0.75663" stroke-miterlimit="22.9256"/>
</g>
</g>
<defs>
<linearGradient id="paint0_linear_3_3486" x1="3.01051" y1="33.1549" x2="80.8018" y2="38.254" gradientUnits="userSpaceOnUse">
<stop stop-color="#37A0E7"/>
<stop offset="1" stop-color="#C507D9"/>
</linearGradient>
<linearGradient id="paint1_linear_3_3486" x1="6.22534" y1="59.2912" x2="17.3382" y2="60.0196" gradientUnits="userSpaceOnUse">
<stop stop-color="#37A0E7"/>
<stop offset="1" stop-color="#C507D9"/>
</linearGradient>
<linearGradient id="paint2_linear_3_3486" x1="63.2058" y1="59.2912" x2="74.3187" y2="60.0196" gradientUnits="userSpaceOnUse">
<stop stop-color="#37A0E7"/>
<stop offset="1" stop-color="#C507D9"/>
</linearGradient>
<linearGradient id="paint3_linear_3_3486" x1="1.97596" y1="34.2702" x2="52.0251" y2="37.2228" gradientUnits="userSpaceOnUse">
<stop stop-color="#37A0E7"/>
<stop offset="1" stop-color="#C507D9"/>
</linearGradient>
<linearGradient id="paint4_linear_3_3486" x1="7.2599" y1="35.3848" x2="46.0955" y2="38.3547" gradientUnits="userSpaceOnUse">
<stop stop-color="#37A0E7"/>
<stop offset="1" stop-color="#C507D9"/>
</linearGradient>
<linearGradient id="paint5_linear_3_3486" x1="7.05207" y1="41.8376" x2="39.4853" y2="47.6017" gradientUnits="userSpaceOnUse">
<stop stop-color="#37A0E7"/>
<stop offset="1" stop-color="#C507D9"/>
</linearGradient>
<linearGradient id="paint6_linear_3_3486" x1="6.88407" y1="33.9784" x2="40.0995" y2="37.7971" gradientUnits="userSpaceOnUse">
<stop stop-color="#37A0E7"/>
<stop offset="1" stop-color="#C507D9"/>
</linearGradient>
<linearGradient id="paint7_linear_3_3486" x1="45.9266" y1="42.4552" x2="51.4831" y2="42.8194" gradientUnits="userSpaceOnUse">
<stop stop-color="#37A0E7"/>
<stop offset="1" stop-color="#C507D9"/>
</linearGradient>
<linearGradient id="paint8_linear_3_3486" x1="45.9266" y1="36.7573" x2="51.4831" y2="37.1216" gradientUnits="userSpaceOnUse">
<stop stop-color="#37A0E7"/>
<stop offset="1" stop-color="#C507D9"/>
</linearGradient>
<linearGradient id="paint9_linear_3_3486" x1="45.9266" y1="31.0595" x2="51.4831" y2="31.4237" gradientUnits="userSpaceOnUse">
<stop stop-color="#37A0E7"/>
<stop offset="1" stop-color="#C507D9"/>
</linearGradient>
<linearGradient id="paint10_linear_3_3486" x1="40.2064" y1="35.3848" x2="45.7861" y2="35.4457" gradientUnits="userSpaceOnUse">
<stop stop-color="#37A0E7"/>
<stop offset="1" stop-color="#C507D9"/>
</linearGradient>
<linearGradient id="paint11_linear_3_3486" x1="47.248" y1="26.807" x2="50.0351" y2="26.8984" gradientUnits="userSpaceOnUse">
<stop stop-color="#37A0E7"/>
<stop offset="1" stop-color="#C507D9"/>
</linearGradient>
<linearGradient id="paint12_linear_3_3486" x1="54.452" y1="39.3486" x2="60.0263" y2="39.5313" gradientUnits="userSpaceOnUse">
<stop stop-color="#37A0E7"/>
<stop offset="1" stop-color="#C507D9"/>
</linearGradient>
<linearGradient id="paint13_linear_3_3486" x1="65.8475" y1="39.3486" x2="71.4219" y2="39.5313" gradientUnits="userSpaceOnUse">
<stop stop-color="#37A0E7"/>
<stop offset="1" stop-color="#C507D9"/>
</linearGradient>
<linearGradient id="paint14_linear_3_3486" x1="55.7729" y1="51.0231" x2="58.56" y2="51.1144" gradientUnits="userSpaceOnUse">
<stop stop-color="#37A0E7"/>
<stop offset="1" stop-color="#C507D9"/>
</linearGradient>
<linearGradient id="paint15_linear_3_3486" x1="67.1689" y1="51.0231" x2="69.956" y2="51.1144" gradientUnits="userSpaceOnUse">
<stop stop-color="#37A0E7"/>
<stop offset="1" stop-color="#C507D9"/>
</linearGradient>
<linearGradient id="paint16_linear_3_3486" x1="55.7729" y1="32.5049" x2="58.56" y2="32.5963" gradientUnits="userSpaceOnUse">
<stop stop-color="#37A0E7"/>
<stop offset="1" stop-color="#C507D9"/>
</linearGradient>
<linearGradient id="paint17_linear_3_3486" x1="57.3011" y1="25.1038" x2="62.8755" y2="25.2865" gradientUnits="userSpaceOnUse">
<stop stop-color="#37A0E7"/>
<stop offset="1" stop-color="#C507D9"/>
</linearGradient>
<linearGradient id="paint18_linear_3_3486" x1="55.7729" y1="45.3252" x2="58.56" y2="45.4166" gradientUnits="userSpaceOnUse">
<stop stop-color="#37A0E7"/>
<stop offset="1" stop-color="#C507D9"/>
</linearGradient>
<linearGradient id="paint19_linear_3_3486" x1="67.1689" y1="45.3252" x2="69.956" y2="45.4166" gradientUnits="userSpaceOnUse">
<stop stop-color="#37A0E7"/>
<stop offset="1" stop-color="#C507D9"/>
</linearGradient>
<linearGradient id="paint20_linear_3_3486" x1="69.7123" y1="25.3826" x2="72.4995" y2="25.4739" gradientUnits="userSpaceOnUse">
<stop stop-color="#37A0E7"/>
<stop offset="1" stop-color="#C507D9"/>
</linearGradient>
<linearGradient id="paint21_linear_3_3486" x1="57.715" y1="25.1032" x2="74.2956" y2="26.7335" gradientUnits="userSpaceOnUse">
<stop stop-color="#37A0E7"/>
<stop offset="1" stop-color="#C507D9"/>
</linearGradient>
<linearGradient id="paint22_linear_3_3486" x1="74.3944" y1="43.3746" x2="79.9743" y2="43.4203" gradientUnits="userSpaceOnUse">
<stop stop-color="#37A0E7"/>
<stop offset="1" stop-color="#C507D9"/>
</linearGradient>
<linearGradient id="paint23_linear_3_3486" x1="74.3944" y1="51.0231" x2="79.9508" y2="51.3873" gradientUnits="userSpaceOnUse">
<stop stop-color="#37A0E7"/>
<stop offset="1" stop-color="#C507D9"/>
</linearGradient>
<linearGradient id="paint24_linear_3_3486" x1="74.3944" y1="45.3252" x2="79.9508" y2="45.6894" gradientUnits="userSpaceOnUse">
<stop stop-color="#37A0E7"/>
<stop offset="1" stop-color="#C507D9"/>
</linearGradient>
<linearGradient id="paint25_linear_3_3486" x1="74.3944" y1="39.6273" x2="79.9508" y2="39.9916" gradientUnits="userSpaceOnUse">
<stop stop-color="#37A0E7"/>
<stop offset="1" stop-color="#C507D9"/>
</linearGradient>
<linearGradient id="paint26_linear_3_3486" x1="62.8954" y1="32.5049" x2="65.6826" y2="32.5963" gradientUnits="userSpaceOnUse">
<stop stop-color="#37A0E7"/>
<stop offset="1" stop-color="#C507D9"/>
</linearGradient>
<linearGradient id="paint27_linear_3_3486" x1="68.5932" y1="32.5049" x2="71.3804" y2="32.5963" gradientUnits="userSpaceOnUse">
<stop stop-color="#37A0E7"/>
<stop offset="1" stop-color="#C507D9"/>
</linearGradient>
<linearGradient id="paint28_linear_3_3486" x1="6.03357" y1="53.8721" x2="11.59" y2="54.2363" gradientUnits="userSpaceOnUse">
<stop stop-color="#37A0E7"/>
<stop offset="1" stop-color="#C507D9"/>
</linearGradient>
<clipPath id="clip0_3_3486">
<rect width="80" height="80" fill="white"/>
</clipPath>
<clipPath id="clip1_3_3486">
<rect width="80" height="45.812" fill="white" transform="translate(0 17)"/>
</clipPath>
</defs>
</svg>
