<svg width="80" height="80" viewBox="0 0 80 80" fill="none" xmlns="http://www.w3.org/2000/svg">
<g clip-path="url(#clip0_3_3429)">
<rect width="80" height="80" fill="white"/>
<g clip-path="url(#clip1_3_3429)">
<path fill-rule="evenodd" clip-rule="evenodd" d="M3.19032 64.2027H15.4599L18.5275 61.4419V36.595H0.122803V61.4419L3.19032 64.2027Z" stroke="url(#paint0_linear_3_3429)" stroke-width="0.75551" stroke-miterlimit="22.9256"/>
<path d="M18.5279 47.3311H0.122803V53.4662H18.5279V47.3311Z" stroke="url(#paint1_linear_3_3429)" stroke-width="0.75551" stroke-miterlimit="22.9256"/>
<path d="M15.4605 33.5275H3.19043V36.595H15.4605V33.5275Z" stroke="url(#paint2_linear_3_3429)" stroke-width="0.75551" stroke-miterlimit="22.9256"/>
<path fill-rule="evenodd" clip-rule="evenodd" d="M46.1352 61.3223L49.2027 58.5038V24.325H30.7976V58.5038L33.8651 61.3223V64.1704H46.1352V61.3223Z" stroke="url(#paint3_linear_3_3429)" stroke-width="0.75551" stroke-miterlimit="22.9256"/>
<path d="M7.7914 47.3311H4.72388V53.4662H7.7914V47.3311Z" stroke="url(#paint4_linear_3_3429)" stroke-width="0.75551" stroke-miterlimit="22.9256"/>
<path d="M13.9264 47.3311H10.8589V53.4662H13.9264V47.3311Z" stroke="url(#paint5_linear_3_3429)" stroke-width="0.75551" stroke-miterlimit="22.9256"/>
<path d="M1.65625 53.4662V47.3311" stroke="url(#paint6_linear_3_3429)" stroke-width="0.75551" stroke-miterlimit="22.9256"/>
<path d="M16.9939 47.3311V53.4662" stroke="url(#paint7_linear_3_3429)" stroke-width="0.75551" stroke-miterlimit="22.9256"/>
<path d="M18.5279 47.3311H0.122803V53.4662H18.5279V47.3311Z" stroke="url(#paint8_linear_3_3429)" stroke-width="0.75551" stroke-miterlimit="22.9256"/>
<path d="M7.7914 47.3311H4.72388V53.4662H7.7914V47.3311Z" stroke="url(#paint9_linear_3_3429)" stroke-width="0.75551" stroke-miterlimit="22.9256"/>
<path d="M13.9264 47.3311H10.8589V53.4662H13.9264V47.3311Z" stroke="url(#paint10_linear_3_3429)" stroke-width="0.75551" stroke-miterlimit="22.9256"/>
<path d="M1.65625 53.4662V47.3311" stroke="url(#paint11_linear_3_3429)" stroke-width="0.75551" stroke-miterlimit="22.9256"/>
<path d="M16.9939 47.3311V53.4662" stroke="url(#paint12_linear_3_3429)" stroke-width="0.75551" stroke-miterlimit="22.9256"/>
<path d="M49.2027 39.6466H30.7976V45.7817H49.2027V39.6466Z" stroke="url(#paint13_linear_3_3429)" stroke-width="0.75551" stroke-miterlimit="22.9256"/>
<path d="M38.4662 39.6466H35.3987V45.7817H38.4662V39.6466Z" stroke="url(#paint14_linear_3_3429)" stroke-width="0.75551" stroke-miterlimit="22.9256"/>
<path d="M44.6012 39.6466H41.5337V45.7817H44.6012V39.6466Z" stroke="url(#paint15_linear_3_3429)" stroke-width="0.75551" stroke-miterlimit="22.9256"/>
<path d="M32.3311 45.7817V39.6466" stroke="url(#paint16_linear_3_3429)" stroke-width="0.75551" stroke-miterlimit="22.9256"/>
<path d="M47.6687 39.6466V45.7817" stroke="url(#paint17_linear_3_3429)" stroke-width="0.75551" stroke-miterlimit="22.9256"/>
<path d="M0.122803 43.9546H18.5275" stroke="url(#paint18_linear_3_3429)" stroke-width="0.75551" stroke-miterlimit="22.9256"/>
<path d="M30.7976 36.595H49.2027" stroke="url(#paint19_linear_3_3429)" stroke-width="0.75551" stroke-miterlimit="22.9256"/>
<path d="M46.1351 21.2574H33.865V24.325H46.1351V21.2574Z" stroke="url(#paint20_linear_3_3429)" stroke-width="0.75551" stroke-miterlimit="22.9256"/>
<path fill-rule="evenodd" clip-rule="evenodd" d="M76.81 61.3224L79.8775 58.5039V18.1904H61.4724V58.5039L64.5399 61.3224V64.1704H76.81V61.3224Z" stroke="url(#paint21_linear_3_3429)" stroke-width="0.75551" stroke-miterlimit="22.9256"/>
<path d="M79.8775 33.5275H61.4724V39.6626H79.8775V33.5275Z" stroke="url(#paint22_linear_3_3429)" stroke-width="0.75551" stroke-miterlimit="22.9256"/>
<path d="M69.1412 33.5275H66.0737V39.6626H69.1412V33.5275Z" stroke="url(#paint23_linear_3_3429)" stroke-width="0.75551" stroke-miterlimit="22.9256"/>
<path d="M75.2765 33.5275H72.209V39.6626H75.2765V33.5275Z" stroke="url(#paint24_linear_3_3429)" stroke-width="0.75551" stroke-miterlimit="22.9256"/>
<path d="M63.0063 39.6626V33.5275" stroke="url(#paint25_linear_3_3429)" stroke-width="0.75551" stroke-miterlimit="22.9256"/>
<path d="M78.3435 33.5275V39.6626" stroke="url(#paint26_linear_3_3429)" stroke-width="0.75551" stroke-miterlimit="22.9256"/>
<path d="M61.4724 30.4764H79.8775" stroke="url(#paint27_linear_3_3429)" stroke-width="0.75551" stroke-miterlimit="22.9256"/>
<path d="M76.8099 15.1229H64.5398V18.1904H76.8099V15.1229Z" stroke="url(#paint28_linear_3_3429)" stroke-width="0.75551" stroke-miterlimit="22.9256"/>
</g>
</g>
<defs>
<linearGradient id="paint0_linear_3_3429" x1="0.791129" y1="47.6981" x2="18.8074" y2="48.0918" gradientUnits="userSpaceOnUse">
<stop stop-color="#37A0E7"/>
<stop offset="1" stop-color="#C507D9"/>
</linearGradient>
<linearGradient id="paint1_linear_3_3429" x1="0.791146" y1="49.7985" x2="18.6438" y2="51.5539" gradientUnits="userSpaceOnUse">
<stop stop-color="#37A0E7"/>
<stop offset="1" stop-color="#C507D9"/>
</linearGradient>
<linearGradient id="paint2_linear_3_3429" x1="3.63599" y1="34.7612" x2="15.4498" y2="36.31" gradientUnits="userSpaceOnUse">
<stop stop-color="#37A0E7"/>
<stop offset="1" stop-color="#C507D9"/>
</linearGradient>
<linearGradient id="paint3_linear_3_3429" x1="31.466" y1="40.3498" x2="49.4871" y2="40.6226" gradientUnits="userSpaceOnUse">
<stop stop-color="#37A0E7"/>
<stop offset="1" stop-color="#C507D9"/>
</linearGradient>
<linearGradient id="paint4_linear_3_3429" x1="4.83527" y1="49.7985" x2="7.83868" y2="49.8477" gradientUnits="userSpaceOnUse">
<stop stop-color="#37A0E7"/>
<stop offset="1" stop-color="#C507D9"/>
</linearGradient>
<linearGradient id="paint5_linear_3_3429" x1="10.9703" y1="49.7985" x2="13.9737" y2="49.8477" gradientUnits="userSpaceOnUse">
<stop stop-color="#37A0E7"/>
<stop offset="1" stop-color="#C507D9"/>
</linearGradient>
<linearGradient id="paint6_linear_3_3429" x1="1.69256" y1="49.7985" x2="2.6719" y2="49.8037" gradientUnits="userSpaceOnUse">
<stop stop-color="#37A0E7"/>
<stop offset="1" stop-color="#C507D9"/>
</linearGradient>
<linearGradient id="paint7_linear_3_3429" x1="17.0302" y1="49.7985" x2="18.0095" y2="49.8037" gradientUnits="userSpaceOnUse">
<stop stop-color="#37A0E7"/>
<stop offset="1" stop-color="#C507D9"/>
</linearGradient>
<linearGradient id="paint8_linear_3_3429" x1="0.791146" y1="49.7985" x2="18.6438" y2="51.5539" gradientUnits="userSpaceOnUse">
<stop stop-color="#37A0E7"/>
<stop offset="1" stop-color="#C507D9"/>
</linearGradient>
<linearGradient id="paint9_linear_3_3429" x1="4.83527" y1="49.7985" x2="7.83868" y2="49.8477" gradientUnits="userSpaceOnUse">
<stop stop-color="#37A0E7"/>
<stop offset="1" stop-color="#C507D9"/>
</linearGradient>
<linearGradient id="paint10_linear_3_3429" x1="10.9703" y1="49.7985" x2="13.9737" y2="49.8477" gradientUnits="userSpaceOnUse">
<stop stop-color="#37A0E7"/>
<stop offset="1" stop-color="#C507D9"/>
</linearGradient>
<linearGradient id="paint11_linear_3_3429" x1="1.69256" y1="49.7985" x2="2.6719" y2="49.8037" gradientUnits="userSpaceOnUse">
<stop stop-color="#37A0E7"/>
<stop offset="1" stop-color="#C507D9"/>
</linearGradient>
<linearGradient id="paint12_linear_3_3429" x1="17.0302" y1="49.7985" x2="18.0095" y2="49.8037" gradientUnits="userSpaceOnUse">
<stop stop-color="#37A0E7"/>
<stop offset="1" stop-color="#C507D9"/>
</linearGradient>
<linearGradient id="paint13_linear_3_3429" x1="31.466" y1="42.114" x2="49.3186" y2="43.8693" gradientUnits="userSpaceOnUse">
<stop stop-color="#37A0E7"/>
<stop offset="1" stop-color="#C507D9"/>
</linearGradient>
<linearGradient id="paint14_linear_3_3429" x1="35.5101" y1="42.114" x2="38.5135" y2="42.1632" gradientUnits="userSpaceOnUse">
<stop stop-color="#37A0E7"/>
<stop offset="1" stop-color="#C507D9"/>
</linearGradient>
<linearGradient id="paint15_linear_3_3429" x1="41.6451" y1="42.114" x2="44.6485" y2="42.1632" gradientUnits="userSpaceOnUse">
<stop stop-color="#37A0E7"/>
<stop offset="1" stop-color="#C507D9"/>
</linearGradient>
<linearGradient id="paint16_linear_3_3429" x1="32.3674" y1="42.114" x2="33.3467" y2="42.1192" gradientUnits="userSpaceOnUse">
<stop stop-color="#37A0E7"/>
<stop offset="1" stop-color="#C507D9"/>
</linearGradient>
<linearGradient id="paint17_linear_3_3429" x1="47.705" y1="42.114" x2="48.6843" y2="42.1192" gradientUnits="userSpaceOnUse">
<stop stop-color="#37A0E7"/>
<stop offset="1" stop-color="#C507D9"/>
</linearGradient>
<linearGradient id="paint18_linear_3_3429" x1="0.791129" y1="44.3567" x2="14.0072" y2="52.3287" gradientUnits="userSpaceOnUse">
<stop stop-color="#37A0E7"/>
<stop offset="1" stop-color="#C507D9"/>
</linearGradient>
<linearGradient id="paint19_linear_3_3429" x1="31.466" y1="36.9972" x2="44.6822" y2="44.9695" gradientUnits="userSpaceOnUse">
<stop stop-color="#37A0E7"/>
<stop offset="1" stop-color="#C507D9"/>
</linearGradient>
<linearGradient id="paint20_linear_3_3429" x1="34.3106" y1="22.4911" x2="46.1244" y2="24.0399" gradientUnits="userSpaceOnUse">
<stop stop-color="#37A0E7"/>
<stop offset="1" stop-color="#C507D9"/>
</linearGradient>
<linearGradient id="paint21_linear_3_3429" x1="62.1408" y1="36.6824" x2="80.1629" y2="36.9188" gradientUnits="userSpaceOnUse">
<stop stop-color="#37A0E7"/>
<stop offset="1" stop-color="#C507D9"/>
</linearGradient>
<linearGradient id="paint22_linear_3_3429" x1="62.1408" y1="35.9949" x2="79.9934" y2="37.7502" gradientUnits="userSpaceOnUse">
<stop stop-color="#37A0E7"/>
<stop offset="1" stop-color="#C507D9"/>
</linearGradient>
<linearGradient id="paint23_linear_3_3429" x1="66.1851" y1="35.9949" x2="69.1885" y2="36.0441" gradientUnits="userSpaceOnUse">
<stop stop-color="#37A0E7"/>
<stop offset="1" stop-color="#C507D9"/>
</linearGradient>
<linearGradient id="paint24_linear_3_3429" x1="72.3204" y1="35.9949" x2="75.3238" y2="36.0441" gradientUnits="userSpaceOnUse">
<stop stop-color="#37A0E7"/>
<stop offset="1" stop-color="#C507D9"/>
</linearGradient>
<linearGradient id="paint25_linear_3_3429" x1="63.0427" y1="35.9949" x2="64.022" y2="36.0001" gradientUnits="userSpaceOnUse">
<stop stop-color="#37A0E7"/>
<stop offset="1" stop-color="#C507D9"/>
</linearGradient>
<linearGradient id="paint26_linear_3_3429" x1="78.3798" y1="35.9949" x2="79.3592" y2="36.0001" gradientUnits="userSpaceOnUse">
<stop stop-color="#37A0E7"/>
<stop offset="1" stop-color="#C507D9"/>
</linearGradient>
<linearGradient id="paint27_linear_3_3429" x1="62.1408" y1="30.8786" x2="75.357" y2="38.8509" gradientUnits="userSpaceOnUse">
<stop stop-color="#37A0E7"/>
<stop offset="1" stop-color="#C507D9"/>
</linearGradient>
<linearGradient id="paint28_linear_3_3429" x1="64.9854" y1="16.3565" x2="76.7992" y2="17.9053" gradientUnits="userSpaceOnUse">
<stop stop-color="#37A0E7"/>
<stop offset="1" stop-color="#C507D9"/>
</linearGradient>
<clipPath id="clip0_3_3429">
<rect width="80" height="80" fill="white"/>
</clipPath>
<clipPath id="clip1_3_3429">
<rect width="80" height="49.3252" fill="white" transform="translate(0 15)"/>
</clipPath>
</defs>
</svg>
