<svg width="80" height="80" viewBox="0 0 80 80" fill="none" xmlns="http://www.w3.org/2000/svg">
<g clip-path="url(#clip0_3_2848)">
<rect width="80" height="80" fill="white"/>
<g clip-path="url(#clip1_3_2848)">
<path d="M26.3956 50.7189H17.3733M11.7042 50.7189H6.11133V73.2102H11.7441M17.3733 73.2102H29.1322M50.5572 73.2102H62.4176M68.0323 73.2102H73.5871V50.7189H68.0577M62.4031 50.7189H53.5295" stroke="url(#paint0_linear_3_2848)" stroke-width="0.755773" stroke-miterlimit="22.9256"/>
<path fill-rule="evenodd" clip-rule="evenodd" d="M52.5015 66.181C52.7354 62.6663 53.2759 54.2317 53.5098 50.7189L53.907 45.0951C54.5544 33.5393 56.7179 39.4714 56.7179 28.2257H22.981C22.981 39.4714 25.2642 33.8476 25.7919 45.0951L26.3886 50.7189C26.8365 54.9371 26.8728 61.9518 27.1974 66.181C28.6029 84.4558 51.0942 84.4558 52.4997 66.181H52.5015Z" stroke="url(#paint1_linear_3_2848)" stroke-width="0.755773" stroke-miterlimit="22.9256"/>
<path d="M17.3606 45.0951H11.7368V78.8321H17.3606V45.0951Z" stroke="url(#paint2_linear_3_2848)" stroke-width="0.755773" stroke-miterlimit="22.9256"/>
<path d="M62.3415 22.6038H17.3589V28.2275H62.3415V22.6038Z" stroke="url(#paint3_linear_3_2848)" stroke-width="0.755773" stroke-miterlimit="22.9256"/>
<path d="M34.228 18.556V5.73621H44.8444V18.556" stroke="url(#paint4_linear_3_2848)" stroke-width="0.755773" stroke-miterlimit="22.9256"/>
<path d="M62.3415 0.112427H17.3589V5.73617H62.3415V0.112427Z" stroke="url(#paint5_linear_3_2848)" stroke-width="0.755773" stroke-miterlimit="22.9256"/>
<path d="M17.3589 25.4147H62.3416" stroke="url(#paint6_linear_3_2848)" stroke-width="0.755773" stroke-miterlimit="22.9256"/>
<path d="M14.5479 45.0951V78.8339" stroke="url(#paint7_linear_3_2848)" stroke-width="0.755773" stroke-miterlimit="22.9256"/>
<path d="M55.3139 20.7848C56.2098 21.3071 56.7194 21.9128 56.7194 22.6037H22.9824C22.9824 21.911 23.4956 21.3034 24.3952 20.7811M27.0465 19.7438C33.5299 17.9448 46.1466 17.9484 52.6462 19.7474" stroke="url(#paint8_linear_3_2848)" stroke-width="0.755773" stroke-miterlimit="22.9256"/>
<path d="M21.5624 19.7493H18.7515V22.5602H21.5624V19.7493Z" stroke="url(#paint9_linear_3_2848)" stroke-width="0.755773" stroke-miterlimit="22.9256"/>
<path d="M27.186 19.7493H24.375V22.5602H27.186V19.7493Z" stroke="url(#paint10_linear_3_2848)" stroke-width="0.755773" stroke-miterlimit="22.9256"/>
<path d="M32.808 19.7493H29.9971V22.5602H32.808V19.7493Z" stroke="url(#paint11_linear_3_2848)" stroke-width="0.755773" stroke-miterlimit="22.9256"/>
<path d="M38.4321 19.7493H35.6211V22.5602H38.4321V19.7493Z" stroke="url(#paint12_linear_3_2848)" stroke-width="0.755773" stroke-miterlimit="22.9256"/>
<path d="M44.0536 19.7493H41.2427V22.5602H44.0536V19.7493Z" stroke="url(#paint13_linear_3_2848)" stroke-width="0.755773" stroke-miterlimit="22.9256"/>
<path d="M49.6777 19.7493H46.8667V22.5602H49.6777V19.7493Z" stroke="url(#paint14_linear_3_2848)" stroke-width="0.755773" stroke-miterlimit="22.9256"/>
<path d="M55.2992 19.7493H52.4883V22.5602H55.2992V19.7493Z" stroke="url(#paint15_linear_3_2848)" stroke-width="0.755773" stroke-miterlimit="22.9256"/>
<path d="M60.9233 19.7493H58.1123V22.5602H60.9233V19.7493Z" stroke="url(#paint16_linear_3_2848)" stroke-width="0.755773" stroke-miterlimit="22.9256"/>
<path d="M21.599 28.2347H18.7881V31.0457H21.599V28.2347Z" stroke="url(#paint17_linear_3_2848)" stroke-width="0.755773" stroke-miterlimit="22.9256"/>
<path d="M27.2226 28.2347H24.4116V31.0457H27.2226V28.2347Z" stroke="url(#paint18_linear_3_2848)" stroke-width="0.755773" stroke-miterlimit="22.9256"/>
<path d="M32.8447 28.2347H30.0337V31.0457H32.8447V28.2347Z" stroke="url(#paint19_linear_3_2848)" stroke-width="0.755773" stroke-miterlimit="22.9256"/>
<path d="M38.4687 28.2347H35.6577V31.0457H38.4687V28.2347Z" stroke="url(#paint20_linear_3_2848)" stroke-width="0.755773" stroke-miterlimit="22.9256"/>
<path d="M44.0922 28.2347H41.2812V31.0457H44.0922V28.2347Z" stroke="url(#paint21_linear_3_2848)" stroke-width="0.755773" stroke-miterlimit="22.9256"/>
<path d="M49.7143 28.2347H46.9033V31.0457H49.7143V28.2347Z" stroke="url(#paint22_linear_3_2848)" stroke-width="0.755773" stroke-miterlimit="22.9256"/>
<path d="M55.3378 28.2347H52.5269V31.0457H55.3378V28.2347Z" stroke="url(#paint23_linear_3_2848)" stroke-width="0.755773" stroke-miterlimit="22.9256"/>
<path d="M60.9599 28.2347H58.1489V31.0457H60.9599V28.2347Z" stroke="url(#paint24_linear_3_2848)" stroke-width="0.755773" stroke-miterlimit="22.9256"/>
<path d="M8.90527 75.067L8.90527 77.8789L11.7171 77.8789L11.7171 75.067L8.90527 75.067Z" stroke="url(#paint25_linear_3_2848)" stroke-width="0.377886" stroke-miterlimit="22.9256"/>
<path d="M8.90527 69.4442L8.90527 72.2561L11.7171 72.2561L11.7171 69.4442L8.90527 69.4442Z" stroke="url(#paint26_linear_3_2848)" stroke-width="0.377886" stroke-miterlimit="22.9256"/>
<path d="M8.90527 63.8212L8.90527 66.6331L11.7171 66.6331L11.7171 63.8212L8.90527 63.8212Z" stroke="url(#paint27_linear_3_2848)" stroke-width="0.377886" stroke-miterlimit="22.9256"/>
<path d="M8.90527 58.1984L8.90527 61.0103L11.7171 61.0103L11.7171 58.1984L8.90527 58.1984Z" stroke="url(#paint28_linear_3_2848)" stroke-width="0.377886" stroke-miterlimit="22.9256"/>
<path d="M8.90527 52.5755L8.90527 55.3873L11.7171 55.3873L11.7171 52.5755L8.90527 52.5755Z" stroke="url(#paint29_linear_3_2848)" stroke-width="0.377886" stroke-miterlimit="22.9256"/>
<path d="M8.90527 46.9525L8.90527 49.7644L11.7171 49.7644L11.7171 46.9525L8.90527 46.9525Z" stroke="url(#paint30_linear_3_2848)" stroke-width="0.377886" stroke-miterlimit="22.9256"/>
<path d="M17.4248 75.0302L17.4248 77.842L20.2367 77.842L20.2367 75.0302L17.4248 75.0302Z" stroke="url(#paint31_linear_3_2848)" stroke-width="0.377886" stroke-miterlimit="22.9256"/>
<path d="M17.4248 69.4074L17.4248 72.2192L20.2367 72.2192L20.2367 69.4074L17.4248 69.4074Z" stroke="url(#paint32_linear_3_2848)" stroke-width="0.377886" stroke-miterlimit="22.9256"/>
<path d="M17.4248 63.7846L17.4248 66.5964L20.2367 66.5964L20.2367 63.7846L17.4248 63.7846Z" stroke="url(#paint33_linear_3_2848)" stroke-width="0.377886" stroke-miterlimit="22.9256"/>
<path d="M17.4248 58.1615L17.4248 60.9734L20.2367 60.9734L20.2367 58.1615L17.4248 58.1615Z" stroke="url(#paint34_linear_3_2848)" stroke-width="0.377886" stroke-miterlimit="22.9256"/>
<path d="M17.4248 52.5387L17.4248 55.3506L20.2367 55.3506L20.2367 52.5387L17.4248 52.5387Z" stroke="url(#paint35_linear_3_2848)" stroke-width="0.377886" stroke-miterlimit="22.9256"/>
<path d="M17.4248 46.9159L17.4248 49.7278L20.2367 49.7278L20.2367 46.9159L17.4248 46.9159Z" stroke="url(#paint36_linear_3_2848)" stroke-width="0.377886" stroke-miterlimit="22.9256"/>
<path d="M68.0324 45.0951H62.4087V78.8321H68.0324V45.0951Z" stroke="url(#paint37_linear_3_2848)" stroke-width="0.755773" stroke-miterlimit="22.9256"/>
<path d="M65.2197 45.0951V78.8339" stroke="url(#paint38_linear_3_2848)" stroke-width="0.755773" stroke-miterlimit="22.9256"/>
<path d="M59.5923 75.067L59.5923 77.8789L62.4042 77.8789L62.4042 75.067L59.5923 75.067Z" stroke="url(#paint39_linear_3_2848)" stroke-width="0.377886" stroke-miterlimit="22.9256"/>
<path d="M59.5923 69.4442L59.5923 72.2561L62.4042 72.2561L62.4042 69.4442L59.5923 69.4442Z" stroke="url(#paint40_linear_3_2848)" stroke-width="0.377886" stroke-miterlimit="22.9256"/>
<path d="M59.5923 63.8212L59.5923 66.6331L62.4042 66.6331L62.4042 63.8212L59.5923 63.8212Z" stroke="url(#paint41_linear_3_2848)" stroke-width="0.377886" stroke-miterlimit="22.9256"/>
<path d="M59.5923 58.1984L59.5923 61.0103L62.4042 61.0103L62.4042 58.1984L59.5923 58.1984Z" stroke="url(#paint42_linear_3_2848)" stroke-width="0.377886" stroke-miterlimit="22.9256"/>
<path d="M59.5923 52.5755L59.5923 55.3873L62.4042 55.3873L62.4042 52.5755L59.5923 52.5755Z" stroke="url(#paint43_linear_3_2848)" stroke-width="0.377886" stroke-miterlimit="22.9256"/>
<path d="M59.5923 46.9525L59.5923 49.7644L62.4042 49.7644L62.4042 46.9525L59.5923 46.9525Z" stroke="url(#paint44_linear_3_2848)" stroke-width="0.377886" stroke-miterlimit="22.9256"/>
<path d="M68.0967 75.0302L68.0967 77.842L70.9085 77.842L70.9085 75.0302L68.0967 75.0302Z" stroke="url(#paint45_linear_3_2848)" stroke-width="0.377886" stroke-miterlimit="22.9256"/>
<path d="M68.0967 69.4074L68.0967 72.2192L70.9085 72.2192L70.9085 69.4074L68.0967 69.4074Z" stroke="url(#paint46_linear_3_2848)" stroke-width="0.377886" stroke-miterlimit="22.9256"/>
<path d="M68.0967 63.7846L68.0967 66.5964L70.9085 66.5964L70.9085 63.7846L68.0967 63.7846Z" stroke="url(#paint47_linear_3_2848)" stroke-width="0.377886" stroke-miterlimit="22.9256"/>
<path d="M68.0967 58.1615L68.0967 60.9734L70.9085 60.9734L70.9085 58.1615L68.0967 58.1615Z" stroke="url(#paint48_linear_3_2848)" stroke-width="0.377886" stroke-miterlimit="22.9256"/>
<path d="M68.0967 52.5387L68.0967 55.3506L70.9085 55.3506L70.9085 52.5387L68.0967 52.5387Z" stroke="url(#paint49_linear_3_2848)" stroke-width="0.377886" stroke-miterlimit="22.9256"/>
<path d="M68.0967 46.9159L68.0967 49.7278L70.9085 49.7278L70.9085 46.9159L68.0967 46.9159Z" stroke="url(#paint50_linear_3_2848)" stroke-width="0.377886" stroke-miterlimit="22.9256"/>
</g>
</g>
<defs>
<linearGradient id="paint0_linear_3_2848" x1="8.56157" y1="59.7643" x2="74.012" y2="66.1998" gradientUnits="userSpaceOnUse">
<stop stop-color="#37A0E7"/>
<stop offset="1" stop-color="#C507D9"/>
</linearGradient>
<linearGradient id="paint1_linear_3_2848" x1="24.206" y1="49.0026" x2="57.2316" y2="49.7094" gradientUnits="userSpaceOnUse">
<stop stop-color="#37A0E7"/>
<stop offset="1" stop-color="#C507D9"/>
</linearGradient>
<linearGradient id="paint2_linear_3_2848" x1="11.941" y1="58.6632" x2="17.4485" y2="58.6933" gradientUnits="userSpaceOnUse">
<stop stop-color="#37A0E7"/>
<stop offset="1" stop-color="#C507D9"/>
</linearGradient>
<linearGradient id="paint3_linear_3_2848" x1="18.9923" y1="24.8655" x2="60.2137" y2="35.6719" gradientUnits="userSpaceOnUse">
<stop stop-color="#37A0E7"/>
<stop offset="1" stop-color="#C507D9"/>
</linearGradient>
<linearGradient id="paint4_linear_3_2848" x1="34.6135" y1="10.892" x2="45.0032" y2="11.174" gradientUnits="userSpaceOnUse">
<stop stop-color="#37A0E7"/>
<stop offset="1" stop-color="#C507D9"/>
</linearGradient>
<linearGradient id="paint5_linear_3_2848" x1="18.9923" y1="2.37415" x2="60.2137" y2="13.1805" gradientUnits="userSpaceOnUse">
<stop stop-color="#37A0E7"/>
<stop offset="1" stop-color="#C507D9"/>
</linearGradient>
<linearGradient id="paint6_linear_3_2848" x1="18.9923" y1="25.8168" x2="32.8741" y2="46.2826" gradientUnits="userSpaceOnUse">
<stop stop-color="#37A0E7"/>
<stop offset="1" stop-color="#C507D9"/>
</linearGradient>
<linearGradient id="paint7_linear_3_2848" x1="14.5842" y1="58.664" x2="15.5635" y2="58.6649" gradientUnits="userSpaceOnUse">
<stop stop-color="#37A0E7"/>
<stop offset="1" stop-color="#C507D9"/>
</linearGradient>
<linearGradient id="paint8_linear_3_2848" x1="24.2075" y1="20.0885" x2="55.1137" y2="28.2107" gradientUnits="userSpaceOnUse">
<stop stop-color="#37A0E7"/>
<stop offset="1" stop-color="#C507D9"/>
</linearGradient>
<linearGradient id="paint9_linear_3_2848" x1="18.8535" y1="20.8798" x2="21.6035" y2="20.9699" gradientUnits="userSpaceOnUse">
<stop stop-color="#37A0E7"/>
<stop offset="1" stop-color="#C507D9"/>
</linearGradient>
<linearGradient id="paint10_linear_3_2848" x1="24.4771" y1="20.8798" x2="27.2271" y2="20.9699" gradientUnits="userSpaceOnUse">
<stop stop-color="#37A0E7"/>
<stop offset="1" stop-color="#C507D9"/>
</linearGradient>
<linearGradient id="paint11_linear_3_2848" x1="30.0991" y1="20.8798" x2="32.8491" y2="20.9699" gradientUnits="userSpaceOnUse">
<stop stop-color="#37A0E7"/>
<stop offset="1" stop-color="#C507D9"/>
</linearGradient>
<linearGradient id="paint12_linear_3_2848" x1="35.7232" y1="20.8798" x2="38.4732" y2="20.9699" gradientUnits="userSpaceOnUse">
<stop stop-color="#37A0E7"/>
<stop offset="1" stop-color="#C507D9"/>
</linearGradient>
<linearGradient id="paint13_linear_3_2848" x1="41.3447" y1="20.8798" x2="44.0947" y2="20.9699" gradientUnits="userSpaceOnUse">
<stop stop-color="#37A0E7"/>
<stop offset="1" stop-color="#C507D9"/>
</linearGradient>
<linearGradient id="paint14_linear_3_2848" x1="46.9688" y1="20.8798" x2="49.7188" y2="20.9699" gradientUnits="userSpaceOnUse">
<stop stop-color="#37A0E7"/>
<stop offset="1" stop-color="#C507D9"/>
</linearGradient>
<linearGradient id="paint15_linear_3_2848" x1="52.5904" y1="20.8798" x2="55.3404" y2="20.9699" gradientUnits="userSpaceOnUse">
<stop stop-color="#37A0E7"/>
<stop offset="1" stop-color="#C507D9"/>
</linearGradient>
<linearGradient id="paint16_linear_3_2848" x1="58.2144" y1="20.8798" x2="60.9644" y2="20.9699" gradientUnits="userSpaceOnUse">
<stop stop-color="#37A0E7"/>
<stop offset="1" stop-color="#C507D9"/>
</linearGradient>
<linearGradient id="paint17_linear_3_2848" x1="18.8902" y1="29.3652" x2="21.6402" y2="29.4554" gradientUnits="userSpaceOnUse">
<stop stop-color="#37A0E7"/>
<stop offset="1" stop-color="#C507D9"/>
</linearGradient>
<linearGradient id="paint18_linear_3_2848" x1="24.5137" y1="29.3652" x2="27.2637" y2="29.4554" gradientUnits="userSpaceOnUse">
<stop stop-color="#37A0E7"/>
<stop offset="1" stop-color="#C507D9"/>
</linearGradient>
<linearGradient id="paint19_linear_3_2848" x1="30.1358" y1="29.3652" x2="32.8858" y2="29.4554" gradientUnits="userSpaceOnUse">
<stop stop-color="#37A0E7"/>
<stop offset="1" stop-color="#C507D9"/>
</linearGradient>
<linearGradient id="paint20_linear_3_2848" x1="35.7598" y1="29.3652" x2="38.5098" y2="29.4554" gradientUnits="userSpaceOnUse">
<stop stop-color="#37A0E7"/>
<stop offset="1" stop-color="#C507D9"/>
</linearGradient>
<linearGradient id="paint21_linear_3_2848" x1="41.3833" y1="29.3652" x2="44.1333" y2="29.4554" gradientUnits="userSpaceOnUse">
<stop stop-color="#37A0E7"/>
<stop offset="1" stop-color="#C507D9"/>
</linearGradient>
<linearGradient id="paint22_linear_3_2848" x1="47.0054" y1="29.3652" x2="49.7554" y2="29.4554" gradientUnits="userSpaceOnUse">
<stop stop-color="#37A0E7"/>
<stop offset="1" stop-color="#C507D9"/>
</linearGradient>
<linearGradient id="paint23_linear_3_2848" x1="52.6289" y1="29.3652" x2="55.3789" y2="29.4554" gradientUnits="userSpaceOnUse">
<stop stop-color="#37A0E7"/>
<stop offset="1" stop-color="#C507D9"/>
</linearGradient>
<linearGradient id="paint24_linear_3_2848" x1="58.251" y1="29.3652" x2="61.001" y2="29.4554" gradientUnits="userSpaceOnUse">
<stop stop-color="#37A0E7"/>
<stop offset="1" stop-color="#C507D9"/>
</linearGradient>
<linearGradient id="paint25_linear_3_2848" x1="10.0361" y1="77.7768" x2="10.1263" y2="75.0259" gradientUnits="userSpaceOnUse">
<stop stop-color="#37A0E7"/>
<stop offset="1" stop-color="#C507D9"/>
</linearGradient>
<linearGradient id="paint26_linear_3_2848" x1="10.0361" y1="72.154" x2="10.1263" y2="69.4031" gradientUnits="userSpaceOnUse">
<stop stop-color="#37A0E7"/>
<stop offset="1" stop-color="#C507D9"/>
</linearGradient>
<linearGradient id="paint27_linear_3_2848" x1="10.0361" y1="66.5309" x2="10.1263" y2="63.7801" gradientUnits="userSpaceOnUse">
<stop stop-color="#37A0E7"/>
<stop offset="1" stop-color="#C507D9"/>
</linearGradient>
<linearGradient id="paint28_linear_3_2848" x1="10.0361" y1="60.9081" x2="10.1263" y2="58.1573" gradientUnits="userSpaceOnUse">
<stop stop-color="#37A0E7"/>
<stop offset="1" stop-color="#C507D9"/>
</linearGradient>
<linearGradient id="paint29_linear_3_2848" x1="10.0361" y1="55.2852" x2="10.1263" y2="52.5343" gradientUnits="userSpaceOnUse">
<stop stop-color="#37A0E7"/>
<stop offset="1" stop-color="#C507D9"/>
</linearGradient>
<linearGradient id="paint30_linear_3_2848" x1="10.0361" y1="49.6623" x2="10.1263" y2="46.9114" gradientUnits="userSpaceOnUse">
<stop stop-color="#37A0E7"/>
<stop offset="1" stop-color="#C507D9"/>
</linearGradient>
<linearGradient id="paint31_linear_3_2848" x1="18.5557" y1="77.7399" x2="18.6458" y2="74.9891" gradientUnits="userSpaceOnUse">
<stop stop-color="#37A0E7"/>
<stop offset="1" stop-color="#C507D9"/>
</linearGradient>
<linearGradient id="paint32_linear_3_2848" x1="18.5557" y1="72.1171" x2="18.6458" y2="69.3662" gradientUnits="userSpaceOnUse">
<stop stop-color="#37A0E7"/>
<stop offset="1" stop-color="#C507D9"/>
</linearGradient>
<linearGradient id="paint33_linear_3_2848" x1="18.5557" y1="66.4943" x2="18.6458" y2="63.7434" gradientUnits="userSpaceOnUse">
<stop stop-color="#37A0E7"/>
<stop offset="1" stop-color="#C507D9"/>
</linearGradient>
<linearGradient id="paint34_linear_3_2848" x1="18.5557" y1="60.8713" x2="18.6458" y2="58.1204" gradientUnits="userSpaceOnUse">
<stop stop-color="#37A0E7"/>
<stop offset="1" stop-color="#C507D9"/>
</linearGradient>
<linearGradient id="paint35_linear_3_2848" x1="18.5557" y1="55.2485" x2="18.6458" y2="52.4976" gradientUnits="userSpaceOnUse">
<stop stop-color="#37A0E7"/>
<stop offset="1" stop-color="#C507D9"/>
</linearGradient>
<linearGradient id="paint36_linear_3_2848" x1="18.5557" y1="49.6257" x2="18.6458" y2="46.8748" gradientUnits="userSpaceOnUse">
<stop stop-color="#37A0E7"/>
<stop offset="1" stop-color="#C507D9"/>
</linearGradient>
<linearGradient id="paint37_linear_3_2848" x1="62.6129" y1="58.6632" x2="68.1204" y2="58.6933" gradientUnits="userSpaceOnUse">
<stop stop-color="#37A0E7"/>
<stop offset="1" stop-color="#C507D9"/>
</linearGradient>
<linearGradient id="paint38_linear_3_2848" x1="65.256" y1="58.664" x2="66.2354" y2="58.6649" gradientUnits="userSpaceOnUse">
<stop stop-color="#37A0E7"/>
<stop offset="1" stop-color="#C507D9"/>
</linearGradient>
<linearGradient id="paint39_linear_3_2848" x1="60.7231" y1="77.7768" x2="60.8133" y2="75.0259" gradientUnits="userSpaceOnUse">
<stop stop-color="#37A0E7"/>
<stop offset="1" stop-color="#C507D9"/>
</linearGradient>
<linearGradient id="paint40_linear_3_2848" x1="60.7231" y1="72.154" x2="60.8133" y2="69.4031" gradientUnits="userSpaceOnUse">
<stop stop-color="#37A0E7"/>
<stop offset="1" stop-color="#C507D9"/>
</linearGradient>
<linearGradient id="paint41_linear_3_2848" x1="60.7231" y1="66.5309" x2="60.8133" y2="63.7801" gradientUnits="userSpaceOnUse">
<stop stop-color="#37A0E7"/>
<stop offset="1" stop-color="#C507D9"/>
</linearGradient>
<linearGradient id="paint42_linear_3_2848" x1="60.7231" y1="60.9081" x2="60.8133" y2="58.1573" gradientUnits="userSpaceOnUse">
<stop stop-color="#37A0E7"/>
<stop offset="1" stop-color="#C507D9"/>
</linearGradient>
<linearGradient id="paint43_linear_3_2848" x1="60.7231" y1="55.2852" x2="60.8133" y2="52.5343" gradientUnits="userSpaceOnUse">
<stop stop-color="#37A0E7"/>
<stop offset="1" stop-color="#C507D9"/>
</linearGradient>
<linearGradient id="paint44_linear_3_2848" x1="60.7231" y1="49.6623" x2="60.8133" y2="46.9114" gradientUnits="userSpaceOnUse">
<stop stop-color="#37A0E7"/>
<stop offset="1" stop-color="#C507D9"/>
</linearGradient>
<linearGradient id="paint45_linear_3_2848" x1="69.2275" y1="77.7399" x2="69.3177" y2="74.9891" gradientUnits="userSpaceOnUse">
<stop stop-color="#37A0E7"/>
<stop offset="1" stop-color="#C507D9"/>
</linearGradient>
<linearGradient id="paint46_linear_3_2848" x1="69.2275" y1="72.1171" x2="69.3177" y2="69.3662" gradientUnits="userSpaceOnUse">
<stop stop-color="#37A0E7"/>
<stop offset="1" stop-color="#C507D9"/>
</linearGradient>
<linearGradient id="paint47_linear_3_2848" x1="69.2275" y1="66.4943" x2="69.3177" y2="63.7434" gradientUnits="userSpaceOnUse">
<stop stop-color="#37A0E7"/>
<stop offset="1" stop-color="#C507D9"/>
</linearGradient>
<linearGradient id="paint48_linear_3_2848" x1="69.2275" y1="60.8713" x2="69.3177" y2="58.1204" gradientUnits="userSpaceOnUse">
<stop stop-color="#37A0E7"/>
<stop offset="1" stop-color="#C507D9"/>
</linearGradient>
<linearGradient id="paint49_linear_3_2848" x1="69.2275" y1="55.2485" x2="69.3177" y2="52.4976" gradientUnits="userSpaceOnUse">
<stop stop-color="#37A0E7"/>
<stop offset="1" stop-color="#C507D9"/>
</linearGradient>
<linearGradient id="paint50_linear_3_2848" x1="69.2275" y1="49.6257" x2="69.3177" y2="46.8748" gradientUnits="userSpaceOnUse">
<stop stop-color="#37A0E7"/>
<stop offset="1" stop-color="#C507D9"/>
</linearGradient>
<clipPath id="clip0_3_2848">
<rect width="80" height="80" fill="white"/>
</clipPath>
<clipPath id="clip1_3_2848">
<rect width="67.6999" height="80" fill="white" transform="translate(6)"/>
</clipPath>
</defs>
</svg>
