<svg width="80" height="80" viewBox="0 0 80 80" fill="none" xmlns="http://www.w3.org/2000/svg">
<g clip-path="url(#clip0_3_3213)">
<rect width="80" height="80" fill="white"/>
<g clip-path="url(#clip1_3_3213)">
<g clip-path="url(#clip2_3_3213)">
<path d="M68.4905 57.0943H51.3965V79.8863H68.4905V57.0943Z" stroke="url(#paint0_linear_3_3213)" stroke-width="0.756144" stroke-miterlimit="22.9256"/>
<path d="M51.3784 45.6983H45.6985V57.0943H74.1885V45.6983H68.5248M62.8328 45.6983H57.0879" stroke="url(#paint1_linear_3_3213)" stroke-width="0.756144" stroke-miterlimit="22.9256"/>
<path d="M51.3965 40.0003V28.6043C51.3929 25.6771 68.4706 25.6771 68.4905 28.6043V40.0003" stroke="url(#paint2_linear_3_3213)" stroke-width="0.756144" stroke-miterlimit="22.9256"/>
<path d="M54.2455 42.8493C55.8189 42.8493 57.0945 41.5738 57.0945 40.0003C57.0945 38.4268 55.8189 37.1513 54.2455 37.1513C52.672 37.1513 51.3965 38.4268 51.3965 40.0003C51.3965 41.5738 52.672 42.8493 54.2455 42.8493Z" stroke="url(#paint3_linear_3_3213)" stroke-width="0.756144" stroke-miterlimit="22.9256"/>
<path d="M65.6414 59.9433H54.2454V77.0373H65.6414V59.9433Z" stroke="url(#paint4_linear_3_3213)" stroke-width="0.756144" stroke-miterlimit="22.9256"/>
<path d="M62.7924 75.6128C63.5791 75.6128 64.2169 74.975 64.2169 74.1883C64.2169 73.4016 63.5791 72.7638 62.7924 72.7638C62.0057 72.7638 61.3679 73.4016 61.3679 74.1883C61.3679 74.975 62.0057 75.6128 62.7924 75.6128Z" stroke="url(#paint5_linear_3_3213)" stroke-width="0.756144" stroke-miterlimit="22.9256"/>
<path d="M68.529 45.6983H79.8865V40.0003H68.5097M51.4115 40.0003H40.0005V45.6983H51.4031" stroke="url(#paint6_linear_3_3213)" stroke-width="0.756144" stroke-miterlimit="22.9256"/>
<path d="M51.3965 68.4903H45.6985V74.1883H51.3965V68.4903Z" stroke="url(#paint7_linear_3_3213)" stroke-width="0.756144" stroke-miterlimit="22.9256"/>
<path d="M51.3965 62.7923H34.3025V68.4903H51.3965V62.7923Z" stroke="url(#paint8_linear_3_3213)" stroke-width="0.756144" stroke-miterlimit="22.9256"/>
<path d="M34.3018 57.0943H5.81177V74.1883H34.3018V57.0943Z" stroke="url(#paint9_linear_3_3213)" stroke-width="0.756144" stroke-miterlimit="22.9256"/>
<path d="M71.3395 68.6605H68.4905V74.1883H71.3395V68.6605Z" stroke="url(#paint10_linear_3_3213)" stroke-width="0.756144" stroke-miterlimit="22.9256"/>
<path d="M65.6414 26.9319V11.5097H54.2454V26.962" stroke="url(#paint11_linear_3_3213)" stroke-width="0.756144" stroke-miterlimit="22.9256"/>
<path d="M74.1885 5.81169H45.6985V11.5097H74.1885V5.81169Z" stroke="url(#paint12_linear_3_3213)" stroke-width="0.756144" stroke-miterlimit="22.9256"/>
<path d="M65.6414 0.113693H54.2454V5.81169H65.6414V0.113693Z" stroke="url(#paint13_linear_3_3213)" stroke-width="0.756144" stroke-miterlimit="22.9256"/>
<path d="M5.81167 65.6413C0.158785 65.6413 2.39299 57.0943 2.39299 57.0943" stroke="url(#paint14_linear_3_3213)" stroke-width="0.756144" stroke-miterlimit="22.9256"/>
<path d="M3.53245 45.6983H2.39309C1.13426 45.6983 0.11377 46.7188 0.11377 47.9776V54.815C0.11377 56.0738 1.13426 57.0943 2.39309 57.0943H3.53245C4.79128 57.0943 5.81177 56.0738 5.81177 54.815V47.9776C5.81177 46.7188 4.79128 45.6983 3.53245 45.6983Z" stroke="url(#paint15_linear_3_3213)" stroke-width="0.756144" stroke-miterlimit="22.9256"/>
<path d="M51.3965 5.81169V11.5097" stroke="url(#paint16_linear_3_3213)" stroke-width="0.756144" stroke-miterlimit="22.9256"/>
<path d="M68.4905 5.81169V11.5097" stroke="url(#paint17_linear_3_3213)" stroke-width="0.756144" stroke-miterlimit="22.9256"/>
<path d="M57.0945 44.2738C57.0945 45.8475 55.8192 47.1228 54.2455 47.1228C52.6718 47.1228 51.3965 45.8475 51.3965 44.2738" stroke="url(#paint18_linear_3_3213)" stroke-width="0.756144" stroke-miterlimit="22.9256"/>
<path d="M54.2453 41.4248C55.032 41.4248 55.6698 40.787 55.6698 40.0003C55.6698 39.2136 55.032 38.5758 54.2453 38.5758C53.4586 38.5758 52.8208 39.2136 52.8208 40.0003C52.8208 40.787 53.4586 41.4248 54.2453 41.4248Z" stroke="url(#paint19_linear_3_3213)" stroke-width="0.756144" stroke-miterlimit="22.9256"/>
<path d="M51.3965 40.0003V51.3963C51.3965 52.97 52.6718 54.2453 54.2455 54.2453C55.8192 54.2453 57.0945 52.97 57.0945 51.3963V40.0003" stroke="url(#paint20_linear_3_3213)" stroke-width="0.756144" stroke-miterlimit="22.9256"/>
<path d="M65.6119 42.8493C67.1854 42.8493 68.4609 41.5738 68.4609 40.0003C68.4609 38.4268 67.1854 37.1513 65.6119 37.1513C64.0385 37.1513 62.7629 38.4268 62.7629 40.0003C62.7629 41.5738 64.0385 42.8493 65.6119 42.8493Z" stroke="url(#paint21_linear_3_3213)" stroke-width="0.756144" stroke-miterlimit="22.9256"/>
<path d="M68.4609 44.2738C68.4609 45.8475 67.1856 47.1228 65.6119 47.1228C64.0383 47.1228 62.7629 45.8475 62.7629 44.2738" stroke="url(#paint22_linear_3_3213)" stroke-width="0.756144" stroke-miterlimit="22.9256"/>
<path d="M65.612 41.4248C66.3987 41.4248 67.0365 40.787 67.0365 40.0003C67.0365 39.2136 66.3987 38.5758 65.612 38.5758C64.8253 38.5758 64.1875 39.2136 64.1875 40.0003C64.1875 40.787 64.8253 41.4248 65.612 41.4248Z" stroke="url(#paint23_linear_3_3213)" stroke-width="0.756144" stroke-miterlimit="22.9256"/>
<path d="M62.7629 40.0003V51.3963C62.7629 52.97 64.0383 54.2453 65.6119 54.2453C67.1856 54.2453 68.4609 52.97 68.4609 51.3963V40.0003" stroke="url(#paint24_linear_3_3213)" stroke-width="0.756144" stroke-miterlimit="22.9256"/>
</g>
</g>
</g>
<defs>
<linearGradient id="paint0_linear_3_3213" x1="52.0172" y1="66.2607" x2="68.7483" y2="66.6719" gradientUnits="userSpaceOnUse">
<stop stop-color="#37A0E7"/>
<stop offset="1" stop-color="#C507D9"/>
</linearGradient>
<linearGradient id="paint1_linear_3_3213" x1="46.733" y1="50.2815" x2="74.449" y2="52.5524" gradientUnits="userSpaceOnUse">
<stop stop-color="#37A0E7"/>
<stop offset="1" stop-color="#C507D9"/>
</linearGradient>
<linearGradient id="paint2_linear_3_3213" x1="52.0172" y1="31.875" x2="68.73" y2="32.5639" gradientUnits="userSpaceOnUse">
<stop stop-color="#37A0E7"/>
<stop offset="1" stop-color="#C507D9"/>
</linearGradient>
<linearGradient id="paint3_linear_3_3213" x1="51.6034" y1="39.4429" x2="57.1778" y2="39.6256" gradientUnits="userSpaceOnUse">
<stop stop-color="#37A0E7"/>
<stop offset="1" stop-color="#C507D9"/>
</linearGradient>
<linearGradient id="paint4_linear_3_3213" x1="54.6592" y1="66.8181" x2="65.8147" y2="67.0618" gradientUnits="userSpaceOnUse">
<stop stop-color="#37A0E7"/>
<stop offset="1" stop-color="#C507D9"/>
</linearGradient>
<linearGradient id="paint5_linear_3_3213" x1="61.4714" y1="73.9096" x2="64.2586" y2="74.0009" gradientUnits="userSpaceOnUse">
<stop stop-color="#37A0E7"/>
<stop offset="1" stop-color="#C507D9"/>
</linearGradient>
<linearGradient id="paint6_linear_3_3213" x1="41.4489" y1="42.2919" x2="78.5584" y2="50.8057" gradientUnits="userSpaceOnUse">
<stop stop-color="#37A0E7"/>
<stop offset="1" stop-color="#C507D9"/>
</linearGradient>
<linearGradient id="paint7_linear_3_3213" x1="45.9054" y1="70.7819" x2="51.4798" y2="70.9646" gradientUnits="userSpaceOnUse">
<stop stop-color="#37A0E7"/>
<stop offset="1" stop-color="#C507D9"/>
</linearGradient>
<linearGradient id="paint8_linear_3_3213" x1="34.9232" y1="65.0839" x2="51.5041" y2="66.7142" gradientUnits="userSpaceOnUse">
<stop stop-color="#37A0E7"/>
<stop offset="1" stop-color="#C507D9"/>
</linearGradient>
<linearGradient id="paint9_linear_3_3213" x1="6.84632" y1="63.9691" x2="34.6653" y2="65.4887" gradientUnits="userSpaceOnUse">
<stop stop-color="#37A0E7"/>
<stop offset="1" stop-color="#C507D9"/>
</linearGradient>
<linearGradient id="paint10_linear_3_3213" x1="68.5939" y1="70.8836" x2="71.3833" y2="70.9308" gradientUnits="userSpaceOnUse">
<stop stop-color="#37A0E7"/>
<stop offset="1" stop-color="#C507D9"/>
</linearGradient>
<linearGradient id="paint11_linear_3_3213" x1="54.6592" y1="17.7242" x2="65.8135" y2="17.9938" gradientUnits="userSpaceOnUse">
<stop stop-color="#37A0E7"/>
<stop offset="1" stop-color="#C507D9"/>
</linearGradient>
<linearGradient id="paint12_linear_3_3213" x1="46.733" y1="8.10328" x2="73.9054" y2="12.5561" gradientUnits="userSpaceOnUse">
<stop stop-color="#37A0E7"/>
<stop offset="1" stop-color="#C507D9"/>
</linearGradient>
<linearGradient id="paint13_linear_3_3213" x1="54.6592" y1="2.40528" x2="65.7722" y2="3.13374" gradientUnits="userSpaceOnUse">
<stop stop-color="#37A0E7"/>
<stop offset="1" stop-color="#C507D9"/>
</linearGradient>
<linearGradient id="paint14_linear_3_3213" x1="2.09747" y1="60.5317" x2="5.87126" y2="60.5875" gradientUnits="userSpaceOnUse">
<stop stop-color="#37A0E7"/>
<stop offset="1" stop-color="#C507D9"/>
</linearGradient>
<linearGradient id="paint15_linear_3_3213" x1="0.32068" y1="50.2815" x2="5.89959" y2="50.3729" gradientUnits="userSpaceOnUse">
<stop stop-color="#37A0E7"/>
<stop offset="1" stop-color="#C507D9"/>
</linearGradient>
<linearGradient id="paint16_linear_3_3213" x1="51.4328" y1="8.10328" x2="52.4121" y2="8.10891" gradientUnits="userSpaceOnUse">
<stop stop-color="#37A0E7"/>
<stop offset="1" stop-color="#C507D9"/>
</linearGradient>
<linearGradient id="paint17_linear_3_3213" x1="68.5268" y1="8.10328" x2="69.5061" y2="8.10891" gradientUnits="userSpaceOnUse">
<stop stop-color="#37A0E7"/>
<stop offset="1" stop-color="#C507D9"/>
</linearGradient>
<linearGradient id="paint18_linear_3_3213" x1="51.6034" y1="45.4196" x2="57.1599" y2="45.7838" gradientUnits="userSpaceOnUse">
<stop stop-color="#37A0E7"/>
<stop offset="1" stop-color="#C507D9"/>
</linearGradient>
<linearGradient id="paint19_linear_3_3213" x1="52.9243" y1="39.7216" x2="55.7115" y2="39.8129" gradientUnits="userSpaceOnUse">
<stop stop-color="#37A0E7"/>
<stop offset="1" stop-color="#C507D9"/>
</linearGradient>
<linearGradient id="paint20_linear_3_3213" x1="51.6034" y1="45.7293" x2="57.1828" y2="45.8024" gradientUnits="userSpaceOnUse">
<stop stop-color="#37A0E7"/>
<stop offset="1" stop-color="#C507D9"/>
</linearGradient>
<linearGradient id="paint21_linear_3_3213" x1="62.9699" y1="39.4429" x2="68.5443" y2="39.6256" gradientUnits="userSpaceOnUse">
<stop stop-color="#37A0E7"/>
<stop offset="1" stop-color="#C507D9"/>
</linearGradient>
<linearGradient id="paint22_linear_3_3213" x1="62.9699" y1="45.4196" x2="68.5264" y2="45.7838" gradientUnits="userSpaceOnUse">
<stop stop-color="#37A0E7"/>
<stop offset="1" stop-color="#C507D9"/>
</linearGradient>
<linearGradient id="paint23_linear_3_3213" x1="64.291" y1="39.7216" x2="67.0782" y2="39.8129" gradientUnits="userSpaceOnUse">
<stop stop-color="#37A0E7"/>
<stop offset="1" stop-color="#C507D9"/>
</linearGradient>
<linearGradient id="paint24_linear_3_3213" x1="62.9699" y1="45.7293" x2="68.5493" y2="45.8024" gradientUnits="userSpaceOnUse">
<stop stop-color="#37A0E7"/>
<stop offset="1" stop-color="#C507D9"/>
</linearGradient>
<clipPath id="clip0_3_3213">
<rect width="80" height="80" fill="white"/>
</clipPath>
<clipPath id="clip1_3_3213">
<rect width="80" height="80" fill="white"/>
</clipPath>
<clipPath id="clip2_3_3213">
<rect width="80" height="80" fill="white"/>
</clipPath>
</defs>
</svg>
