<svg width="80" height="80" viewBox="0 0 80 80" fill="none" xmlns="http://www.w3.org/2000/svg">
<g clip-path="url(#clip0_3_2810)">
<rect width="80" height="80" fill="white"/>
<g clip-path="url(#clip1_3_2810)">
<path d="M11.5102 48.9052H0.114746V54.6037H11.5102V48.9052Z" stroke="url(#paint0_linear_3_2810)" stroke-width="0.757472" stroke-miterlimit="22.9256"/>
<path d="M79.8849 26.1141H0.114746V48.9051H79.8849V26.1141Z" stroke="url(#paint1_linear_3_2810)" stroke-width="0.757472" stroke-miterlimit="22.9256"/>
<path d="M79.8848 48.9052H68.4893V54.6037H79.8848V48.9052Z" stroke="url(#paint2_linear_3_2810)" stroke-width="0.757472" stroke-miterlimit="22.9256"/>
<path d="M28.6025 31.811H5.81152V43.2065H28.6025V31.811Z" stroke="url(#paint3_linear_3_2810)" stroke-width="0.757472" stroke-miterlimit="22.9256"/>
<path d="M57.0939 37.5096H53.3013V40.3581H57.0939V37.5096Z" stroke="url(#paint4_linear_3_2810)" stroke-width="0.757472" stroke-miterlimit="22.9256"/>
<path d="M53.3014 37.5096H49.5088V40.3581H53.3014V37.5096Z" stroke="url(#paint5_linear_3_2810)" stroke-width="0.757472" stroke-miterlimit="22.9256"/>
<path d="M57.0939 34.6611H53.3013V37.5096H57.0939V34.6611Z" stroke="url(#paint6_linear_3_2810)" stroke-width="0.757472" stroke-miterlimit="22.9256"/>
<path d="M49.5084 37.5096H45.7158V40.3581H49.5084V37.5096Z" stroke="url(#paint7_linear_3_2810)" stroke-width="0.757472" stroke-miterlimit="22.9256"/>
<path d="M57.0939 31.811H53.3013V34.6595H57.0939V31.811Z" stroke="url(#paint8_linear_3_2810)" stroke-width="0.757472" stroke-miterlimit="22.9256"/>
<path d="M53.3014 31.811H49.5088V34.6595H53.3014V31.811Z" stroke="url(#paint9_linear_3_2810)" stroke-width="0.757472" stroke-miterlimit="22.9256"/>
<path d="M49.5084 31.811H45.7158V34.6595H49.5084V31.811Z" stroke="url(#paint10_linear_3_2810)" stroke-width="0.757472" stroke-miterlimit="22.9256"/>
<path d="M53.3014 34.6611H49.5088V37.5096H53.3014V34.6611Z" stroke="url(#paint11_linear_3_2810)" stroke-width="0.757472" stroke-miterlimit="22.9256"/>
<path d="M49.5084 34.6611H45.7158V37.5096H49.5084V34.6611Z" stroke="url(#paint12_linear_3_2810)" stroke-width="0.757472" stroke-miterlimit="22.9256"/>
<path d="M57.0743 40.3582H53.2817V43.2066H57.0743V40.3582Z" stroke="url(#paint13_linear_3_2810)" stroke-width="0.757472" stroke-miterlimit="22.9256"/>
<path d="M53.2833 40.3582H49.4907V43.2066H53.2833V40.3582Z" stroke="url(#paint14_linear_3_2810)" stroke-width="0.757472" stroke-miterlimit="22.9256"/>
<path d="M49.4908 40.3582H45.6982V43.2066H49.4908V40.3582Z" stroke="url(#paint15_linear_3_2810)" stroke-width="0.757472" stroke-miterlimit="22.9256"/>
<path d="M64.9173 39.8305C66.1609 39.8305 67.169 38.8224 67.169 37.5788C67.169 36.3352 66.1609 35.327 64.9173 35.327C63.6737 35.327 62.6655 36.3352 62.6655 37.5788C62.6655 38.8224 63.6737 39.8305 64.9173 39.8305Z" stroke="url(#paint16_linear_3_2810)" stroke-width="0.757472" stroke-miterlimit="22.9256"/>
<path fill-rule="evenodd" clip-rule="evenodd" d="M67.6158 40.5126L64.9298 43.1986L62.2422 40.5126H67.6158Z" stroke="url(#paint17_linear_3_2810)" stroke-width="0.757472" stroke-miterlimit="22.9256"/>
<path fill-rule="evenodd" clip-rule="evenodd" d="M67.6001 34.4971L64.914 31.811L62.228 34.4971H67.6001Z" stroke="url(#paint18_linear_3_2810)" stroke-width="0.757472" stroke-miterlimit="22.9256"/>
<path fill-rule="evenodd" clip-rule="evenodd" d="M61.7471 34.8702L59.061 37.5563L61.7471 40.2423V34.8702Z" stroke="url(#paint19_linear_3_2810)" stroke-width="0.757472" stroke-miterlimit="22.9256"/>
<path fill-rule="evenodd" clip-rule="evenodd" d="M68.0552 40.268L70.7412 37.582L68.0552 34.896V40.268Z" stroke="url(#paint20_linear_3_2810)" stroke-width="0.757472" stroke-miterlimit="22.9256"/>
<path d="M74.1878 40.3581C75.761 40.3581 77.0363 39.0828 77.0363 37.5096C77.0363 35.9364 75.761 34.6611 74.1878 34.6611C72.6147 34.6611 71.3394 35.9364 71.3394 37.5096C71.3394 39.0828 72.6147 40.3581 74.1878 40.3581Z" stroke="url(#paint21_linear_3_2810)" stroke-width="0.757472" stroke-miterlimit="22.9256"/>
<path d="M34.068 30.3201H30.2754V33.1685H34.068V30.3201Z" stroke="url(#paint22_linear_3_2810)" stroke-width="0.757472" stroke-miterlimit="22.9256"/>
<path d="M34.068 36.0187H30.2754V38.8671H34.068V36.0187Z" stroke="url(#paint23_linear_3_2810)" stroke-width="0.757472" stroke-miterlimit="22.9256"/>
<path d="M34.068 41.7156H30.2754V44.564H34.068V41.7156Z" stroke="url(#paint24_linear_3_2810)" stroke-width="0.757472" stroke-miterlimit="22.9256"/>
<path d="M41.671 30.3201H37.8784V33.1685H41.671V30.3201Z" stroke="url(#paint25_linear_3_2810)" stroke-width="0.757472" stroke-miterlimit="22.9256"/>
<path d="M41.671 36.0187H37.8784V38.8671H41.671V36.0187Z" stroke="url(#paint26_linear_3_2810)" stroke-width="0.757472" stroke-miterlimit="22.9256"/>
<path d="M41.671 41.7156H37.8784V44.564H41.671V41.7156Z" stroke="url(#paint27_linear_3_2810)" stroke-width="0.757472" stroke-miterlimit="22.9256"/>
<path d="M5.81165 44.6316H2.01904V47.4801H5.81165V44.6316Z" stroke="url(#paint28_linear_3_2810)" stroke-width="0.757472" stroke-miterlimit="22.9256"/>
<path d="M66.5836 44.6316H62.791V47.4801H66.5836V44.6316Z" stroke="url(#paint29_linear_3_2810)" stroke-width="0.757472" stroke-miterlimit="22.9256"/>
<path d="M72.2819 44.6316H68.4893V47.4801H72.2819V44.6316Z" stroke="url(#paint30_linear_3_2810)" stroke-width="0.757472" stroke-miterlimit="22.9256"/>
<path d="M77.9806 44.6316H74.188V47.4801H77.9806V44.6316Z" stroke="url(#paint31_linear_3_2810)" stroke-width="0.757472" stroke-miterlimit="22.9256"/>
<path d="M60.8864 44.6316H57.0938V47.4801H60.8864V44.6316Z" stroke="url(#paint32_linear_3_2810)" stroke-width="0.757472" stroke-miterlimit="22.9256"/>
</g>
</g>
<defs>
<linearGradient id="paint0_linear_3_2810" x1="0.528549" y1="51.197" x2="11.6411" y2="51.9253" gradientUnits="userSpaceOnUse">
<stop stop-color="#37A0E7"/>
<stop offset="1" stop-color="#C507D9"/>
</linearGradient>
<linearGradient id="paint1_linear_3_2810" x1="3.01143" y1="35.2801" x2="80.1206" y2="44.1256" gradientUnits="userSpaceOnUse">
<stop stop-color="#37A0E7"/>
<stop offset="1" stop-color="#C507D9"/>
</linearGradient>
<linearGradient id="paint2_linear_3_2810" x1="68.9031" y1="51.197" x2="80.0156" y2="51.9253" gradientUnits="userSpaceOnUse">
<stop stop-color="#37A0E7"/>
<stop offset="1" stop-color="#C507D9"/>
</linearGradient>
<linearGradient id="paint3_linear_3_2810" x1="6.63913" y1="36.394" x2="28.8643" y2="37.8509" gradientUnits="userSpaceOnUse">
<stop stop-color="#37A0E7"/>
<stop offset="1" stop-color="#C507D9"/>
</linearGradient>
<linearGradient id="paint4_linear_3_2810" x1="53.439" y1="38.6552" x2="57.1463" y2="38.817" gradientUnits="userSpaceOnUse">
<stop stop-color="#37A0E7"/>
<stop offset="1" stop-color="#C507D9"/>
</linearGradient>
<linearGradient id="paint5_linear_3_2810" x1="49.6465" y1="38.6552" x2="53.3538" y2="38.817" gradientUnits="userSpaceOnUse">
<stop stop-color="#37A0E7"/>
<stop offset="1" stop-color="#C507D9"/>
</linearGradient>
<linearGradient id="paint6_linear_3_2810" x1="53.439" y1="35.8067" x2="57.1463" y2="35.9685" gradientUnits="userSpaceOnUse">
<stop stop-color="#37A0E7"/>
<stop offset="1" stop-color="#C507D9"/>
</linearGradient>
<linearGradient id="paint7_linear_3_2810" x1="45.8535" y1="38.6552" x2="49.5608" y2="38.817" gradientUnits="userSpaceOnUse">
<stop stop-color="#37A0E7"/>
<stop offset="1" stop-color="#C507D9"/>
</linearGradient>
<linearGradient id="paint8_linear_3_2810" x1="53.439" y1="32.9566" x2="57.1463" y2="33.1184" gradientUnits="userSpaceOnUse">
<stop stop-color="#37A0E7"/>
<stop offset="1" stop-color="#C507D9"/>
</linearGradient>
<linearGradient id="paint9_linear_3_2810" x1="49.6465" y1="32.9566" x2="53.3538" y2="33.1184" gradientUnits="userSpaceOnUse">
<stop stop-color="#37A0E7"/>
<stop offset="1" stop-color="#C507D9"/>
</linearGradient>
<linearGradient id="paint10_linear_3_2810" x1="45.8535" y1="32.9566" x2="49.5608" y2="33.1184" gradientUnits="userSpaceOnUse">
<stop stop-color="#37A0E7"/>
<stop offset="1" stop-color="#C507D9"/>
</linearGradient>
<linearGradient id="paint11_linear_3_2810" x1="49.6465" y1="35.8067" x2="53.3538" y2="35.9685" gradientUnits="userSpaceOnUse">
<stop stop-color="#37A0E7"/>
<stop offset="1" stop-color="#C507D9"/>
</linearGradient>
<linearGradient id="paint12_linear_3_2810" x1="45.8535" y1="35.8067" x2="49.5608" y2="35.9685" gradientUnits="userSpaceOnUse">
<stop stop-color="#37A0E7"/>
<stop offset="1" stop-color="#C507D9"/>
</linearGradient>
<linearGradient id="paint13_linear_3_2810" x1="53.4195" y1="41.5037" x2="57.1267" y2="41.6655" gradientUnits="userSpaceOnUse">
<stop stop-color="#37A0E7"/>
<stop offset="1" stop-color="#C507D9"/>
</linearGradient>
<linearGradient id="paint14_linear_3_2810" x1="49.6284" y1="41.5037" x2="53.3357" y2="41.6655" gradientUnits="userSpaceOnUse">
<stop stop-color="#37A0E7"/>
<stop offset="1" stop-color="#C507D9"/>
</linearGradient>
<linearGradient id="paint15_linear_3_2810" x1="45.836" y1="41.5037" x2="49.5432" y2="41.6655" gradientUnits="userSpaceOnUse">
<stop stop-color="#37A0E7"/>
<stop offset="1" stop-color="#C507D9"/>
</linearGradient>
<linearGradient id="paint16_linear_3_2810" x1="62.8291" y1="37.1382" x2="67.2349" y2="37.2826" gradientUnits="userSpaceOnUse">
<stop stop-color="#37A0E7"/>
<stop offset="1" stop-color="#C507D9"/>
</linearGradient>
<linearGradient id="paint17_linear_3_2810" x1="62.4373" y1="41.5928" x2="67.6775" y2="41.9364" gradientUnits="userSpaceOnUse">
<stop stop-color="#37A0E7"/>
<stop offset="1" stop-color="#C507D9"/>
</linearGradient>
<linearGradient id="paint18_linear_3_2810" x1="62.4231" y1="32.8913" x2="67.6618" y2="33.2347" gradientUnits="userSpaceOnUse">
<stop stop-color="#37A0E7"/>
<stop offset="1" stop-color="#C507D9"/>
</linearGradient>
<linearGradient id="paint19_linear_3_2810" x1="59.1586" y1="37.0307" x2="61.7885" y2="37.0738" gradientUnits="userSpaceOnUse">
<stop stop-color="#37A0E7"/>
<stop offset="1" stop-color="#C507D9"/>
</linearGradient>
<linearGradient id="paint20_linear_3_2810" x1="68.1527" y1="37.0565" x2="70.7826" y2="37.0996" gradientUnits="userSpaceOnUse">
<stop stop-color="#37A0E7"/>
<stop offset="1" stop-color="#C507D9"/>
</linearGradient>
<linearGradient id="paint21_linear_3_2810" x1="71.5462" y1="36.9523" x2="77.1196" y2="37.135" gradientUnits="userSpaceOnUse">
<stop stop-color="#37A0E7"/>
<stop offset="1" stop-color="#C507D9"/>
</linearGradient>
<linearGradient id="paint22_linear_3_2810" x1="30.4131" y1="31.4657" x2="34.1204" y2="31.6274" gradientUnits="userSpaceOnUse">
<stop stop-color="#37A0E7"/>
<stop offset="1" stop-color="#C507D9"/>
</linearGradient>
<linearGradient id="paint23_linear_3_2810" x1="30.4131" y1="37.1643" x2="34.1204" y2="37.326" gradientUnits="userSpaceOnUse">
<stop stop-color="#37A0E7"/>
<stop offset="1" stop-color="#C507D9"/>
</linearGradient>
<linearGradient id="paint24_linear_3_2810" x1="30.4131" y1="42.8612" x2="34.1204" y2="43.0229" gradientUnits="userSpaceOnUse">
<stop stop-color="#37A0E7"/>
<stop offset="1" stop-color="#C507D9"/>
</linearGradient>
<linearGradient id="paint25_linear_3_2810" x1="38.0161" y1="31.4657" x2="41.7234" y2="31.6274" gradientUnits="userSpaceOnUse">
<stop stop-color="#37A0E7"/>
<stop offset="1" stop-color="#C507D9"/>
</linearGradient>
<linearGradient id="paint26_linear_3_2810" x1="38.0161" y1="37.1643" x2="41.7234" y2="37.326" gradientUnits="userSpaceOnUse">
<stop stop-color="#37A0E7"/>
<stop offset="1" stop-color="#C507D9"/>
</linearGradient>
<linearGradient id="paint27_linear_3_2810" x1="38.0161" y1="42.8612" x2="41.7234" y2="43.0229" gradientUnits="userSpaceOnUse">
<stop stop-color="#37A0E7"/>
<stop offset="1" stop-color="#C507D9"/>
</linearGradient>
<linearGradient id="paint28_linear_3_2810" x1="2.15676" y1="45.7772" x2="5.86403" y2="45.939" gradientUnits="userSpaceOnUse">
<stop stop-color="#37A0E7"/>
<stop offset="1" stop-color="#C507D9"/>
</linearGradient>
<linearGradient id="paint29_linear_3_2810" x1="62.9287" y1="45.7772" x2="66.636" y2="45.939" gradientUnits="userSpaceOnUse">
<stop stop-color="#37A0E7"/>
<stop offset="1" stop-color="#C507D9"/>
</linearGradient>
<linearGradient id="paint30_linear_3_2810" x1="68.627" y1="45.7772" x2="72.3342" y2="45.939" gradientUnits="userSpaceOnUse">
<stop stop-color="#37A0E7"/>
<stop offset="1" stop-color="#C507D9"/>
</linearGradient>
<linearGradient id="paint31_linear_3_2810" x1="74.3257" y1="45.7772" x2="78.033" y2="45.939" gradientUnits="userSpaceOnUse">
<stop stop-color="#37A0E7"/>
<stop offset="1" stop-color="#C507D9"/>
</linearGradient>
<linearGradient id="paint32_linear_3_2810" x1="57.2315" y1="45.7772" x2="60.9387" y2="45.939" gradientUnits="userSpaceOnUse">
<stop stop-color="#37A0E7"/>
<stop offset="1" stop-color="#C507D9"/>
</linearGradient>
<clipPath id="clip0_3_2810">
<rect width="80" height="80" fill="white"/>
</clipPath>
<clipPath id="clip1_3_2810">
<rect width="80" height="28.7179" fill="white" transform="translate(0 26)"/>
</clipPath>
</defs>
</svg>
