<svg width="80" height="80" viewBox="0 0 80 80" fill="none" xmlns="http://www.w3.org/2000/svg">
<g clip-path="url(#clip0_3_3520)">
<rect width="80" height="80" fill="white"/>
<g clip-path="url(#clip1_3_3520)">
<g clip-path="url(#clip2_3_3520)">
<path d="M5.80922 39.9992L0.11377 40.0008C0.11377 50.2092 4.00746 60.4177 11.7933 68.2051C27.3665 83.7783 52.6318 83.7783 68.2049 68.2051C83.7781 52.6319 83.7781 27.3666 68.2049 11.7934C60.4191 4.00758 50.2107 0.113892 40.0022 0.113892L39.9851 5.80935" stroke="url(#paint0_linear_3_3520)" stroke-width="0.755302" stroke-miterlimit="22.9256"/>
<path fill-rule="evenodd" clip-rule="evenodd" d="M10.3891 57.0949C9.79005 56.056 11.1597 53.9812 13.9879 51.2871C14.8537 53.2808 15.9426 55.1559 17.2218 56.8796C13.4716 57.9841 10.9881 58.1338 10.3891 57.0949ZM12.818 48.072C8.91959 47.8271 6.53595 47.1173 6.32691 45.9364C6.11788 44.754 8.11776 43.272 11.701 41.7074C11.8321 43.9054 12.2127 46.0363 12.8164 48.072H12.818ZM11.7026 38.291C8.11932 36.7264 6.11944 35.2444 6.32847 34.0619C6.53595 32.881 8.91959 32.1713 12.818 31.9263C12.2142 33.9621 11.8336 36.093 11.7026 38.291ZM13.9879 28.7112C11.1581 26.0172 9.78849 23.9424 10.3891 22.9035C10.9897 21.8645 13.4731 22.0127 17.2233 23.1187C15.9426 24.8425 14.8553 26.7176 13.9879 28.7112ZM19.4198 20.5011C17.6804 16.999 17.1016 14.5779 18.0205 13.8073C18.9393 13.0366 21.2231 14.0257 24.368 16.3469C22.5631 17.5418 20.9017 18.9365 19.4198 20.5027V20.5011ZM27.3288 14.6341C26.892 10.7513 27.1775 8.28029 28.3053 7.87002C29.4316 7.45975 31.2381 9.16948 33.4002 12.4236C31.274 12.9306 29.2398 13.6762 27.3304 14.6341H27.3288ZM36.7666 11.8339C37.6855 8.03382 38.7977 5.80774 39.9973 5.80774C41.1969 5.80774 42.3108 8.03382 43.228 11.8339C42.1672 11.7138 41.0893 11.6498 39.9973 11.6498C38.9038 11.6498 37.8274 11.7138 36.7666 11.8339ZM46.596 12.4236C48.7581 9.16948 50.5646 7.45975 51.6909 7.87002C52.8172 8.28029 53.1026 10.7513 52.6659 14.6341C50.7549 13.6778 48.7223 12.9306 46.596 12.4236ZM55.6267 16.3453C58.7731 14.0241 61.0554 13.0351 61.9742 13.8073C62.893 14.5779 62.3158 16.999 60.5749 20.5011C59.0914 18.9365 57.43 17.5403 55.6251 16.3453H55.6267ZM62.7745 23.1172C66.5246 22.0127 69.0081 21.863 69.6087 22.9019C70.2077 23.9408 68.8381 26.0156 66.0098 28.7097C65.1441 26.716 64.0552 24.8409 62.776 23.1172H62.7745ZM67.1783 31.9248C71.0766 32.1697 73.4603 32.8795 73.6693 34.0604C73.8783 35.2428 71.8785 36.7248 68.2936 38.2895C68.1626 36.0915 67.782 33.9605 67.1783 31.9248ZM68.2936 41.7058C71.8769 43.2704 73.8768 44.7524 73.6677 45.9349C73.4603 47.1158 71.0766 47.8256 67.1767 48.0705C67.7804 46.0347 68.161 43.9038 68.2921 41.7058H68.2936ZM66.0083 51.2856C68.8381 53.9796 70.2077 56.0544 69.6071 57.0933C69.0066 58.1323 66.5231 57.9841 62.7729 56.8781C64.0536 55.1543 65.1409 53.2792 66.0067 51.2856H66.0083ZM60.5765 59.4957C62.3158 62.9978 62.8946 65.4189 61.9758 66.1895C61.0569 66.9602 58.7731 65.9711 55.6282 63.6499C57.4331 62.455 59.0945 61.0604 60.5765 59.4941V59.4957ZM52.6674 65.3628C53.1042 69.2455 52.8187 71.7165 51.6909 72.1268C50.5646 72.5371 48.7581 70.8273 46.596 67.5732C48.7223 67.0662 50.7564 66.319 52.6659 65.3628H52.6674ZM43.2296 68.1629C42.3108 71.963 41.1985 74.1891 39.9989 74.1891C38.7993 74.1891 37.6855 71.963 36.7682 68.1629C37.829 68.283 38.9069 68.347 39.9989 68.347C41.0924 68.347 42.1704 68.283 43.2296 68.1629ZM33.3987 67.5732C31.2365 70.8273 29.4301 72.5371 28.3038 72.1268C27.1775 71.7165 26.892 69.2455 27.3272 65.3628C29.2382 66.319 31.2709 67.0662 33.3971 67.5732H33.3987ZM24.368 63.6515C21.2215 65.9727 18.9393 66.9617 18.0205 66.1895C17.1016 65.4189 17.6788 62.9978 19.4198 59.4957C20.9033 61.0604 22.5647 62.4565 24.3695 63.6515H24.368Z" stroke="url(#paint1_linear_3_3520)" stroke-width="0.755302" stroke-miterlimit="22.9256"/>
<path d="M39.9993 68.3486C55.6562 68.3486 68.3486 55.6562 68.3486 39.9993C68.3486 24.3423 55.6562 11.6499 39.9993 11.6499C24.3423 11.6499 11.6499 24.3423 11.6499 39.9993C11.6499 55.6562 24.3423 68.3486 39.9993 68.3486Z" stroke="url(#paint2_linear_3_3520)" stroke-width="0.755302" stroke-miterlimit="22.9256"/>
<path d="M39.9993 62.792C52.5874 62.792 62.792 52.5874 62.792 39.9993C62.792 27.4112 52.5874 17.2065 39.9993 17.2065C27.4112 17.2065 17.2065 27.4112 17.2065 39.9993C17.2065 52.5874 27.4112 62.792 39.9993 62.792Z" stroke="url(#paint3_linear_3_3520)" stroke-width="0.755302" stroke-miterlimit="22.9256"/>
<path d="M5.71387 40.0008C5.71387 48.7757 9.06157 57.5521 15.7538 64.2443C29.14 77.6305 50.8579 77.6305 64.244 64.2443C77.6301 50.8582 77.6301 29.1403 64.244 15.7542C57.5517 9.06193 48.7753 5.71423 40.0005 5.71423" stroke="url(#paint4_linear_3_3520)" stroke-width="0.755302" stroke-miterlimit="22.9256"/>
<path d="M39.999 57.095C49.4408 57.095 57.0948 49.441 57.0948 39.9993C57.0948 30.5576 49.4408 22.9036 39.999 22.9036C30.5573 22.9036 22.9033 30.5576 22.9033 39.9993C22.9033 49.441 30.5573 57.095 39.999 57.095Z" stroke="url(#paint5_linear_3_3520)" stroke-width="0.755302" stroke-miterlimit="22.9256"/>
</g>
</g>
</g>
<defs>
<linearGradient id="paint0_linear_3_3520" x1="3.01048" y1="32.1958" x2="81.0514" y2="34.7535" gradientUnits="userSpaceOnUse">
<stop stop-color="#37A0E7"/>
<stop offset="1" stop-color="#C507D9"/>
</linearGradient>
<linearGradient id="paint1_linear_3_3520" x1="8.75849" y1="33.3089" x2="74.6715" y2="35.4373" gradientUnits="userSpaceOnUse">
<stop stop-color="#37A0E7"/>
<stop offset="1" stop-color="#C507D9"/>
</linearGradient>
<linearGradient id="paint2_linear_3_3520" x1="13.7088" y1="34.4527" x2="69.1778" y2="36.2706" gradientUnits="userSpaceOnUse">
<stop stop-color="#37A0E7"/>
<stop offset="1" stop-color="#C507D9"/>
</linearGradient>
<linearGradient id="paint3_linear_3_3520" x1="18.8619" y1="35.5398" x2="63.4587" y2="37.0015" gradientUnits="userSpaceOnUse">
<stop stop-color="#37A0E7"/>
<stop offset="1" stop-color="#C507D9"/>
</linearGradient>
<linearGradient id="paint4_linear_3_3520" x1="8.20383" y1="33.2912" x2="75.2863" y2="35.4898" gradientUnits="userSpaceOnUse">
<stop stop-color="#37A0E7"/>
<stop offset="1" stop-color="#C507D9"/>
</linearGradient>
<linearGradient id="paint5_linear_3_3520" x1="24.1449" y1="36.6545" x2="57.5948" y2="37.7508" gradientUnits="userSpaceOnUse">
<stop stop-color="#37A0E7"/>
<stop offset="1" stop-color="#C507D9"/>
</linearGradient>
<clipPath id="clip0_3_3520">
<rect width="80" height="80" fill="white"/>
</clipPath>
<clipPath id="clip1_3_3520">
<rect width="80" height="80" fill="white"/>
</clipPath>
<clipPath id="clip2_3_3520">
<rect width="80" height="80" fill="white"/>
</clipPath>
</defs>
</svg>
