<svg width="80" height="80" viewBox="0 0 80 80" fill="none" xmlns="http://www.w3.org/2000/svg">
<g clip-path="url(#clip0_3_2744)">
<rect width="80" height="80" fill="white"/>
<g clip-path="url(#clip1_3_2744)">
<path d="M66.5525 13.1069H13V66.6594H66.5525V13.1069Z" stroke="url(#paint0_linear_3_2744)" stroke-width="0.754284" stroke-miterlimit="22.9256"/>
<path d="M21.9254 75.5667L24.8998 72.6105V66.6594H18.9487H18.951V72.6105L21.9254 75.5667ZM21.9254 75.5667C16.3136 81.2169 27.4376 81.1152 21.9254 75.5667Z" stroke="url(#paint1_linear_3_2744)" stroke-width="0.754284" stroke-miterlimit="22.9256"/>
<path d="M60.5992 19.0579H18.9487V60.7083H60.5992V19.0579Z" stroke="url(#paint2_linear_3_2744)" stroke-width="0.754284" stroke-miterlimit="22.9256"/>
<path d="M54.6345 30.9578H25.2231V48.8086H54.6345V30.9578Z" stroke="url(#paint3_linear_3_2744)" stroke-width="0.754284" stroke-miterlimit="22.9256"/>
<path d="M30.8486 25.0089V30.9577" stroke="url(#paint4_linear_3_2744)" stroke-width="0.754284" stroke-miterlimit="22.9256"/>
<path d="M36.7996 25.0089V30.9577" stroke="url(#paint5_linear_3_2744)" stroke-width="0.754284" stroke-miterlimit="22.9256"/>
<path d="M42.7507 25.0089V30.9577" stroke="url(#paint6_linear_3_2744)" stroke-width="0.754284" stroke-miterlimit="22.9256"/>
<path d="M48.6995 25.0089V30.9577" stroke="url(#paint7_linear_3_2744)" stroke-width="0.754284" stroke-miterlimit="22.9256"/>
<path d="M30.8486 54.7596V48.8086" stroke="url(#paint8_linear_3_2744)" stroke-width="0.754284" stroke-miterlimit="22.9256"/>
<path d="M36.7996 54.7596V48.8086" stroke="url(#paint9_linear_3_2744)" stroke-width="0.754284" stroke-miterlimit="22.9256"/>
<path d="M42.7507 54.7596V48.8086" stroke="url(#paint10_linear_3_2744)" stroke-width="0.754284" stroke-miterlimit="22.9256"/>
<path d="M48.6995 54.7596V48.8086" stroke="url(#paint11_linear_3_2744)" stroke-width="0.754284" stroke-miterlimit="22.9256"/>
<path d="M32.3369 19.0579H29.3625V25.0089H32.3369V19.0579Z" stroke="url(#paint12_linear_3_2744)" stroke-width="0.754284" stroke-miterlimit="22.9256"/>
<path d="M38.2857 19.0579H35.3113V25.0089H38.2857V19.0579Z" stroke="url(#paint13_linear_3_2744)" stroke-width="0.754284" stroke-miterlimit="22.9256"/>
<path d="M44.2366 19.0579H41.2622V25.0089H44.2366V19.0579Z" stroke="url(#paint14_linear_3_2744)" stroke-width="0.754284" stroke-miterlimit="22.9256"/>
<path d="M50.1878 19.0579H47.2134V25.0089H50.1878V19.0579Z" stroke="url(#paint15_linear_3_2744)" stroke-width="0.754284" stroke-miterlimit="22.9256"/>
<path d="M32.3369 54.7595H29.3625V60.7106H32.3369V54.7595Z" stroke="url(#paint16_linear_3_2744)" stroke-width="0.754284" stroke-miterlimit="22.9256"/>
<path d="M38.2857 54.7595H35.3113V60.7106H38.2857V54.7595Z" stroke="url(#paint17_linear_3_2744)" stroke-width="0.754284" stroke-miterlimit="22.9256"/>
<path d="M44.2366 54.7595H41.2622V60.7106H44.2366V54.7595Z" stroke="url(#paint18_linear_3_2744)" stroke-width="0.754284" stroke-miterlimit="22.9256"/>
<path d="M50.1878 54.7595H47.2134V60.7106H50.1878V54.7595Z" stroke="url(#paint19_linear_3_2744)" stroke-width="0.754284" stroke-miterlimit="22.9256"/>
<path d="M33.8253 75.5667L36.7997 72.6105V66.6594H30.8486H30.8509V72.6105L33.8253 75.5667ZM33.8253 75.5667C28.2135 81.2169 39.3375 81.1152 33.8253 75.5667Z" stroke="url(#paint20_linear_3_2744)" stroke-width="0.754284" stroke-miterlimit="22.9256"/>
<path d="M45.7274 75.5667L48.7018 72.6105V66.6594H42.7507H42.753V72.6105L45.7274 75.5667ZM45.7274 75.5667C40.1156 81.2169 51.2396 81.1152 45.7274 75.5667Z" stroke="url(#paint21_linear_3_2744)" stroke-width="0.754284" stroke-miterlimit="22.9256"/>
<path d="M57.627 75.5667L60.6014 72.6105V66.6594H54.6504H54.6527V72.6105L57.627 75.5667ZM57.627 75.5667C52.0153 81.2169 63.1393 81.1152 57.627 75.5667Z" stroke="url(#paint22_linear_3_2744)" stroke-width="0.754284" stroke-miterlimit="22.9256"/>
<path d="M21.9254 4.19957L24.8998 7.15586V13.1069H18.9487H18.951V7.15586L21.9254 4.19957ZM21.9254 4.19957C16.3136 -1.45063 27.4376 -1.34885 21.9254 4.19957Z" stroke="url(#paint23_linear_3_2744)" stroke-width="0.754284" stroke-miterlimit="22.9256"/>
<path d="M33.8253 4.19957L36.7997 7.15586V13.1069H30.8486H30.8509V7.15586L33.8253 4.19957ZM33.8253 4.19957C28.2135 -1.45063 39.3375 -1.34885 33.8253 4.19957Z" stroke="url(#paint24_linear_3_2744)" stroke-width="0.754284" stroke-miterlimit="22.9256"/>
<path d="M45.7274 4.19957L48.7018 7.15586V13.1069H42.7507H42.753V7.15586L45.7274 4.19957ZM45.7274 4.19957C40.1156 -1.45063 51.2396 -1.34885 45.7274 4.19957Z" stroke="url(#paint25_linear_3_2744)" stroke-width="0.754284" stroke-miterlimit="22.9256"/>
<path d="M57.627 4.19957L60.6014 7.15586V13.1069H54.6504H54.6527V7.15586L57.627 4.19957ZM57.627 4.19957C52.0153 -1.45063 63.1393 -1.34885 57.627 4.19957Z" stroke="url(#paint26_linear_3_2744)" stroke-width="0.754284" stroke-miterlimit="22.9256"/>
</g>
</g>
<defs>
<linearGradient id="paint0_linear_3_2744" x1="14.9446" y1="34.6444" x2="67.3356" y2="36.3615" gradientUnits="userSpaceOnUse">
<stop stop-color="#37A0E7"/>
<stop offset="1" stop-color="#C507D9"/>
</linearGradient>
<linearGradient id="paint1_linear_3_2744" x1="19.1648" y1="71.9307" x2="24.9918" y2="72.0174" gradientUnits="userSpaceOnUse">
<stop stop-color="#37A0E7"/>
<stop offset="1" stop-color="#C507D9"/>
</linearGradient>
<linearGradient id="paint2_linear_3_2744" x1="20.4612" y1="35.8086" x2="61.2083" y2="37.1441" gradientUnits="userSpaceOnUse">
<stop stop-color="#37A0E7"/>
<stop offset="1" stop-color="#C507D9"/>
</linearGradient>
<linearGradient id="paint3_linear_3_2744" x1="26.2912" y1="38.1369" x2="55.0118" y2="39.6878" gradientUnits="userSpaceOnUse">
<stop stop-color="#37A0E7"/>
<stop offset="1" stop-color="#C507D9"/>
</linearGradient>
<linearGradient id="paint4_linear_3_2744" x1="30.8849" y1="27.4014" x2="31.8643" y2="27.4067" gradientUnits="userSpaceOnUse">
<stop stop-color="#37A0E7"/>
<stop offset="1" stop-color="#C507D9"/>
</linearGradient>
<linearGradient id="paint5_linear_3_2744" x1="36.8359" y1="27.4014" x2="37.8152" y2="27.4067" gradientUnits="userSpaceOnUse">
<stop stop-color="#37A0E7"/>
<stop offset="1" stop-color="#C507D9"/>
</linearGradient>
<linearGradient id="paint6_linear_3_2744" x1="42.787" y1="27.4014" x2="43.7664" y2="27.4067" gradientUnits="userSpaceOnUse">
<stop stop-color="#37A0E7"/>
<stop offset="1" stop-color="#C507D9"/>
</linearGradient>
<linearGradient id="paint7_linear_3_2744" x1="48.7358" y1="27.4014" x2="49.7151" y2="27.4067" gradientUnits="userSpaceOnUse">
<stop stop-color="#37A0E7"/>
<stop offset="1" stop-color="#C507D9"/>
</linearGradient>
<linearGradient id="paint8_linear_3_2744" x1="30.8849" y1="51.2019" x2="31.8643" y2="51.2073" gradientUnits="userSpaceOnUse">
<stop stop-color="#37A0E7"/>
<stop offset="1" stop-color="#C507D9"/>
</linearGradient>
<linearGradient id="paint9_linear_3_2744" x1="36.8359" y1="51.2019" x2="37.8152" y2="51.2073" gradientUnits="userSpaceOnUse">
<stop stop-color="#37A0E7"/>
<stop offset="1" stop-color="#C507D9"/>
</linearGradient>
<linearGradient id="paint10_linear_3_2744" x1="42.787" y1="51.2019" x2="43.7664" y2="51.2073" gradientUnits="userSpaceOnUse">
<stop stop-color="#37A0E7"/>
<stop offset="1" stop-color="#C507D9"/>
</linearGradient>
<linearGradient id="paint11_linear_3_2744" x1="48.7358" y1="51.2019" x2="49.7151" y2="51.2073" gradientUnits="userSpaceOnUse">
<stop stop-color="#37A0E7"/>
<stop offset="1" stop-color="#C507D9"/>
</linearGradient>
<linearGradient id="paint12_linear_3_2744" x1="29.4706" y1="21.4512" x2="32.3828" y2="21.4989" gradientUnits="userSpaceOnUse">
<stop stop-color="#37A0E7"/>
<stop offset="1" stop-color="#C507D9"/>
</linearGradient>
<linearGradient id="paint13_linear_3_2744" x1="35.4193" y1="21.4512" x2="38.3315" y2="21.4989" gradientUnits="userSpaceOnUse">
<stop stop-color="#37A0E7"/>
<stop offset="1" stop-color="#C507D9"/>
</linearGradient>
<linearGradient id="paint14_linear_3_2744" x1="41.3702" y1="21.4512" x2="44.2824" y2="21.4989" gradientUnits="userSpaceOnUse">
<stop stop-color="#37A0E7"/>
<stop offset="1" stop-color="#C507D9"/>
</linearGradient>
<linearGradient id="paint15_linear_3_2744" x1="47.3214" y1="21.4512" x2="50.2336" y2="21.4989" gradientUnits="userSpaceOnUse">
<stop stop-color="#37A0E7"/>
<stop offset="1" stop-color="#C507D9"/>
</linearGradient>
<linearGradient id="paint16_linear_3_2744" x1="29.4706" y1="57.1529" x2="32.3828" y2="57.2006" gradientUnits="userSpaceOnUse">
<stop stop-color="#37A0E7"/>
<stop offset="1" stop-color="#C507D9"/>
</linearGradient>
<linearGradient id="paint17_linear_3_2744" x1="35.4193" y1="57.1529" x2="38.3315" y2="57.2006" gradientUnits="userSpaceOnUse">
<stop stop-color="#37A0E7"/>
<stop offset="1" stop-color="#C507D9"/>
</linearGradient>
<linearGradient id="paint18_linear_3_2744" x1="41.3702" y1="57.1529" x2="44.2824" y2="57.2006" gradientUnits="userSpaceOnUse">
<stop stop-color="#37A0E7"/>
<stop offset="1" stop-color="#C507D9"/>
</linearGradient>
<linearGradient id="paint19_linear_3_2744" x1="47.3214" y1="57.1529" x2="50.2336" y2="57.2006" gradientUnits="userSpaceOnUse">
<stop stop-color="#37A0E7"/>
<stop offset="1" stop-color="#C507D9"/>
</linearGradient>
<linearGradient id="paint20_linear_3_2744" x1="31.0647" y1="71.9307" x2="36.8917" y2="72.0174" gradientUnits="userSpaceOnUse">
<stop stop-color="#37A0E7"/>
<stop offset="1" stop-color="#C507D9"/>
</linearGradient>
<linearGradient id="paint21_linear_3_2744" x1="42.9668" y1="71.9307" x2="48.7938" y2="72.0174" gradientUnits="userSpaceOnUse">
<stop stop-color="#37A0E7"/>
<stop offset="1" stop-color="#C507D9"/>
</linearGradient>
<linearGradient id="paint22_linear_3_2744" x1="54.8665" y1="71.9307" x2="60.6934" y2="72.0174" gradientUnits="userSpaceOnUse">
<stop stop-color="#37A0E7"/>
<stop offset="1" stop-color="#C507D9"/>
</linearGradient>
<linearGradient id="paint23_linear_3_2744" x1="19.1648" y1="5.27125" x2="24.9918" y2="5.35796" gradientUnits="userSpaceOnUse">
<stop stop-color="#37A0E7"/>
<stop offset="1" stop-color="#C507D9"/>
</linearGradient>
<linearGradient id="paint24_linear_3_2744" x1="31.0647" y1="5.27125" x2="36.8917" y2="5.35796" gradientUnits="userSpaceOnUse">
<stop stop-color="#37A0E7"/>
<stop offset="1" stop-color="#C507D9"/>
</linearGradient>
<linearGradient id="paint25_linear_3_2744" x1="42.9668" y1="5.27125" x2="48.7938" y2="5.35796" gradientUnits="userSpaceOnUse">
<stop stop-color="#37A0E7"/>
<stop offset="1" stop-color="#C507D9"/>
</linearGradient>
<linearGradient id="paint26_linear_3_2744" x1="54.8665" y1="5.27125" x2="60.6934" y2="5.35796" gradientUnits="userSpaceOnUse">
<stop stop-color="#37A0E7"/>
<stop offset="1" stop-color="#C507D9"/>
</linearGradient>
<clipPath id="clip0_3_2744">
<rect width="80" height="80" fill="white"/>
</clipPath>
<clipPath id="clip1_3_2744">
<rect width="53.79" height="80" fill="white" transform="translate(13)"/>
</clipPath>
</defs>
</svg>
