<svg width="80" height="80" viewBox="0 0 80 80" fill="none" xmlns="http://www.w3.org/2000/svg">
<rect width="80" height="80" fill="white"/>
<g clip-path="url(#clip0_3_3603)">
<path d="M5.81148 54.3019H0.11377V59.9996H5.81148V54.3019Z" stroke="url(#paint0_linear_3_3603)" stroke-width="0.756523" stroke-miterlimit="22.9256"/>
<path d="M17.2075 54.3019H11.5098V59.9996H17.2075V54.3019Z" stroke="url(#paint1_linear_3_3603)" stroke-width="0.756523" stroke-miterlimit="22.9256"/>
<path d="M79.8857 54.3019H74.188V59.9996H79.8857V54.3019Z" stroke="url(#paint2_linear_3_3603)" stroke-width="0.756523" stroke-miterlimit="22.9256"/>
<path d="M68.4892 54.3019H62.7915V59.9996H68.4892V54.3019Z" stroke="url(#paint3_linear_3_3603)" stroke-width="0.756523" stroke-miterlimit="22.9256"/>
<path d="M79.8855 20.1138H0.11377V54.3019H79.8855V20.1138Z" stroke="url(#paint4_linear_3_3603)" stroke-width="0.756523" stroke-miterlimit="22.9256"/>
<path d="M0.11377 37.2081H79.8855" stroke="url(#paint5_linear_3_3603)" stroke-width="0.756523" stroke-miterlimit="22.9256"/>
<path d="M73.2241 34.0357C76.3708 34.0357 78.9218 31.4847 78.9218 28.338C78.9218 25.1912 76.3708 22.6403 73.2241 22.6403C70.0773 22.6403 67.5264 25.1912 67.5264 28.338C67.5264 31.4847 70.0773 34.0357 73.2241 34.0357Z" stroke="url(#paint6_linear_3_3603)" stroke-width="0.756523" stroke-miterlimit="22.9256"/>
<path d="M57.9024 44.0526C59.4759 44.0526 60.7516 42.777 60.7516 41.2034C60.7516 39.6299 59.4759 38.3542 57.9024 38.3542C56.3288 38.3542 55.0532 39.6299 55.0532 41.2034C55.0532 42.777 56.3288 44.0526 57.9024 44.0526Z" stroke="url(#paint7_linear_3_3603)" stroke-width="0.756523" stroke-miterlimit="22.9256"/>
<path d="M66.4493 44.0526C68.0228 44.0526 69.2984 42.777 69.2984 41.2034C69.2984 39.6299 68.0228 38.3542 66.4493 38.3542C64.8757 38.3542 63.6001 39.6299 63.6001 41.2034C63.6001 42.777 64.8757 44.0526 66.4493 44.0526Z" stroke="url(#paint8_linear_3_3603)" stroke-width="0.756523" stroke-miterlimit="22.9256"/>
<path d="M74.9961 44.0526C76.5697 44.0526 77.8453 42.777 77.8453 41.2034C77.8453 39.6299 76.5697 38.3542 74.9961 38.3542C73.4226 38.3542 72.147 39.6299 72.147 41.2034C72.147 42.777 73.4226 44.0526 74.9961 44.0526Z" stroke="url(#paint9_linear_3_3603)" stroke-width="0.756523" stroke-miterlimit="22.9256"/>
<path d="M74.9961 52.5995C76.5697 52.5995 77.8453 51.3238 77.8453 49.7503C77.8453 48.1767 76.5697 46.9011 74.9961 46.9011C73.4226 46.9011 72.147 48.1767 72.147 49.7503C72.147 51.3238 73.4226 52.5995 74.9961 52.5995Z" stroke="url(#paint10_linear_3_3603)" stroke-width="0.756523" stroke-miterlimit="22.9256"/>
<path d="M66.4493 52.5995C68.0228 52.5995 69.2984 51.3238 69.2984 49.7503C69.2984 48.1767 68.0228 46.9011 66.4493 46.9011C64.8757 46.9011 63.6001 48.1767 63.6001 49.7503C63.6001 51.3238 64.8757 52.5995 66.4493 52.5995Z" stroke="url(#paint11_linear_3_3603)" stroke-width="0.756523" stroke-miterlimit="22.9256"/>
<path d="M57.9024 52.5995C59.4759 52.5995 60.7516 51.3238 60.7516 49.7503C60.7516 48.1767 59.4759 46.9011 57.9024 46.9011C56.3288 46.9011 55.0532 48.1767 55.0532 49.7503C55.0532 51.3238 56.3288 52.5995 57.9024 52.5995Z" stroke="url(#paint12_linear_3_3603)" stroke-width="0.756523" stroke-miterlimit="22.9256"/>
<path fill-rule="evenodd" clip-rule="evenodd" d="M43.6831 42.9059L45.6977 40.8912L47.7124 42.9059H43.6831Z" stroke="url(#paint13_linear_3_3603)" stroke-width="0.756523" stroke-miterlimit="22.9256"/>
<path d="M51.3956 44.3301H39.9995V47.1792H51.3956V44.3301Z" stroke="url(#paint14_linear_3_3603)" stroke-width="0.756523" stroke-miterlimit="22.9256"/>
<path d="M45.6978 44.3301V47.1792" stroke="url(#paint15_linear_3_3603)" stroke-width="0.756523" stroke-miterlimit="22.9256"/>
<path fill-rule="evenodd" clip-rule="evenodd" d="M43.6831 48.6042L45.6977 50.6183L47.7124 48.6042H43.6831Z" stroke="url(#paint16_linear_3_3603)" stroke-width="0.756523" stroke-miterlimit="22.9256"/>
<path d="M28.6035 40.0566H22.9058V42.9058H28.6035V40.0566Z" stroke="url(#paint17_linear_3_3603)" stroke-width="0.756523" stroke-miterlimit="22.9256"/>
<path d="M37.1503 40.0566H31.4526V42.9058H37.1503V40.0566Z" stroke="url(#paint18_linear_3_3603)" stroke-width="0.756523" stroke-miterlimit="22.9256"/>
<path d="M28.6035 44.3301H22.9058V47.1792H28.6035V44.3301Z" stroke="url(#paint19_linear_3_3603)" stroke-width="0.756523" stroke-miterlimit="22.9256"/>
<path d="M28.6035 48.6041H22.9058V51.4533H28.6035V48.6041Z" stroke="url(#paint20_linear_3_3603)" stroke-width="0.756523" stroke-miterlimit="22.9256"/>
<path d="M37.1503 44.3301H31.4526V47.1792H37.1503V44.3301Z" stroke="url(#paint21_linear_3_3603)" stroke-width="0.756523" stroke-miterlimit="22.9256"/>
<path d="M37.1503 48.6041H31.4526V51.4533H37.1503V48.6041Z" stroke="url(#paint22_linear_3_3603)" stroke-width="0.756523" stroke-miterlimit="22.9256"/>
<path d="M7.23629 42.9059C8.02289 42.9059 8.66056 42.2683 8.66056 41.4816C8.66056 40.695 8.02289 40.0574 7.23629 40.0574C6.44968 40.0574 5.81201 40.695 5.81201 41.4816C5.81201 42.2683 6.44968 42.9059 7.23629 42.9059Z" stroke="url(#paint23_linear_3_3603)" stroke-width="0.756523" stroke-miterlimit="22.9256"/>
<path d="M11.5097 42.9059C12.2963 42.9059 12.934 42.2683 12.934 41.4816C12.934 40.695 12.2963 40.0574 11.5097 40.0574C10.7231 40.0574 10.0854 40.695 10.0854 41.4816C10.0854 42.2683 10.7231 42.9059 11.5097 42.9059Z" stroke="url(#paint24_linear_3_3603)" stroke-width="0.756523" stroke-miterlimit="22.9256"/>
<path d="M15.7832 42.9059C16.5698 42.9059 17.2074 42.2683 17.2074 41.4816C17.2074 40.695 16.5698 40.0574 15.7832 40.0574C14.9966 40.0574 14.3589 40.695 14.3589 41.4816C14.3589 42.2683 14.9966 42.9059 15.7832 42.9059Z" stroke="url(#paint25_linear_3_3603)" stroke-width="0.756523" stroke-miterlimit="22.9256"/>
<path d="M20.0566 42.9059C20.8432 42.9059 21.4809 42.2683 21.4809 41.4816C21.4809 40.695 20.8432 40.0574 20.0566 40.0574C19.27 40.0574 18.6323 40.695 18.6323 41.4816C18.6323 42.2683 19.27 42.9059 20.0566 42.9059Z" stroke="url(#paint26_linear_3_3603)" stroke-width="0.756523" stroke-miterlimit="22.9256"/>
<path d="M7.23629 47.1794C8.02289 47.1794 8.66056 46.5417 8.66056 45.7551C8.66056 44.9685 8.02289 44.3308 7.23629 44.3308C6.44968 44.3308 5.81201 44.9685 5.81201 45.7551C5.81201 46.5417 6.44968 47.1794 7.23629 47.1794Z" stroke="url(#paint27_linear_3_3603)" stroke-width="0.756523" stroke-miterlimit="22.9256"/>
<path d="M11.5097 47.1794C12.2963 47.1794 12.934 46.5417 12.934 45.7551C12.934 44.9685 12.2963 44.3308 11.5097 44.3308C10.7231 44.3308 10.0854 44.9685 10.0854 45.7551C10.0854 46.5417 10.7231 47.1794 11.5097 47.1794Z" stroke="url(#paint28_linear_3_3603)" stroke-width="0.756523" stroke-miterlimit="22.9256"/>
<path d="M15.7832 47.1794C16.5698 47.1794 17.2074 46.5417 17.2074 45.7551C17.2074 44.9685 16.5698 44.3308 15.7832 44.3308C14.9966 44.3308 14.3589 44.9685 14.3589 45.7551C14.3589 46.5417 14.9966 47.1794 15.7832 47.1794Z" stroke="url(#paint29_linear_3_3603)" stroke-width="0.756523" stroke-miterlimit="22.9256"/>
<path d="M20.0566 47.1794C20.8432 47.1794 21.4809 46.5417 21.4809 45.7551C21.4809 44.9685 20.8432 44.3308 20.0566 44.3308C19.27 44.3308 18.6323 44.9685 18.6323 45.7551C18.6323 46.5417 19.27 47.1794 20.0566 47.1794Z" stroke="url(#paint30_linear_3_3603)" stroke-width="0.756523" stroke-miterlimit="22.9256"/>
<path d="M7.23629 51.4528C8.02289 51.4528 8.66056 50.8151 8.66056 50.0285C8.66056 49.2419 8.02289 48.6042 7.23629 48.6042C6.44968 48.6042 5.81201 49.2419 5.81201 50.0285C5.81201 50.8151 6.44968 51.4528 7.23629 51.4528Z" stroke="url(#paint31_linear_3_3603)" stroke-width="0.756523" stroke-miterlimit="22.9256"/>
<path d="M11.5097 51.4528C12.2963 51.4528 12.934 50.8151 12.934 50.0285C12.934 49.2419 12.2963 48.6042 11.5097 48.6042C10.7231 48.6042 10.0854 49.2419 10.0854 50.0285C10.0854 50.8151 10.7231 51.4528 11.5097 51.4528Z" stroke="url(#paint32_linear_3_3603)" stroke-width="0.756523" stroke-miterlimit="22.9256"/>
<path d="M15.7832 51.4528C16.5698 51.4528 17.2074 50.8151 17.2074 50.0285C17.2074 49.2419 16.5698 48.6042 15.7832 48.6042C14.9966 48.6042 14.3589 49.2419 14.3589 50.0285C14.3589 50.8151 14.9966 51.4528 15.7832 51.4528Z" stroke="url(#paint33_linear_3_3603)" stroke-width="0.756523" stroke-miterlimit="22.9256"/>
<path d="M20.0566 51.4528C20.8432 51.4528 21.4809 50.8151 21.4809 50.0285C21.4809 49.2419 20.8432 48.6042 20.0566 48.6042C19.27 48.6042 18.6323 49.2419 18.6323 50.0285C18.6323 50.8151 19.27 51.4528 20.0566 51.4528Z" stroke="url(#paint34_linear_3_3603)" stroke-width="0.756523" stroke-miterlimit="22.9256"/>
<path d="M11.5161 27.6913C11.5161 27.2681 11.5592 26.9279 11.6455 26.6708C11.7334 26.412 11.8628 26.2126 12.0337 26.0726C12.2062 25.9327 12.4227 25.8627 12.6831 25.8627C12.8752 25.8627 13.0436 25.9017 13.1885 25.9799C13.3333 26.0564 13.453 26.1678 13.5474 26.3143C13.6418 26.4592 13.7158 26.6366 13.7695 26.8466C13.8232 27.0549 13.8501 27.3365 13.8501 27.6913C13.8501 28.1112 13.807 28.4506 13.7207 28.7094C13.6344 28.9665 13.505 29.1659 13.3325 29.3075C13.1616 29.4475 12.9451 29.5175 12.6831 29.5175C12.3381 29.5175 12.0671 29.3938 11.8701 29.1464C11.6341 28.8485 11.5161 28.3635 11.5161 27.6913ZM11.9678 27.6913C11.9678 28.2788 12.0361 28.6703 12.1729 28.8656C12.3112 29.0593 12.4813 29.1561 12.6831 29.1561C12.8849 29.1561 13.0542 29.0585 13.1909 28.8632C13.3293 28.6678 13.3984 28.2772 13.3984 27.6913C13.3984 27.1021 13.3293 26.7107 13.1909 26.517C13.0542 26.3233 12.8833 26.2264 12.6782 26.2264C12.4764 26.2264 12.3153 26.3119 12.1948 26.4828C12.0435 26.7009 11.9678 27.1037 11.9678 27.6913ZM14.5459 29.4564V28.9559H15.0464V29.4564H14.5459ZM15.6909 27.6913C15.6909 27.2681 15.734 26.9279 15.8203 26.6708C15.9082 26.412 16.0376 26.2126 16.2085 26.0726C16.381 25.9327 16.5975 25.8627 16.8579 25.8627C17.05 25.8627 17.2184 25.9017 17.3633 25.9799C17.5081 26.0564 17.6278 26.1678 17.7222 26.3143C17.8166 26.4592 17.8906 26.6366 17.9443 26.8466C17.998 27.0549 18.0249 27.3365 18.0249 27.6913C18.0249 28.1112 17.9818 28.4506 17.8955 28.7094C17.8092 28.9665 17.6799 29.1659 17.5073 29.3075C17.3364 29.4475 17.12 29.5175 16.8579 29.5175C16.5129 29.5175 16.2419 29.3938 16.0449 29.1464C15.8089 28.8485 15.6909 28.3635 15.6909 27.6913ZM16.1426 27.6913C16.1426 28.2788 16.2109 28.6703 16.3477 28.8656C16.486 29.0593 16.6561 29.1561 16.8579 29.1561C17.0597 29.1561 17.229 29.0585 17.3657 28.8632C17.5041 28.6678 17.5732 28.2772 17.5732 27.6913C17.5732 27.1021 17.5041 26.7107 17.3657 26.517C17.229 26.3233 17.0581 26.2264 16.853 26.2264C16.6512 26.2264 16.4901 26.3119 16.3696 26.4828C16.2183 26.7009 16.1426 27.1037 16.1426 27.6913ZM19.8828 29.4564V28.5995H18.3301V28.1967L19.9634 25.8773H20.3223V28.1967H20.8057V28.5995H20.3223V29.4564H19.8828ZM19.8828 28.1967V26.5829L18.7622 28.1967H19.8828Z" fill="url(#paint35_linear_3_3603)"/>
<path d="M23.1089 29.4564L21.7222 25.8773H22.2349L23.165 28.4774C23.2399 28.6858 23.3026 28.8811 23.353 29.0634C23.4084 28.868 23.4727 28.6727 23.5459 28.4774L24.5127 25.8773H24.9961L23.5947 29.4564H23.1089Z" fill="url(#paint36_linear_3_3603)"/>
<path d="M28.6099 27.6913C28.6099 27.2681 28.653 26.9279 28.7393 26.6708C28.8271 26.412 28.9565 26.2126 29.1274 26.0726C29.3 25.9327 29.5164 25.8627 29.7769 25.8627C29.9689 25.8627 30.1374 25.9017 30.2822 25.9799C30.4271 26.0564 30.5467 26.1678 30.6411 26.3143C30.7355 26.4592 30.8096 26.6366 30.8633 26.8466C30.917 27.0549 30.9438 27.3365 30.9438 27.6913C30.9438 28.1112 30.9007 28.4506 30.8145 28.7094C30.7282 28.9665 30.5988 29.1659 30.4263 29.3075C30.2554 29.4475 30.0389 29.5175 29.7769 29.5175C29.4318 29.5175 29.1608 29.3938 28.9639 29.1464C28.7279 28.8485 28.6099 28.3635 28.6099 27.6913ZM29.0615 27.6913C29.0615 28.2788 29.1299 28.6703 29.2666 28.8656C29.4049 29.0593 29.575 29.1561 29.7769 29.1561C29.9787 29.1561 30.1479 29.0585 30.2847 28.8632C30.423 28.6678 30.4922 28.2772 30.4922 27.6913C30.4922 27.1021 30.423 26.7107 30.2847 26.517C30.1479 26.3233 29.9771 26.2264 29.772 26.2264C29.5701 26.2264 29.409 26.3119 29.2886 26.4828C29.1372 26.7009 29.0615 27.1037 29.0615 27.6913ZM31.6396 29.4564V28.9559H32.1401V29.4564H31.6396ZM32.7847 27.6913C32.7847 27.2681 32.8278 26.9279 32.9141 26.6708C33.002 26.412 33.1313 26.2126 33.3022 26.0726C33.4748 25.9327 33.6912 25.8627 33.9517 25.8627C34.1437 25.8627 34.3122 25.9017 34.457 25.9799C34.6019 26.0564 34.7215 26.1678 34.8159 26.3143C34.9103 26.4592 34.9844 26.6366 35.0381 26.8466C35.0918 27.0549 35.1187 27.3365 35.1187 27.6913C35.1187 28.1112 35.0755 28.4506 34.9893 28.7094C34.903 28.9665 34.7736 29.1659 34.6011 29.3075C34.4302 29.4475 34.2137 29.5175 33.9517 29.5175C33.6066 29.5175 33.3356 29.3938 33.1387 29.1464C32.9027 28.8485 32.7847 28.3635 32.7847 27.6913ZM33.2363 27.6913C33.2363 28.2788 33.3047 28.6703 33.4414 28.8656C33.5798 29.0593 33.7498 29.1561 33.9517 29.1561C34.1535 29.1561 34.3228 29.0585 34.4595 28.8632C34.5978 28.6678 34.667 28.2772 34.667 27.6913C34.667 27.1021 34.5978 26.7107 34.4595 26.517C34.3228 26.3233 34.1519 26.2264 33.9468 26.2264C33.745 26.2264 33.5838 26.3119 33.4634 26.4828C33.312 26.7009 33.2363 27.1037 33.2363 27.6913ZM36.9766 29.4564V28.5995H35.4238V28.1967L37.0571 25.8773H37.416V28.1967H37.8994V28.5995H37.416V29.4564H36.9766ZM36.9766 28.1967V26.5829L35.856 28.1967H36.9766Z" fill="url(#paint37_linear_3_3603)"/>
<path d="M40.2026 29.4564L38.8159 25.8773H39.3286L40.2588 28.4774C40.3337 28.6858 40.3963 28.8811 40.4468 29.0634C40.5021 28.868 40.5664 28.6727 40.6396 28.4774L41.6064 25.8773H42.0898L40.6885 29.4564H40.2026Z" fill="url(#paint38_linear_3_3603)"/>
<path d="M45.7046 27.6913C45.7046 27.2681 45.7477 26.9279 45.834 26.6708C45.9219 26.412 46.0513 26.2126 46.2222 26.0726C46.3947 25.9327 46.6112 25.8627 46.8716 25.8627C47.0636 25.8627 47.2321 25.9017 47.377 25.9799C47.5218 26.0564 47.6414 26.1678 47.7358 26.3143C47.8302 26.4592 47.9043 26.6366 47.958 26.8466C48.0117 27.0549 48.0386 27.3365 48.0386 27.6913C48.0386 28.1112 47.9954 28.4506 47.9092 28.7094C47.8229 28.9665 47.6935 29.1659 47.521 29.3075C47.3501 29.4475 47.1336 29.5175 46.8716 29.5175C46.5265 29.5175 46.2555 29.3938 46.0586 29.1464C45.8226 28.8485 45.7046 28.3635 45.7046 27.6913ZM46.1562 27.6913C46.1562 28.2788 46.2246 28.6703 46.3613 28.8656C46.4997 29.0593 46.6698 29.1561 46.8716 29.1561C47.0734 29.1561 47.2427 29.0585 47.3794 28.8632C47.5177 28.6678 47.5869 28.2772 47.5869 27.6913C47.5869 27.1021 47.5177 26.7107 47.3794 26.517C47.2427 26.3233 47.0718 26.2264 46.8667 26.2264C46.6649 26.2264 46.5037 26.3119 46.3833 26.4828C46.2319 26.7009 46.1562 27.1037 46.1562 27.6913ZM48.7344 29.4564V28.9559H49.2349V29.4564H48.7344ZM49.8794 27.6913C49.8794 27.2681 49.9225 26.9279 50.0088 26.6708C50.0967 26.412 50.2261 26.2126 50.397 26.0726C50.5695 25.9327 50.786 25.8627 51.0464 25.8627C51.2384 25.8627 51.4069 25.9017 51.5518 25.9799C51.6966 26.0564 51.8162 26.1678 51.9106 26.3143C52.005 26.4592 52.0791 26.6366 52.1328 26.8466C52.1865 27.0549 52.2134 27.3365 52.2134 27.6913C52.2134 28.1112 52.1702 28.4506 52.084 28.7094C51.9977 28.9665 51.8683 29.1659 51.6958 29.3075C51.5249 29.4475 51.3084 29.5175 51.0464 29.5175C50.7013 29.5175 50.4303 29.3938 50.2334 29.1464C49.9974 28.8485 49.8794 28.3635 49.8794 27.6913ZM50.3311 27.6913C50.3311 28.2788 50.3994 28.6703 50.5361 28.8656C50.6745 29.0593 50.8446 29.1561 51.0464 29.1561C51.2482 29.1561 51.4175 29.0585 51.5542 28.8632C51.6925 28.6678 51.7617 28.2772 51.7617 27.6913C51.7617 27.1021 51.6925 26.7107 51.5542 26.517C51.4175 26.3233 51.2466 26.2264 51.0415 26.2264C50.8397 26.2264 50.6785 26.3119 50.5581 26.4828C50.4067 26.7009 50.3311 27.1037 50.3311 27.6913ZM54.0713 29.4564V28.5995H52.5186V28.1967L54.1519 25.8773H54.5107V28.1967H54.9941V28.5995H54.5107V29.4564H54.0713ZM54.0713 28.1967V26.5829L52.9507 28.1967H54.0713Z" fill="url(#paint39_linear_3_3603)"/>
<path d="M57.2974 29.4564L55.9106 25.8773H56.4233L57.3535 28.4774C57.4284 28.6858 57.491 28.8811 57.5415 29.0634C57.5968 28.868 57.6611 28.6727 57.7344 28.4774L58.7012 25.8773H59.1846L57.7832 29.4564H57.2974Z" fill="url(#paint40_linear_3_3603)"/>
<path d="M2.96285 42.9059C3.74945 42.9059 4.38712 42.2683 4.38712 41.4816C4.38712 40.695 3.74945 40.0574 2.96285 40.0574C2.17624 40.0574 1.53857 40.695 1.53857 41.4816C1.53857 42.2683 2.17624 42.9059 2.96285 42.9059Z" stroke="url(#paint41_linear_3_3603)" stroke-width="0.756523" stroke-miterlimit="22.9256"/>
<path d="M2.96285 47.1794C3.74945 47.1794 4.38712 46.5417 4.38712 45.7551C4.38712 44.9685 3.74945 44.3308 2.96285 44.3308C2.17624 44.3308 1.53857 44.9685 1.53857 45.7551C1.53857 46.5417 2.17624 47.1794 2.96285 47.1794Z" stroke="url(#paint42_linear_3_3603)" stroke-width="0.756523" stroke-miterlimit="22.9256"/>
<path d="M2.96285 51.4528C3.74945 51.4528 4.38712 50.8151 4.38712 50.0285C4.38712 49.2419 3.74945 48.6042 2.96285 48.6042C2.17624 48.6042 1.53857 49.2419 1.53857 50.0285C1.53857 50.8151 2.17624 51.4528 2.96285 51.4528Z" stroke="url(#paint43_linear_3_3603)" stroke-width="0.756523" stroke-miterlimit="22.9256"/>
</g>
<defs>
<linearGradient id="paint0_linear_3_3603" x1="0.32067" y1="56.5934" x2="5.89481" y2="56.776" gradientUnits="userSpaceOnUse">
<stop stop-color="#37A0E7"/>
<stop offset="1" stop-color="#C507D9"/>
</linearGradient>
<linearGradient id="paint1_linear_3_3603" x1="11.7167" y1="56.5934" x2="17.2908" y2="56.776" gradientUnits="userSpaceOnUse">
<stop stop-color="#37A0E7"/>
<stop offset="1" stop-color="#C507D9"/>
</linearGradient>
<linearGradient id="paint2_linear_3_3603" x1="74.3949" y1="56.5934" x2="79.969" y2="56.776" gradientUnits="userSpaceOnUse">
<stop stop-color="#37A0E7"/>
<stop offset="1" stop-color="#C507D9"/>
</linearGradient>
<linearGradient id="paint3_linear_3_3603" x1="62.9984" y1="56.5934" x2="68.5725" y2="56.776" gradientUnits="userSpaceOnUse">
<stop stop-color="#37A0E7"/>
<stop offset="1" stop-color="#C507D9"/>
</linearGradient>
<linearGradient id="paint4_linear_3_3603" x1="3.01051" y1="33.8634" x2="80.6817" y2="39.8031" gradientUnits="userSpaceOnUse">
<stop stop-color="#37A0E7"/>
<stop offset="1" stop-color="#C507D9"/>
</linearGradient>
<linearGradient id="paint5_linear_3_3603" x1="3.01051" y1="37.6103" x2="12.9811" y2="63.6784" gradientUnits="userSpaceOnUse">
<stop stop-color="#37A0E7"/>
<stop offset="1" stop-color="#C507D9"/>
</linearGradient>
<linearGradient id="paint6_linear_3_3603" x1="67.9402" y1="27.2232" x2="79.0884" y2="27.5886" gradientUnits="userSpaceOnUse">
<stop stop-color="#37A0E7"/>
<stop offset="1" stop-color="#C507D9"/>
</linearGradient>
<linearGradient id="paint7_linear_3_3603" x1="55.2601" y1="40.646" x2="60.8349" y2="40.8287" gradientUnits="userSpaceOnUse">
<stop stop-color="#37A0E7"/>
<stop offset="1" stop-color="#C507D9"/>
</linearGradient>
<linearGradient id="paint8_linear_3_3603" x1="63.807" y1="40.646" x2="69.3818" y2="40.8287" gradientUnits="userSpaceOnUse">
<stop stop-color="#37A0E7"/>
<stop offset="1" stop-color="#C507D9"/>
</linearGradient>
<linearGradient id="paint9_linear_3_3603" x1="72.3539" y1="40.646" x2="77.9286" y2="40.8287" gradientUnits="userSpaceOnUse">
<stop stop-color="#37A0E7"/>
<stop offset="1" stop-color="#C507D9"/>
</linearGradient>
<linearGradient id="paint10_linear_3_3603" x1="72.3539" y1="49.1928" x2="77.9286" y2="49.3756" gradientUnits="userSpaceOnUse">
<stop stop-color="#37A0E7"/>
<stop offset="1" stop-color="#C507D9"/>
</linearGradient>
<linearGradient id="paint11_linear_3_3603" x1="63.807" y1="49.1928" x2="69.3818" y2="49.3756" gradientUnits="userSpaceOnUse">
<stop stop-color="#37A0E7"/>
<stop offset="1" stop-color="#C507D9"/>
</linearGradient>
<linearGradient id="paint12_linear_3_3603" x1="55.2601" y1="49.1928" x2="60.8349" y2="49.3756" gradientUnits="userSpaceOnUse">
<stop stop-color="#37A0E7"/>
<stop offset="1" stop-color="#C507D9"/>
</linearGradient>
<linearGradient id="paint13_linear_3_3603" x1="43.8294" y1="41.7015" x2="47.7586" y2="41.959" gradientUnits="userSpaceOnUse">
<stop stop-color="#37A0E7"/>
<stop offset="1" stop-color="#C507D9"/>
</linearGradient>
<linearGradient id="paint14_linear_3_3603" x1="40.4133" y1="45.4759" x2="51.3856" y2="46.9143" gradientUnits="userSpaceOnUse">
<stop stop-color="#37A0E7"/>
<stop offset="1" stop-color="#C507D9"/>
</linearGradient>
<linearGradient id="paint15_linear_3_3603" x1="45.7341" y1="45.4759" x2="46.7133" y2="45.4872" gradientUnits="userSpaceOnUse">
<stop stop-color="#37A0E7"/>
<stop offset="1" stop-color="#C507D9"/>
</linearGradient>
<linearGradient id="paint16_linear_3_3603" x1="43.8294" y1="49.4142" x2="47.7586" y2="49.6719" gradientUnits="userSpaceOnUse">
<stop stop-color="#37A0E7"/>
<stop offset="1" stop-color="#C507D9"/>
</linearGradient>
<linearGradient id="paint17_linear_3_3603" x1="23.1127" y1="41.2025" x2="28.6689" y2="41.5667" gradientUnits="userSpaceOnUse">
<stop stop-color="#37A0E7"/>
<stop offset="1" stop-color="#C507D9"/>
</linearGradient>
<linearGradient id="paint18_linear_3_3603" x1="31.6595" y1="41.2025" x2="37.2158" y2="41.5667" gradientUnits="userSpaceOnUse">
<stop stop-color="#37A0E7"/>
<stop offset="1" stop-color="#C507D9"/>
</linearGradient>
<linearGradient id="paint19_linear_3_3603" x1="23.1127" y1="45.4759" x2="28.6689" y2="45.8401" gradientUnits="userSpaceOnUse">
<stop stop-color="#37A0E7"/>
<stop offset="1" stop-color="#C507D9"/>
</linearGradient>
<linearGradient id="paint20_linear_3_3603" x1="23.1127" y1="49.75" x2="28.6689" y2="50.1142" gradientUnits="userSpaceOnUse">
<stop stop-color="#37A0E7"/>
<stop offset="1" stop-color="#C507D9"/>
</linearGradient>
<linearGradient id="paint21_linear_3_3603" x1="31.6595" y1="45.4759" x2="37.2158" y2="45.8401" gradientUnits="userSpaceOnUse">
<stop stop-color="#37A0E7"/>
<stop offset="1" stop-color="#C507D9"/>
</linearGradient>
<linearGradient id="paint22_linear_3_3603" x1="31.6595" y1="49.75" x2="37.2158" y2="50.1142" gradientUnits="userSpaceOnUse">
<stop stop-color="#37A0E7"/>
<stop offset="1" stop-color="#C507D9"/>
</linearGradient>
<linearGradient id="paint23_linear_3_3603" x1="5.91545" y1="41.203" x2="8.70222" y2="41.2943" gradientUnits="userSpaceOnUse">
<stop stop-color="#37A0E7"/>
<stop offset="1" stop-color="#C507D9"/>
</linearGradient>
<linearGradient id="paint24_linear_3_3603" x1="10.1889" y1="41.203" x2="12.9757" y2="41.2943" gradientUnits="userSpaceOnUse">
<stop stop-color="#37A0E7"/>
<stop offset="1" stop-color="#C507D9"/>
</linearGradient>
<linearGradient id="paint25_linear_3_3603" x1="14.4623" y1="41.203" x2="17.2491" y2="41.2943" gradientUnits="userSpaceOnUse">
<stop stop-color="#37A0E7"/>
<stop offset="1" stop-color="#C507D9"/>
</linearGradient>
<linearGradient id="paint26_linear_3_3603" x1="18.7358" y1="41.203" x2="21.5225" y2="41.2943" gradientUnits="userSpaceOnUse">
<stop stop-color="#37A0E7"/>
<stop offset="1" stop-color="#C507D9"/>
</linearGradient>
<linearGradient id="paint27_linear_3_3603" x1="5.91545" y1="45.4764" x2="8.70222" y2="45.5678" gradientUnits="userSpaceOnUse">
<stop stop-color="#37A0E7"/>
<stop offset="1" stop-color="#C507D9"/>
</linearGradient>
<linearGradient id="paint28_linear_3_3603" x1="10.1889" y1="45.4764" x2="12.9757" y2="45.5678" gradientUnits="userSpaceOnUse">
<stop stop-color="#37A0E7"/>
<stop offset="1" stop-color="#C507D9"/>
</linearGradient>
<linearGradient id="paint29_linear_3_3603" x1="14.4623" y1="45.4764" x2="17.2491" y2="45.5678" gradientUnits="userSpaceOnUse">
<stop stop-color="#37A0E7"/>
<stop offset="1" stop-color="#C507D9"/>
</linearGradient>
<linearGradient id="paint30_linear_3_3603" x1="18.7358" y1="45.4764" x2="21.5225" y2="45.5678" gradientUnits="userSpaceOnUse">
<stop stop-color="#37A0E7"/>
<stop offset="1" stop-color="#C507D9"/>
</linearGradient>
<linearGradient id="paint31_linear_3_3603" x1="5.91545" y1="49.7499" x2="8.70222" y2="49.8412" gradientUnits="userSpaceOnUse">
<stop stop-color="#37A0E7"/>
<stop offset="1" stop-color="#C507D9"/>
</linearGradient>
<linearGradient id="paint32_linear_3_3603" x1="10.1889" y1="49.7499" x2="12.9757" y2="49.8412" gradientUnits="userSpaceOnUse">
<stop stop-color="#37A0E7"/>
<stop offset="1" stop-color="#C507D9"/>
</linearGradient>
<linearGradient id="paint33_linear_3_3603" x1="14.4623" y1="49.7499" x2="17.2491" y2="49.8412" gradientUnits="userSpaceOnUse">
<stop stop-color="#37A0E7"/>
<stop offset="1" stop-color="#C507D9"/>
</linearGradient>
<linearGradient id="paint34_linear_3_3603" x1="18.7358" y1="49.7499" x2="21.5225" y2="49.8412" gradientUnits="userSpaceOnUse">
<stop stop-color="#37A0E7"/>
<stop offset="1" stop-color="#C507D9"/>
</linearGradient>
<linearGradient id="paint35_linear_3_3603" x1="11.6717" y1="26.8695" x2="21.4362" y2="27.4028" gradientUnits="userSpaceOnUse">
<stop stop-color="#37A0E7"/>
<stop offset="1" stop-color="#C507D9"/>
</linearGradient>
<linearGradient id="paint36_linear_3_3603" x1="20.4902" y1="26.8695" x2="25.3833" y2="27.0031" gradientUnits="userSpaceOnUse">
<stop stop-color="#37A0E7"/>
<stop offset="1" stop-color="#C507D9"/>
</linearGradient>
<linearGradient id="paint37_linear_3_3603" x1="28.7655" y1="26.8695" x2="38.53" y2="27.4028" gradientUnits="userSpaceOnUse">
<stop stop-color="#37A0E7"/>
<stop offset="1" stop-color="#C507D9"/>
</linearGradient>
<linearGradient id="paint38_linear_3_3603" x1="37.5839" y1="26.8695" x2="42.4771" y2="27.0031" gradientUnits="userSpaceOnUse">
<stop stop-color="#37A0E7"/>
<stop offset="1" stop-color="#C507D9"/>
</linearGradient>
<linearGradient id="paint39_linear_3_3603" x1="45.8602" y1="26.8695" x2="55.6247" y2="27.4028" gradientUnits="userSpaceOnUse">
<stop stop-color="#37A0E7"/>
<stop offset="1" stop-color="#C507D9"/>
</linearGradient>
<linearGradient id="paint40_linear_3_3603" x1="54.6786" y1="26.8695" x2="59.5718" y2="27.0031" gradientUnits="userSpaceOnUse">
<stop stop-color="#37A0E7"/>
<stop offset="1" stop-color="#C507D9"/>
</linearGradient>
<linearGradient id="paint41_linear_3_3603" x1="1.64201" y1="41.203" x2="4.42878" y2="41.2943" gradientUnits="userSpaceOnUse">
<stop stop-color="#37A0E7"/>
<stop offset="1" stop-color="#C507D9"/>
</linearGradient>
<linearGradient id="paint42_linear_3_3603" x1="1.64201" y1="45.4764" x2="4.42878" y2="45.5678" gradientUnits="userSpaceOnUse">
<stop stop-color="#37A0E7"/>
<stop offset="1" stop-color="#C507D9"/>
</linearGradient>
<linearGradient id="paint43_linear_3_3603" x1="1.64201" y1="49.7499" x2="4.42878" y2="49.8412" gradientUnits="userSpaceOnUse">
<stop stop-color="#37A0E7"/>
<stop offset="1" stop-color="#C507D9"/>
</linearGradient>
<clipPath id="clip0_3_3603">
<rect width="80" height="40.114" fill="white" transform="translate(0 20)"/>
</clipPath>
</defs>
</svg>
