<svg width="80" height="80" viewBox="0 0 80 80" fill="none" xmlns="http://www.w3.org/2000/svg">
<g clip-path="url(#clip0_3_3275)">
<rect width="80" height="80" fill="white"/>
<g clip-path="url(#clip1_3_3275)">
<path d="M25.8121 74.1877H20.1138V79.886H25.8121V74.1877Z" stroke="url(#paint0_linear_3_3275)" stroke-width="0.757228" stroke-miterlimit="22.9256"/>
<path d="M59.9994 0.113953H20.1138V74.1877H59.9994V0.113953Z" stroke="url(#paint1_linear_3_3275)" stroke-width="0.757228" stroke-miterlimit="22.9256"/>
<path d="M60.0003 74.1877H54.302V79.886H60.0003V74.1877Z" stroke="url(#paint2_linear_3_3275)" stroke-width="0.757228" stroke-miterlimit="22.9256"/>
<path fill-rule="evenodd" clip-rule="evenodd" d="M25.812 62.7919H54.3019V11.5097H25.812V62.7919Z" stroke="url(#paint3_linear_3_3275)" stroke-width="0.757228" stroke-miterlimit="22.9256"/>
<path fill-rule="evenodd" clip-rule="evenodd" d="M25.812 51.3962H54.3019V48.5466H25.812V51.3962Z" stroke="url(#paint4_linear_3_3275)" stroke-width="0.757228" stroke-miterlimit="22.9256"/>
<path d="M54.3019 37.1509H25.812V39.9996H54.3019V37.1509Z" stroke="url(#paint5_linear_3_3275)" stroke-width="0.757228" stroke-miterlimit="22.9256"/>
<path d="M54.3019 22.9063H25.812V25.7551H54.3019V22.9063Z" stroke="url(#paint6_linear_3_3275)" stroke-width="0.757228" stroke-miterlimit="22.9256"/>
<path d="M48.6036 2.9635H31.5095V8.66179H48.6036V2.9635Z" stroke="url(#paint7_linear_3_3275)" stroke-width="0.757228" stroke-miterlimit="22.9256"/>
<path d="M25.812 62.7919L52.9142 11.5097" stroke="url(#paint8_linear_3_3275)" stroke-width="0.757228" stroke-miterlimit="22.9256"/>
<path d="M31.5095 62.7919L43.5306 39.9996" stroke="url(#paint9_linear_3_3275)" stroke-width="0.757228" stroke-miterlimit="22.9256"/>
</g>
</g>
<defs>
<linearGradient id="paint0_linear_3_3275" x1="20.3207" y1="76.4795" x2="25.8954" y2="76.6622" gradientUnits="userSpaceOnUse">
<stop stop-color="#37A0E7"/>
<stop offset="1" stop-color="#C507D9"/>
</linearGradient>
<linearGradient id="paint1_linear_3_3275" x1="21.5621" y1="29.9045" x2="60.6124" y2="30.5937" gradientUnits="userSpaceOnUse">
<stop stop-color="#37A0E7"/>
<stop offset="1" stop-color="#C507D9"/>
</linearGradient>
<linearGradient id="paint2_linear_3_3275" x1="54.5089" y1="76.4795" x2="60.0836" y2="76.6622" gradientUnits="userSpaceOnUse">
<stop stop-color="#37A0E7"/>
<stop offset="1" stop-color="#C507D9"/>
</linearGradient>
<linearGradient id="paint3_linear_3_3275" x1="26.8466" y1="32.1341" x2="54.7392" y2="32.642" gradientUnits="userSpaceOnUse">
<stop stop-color="#37A0E7"/>
<stop offset="1" stop-color="#C507D9"/>
</linearGradient>
<linearGradient id="paint4_linear_3_3275" x1="26.8466" y1="49.6926" x2="52.043" y2="57.949" gradientUnits="userSpaceOnUse">
<stop stop-color="#37A0E7"/>
<stop offset="1" stop-color="#C507D9"/>
</linearGradient>
<linearGradient id="paint5_linear_3_3275" x1="26.8466" y1="38.2966" x2="52.0416" y2="46.5549" gradientUnits="userSpaceOnUse">
<stop stop-color="#37A0E7"/>
<stop offset="1" stop-color="#C507D9"/>
</linearGradient>
<linearGradient id="paint6_linear_3_3275" x1="26.8466" y1="24.052" x2="52.0416" y2="32.3103" gradientUnits="userSpaceOnUse">
<stop stop-color="#37A0E7"/>
<stop offset="1" stop-color="#C507D9"/>
</linearGradient>
<linearGradient id="paint7_linear_3_3275" x1="32.1303" y1="5.25521" x2="48.7113" y2="6.88544" gradientUnits="userSpaceOnUse">
<stop stop-color="#37A0E7"/>
<stop offset="1" stop-color="#C507D9"/>
</linearGradient>
<linearGradient id="paint8_linear_3_3275" x1="26.7962" y1="32.1341" x2="53.3311" y2="32.5937" gradientUnits="userSpaceOnUse">
<stop stop-color="#37A0E7"/>
<stop offset="1" stop-color="#C507D9"/>
</linearGradient>
<linearGradient id="paint9_linear_3_3275" x1="31.946" y1="49.1661" x2="43.7155" y2="49.3695" gradientUnits="userSpaceOnUse">
<stop stop-color="#37A0E7"/>
<stop offset="1" stop-color="#C507D9"/>
</linearGradient>
<clipPath id="clip0_3_3275">
<rect width="80" height="80" fill="white"/>
</clipPath>
<clipPath id="clip1_3_3275">
<rect width="40.114" height="80" fill="white" transform="translate(20)"/>
</clipPath>
</defs>
</svg>
