<svg width="46" height="80" viewBox="0 0 46 80" fill="none" xmlns="http://www.w3.org/2000/svg">
<g clip-path="url(#clip0_3_3784)">
<path d="M45.6974 0.114746H0.114258V79.8853H45.6974V0.114746Z" stroke="url(#paint0_linear_3_3784)" stroke-width="0.758782" stroke-miterlimit="22.9256"/>
<path d="M39.9994 5.81262H5.81201V17.2084H39.9994V5.81262Z" stroke="url(#paint1_linear_3_3784)" stroke-width="0.758782" stroke-miterlimit="22.9256"/>
<path d="M10.6514 12.5188L11.2974 12.4641C11.3452 12.7786 11.4557 13.0155 11.6289 13.175C11.8044 13.3323 12.0151 13.4109 12.2612 13.4109C12.5575 13.4109 12.8081 13.2992 13.0132 13.0759C13.2183 12.8526 13.3208 12.5564 13.3208 12.1873C13.3208 11.8363 13.2217 11.5595 13.0234 11.3567C12.8275 11.1539 12.57 11.0525 12.251 11.0525C12.0527 11.0525 11.8739 11.0981 11.7144 11.1892C11.5549 11.2781 11.4295 11.3943 11.3384 11.5378L10.7607 11.4626L11.2461 8.88892H13.7378V9.47681H11.7383L11.4683 10.8235C11.769 10.6139 12.0846 10.509 12.415 10.509C12.8525 10.509 13.2217 10.6606 13.5225 10.9636C13.8232 11.2667 13.9736 11.6563 13.9736 12.1326C13.9736 12.586 13.8415 12.9779 13.5771 13.3083C13.2559 13.7139 12.8172 13.9167 12.2612 13.9167C11.8055 13.9167 11.4329 13.7891 11.1436 13.5339C10.8564 13.2787 10.6924 12.9403 10.6514 12.5188ZM14.5479 11.3601C14.5479 10.7677 14.6082 10.2914 14.729 9.9314C14.8521 9.56909 15.0332 9.28996 15.2725 9.09399C15.514 8.89803 15.8171 8.80005 16.1816 8.80005C16.4505 8.80005 16.6864 8.85474 16.8892 8.96411C17.092 9.07121 17.2594 9.22729 17.3916 9.43237C17.5238 9.63517 17.6274 9.88354 17.7026 10.1775C17.7778 10.4692 17.8154 10.8634 17.8154 11.3601C17.8154 11.948 17.755 12.4231 17.6343 12.7854C17.5135 13.1454 17.3324 13.4246 17.0908 13.6228C16.8516 13.8188 16.5485 13.9167 16.1816 13.9167C15.6986 13.9167 15.3192 13.7436 15.0435 13.3972C14.7131 12.9802 14.5479 12.3012 14.5479 11.3601ZM15.1802 11.3601C15.1802 12.1827 15.2759 12.7307 15.4673 13.0042C15.661 13.2753 15.8991 13.4109 16.1816 13.4109C16.4642 13.4109 16.7012 13.2742 16.8926 13.0007C17.0863 12.7273 17.1831 12.1804 17.1831 11.3601C17.1831 10.5352 17.0863 9.98722 16.8926 9.71606C16.7012 9.44491 16.4619 9.30933 16.1748 9.30933C15.8923 9.30933 15.6667 9.42896 15.498 9.66821C15.2861 9.97355 15.1802 10.5375 15.1802 11.3601ZM18.7896 13.8313V13.1306H19.4902V13.8313H18.7896ZM20.3926 11.3601C20.3926 10.7677 20.453 10.2914 20.5737 9.9314C20.6968 9.56909 20.8779 9.28996 21.1172 9.09399C21.3587 8.89803 21.6618 8.80005 22.0264 8.80005C22.2952 8.80005 22.5311 8.85474 22.7339 8.96411C22.9367 9.07121 23.1042 9.22729 23.2363 9.43237C23.3685 9.63517 23.4722 9.88354 23.5474 10.1775C23.6226 10.4692 23.6602 10.8634 23.6602 11.3601C23.6602 11.948 23.5998 12.4231 23.479 12.7854C23.3582 13.1454 23.1771 13.4246 22.9355 13.6228C22.6963 13.8188 22.3932 13.9167 22.0264 13.9167C21.5433 13.9167 21.1639 13.7436 20.8882 13.3972C20.5578 12.9802 20.3926 12.3012 20.3926 11.3601ZM21.0249 11.3601C21.0249 12.1827 21.1206 12.7307 21.312 13.0042C21.5057 13.2753 21.7438 13.4109 22.0264 13.4109C22.3089 13.4109 22.5459 13.2742 22.7373 13.0007C22.931 12.7273 23.0278 12.1804 23.0278 11.3601C23.0278 10.5352 22.931 9.98722 22.7373 9.71606C22.5459 9.44491 22.3066 9.30933 22.0195 9.30933C21.737 9.30933 21.5114 9.42896 21.3428 9.66821C21.1309 9.97355 21.0249 10.5375 21.0249 11.3601Z" fill="url(#paint2_linear_3_3784)"/>
<path d="M27.0181 13.8313V8.82056H27.6812V10.8782H30.2856V8.82056H30.9487V13.8313H30.2856V11.4695H27.6812V13.8313H27.0181ZM31.6528 13.8313V13.3323L33.9634 10.6799C33.7013 10.6936 33.4701 10.7004 33.2695 10.7004H31.7896V10.2014H34.7563V10.6082L32.791 12.9119L32.4116 13.3323C32.6873 13.3118 32.946 13.3015 33.1875 13.3015H34.8657V13.8313H31.6528Z" fill="url(#paint3_linear_3_3784)"/>
<path d="M11.5099 22.9064H5.81201V28.6043H11.5099V22.9064Z" stroke="url(#paint4_linear_3_3784)" stroke-width="0.758782" stroke-miterlimit="22.9256"/>
<path fill-rule="evenodd" clip-rule="evenodd" d="M22.9057 28.6042C24.7524 28.6042 26.4601 29.1898 27.8573 30.184L24.3683 33.673C23.9189 33.4823 23.4232 33.3788 22.903 33.3788C22.3828 33.3788 21.8898 33.4823 21.4377 33.673L17.9487 30.184C19.3459 29.1898 21.0536 28.6042 22.9003 28.6042H22.9057ZM27.8573 44.1182C26.4601 45.1124 24.7524 45.6979 22.9057 45.6979C21.0591 45.6979 19.3514 45.1124 17.9541 44.1182L21.4431 40.6292C21.8925 40.8199 22.3882 40.9234 22.9085 40.9234C23.4287 40.9234 23.9217 40.8199 24.3738 40.6292L27.8628 44.1182H27.8573ZM14.3589 37.1511C14.3589 35.3045 14.9445 33.5967 15.9386 32.1995L19.4276 35.6885C19.237 36.1379 19.1335 36.6336 19.1335 37.1538H14.3589V37.1511Z" stroke="url(#paint5_linear_3_3784)" stroke-width="0.758782" stroke-miterlimit="22.9256"/>
<path d="M22.9061 40C24.4795 40 25.755 38.7245 25.755 37.1511C25.755 35.5776 24.4795 34.3021 22.9061 34.3021C21.3326 34.3021 20.0571 35.5776 20.0571 37.1511C20.0571 38.7245 21.3326 40 22.9061 40Z" stroke="url(#paint6_linear_3_3784)" stroke-width="0.758782" stroke-miterlimit="22.9256"/>
<path d="M22.9061 54.2448C24.4795 54.2448 25.755 52.9693 25.755 51.3958C25.755 49.8224 24.4795 48.5469 22.9061 48.5469C21.3326 48.5469 20.0571 49.8224 20.0571 51.3958C20.0571 52.9693 21.3326 54.2448 22.9061 54.2448Z" stroke="url(#paint7_linear_3_3784)" stroke-width="0.758782" stroke-miterlimit="22.9256"/>
<path d="M11.5101 54.2448C13.0835 54.2448 14.359 52.9693 14.359 51.3958C14.359 49.8224 13.0835 48.5469 11.5101 48.5469C9.93665 48.5469 8.66113 49.8224 8.66113 51.3958C8.66113 52.9693 9.93665 54.2448 11.5101 54.2448Z" stroke="url(#paint8_linear_3_3784)" stroke-width="0.758782" stroke-miterlimit="22.9256"/>
<path d="M34.3016 54.2448C35.875 54.2448 37.1505 52.9693 37.1505 51.3958C37.1505 49.8224 35.875 48.5469 34.3016 48.5469C32.7282 48.5469 31.4526 49.8224 31.4526 51.3958C31.4526 52.9693 32.7282 54.2448 34.3016 54.2448Z" stroke="url(#paint9_linear_3_3784)" stroke-width="0.758782" stroke-miterlimit="22.9256"/>
<path d="M34.3016 40C35.875 40 37.1505 38.7245 37.1505 37.1511C37.1505 35.5776 35.875 34.3021 34.3016 34.3021C32.7282 34.3021 31.4526 35.5776 31.4526 37.1511C31.4526 38.7245 32.7282 40 34.3016 40Z" stroke="url(#paint10_linear_3_3784)" stroke-width="0.758782" stroke-miterlimit="22.9256"/>
<path d="M0.114258 57.0938H45.6974" stroke="url(#paint11_linear_3_3784)" stroke-width="0.758782" stroke-miterlimit="22.9256"/>
</g>
<defs>
<linearGradient id="paint0_linear_3_3784" x1="1.76951" y1="32.1964" x2="46.3963" y2="33.0322" gradientUnits="userSpaceOnUse">
<stop stop-color="#37A0E7"/>
<stop offset="1" stop-color="#C507D9"/>
</linearGradient>
<linearGradient id="paint1_linear_3_3784" x1="7.05345" y1="10.3957" x2="40.2147" y2="13.6563" gradientUnits="userSpaceOnUse">
<stop stop-color="#37A0E7"/>
<stop offset="1" stop-color="#C507D9"/>
</linearGradient>
<linearGradient id="paint2_linear_3_3784" x1="10.8754" y1="11.2267" x2="24.7125" y2="11.9879" gradientUnits="userSpaceOnUse">
<stop stop-color="#37A0E7"/>
<stop offset="1" stop-color="#C507D9"/>
</linearGradient>
<linearGradient id="paint3_linear_3_3784" x1="26.786" y1="11.2267" x2="35.634" y2="11.5374" gradientUnits="userSpaceOnUse">
<stop stop-color="#37A0E7"/>
<stop offset="1" stop-color="#C507D9"/>
</linearGradient>
<linearGradient id="paint4_linear_3_3784" x1="6.01892" y1="25.1979" x2="11.5932" y2="25.3806" gradientUnits="userSpaceOnUse">
<stop stop-color="#37A0E7"/>
<stop offset="1" stop-color="#C507D9"/>
</linearGradient>
<linearGradient id="paint5_linear_3_3784" x1="14.8493" y1="35.4789" x2="28.0656" y2="35.8211" gradientUnits="userSpaceOnUse">
<stop stop-color="#37A0E7"/>
<stop offset="1" stop-color="#C507D9"/>
</linearGradient>
<linearGradient id="paint6_linear_3_3784" x1="20.264" y1="36.5937" x2="25.8384" y2="36.7764" gradientUnits="userSpaceOnUse">
<stop stop-color="#37A0E7"/>
<stop offset="1" stop-color="#C507D9"/>
</linearGradient>
<linearGradient id="paint7_linear_3_3784" x1="20.264" y1="50.8384" x2="25.8384" y2="51.0211" gradientUnits="userSpaceOnUse">
<stop stop-color="#37A0E7"/>
<stop offset="1" stop-color="#C507D9"/>
</linearGradient>
<linearGradient id="paint8_linear_3_3784" x1="8.86804" y1="50.8384" x2="14.4424" y2="51.0211" gradientUnits="userSpaceOnUse">
<stop stop-color="#37A0E7"/>
<stop offset="1" stop-color="#C507D9"/>
</linearGradient>
<linearGradient id="paint9_linear_3_3784" x1="31.6595" y1="50.8384" x2="37.2339" y2="51.0211" gradientUnits="userSpaceOnUse">
<stop stop-color="#37A0E7"/>
<stop offset="1" stop-color="#C507D9"/>
</linearGradient>
<linearGradient id="paint10_linear_3_3784" x1="31.6595" y1="36.5937" x2="37.2339" y2="36.7764" gradientUnits="userSpaceOnUse">
<stop stop-color="#37A0E7"/>
<stop offset="1" stop-color="#C507D9"/>
</linearGradient>
<linearGradient id="paint11_linear_3_3784" x1="1.76951" y1="57.4959" x2="15.5823" y2="78.1319" gradientUnits="userSpaceOnUse">
<stop stop-color="#37A0E7"/>
<stop offset="1" stop-color="#C507D9"/>
</linearGradient>
<clipPath id="clip0_3_3784">
<rect width="45.812" height="80" fill="white"/>
</clipPath>
</defs>
</svg>
