<svg width="80" height="80" viewBox="0 0 80 80" fill="none" xmlns="http://www.w3.org/2000/svg">
<g clip-path="url(#clip0_3_2527)">
<rect width="80" height="80" fill="white"/>
<g clip-path="url(#clip1_3_2527)">
<g clip-path="url(#clip2_3_2527)">
<path d="M22.9059 5.81213H0.11377V34.302H22.9059V5.81213Z" stroke="url(#paint0_linear_3_2527)" stroke-width="0.756525" stroke-miterlimit="22.9256"/>
<path d="M8.66118 0.11377H5.81201V5.8115H8.66118V0.11377Z" stroke="url(#paint1_linear_3_2527)" stroke-width="0.756525" stroke-miterlimit="22.9256"/>
<path d="M17.2081 0.11377H14.3589V5.8115H17.2081V0.11377Z" stroke="url(#paint2_linear_3_2527)" stroke-width="0.756525" stroke-miterlimit="22.9256"/>
<path d="M62.7917 68.4902H17.208V79.8863H62.7917V68.4902Z" stroke="url(#paint3_linear_3_2527)" stroke-width="0.756525" stroke-miterlimit="22.9256"/>
<path d="M79.8854 5.81213H34.3018V28.6043H79.8854V5.81213Z" stroke="url(#paint4_linear_3_2527)" stroke-width="0.756525" stroke-miterlimit="22.9256"/>
<path fill-rule="evenodd" clip-rule="evenodd" d="M47.977 11.5099H66.2107C67.4643 11.5099 68.4899 12.5354 68.4899 13.7891V18.3475C68.4899 20.8549 66.4388 22.906 63.9315 22.906H50.2562C47.7489 22.906 45.6978 20.8549 45.6978 18.3475V13.7891C45.6978 12.5354 46.7233 11.5099 47.977 11.5099Z" stroke="url(#paint5_linear_3_2527)" stroke-width="0.756525" stroke-miterlimit="22.9256"/>
<path d="M50.727 16.4837C51.5136 16.4837 52.1513 15.846 52.1513 15.0594C52.1513 14.2728 51.5136 13.6351 50.727 13.6351C49.9404 13.6351 49.3027 14.2728 49.3027 15.0594C49.3027 15.846 49.9404 16.4837 50.727 16.4837Z" stroke="url(#paint6_linear_3_2527)" stroke-width="0.756525" stroke-miterlimit="22.9256"/>
<path d="M55.0004 16.4837C55.7871 16.4837 56.4247 15.846 56.4247 15.0594C56.4247 14.2728 55.7871 13.6351 55.0004 13.6351C54.2138 13.6351 53.5762 14.2728 53.5762 15.0594C53.5762 15.846 54.2138 16.4837 55.0004 16.4837Z" stroke="url(#paint7_linear_3_2527)" stroke-width="0.756525" stroke-miterlimit="22.9256"/>
<path d="M59.2739 16.4837C60.0605 16.4837 60.6982 15.846 60.6982 15.0594C60.6982 14.2728 60.0605 13.6351 59.2739 13.6351C58.4873 13.6351 57.8496 14.2728 57.8496 15.0594C57.8496 15.846 58.4873 16.4837 59.2739 16.4837Z" stroke="url(#paint8_linear_3_2527)" stroke-width="0.756525" stroke-miterlimit="22.9256"/>
<path d="M57.1372 20.8245C57.9238 20.8245 58.5614 20.1868 58.5614 19.4002C58.5614 18.6136 57.9238 17.976 57.1372 17.976C56.3506 17.976 55.7129 18.6136 55.7129 19.4002C55.7129 20.1868 56.3506 20.8245 57.1372 20.8245Z" stroke="url(#paint9_linear_3_2527)" stroke-width="0.756525" stroke-miterlimit="22.9256"/>
<path d="M52.8637 20.8245C53.6503 20.8245 54.288 20.1868 54.288 19.4002C54.288 18.6136 53.6503 17.976 52.8637 17.976C52.0771 17.976 51.4395 18.6136 51.4395 19.4002C51.4395 20.1868 52.0771 20.8245 52.8637 20.8245Z" stroke="url(#paint10_linear_3_2527)" stroke-width="0.756525" stroke-miterlimit="22.9256"/>
<path d="M61.4106 20.8245C62.1972 20.8245 62.8349 20.1868 62.8349 19.4002C62.8349 18.6136 62.1972 17.976 61.4106 17.976C60.624 17.976 59.9863 18.6136 59.9863 19.4002C59.9863 20.1868 60.624 20.8245 61.4106 20.8245Z" stroke="url(#paint11_linear_3_2527)" stroke-width="0.756525" stroke-miterlimit="22.9256"/>
<path d="M63.5478 16.4837C64.3344 16.4837 64.9721 15.846 64.9721 15.0594C64.9721 14.2728 64.3344 13.6351 63.5478 13.6351C62.7612 13.6351 62.1235 14.2728 62.1235 15.0594C62.1235 15.846 62.7612 16.4837 63.5478 16.4837Z" stroke="url(#paint12_linear_3_2527)" stroke-width="0.756525" stroke-miterlimit="22.9256"/>
<path d="M74.1875 20.0574C75.7611 20.0574 77.0367 18.7817 77.0367 17.2082C77.0367 15.6346 75.7611 14.359 74.1875 14.359C72.614 14.359 71.3384 15.6346 71.3384 17.2082C71.3384 18.7817 72.614 20.0574 74.1875 20.0574Z" stroke="url(#paint13_linear_3_2527)" stroke-width="0.756525" stroke-miterlimit="22.9256"/>
<path d="M39.9996 20.0574C41.5731 20.0574 42.8487 18.7817 42.8487 17.2082C42.8487 15.6346 41.5731 14.359 39.9996 14.359C38.426 14.359 37.1504 15.6346 37.1504 17.2082C37.1504 18.7817 38.426 20.0574 39.9996 20.0574Z" stroke="url(#paint14_linear_3_2527)" stroke-width="0.756525" stroke-miterlimit="22.9256"/>
<path fill-rule="evenodd" clip-rule="evenodd" d="M41.001 18.9341V16.0856H38.1519L41.001 18.9341Z" stroke="url(#paint15_linear_3_2527)" stroke-width="0.756525" stroke-miterlimit="22.9256"/>
<path fill-rule="evenodd" clip-rule="evenodd" d="M75.0723 19.179V16.3298H72.2231L75.0723 19.179Z" stroke="url(#paint16_linear_3_2527)" stroke-width="0.756525" stroke-miterlimit="22.9256"/>
<path d="M28.6045 68.4902V79.8857" stroke="url(#paint17_linear_3_2527)" stroke-width="0.756525" stroke-miterlimit="22.9256"/>
<path d="M39.9995 68.4902V79.8857" stroke="url(#paint18_linear_3_2527)" stroke-width="0.756525" stroke-miterlimit="22.9256"/>
<path d="M51.396 68.4902V79.8857" stroke="url(#paint19_linear_3_2527)" stroke-width="0.756525" stroke-miterlimit="22.9256"/>
<path d="M62.7917 39.9998H17.208V68.4896H62.7917V39.9998Z" stroke="url(#paint20_linear_3_2527)" stroke-width="0.756525" stroke-miterlimit="22.9256"/>
<path d="M17.208 74.188H62.7917" stroke="url(#paint21_linear_3_2527)" stroke-width="0.756525" stroke-miterlimit="22.9256"/>
<path d="M20.0572 77.0371H17.208V79.8863H20.0572V77.0371Z" stroke="url(#paint22_linear_3_2527)" stroke-width="0.756525" stroke-miterlimit="22.9256"/>
<path d="M24.3306 77.0371H21.4814V79.8863H24.3306V77.0371Z" stroke="url(#paint23_linear_3_2527)" stroke-width="0.756525" stroke-miterlimit="22.9256"/>
<path d="M28.6041 77.0371H25.7549V79.8863H28.6041V77.0371Z" stroke="url(#paint24_linear_3_2527)" stroke-width="0.756525" stroke-miterlimit="22.9256"/>
<path d="M31.4537 77.0371H28.6045V79.8863H31.4537V77.0371Z" stroke="url(#paint25_linear_3_2527)" stroke-width="0.756525" stroke-miterlimit="22.9256"/>
<path d="M35.7271 77.0371H32.8779V79.8863H35.7271V77.0371Z" stroke="url(#paint26_linear_3_2527)" stroke-width="0.756525" stroke-miterlimit="22.9256"/>
<path d="M40.0005 77.0371H37.1514V79.8863H40.0005V77.0371Z" stroke="url(#paint27_linear_3_2527)" stroke-width="0.756525" stroke-miterlimit="22.9256"/>
<path d="M42.8487 77.0371H39.9995V79.8863H42.8487V77.0371Z" stroke="url(#paint28_linear_3_2527)" stroke-width="0.756525" stroke-miterlimit="22.9256"/>
<path d="M47.1221 77.0371H44.2729V79.8863H47.1221V77.0371Z" stroke="url(#paint29_linear_3_2527)" stroke-width="0.756525" stroke-miterlimit="22.9256"/>
<path d="M51.396 77.0371H48.5469V79.8863H51.396V77.0371Z" stroke="url(#paint30_linear_3_2527)" stroke-width="0.756525" stroke-miterlimit="22.9256"/>
<path d="M54.2452 77.0371H51.396V79.8863H54.2452V77.0371Z" stroke="url(#paint31_linear_3_2527)" stroke-width="0.756525" stroke-miterlimit="22.9256"/>
<path d="M58.5186 77.0371H55.6694V79.8863H58.5186V77.0371Z" stroke="url(#paint32_linear_3_2527)" stroke-width="0.756525" stroke-miterlimit="22.9256"/>
<path d="M62.792 77.0371H59.9429V79.8863H62.792V77.0371Z" stroke="url(#paint33_linear_3_2527)" stroke-width="0.756525" stroke-miterlimit="22.9256"/>
<path d="M22.9057 57.0941H17.208V68.4902H22.9057V57.0941Z" stroke="url(#paint34_linear_3_2527)" stroke-width="0.756525" stroke-miterlimit="22.9256"/>
<path d="M28.6041 39.9998H17.208V51.3958H28.6041V39.9998Z" stroke="url(#paint35_linear_3_2527)" stroke-width="0.756525" stroke-miterlimit="22.9256"/>
<path d="M62.7921 39.9998H51.396V51.3958H62.7921V39.9998Z" stroke="url(#paint36_linear_3_2527)" stroke-width="0.756525" stroke-miterlimit="22.9256"/>
<path d="M39.9995 57.0941H34.3018V68.4902H39.9995V57.0941Z" stroke="url(#paint37_linear_3_2527)" stroke-width="0.756525" stroke-miterlimit="22.9256"/>
<path d="M57.0937 57.0941H51.396V68.4902H57.0937V57.0941Z" stroke="url(#paint38_linear_3_2527)" stroke-width="0.756525" stroke-miterlimit="22.9256"/>
<path d="M57.0942 51.3958V54.2449" stroke="url(#paint39_linear_3_2527)" stroke-width="0.756525" stroke-miterlimit="22.9256"/>
<path d="M22.9058 51.3958V54.2449" stroke="url(#paint40_linear_3_2527)" stroke-width="0.756525" stroke-miterlimit="22.9256"/>
<path d="M28.6045 45.698H31.453" stroke="url(#paint41_linear_3_2527)" stroke-width="0.756525" stroke-miterlimit="22.9256"/>
<path d="M51.3959 45.698H48.5474" stroke="url(#paint42_linear_3_2527)" stroke-width="0.756525" stroke-miterlimit="22.9256"/>
<path d="M20.0566 57.0942V54.245" stroke="url(#paint43_linear_3_2527)" stroke-width="0.756525" stroke-miterlimit="22.9256"/>
<path d="M37.1514 57.0942V54.245" stroke="url(#paint44_linear_3_2527)" stroke-width="0.756525" stroke-miterlimit="22.9256"/>
<path d="M54.2451 57.0942V54.245" stroke="url(#paint45_linear_3_2527)" stroke-width="0.756525" stroke-miterlimit="22.9256"/>
</g>
</g>
</g>
<defs>
<linearGradient id="paint0_linear_3_2527" x1="0.941417" y1="17.27" x2="23.2478" y2="17.8549" gradientUnits="userSpaceOnUse">
<stop stop-color="#37A0E7"/>
<stop offset="1" stop-color="#C507D9"/>
</linearGradient>
<linearGradient id="paint1_linear_3_2527" x1="5.91547" y1="2.40525" x2="8.7051" y2="2.45097" gradientUnits="userSpaceOnUse">
<stop stop-color="#37A0E7"/>
<stop offset="1" stop-color="#C507D9"/>
</linearGradient>
<linearGradient id="paint2_linear_3_2527" x1="14.4623" y1="2.40525" x2="17.252" y2="2.45097" gradientUnits="userSpaceOnUse">
<stop stop-color="#37A0E7"/>
<stop offset="1" stop-color="#C507D9"/>
</linearGradient>
<linearGradient id="paint3_linear_3_2527" x1="18.8633" y1="73.0734" x2="62.7519" y2="78.8271" gradientUnits="userSpaceOnUse">
<stop stop-color="#37A0E7"/>
<stop offset="1" stop-color="#C507D9"/>
</linearGradient>
<linearGradient id="paint4_linear_3_2527" x1="35.957" y1="14.9785" x2="80.409" y2="17.8923" gradientUnits="userSpaceOnUse">
<stop stop-color="#37A0E7"/>
<stop offset="1" stop-color="#C507D9"/>
</linearGradient>
<linearGradient id="paint5_linear_3_2527" x1="46.5254" y1="16.0931" x2="68.7517" y2="17.55" gradientUnits="userSpaceOnUse">
<stop stop-color="#37A0E7"/>
<stop offset="1" stop-color="#C507D9"/>
</linearGradient>
<linearGradient id="paint6_linear_3_2527" x1="49.4062" y1="14.7807" x2="52.1929" y2="14.8721" gradientUnits="userSpaceOnUse">
<stop stop-color="#37A0E7"/>
<stop offset="1" stop-color="#C507D9"/>
</linearGradient>
<linearGradient id="paint7_linear_3_2527" x1="53.6796" y1="14.7807" x2="56.4664" y2="14.8721" gradientUnits="userSpaceOnUse">
<stop stop-color="#37A0E7"/>
<stop offset="1" stop-color="#C507D9"/>
</linearGradient>
<linearGradient id="paint8_linear_3_2527" x1="57.953" y1="14.7807" x2="60.7398" y2="14.8721" gradientUnits="userSpaceOnUse">
<stop stop-color="#37A0E7"/>
<stop offset="1" stop-color="#C507D9"/>
</linearGradient>
<linearGradient id="paint9_linear_3_2527" x1="55.8163" y1="19.1216" x2="58.6031" y2="19.2129" gradientUnits="userSpaceOnUse">
<stop stop-color="#37A0E7"/>
<stop offset="1" stop-color="#C507D9"/>
</linearGradient>
<linearGradient id="paint10_linear_3_2527" x1="51.5429" y1="19.1216" x2="54.3297" y2="19.2129" gradientUnits="userSpaceOnUse">
<stop stop-color="#37A0E7"/>
<stop offset="1" stop-color="#C507D9"/>
</linearGradient>
<linearGradient id="paint11_linear_3_2527" x1="60.0898" y1="19.1216" x2="62.8765" y2="19.2129" gradientUnits="userSpaceOnUse">
<stop stop-color="#37A0E7"/>
<stop offset="1" stop-color="#C507D9"/>
</linearGradient>
<linearGradient id="paint12_linear_3_2527" x1="62.227" y1="14.7807" x2="65.0137" y2="14.8721" gradientUnits="userSpaceOnUse">
<stop stop-color="#37A0E7"/>
<stop offset="1" stop-color="#C507D9"/>
</linearGradient>
<linearGradient id="paint13_linear_3_2527" x1="71.5453" y1="16.6507" x2="77.1201" y2="16.8334" gradientUnits="userSpaceOnUse">
<stop stop-color="#37A0E7"/>
<stop offset="1" stop-color="#C507D9"/>
</linearGradient>
<linearGradient id="paint14_linear_3_2527" x1="37.3573" y1="16.6507" x2="42.9321" y2="16.8334" gradientUnits="userSpaceOnUse">
<stop stop-color="#37A0E7"/>
<stop offset="1" stop-color="#C507D9"/>
</linearGradient>
<linearGradient id="paint15_linear_3_2527" x1="38.2553" y1="17.2312" x2="41.0427" y2="17.3226" gradientUnits="userSpaceOnUse">
<stop stop-color="#37A0E7"/>
<stop offset="1" stop-color="#C507D9"/>
</linearGradient>
<linearGradient id="paint16_linear_3_2527" x1="72.3266" y1="17.4757" x2="75.114" y2="17.5671" gradientUnits="userSpaceOnUse">
<stop stop-color="#37A0E7"/>
<stop offset="1" stop-color="#C507D9"/>
</linearGradient>
<linearGradient id="paint17_linear_3_2527" x1="28.6408" y1="73.0732" x2="29.6202" y2="73.076" gradientUnits="userSpaceOnUse">
<stop stop-color="#37A0E7"/>
<stop offset="1" stop-color="#C507D9"/>
</linearGradient>
<linearGradient id="paint18_linear_3_2527" x1="40.0358" y1="73.0732" x2="41.0152" y2="73.076" gradientUnits="userSpaceOnUse">
<stop stop-color="#37A0E7"/>
<stop offset="1" stop-color="#C507D9"/>
</linearGradient>
<linearGradient id="paint19_linear_3_2527" x1="51.4323" y1="73.0732" x2="52.4117" y2="73.076" gradientUnits="userSpaceOnUse">
<stop stop-color="#37A0E7"/>
<stop offset="1" stop-color="#C507D9"/>
</linearGradient>
<linearGradient id="paint20_linear_3_2527" x1="18.8633" y1="51.4576" x2="63.3838" y2="53.7923" gradientUnits="userSpaceOnUse">
<stop stop-color="#37A0E7"/>
<stop offset="1" stop-color="#C507D9"/>
</linearGradient>
<linearGradient id="paint21_linear_3_2527" x1="18.8633" y1="74.5902" x2="32.676" y2="95.2263" gradientUnits="userSpaceOnUse">
<stop stop-color="#37A0E7"/>
<stop offset="1" stop-color="#C507D9"/>
</linearGradient>
<linearGradient id="paint22_linear_3_2527" x1="17.3115" y1="78.183" x2="20.0988" y2="78.2743" gradientUnits="userSpaceOnUse">
<stop stop-color="#37A0E7"/>
<stop offset="1" stop-color="#C507D9"/>
</linearGradient>
<linearGradient id="paint23_linear_3_2527" x1="21.5849" y1="78.183" x2="24.3723" y2="78.2743" gradientUnits="userSpaceOnUse">
<stop stop-color="#37A0E7"/>
<stop offset="1" stop-color="#C507D9"/>
</linearGradient>
<linearGradient id="paint24_linear_3_2527" x1="25.8583" y1="78.183" x2="28.6457" y2="78.2743" gradientUnits="userSpaceOnUse">
<stop stop-color="#37A0E7"/>
<stop offset="1" stop-color="#C507D9"/>
</linearGradient>
<linearGradient id="paint25_linear_3_2527" x1="28.708" y1="78.183" x2="31.4953" y2="78.2743" gradientUnits="userSpaceOnUse">
<stop stop-color="#37A0E7"/>
<stop offset="1" stop-color="#C507D9"/>
</linearGradient>
<linearGradient id="paint26_linear_3_2527" x1="32.9814" y1="78.183" x2="35.7688" y2="78.2743" gradientUnits="userSpaceOnUse">
<stop stop-color="#37A0E7"/>
<stop offset="1" stop-color="#C507D9"/>
</linearGradient>
<linearGradient id="paint27_linear_3_2527" x1="37.2548" y1="78.183" x2="40.0422" y2="78.2743" gradientUnits="userSpaceOnUse">
<stop stop-color="#37A0E7"/>
<stop offset="1" stop-color="#C507D9"/>
</linearGradient>
<linearGradient id="paint28_linear_3_2527" x1="40.103" y1="78.183" x2="42.8904" y2="78.2743" gradientUnits="userSpaceOnUse">
<stop stop-color="#37A0E7"/>
<stop offset="1" stop-color="#C507D9"/>
</linearGradient>
<linearGradient id="paint29_linear_3_2527" x1="44.3764" y1="78.183" x2="47.1638" y2="78.2743" gradientUnits="userSpaceOnUse">
<stop stop-color="#37A0E7"/>
<stop offset="1" stop-color="#C507D9"/>
</linearGradient>
<linearGradient id="paint30_linear_3_2527" x1="48.6503" y1="78.183" x2="51.4377" y2="78.2743" gradientUnits="userSpaceOnUse">
<stop stop-color="#37A0E7"/>
<stop offset="1" stop-color="#C507D9"/>
</linearGradient>
<linearGradient id="paint31_linear_3_2527" x1="51.4995" y1="78.183" x2="54.2868" y2="78.2743" gradientUnits="userSpaceOnUse">
<stop stop-color="#37A0E7"/>
<stop offset="1" stop-color="#C507D9"/>
</linearGradient>
<linearGradient id="paint32_linear_3_2527" x1="55.7729" y1="78.183" x2="58.5603" y2="78.2743" gradientUnits="userSpaceOnUse">
<stop stop-color="#37A0E7"/>
<stop offset="1" stop-color="#C507D9"/>
</linearGradient>
<linearGradient id="paint33_linear_3_2527" x1="60.0463" y1="78.183" x2="62.8337" y2="78.2743" gradientUnits="userSpaceOnUse">
<stop stop-color="#37A0E7"/>
<stop offset="1" stop-color="#C507D9"/>
</linearGradient>
<linearGradient id="paint34_linear_3_2527" x1="17.4149" y1="61.6773" x2="22.9935" y2="61.7687" gradientUnits="userSpaceOnUse">
<stop stop-color="#37A0E7"/>
<stop offset="1" stop-color="#C507D9"/>
</linearGradient>
<linearGradient id="paint35_linear_3_2527" x1="17.6218" y1="44.583" x2="28.7707" y2="44.9484" gradientUnits="userSpaceOnUse">
<stop stop-color="#37A0E7"/>
<stop offset="1" stop-color="#C507D9"/>
</linearGradient>
<linearGradient id="paint36_linear_3_2527" x1="51.8098" y1="44.583" x2="62.9587" y2="44.9484" gradientUnits="userSpaceOnUse">
<stop stop-color="#37A0E7"/>
<stop offset="1" stop-color="#C507D9"/>
</linearGradient>
<linearGradient id="paint37_linear_3_2527" x1="34.5087" y1="61.6773" x2="40.0873" y2="61.7687" gradientUnits="userSpaceOnUse">
<stop stop-color="#37A0E7"/>
<stop offset="1" stop-color="#C507D9"/>
</linearGradient>
<linearGradient id="paint38_linear_3_2527" x1="51.6029" y1="61.6773" x2="57.1815" y2="61.7687" gradientUnits="userSpaceOnUse">
<stop stop-color="#37A0E7"/>
<stop offset="1" stop-color="#C507D9"/>
</linearGradient>
<linearGradient id="paint39_linear_3_2527" x1="57.1306" y1="52.5416" x2="58.1098" y2="52.5529" gradientUnits="userSpaceOnUse">
<stop stop-color="#37A0E7"/>
<stop offset="1" stop-color="#C507D9"/>
</linearGradient>
<linearGradient id="paint40_linear_3_2527" x1="22.9421" y1="52.5416" x2="23.9213" y2="52.5529" gradientUnits="userSpaceOnUse">
<stop stop-color="#37A0E7"/>
<stop offset="1" stop-color="#C507D9"/>
</linearGradient>
<linearGradient id="paint41_linear_3_2527" x1="28.7079" y1="46.1002" x2="31.4736" y2="46.3584" gradientUnits="userSpaceOnUse">
<stop stop-color="#37A0E7"/>
<stop offset="1" stop-color="#C507D9"/>
</linearGradient>
<linearGradient id="paint42_linear_3_2527" x1="48.6508" y1="46.1002" x2="51.4165" y2="46.3584" gradientUnits="userSpaceOnUse">
<stop stop-color="#37A0E7"/>
<stop offset="1" stop-color="#C507D9"/>
</linearGradient>
<linearGradient id="paint43_linear_3_2527" x1="20.093" y1="55.3909" x2="21.0722" y2="55.4021" gradientUnits="userSpaceOnUse">
<stop stop-color="#37A0E7"/>
<stop offset="1" stop-color="#C507D9"/>
</linearGradient>
<linearGradient id="paint44_linear_3_2527" x1="37.1877" y1="55.3909" x2="38.1669" y2="55.4021" gradientUnits="userSpaceOnUse">
<stop stop-color="#37A0E7"/>
<stop offset="1" stop-color="#C507D9"/>
</linearGradient>
<linearGradient id="paint45_linear_3_2527" x1="54.2814" y1="55.3909" x2="55.2607" y2="55.4021" gradientUnits="userSpaceOnUse">
<stop stop-color="#37A0E7"/>
<stop offset="1" stop-color="#C507D9"/>
</linearGradient>
<clipPath id="clip0_3_2527">
<rect width="80" height="80" fill="white"/>
</clipPath>
<clipPath id="clip1_3_2527">
<rect width="80" height="80" fill="white"/>
</clipPath>
<clipPath id="clip2_3_2527">
<rect width="80" height="80" fill="white"/>
</clipPath>
</defs>
</svg>
