<svg width="46" height="80" viewBox="0 0 46 80" fill="none" xmlns="http://www.w3.org/2000/svg">
<g clip-path="url(#clip0_3_2709)">
<path d="M45.583 0H0V5.69861H45.583V0Z" stroke="url(#paint0_linear_3_2709)" stroke-width="0.759537" stroke-miterlimit="22.9256"/>
<path d="M5.69861 5.69861H0V51.2816H5.69861V5.69861Z" stroke="url(#paint1_linear_3_2709)" stroke-width="0.759537" stroke-miterlimit="22.9256"/>
<path d="M11.3942 74.073H0V79.7716H11.3942V74.073Z" stroke="url(#paint2_linear_3_2709)" stroke-width="0.759537" stroke-miterlimit="22.9256"/>
<path d="M45.583 51.2816H0V74.0731H45.583V51.2816Z" stroke="url(#paint3_linear_3_2709)" stroke-width="0.759537" stroke-miterlimit="22.9256"/>
<path d="M45.5829 74.073H32.8889V79.7716H45.5829V74.073Z" stroke="url(#paint4_linear_3_2709)" stroke-width="0.759537" stroke-miterlimit="22.9256"/>
<path d="M45.5859 5.69861H39.8873V51.2816H45.5859V5.69861Z" stroke="url(#paint5_linear_3_2709)" stroke-width="0.759537" stroke-miterlimit="22.9256"/>
<path d="M28.4901 48.4323H17.0958V51.2816H28.4901V48.4323Z" stroke="url(#paint6_linear_3_2709)" stroke-width="0.759537" stroke-miterlimit="22.9256"/>
<path d="M38.4627 56.9802H7.12329V62.6788H38.4627V56.9802Z" stroke="url(#paint7_linear_3_2709)" stroke-width="0.759537" stroke-miterlimit="22.9256"/>
<path d="M12.8219 66.9498H7.12329V69.7991H12.8219V66.9498Z" stroke="url(#paint8_linear_3_2709)" stroke-width="0.759537" stroke-miterlimit="22.9256"/>
<path d="M21.3698 66.9498H15.6711V69.7991H21.3698V66.9498Z" stroke="url(#paint9_linear_3_2709)" stroke-width="0.759537" stroke-miterlimit="22.9256"/>
<path d="M29.9148 66.9498H24.2162V69.7991H29.9148V66.9498Z" stroke="url(#paint10_linear_3_2709)" stroke-width="0.759537" stroke-miterlimit="22.9256"/>
<path d="M38.4626 66.9498H32.764V69.7991H38.4626V66.9498Z" stroke="url(#paint11_linear_3_2709)" stroke-width="0.759537" stroke-miterlimit="22.9256"/>
<path d="M20.4865 59.8295C20.4865 59.4101 20.5281 59.0711 20.6143 58.8123C20.7006 58.5536 20.8285 58.3573 21.001 58.2175C21.1705 58.0807 21.3847 58.0093 21.6434 58.0093C21.8338 58.0093 22.0003 58.0479 22.1461 58.1253C22.2888 58.2026 22.4108 58.3126 22.503 58.4584C22.5952 58.6011 22.6695 58.7796 22.7201 58.9878C22.7736 59.196 22.8004 59.4756 22.8004 59.8265C22.8004 60.2429 22.7588 60.582 22.6725 60.8378C22.5863 61.0965 22.4584 61.2928 22.2888 61.4326C22.1193 61.5724 21.9052 61.6408 21.6434 61.6408C21.3014 61.6408 21.0337 61.5189 20.8374 61.275C20.6024 60.9776 20.4865 60.4957 20.4865 59.8265V59.8295ZM20.9326 59.8325C20.9326 60.4184 21.001 60.808 21.1378 60.9984C21.2746 61.1917 21.4441 61.2869 21.6434 61.2869C21.8427 61.2869 22.0122 61.1887 22.149 60.9984C22.2859 60.805 22.3543 60.4154 22.3543 59.8325C22.3543 59.2466 22.2859 58.8569 22.149 58.6666C22.0122 58.4733 21.8427 58.3781 21.6375 58.3781C21.4382 58.3781 21.2776 58.4643 21.1557 58.6339C21.0069 58.851 20.9326 59.2495 20.9326 59.8355V59.8325ZM23.2465 59.8295C23.2465 59.4101 23.2882 59.0711 23.3744 58.8123C23.4607 58.5536 23.5886 58.3573 23.7611 58.2175C23.9306 58.0807 24.1447 58.0093 24.4035 58.0093C24.5939 58.0093 24.7604 58.0479 24.9061 58.1253C25.0489 58.2026 25.1709 58.3126 25.2631 58.4584C25.3553 58.6011 25.4296 58.7796 25.4802 58.9878C25.5337 59.196 25.5605 59.4756 25.5605 59.8265C25.5605 60.2429 25.5188 60.582 25.4326 60.8378C25.3463 61.0965 25.2184 61.2928 25.0489 61.4326C24.8794 61.5724 24.6652 61.6408 24.4035 61.6408C24.0615 61.6408 23.7938 61.5189 23.5975 61.275C23.3625 60.9776 23.2465 60.4957 23.2465 59.8265V59.8295ZM23.6927 59.8325C23.6927 60.4184 23.7611 60.808 23.8979 60.9984C24.0347 61.1917 24.2042 61.2869 24.4035 61.2869C24.6028 61.2869 24.7723 61.1887 24.9091 60.9984C25.0459 60.805 25.1143 60.4154 25.1143 59.8325C25.1143 59.2466 25.0459 58.8569 24.9091 58.6666C24.7723 58.4733 24.6028 58.3781 24.3976 58.3781C24.1983 58.3781 24.0377 58.4643 23.9157 58.6339C23.767 58.851 23.6927 59.2495 23.6927 59.8355V59.8325ZM26.0096 59.8295C26.0096 59.4101 26.0512 59.0711 26.1375 58.8123C26.2237 58.5536 26.3516 58.3573 26.5241 58.2175C26.6937 58.0807 26.9078 58.0093 27.1666 58.0093C27.3569 58.0093 27.5235 58.0479 27.6692 58.1253C27.812 58.2026 27.9339 58.3126 28.0261 58.4584C28.1183 58.6011 28.1927 58.7796 28.2432 58.9878C28.2968 59.196 28.3235 59.4756 28.3235 59.8265C28.3235 60.2429 28.2819 60.582 28.1956 60.8378C28.1094 61.0965 27.9815 61.2928 27.812 61.4326C27.6424 61.5724 27.4283 61.6408 27.1666 61.6408C26.8245 61.6408 26.5568 61.5189 26.3605 61.275C26.1256 60.9776 26.0096 60.4957 26.0096 59.8265V59.8295ZM26.4557 59.8325C26.4557 60.4184 26.5241 60.808 26.6609 60.9984C26.7978 61.1917 26.9673 61.2869 27.1666 61.2869C27.3658 61.2869 27.5354 61.1887 27.6722 60.9984C27.809 60.805 27.8774 60.4154 27.8774 59.8325C27.8774 59.2466 27.809 58.8569 27.6722 58.6666C27.5354 58.4733 27.3658 58.3781 27.1606 58.3781C26.9613 58.3781 26.8007 58.4643 26.6788 58.6339C26.5301 58.851 26.4557 59.2495 26.4557 59.8355V59.8325ZM28.7697 59.8295C28.7697 59.4101 28.8113 59.0711 28.8976 58.8123C28.9838 58.5536 29.1117 58.3573 29.2842 58.2175C29.4537 58.0807 29.6679 58.0093 29.9266 58.0093C30.117 58.0093 30.2835 58.0479 30.4293 58.1253C30.572 58.2026 30.694 58.3126 30.7862 58.4584C30.8784 58.6011 30.9527 58.7796 31.0033 58.9878C31.0568 59.196 31.0836 59.4756 31.0836 59.8265C31.0836 60.2429 31.042 60.582 30.9557 60.8378C30.8695 61.0965 30.7416 61.2928 30.572 61.4326C30.4025 61.5724 30.1884 61.6408 29.9266 61.6408C29.5846 61.6408 29.3169 61.5189 29.1206 61.275C28.8857 60.9776 28.7697 60.4957 28.7697 59.8265V59.8295ZM29.2158 59.8325C29.2158 60.4184 29.2842 60.808 29.421 60.9984C29.5578 61.1917 29.7274 61.2869 29.9266 61.2869C30.1259 61.2869 30.2954 61.1887 30.4323 60.9984C30.5691 60.805 30.6375 60.4154 30.6375 59.8325C30.6375 59.2466 30.5691 58.8569 30.4323 58.6666C30.2954 58.4733 30.1259 58.3781 29.9207 58.3781C29.7214 58.3781 29.5608 58.4643 29.4389 58.6339C29.2902 58.851 29.2158 59.2495 29.2158 59.8355V59.8325ZM31.5327 59.8295C31.5327 59.4101 31.5744 59.0711 31.6606 58.8123C31.7469 58.5536 31.8748 58.3573 32.0473 58.2175C32.2168 58.0807 32.4309 58.0093 32.6897 58.0093C32.88 58.0093 33.0466 58.0479 33.1923 58.1253C33.3351 58.2026 33.457 58.3126 33.5492 58.4584C33.6414 58.6011 33.7158 58.7796 33.7664 58.9878C33.8199 59.196 33.8467 59.4756 33.8467 59.8265C33.8467 60.2429 33.805 60.582 33.7188 60.8378C33.6325 61.0965 33.5046 61.2928 33.3351 61.4326C33.1656 61.5724 32.9514 61.6408 32.6897 61.6408C32.3477 61.6408 32.08 61.5189 31.8837 61.275C31.6487 60.9776 31.5327 60.4957 31.5327 59.8265V59.8295ZM31.9788 59.8325C31.9788 60.4184 32.0473 60.808 32.1841 60.9984C32.3209 61.1917 32.4904 61.2869 32.6897 61.2869C32.889 61.2869 33.0585 61.1887 33.1953 60.9984C33.3321 60.805 33.4005 60.4154 33.4005 59.8325C33.4005 59.2466 33.3321 58.8569 33.1953 58.6666C33.0585 58.4733 32.889 58.3781 32.6837 58.3781C32.4845 58.3781 32.3239 58.4643 32.2019 58.6339C32.0532 58.851 31.9788 59.2495 31.9788 59.8355V59.8325Z" fill="url(#paint12_linear_3_2709)"/>
<path d="M34.1887 45.583H11.3972V48.4323H34.1887V45.583Z" stroke="url(#paint13_linear_3_2709)" stroke-width="0.759537" stroke-miterlimit="22.9256"/>
</g>
<defs>
<linearGradient id="paint0_linear_3_2709" x1="1.65525" y1="2.29184" x2="43.4265" y2="13.2427" gradientUnits="userSpaceOnUse">
<stop stop-color="#37A0E7"/>
<stop offset="1" stop-color="#C507D9"/>
</linearGradient>
<linearGradient id="paint1_linear_3_2709" x1="0.206933" y1="24.0309" x2="5.78784" y2="24.0538" gradientUnits="userSpaceOnUse">
<stop stop-color="#37A0E7"/>
<stop offset="1" stop-color="#C507D9"/>
</linearGradient>
<linearGradient id="paint2_linear_3_2709" x1="0.413758" y1="76.3648" x2="11.5251" y2="77.093" gradientUnits="userSpaceOnUse">
<stop stop-color="#37A0E7"/>
<stop offset="1" stop-color="#C507D9"/>
</linearGradient>
<linearGradient id="paint3_linear_3_2709" x1="1.65525" y1="60.4478" x2="46.1065" y2="63.3615" gradientUnits="userSpaceOnUse">
<stop stop-color="#37A0E7"/>
<stop offset="1" stop-color="#C507D9"/>
</linearGradient>
<linearGradient id="paint4_linear_3_2709" x1="33.3499" y1="76.3648" x2="45.716" y2="77.2677" gradientUnits="userSpaceOnUse">
<stop stop-color="#37A0E7"/>
<stop offset="1" stop-color="#C507D9"/>
</linearGradient>
<linearGradient id="paint5_linear_3_2709" x1="40.0943" y1="24.0309" x2="45.6752" y2="24.0538" gradientUnits="userSpaceOnUse">
<stop stop-color="#37A0E7"/>
<stop offset="1" stop-color="#C507D9"/>
</linearGradient>
<linearGradient id="paint6_linear_3_2709" x1="17.5096" y1="49.5782" x2="28.4802" y2="51.016" gradientUnits="userSpaceOnUse">
<stop stop-color="#37A0E7"/>
<stop offset="1" stop-color="#C507D9"/>
</linearGradient>
<linearGradient id="paint7_linear_3_2709" x1="8.26131" y1="59.2721" x2="37.9882" y2="64.6301" gradientUnits="userSpaceOnUse">
<stop stop-color="#37A0E7"/>
<stop offset="1" stop-color="#C507D9"/>
</linearGradient>
<linearGradient id="paint8_linear_3_2709" x1="7.33022" y1="68.0957" x2="12.8874" y2="68.46" gradientUnits="userSpaceOnUse">
<stop stop-color="#37A0E7"/>
<stop offset="1" stop-color="#C507D9"/>
</linearGradient>
<linearGradient id="paint9_linear_3_2709" x1="15.8781" y1="68.0957" x2="21.4352" y2="68.46" gradientUnits="userSpaceOnUse">
<stop stop-color="#37A0E7"/>
<stop offset="1" stop-color="#C507D9"/>
</linearGradient>
<linearGradient id="paint10_linear_3_2709" x1="24.4231" y1="68.0957" x2="29.9802" y2="68.46" gradientUnits="userSpaceOnUse">
<stop stop-color="#37A0E7"/>
<stop offset="1" stop-color="#C507D9"/>
</linearGradient>
<linearGradient id="paint11_linear_3_2709" x1="32.971" y1="68.0957" x2="38.5281" y2="68.46" gradientUnits="userSpaceOnUse">
<stop stop-color="#37A0E7"/>
<stop offset="1" stop-color="#C507D9"/>
</linearGradient>
<linearGradient id="paint12_linear_3_2709" x1="20.9716" y1="59.4698" x2="33.8686" y2="61.0249" gradientUnits="userSpaceOnUse">
<stop stop-color="#37A0E7"/>
<stop offset="1" stop-color="#C507D9"/>
</linearGradient>
<linearGradient id="paint13_linear_3_2709" x1="12.2248" y1="46.7289" x2="33.1105" y2="52.2044" gradientUnits="userSpaceOnUse">
<stop stop-color="#37A0E7"/>
<stop offset="1" stop-color="#C507D9"/>
</linearGradient>
<clipPath id="clip0_3_2709">
<rect width="45.812" height="80" fill="white"/>
</clipPath>
</defs>
</svg>
