<svg width="55" height="80" viewBox="0 0 55 80" fill="none" xmlns="http://www.w3.org/2000/svg">
<g clip-path="url(#clip0_3_3701)">
<path fill-rule="evenodd" clip-rule="evenodd" d="M1.88135 51.4566H53.0549V79.8865H1.88135V51.4566Z" stroke="url(#paint0_linear_3_3701)" stroke-width="0.756431" stroke-miterlimit="22.9256"/>
<path fill-rule="evenodd" clip-rule="evenodd" d="M18.939 45.7704H35.997V51.4566H18.939V45.7704Z" stroke="url(#paint1_linear_3_3701)" stroke-width="0.756431" stroke-miterlimit="22.9256"/>
<path d="M53.0549 34.3986V51.4566H1.88135V34.3986" stroke="url(#paint2_linear_3_3701)" stroke-width="0.756431" stroke-miterlimit="22.9256"/>
<path d="M41.6831 34.3986V45.7704H13.2532V34.3986" stroke="url(#paint3_linear_3_3701)" stroke-width="0.756431" stroke-miterlimit="22.9256"/>
<path d="M38.8268 34.3986H1.88086V5.96869H36.7143M41.4019 5.96869H53.055V34.3986H39.3344" stroke="url(#paint4_linear_3_3701)" stroke-width="0.756431" stroke-miterlimit="22.9256"/>
<path fill-rule="evenodd" clip-rule="evenodd" d="M7.56714 57.1422H30.3114V74.2003H7.56714V57.1422Z" stroke="url(#paint5_linear_3_3701)" stroke-width="0.756431" stroke-miterlimit="22.9256"/>
<path d="M47.3508 62.8284H43.5662V65.6712H47.3508V62.8284Z" stroke="url(#paint6_linear_3_3701)" stroke-width="0.756431" stroke-miterlimit="22.9256"/>
<path d="M43.5661 62.8284H39.7815V65.6712H43.5661V62.8284Z" stroke="url(#paint7_linear_3_3701)" stroke-width="0.756431" stroke-miterlimit="22.9256"/>
<path d="M47.3508 59.9857H43.5662V62.8285H47.3508V59.9857Z" stroke="url(#paint8_linear_3_3701)" stroke-width="0.756431" stroke-miterlimit="22.9256"/>
<path d="M39.7815 62.8284H35.9968V65.6712H39.7815V62.8284Z" stroke="url(#paint9_linear_3_3701)" stroke-width="0.756431" stroke-miterlimit="22.9256"/>
<path d="M47.3508 57.1422H43.5662V59.985H47.3508V57.1422Z" stroke="url(#paint10_linear_3_3701)" stroke-width="0.756431" stroke-miterlimit="22.9256"/>
<path d="M43.5661 57.1422H39.7815V59.985H43.5661V57.1422Z" stroke="url(#paint11_linear_3_3701)" stroke-width="0.756431" stroke-miterlimit="22.9256"/>
<path d="M39.7815 57.1422H35.9968V59.985H39.7815V57.1422Z" stroke="url(#paint12_linear_3_3701)" stroke-width="0.756431" stroke-miterlimit="22.9256"/>
<path d="M43.5661 59.9857H39.7815V62.8285H43.5661V59.9857Z" stroke="url(#paint13_linear_3_3701)" stroke-width="0.756431" stroke-miterlimit="22.9256"/>
<path d="M39.7815 59.9857H35.9968V62.8285H39.7815V59.9857Z" stroke="url(#paint14_linear_3_3701)" stroke-width="0.756431" stroke-miterlimit="22.9256"/>
<path d="M41.6831 76.4479C42.9245 76.4479 43.9307 75.4416 43.9307 74.2003C43.9307 72.9589 42.9245 71.9527 41.6831 71.9527C40.4418 71.9527 39.4355 72.9589 39.4355 74.2003C39.4355 75.4416 40.4418 76.4479 41.6831 76.4479Z" stroke="url(#paint15_linear_3_3701)" stroke-width="0.756431" stroke-miterlimit="22.9256"/>
<path fill-rule="evenodd" clip-rule="evenodd" d="M44.3756 77.1282L41.695 79.8088L39.0144 77.1282H44.3756Z" stroke="url(#paint16_linear_3_3701)" stroke-width="0.756431" stroke-miterlimit="22.9256"/>
<path d="M4.53737 61.9162C5.56441 61.9162 6.397 61.0836 6.397 60.0565C6.397 59.0295 5.56441 58.1969 4.53737 58.1969C3.51032 58.1969 2.67773 59.0295 2.67773 60.0565C2.67773 61.0836 3.51032 61.9162 4.53737 61.9162Z" stroke="url(#paint17_linear_3_3701)" stroke-width="0.756431" stroke-miterlimit="22.9256"/>
<path d="M4.53737 70.4724C5.56441 70.4724 6.397 69.6398 6.397 68.6127C6.397 67.5857 5.56441 66.7531 4.53737 66.7531C3.51032 66.7531 2.67773 67.5857 2.67773 68.6127C2.67773 69.6398 3.51032 70.4724 4.53737 70.4724Z" stroke="url(#paint18_linear_3_3701)" stroke-width="0.756431" stroke-miterlimit="22.9256"/>
<path d="M1.88146 17.3405C-3.80476 3.55888 4.83837 0.520548 18.9395 0.113464H35.9976C50.6359 0.520548 58.7412 3.55888 53.0556 17.3405" stroke="url(#paint19_linear_3_3701)" stroke-width="0.756431" stroke-miterlimit="22.9256"/>
<path fill-rule="evenodd" clip-rule="evenodd" d="M24.625 11.6543H30.3112V17.3405H24.625V11.6543Z" stroke="url(#paint20_linear_3_3701)" stroke-width="0.756431" stroke-miterlimit="22.9256"/>
<path d="M21.7822 40.0842C22.8093 40.0842 23.6419 39.2516 23.6419 38.2246C23.6419 37.1975 22.8093 36.3649 21.7822 36.3649C20.7552 36.3649 19.9226 37.1975 19.9226 38.2246C19.9226 39.2516 20.7552 40.0842 21.7822 40.0842Z" stroke="url(#paint21_linear_3_3701)" stroke-width="0.756431" stroke-miterlimit="22.9256"/>
<path d="M27.468 40.0842C28.4951 40.0842 29.3277 39.2516 29.3277 38.2246C29.3277 37.1975 28.4951 36.3649 27.468 36.3649C26.441 36.3649 25.6084 37.1975 25.6084 38.2246C25.6084 39.2516 26.441 40.0842 27.468 40.0842Z" stroke="url(#paint22_linear_3_3701)" stroke-width="0.756431" stroke-miterlimit="22.9256"/>
<path d="M33.1541 40.0842C34.1811 40.0842 35.0137 39.2516 35.0137 38.2246C35.0137 37.1975 34.1811 36.3649 33.1541 36.3649C32.127 36.3649 31.2944 37.1975 31.2944 38.2246C31.2944 39.2516 32.127 40.0842 33.1541 40.0842Z" stroke="url(#paint23_linear_3_3701)" stroke-width="0.756431" stroke-miterlimit="22.9256"/>
<path d="M38.8403 40.0842C39.8674 40.0842 40.7 39.2516 40.7 38.2246C40.7 37.1975 39.8674 36.3649 38.8403 36.3649C37.8133 36.3649 36.9807 37.1975 36.9807 38.2246C36.9807 39.2516 37.8133 40.0842 38.8403 40.0842Z" stroke="url(#paint24_linear_3_3701)" stroke-width="0.756431" stroke-miterlimit="22.9256"/>
<path d="M21.7822 43.804C22.8093 43.804 23.6419 42.9715 23.6419 41.9444C23.6419 40.9174 22.8093 40.0848 21.7822 40.0848C20.7552 40.0848 19.9226 40.9174 19.9226 41.9444C19.9226 42.9715 20.7552 43.804 21.7822 43.804Z" stroke="url(#paint25_linear_3_3701)" stroke-width="0.756431" stroke-miterlimit="22.9256"/>
<path d="M27.468 43.804C28.4951 43.804 29.3277 42.9715 29.3277 41.9444C29.3277 40.9174 28.4951 40.0848 27.468 40.0848C26.441 40.0848 25.6084 40.9174 25.6084 41.9444C25.6084 42.9715 26.441 43.804 27.468 43.804Z" stroke="url(#paint26_linear_3_3701)" stroke-width="0.756431" stroke-miterlimit="22.9256"/>
<path d="M33.1541 43.804C34.1811 43.804 35.0137 42.9715 35.0137 41.9444C35.0137 40.9174 34.1811 40.0848 33.1541 40.0848C32.127 40.0848 31.2944 40.9174 31.2944 41.9444C31.2944 42.9715 32.127 43.804 33.1541 43.804Z" stroke="url(#paint27_linear_3_3701)" stroke-width="0.756431" stroke-miterlimit="22.9256"/>
<path d="M38.8403 43.804C39.8674 43.804 40.7 42.9715 40.7 41.9444C40.7 40.9174 39.8674 40.0848 38.8403 40.0848C37.8133 40.0848 36.9807 40.9174 36.9807 41.9444C36.9807 42.9715 37.8133 43.804 38.8403 43.804Z" stroke="url(#paint28_linear_3_3701)" stroke-width="0.756431" stroke-miterlimit="22.9256"/>
<path fill-rule="evenodd" clip-rule="evenodd" d="M44.3601 71.1261L41.6801 68.4456L38.9995 71.1261H44.3601Z" stroke="url(#paint29_linear_3_3701)" stroke-width="0.756431" stroke-miterlimit="22.9256"/>
<path fill-rule="evenodd" clip-rule="evenodd" d="M38.519 71.4981L35.8384 74.1787L38.519 76.8586V71.4981Z" stroke="url(#paint30_linear_3_3701)" stroke-width="0.756431" stroke-miterlimit="22.9256"/>
<path fill-rule="evenodd" clip-rule="evenodd" d="M44.8147 76.8845L47.4953 74.2046L44.8147 71.524V76.8845Z" stroke="url(#paint31_linear_3_3701)" stroke-width="0.756431" stroke-miterlimit="22.9256"/>
<path d="M16.0962 40.1903C17.1233 40.1903 17.9558 39.3577 17.9558 38.3306C17.9558 37.3036 17.1233 36.471 16.0962 36.471C15.0692 36.471 14.2366 37.3036 14.2366 38.3306C14.2366 39.3577 15.0692 40.1903 16.0962 40.1903Z" stroke="url(#paint32_linear_3_3701)" stroke-width="0.756431" stroke-miterlimit="22.9256"/>
<path d="M16.0962 43.9101C17.1233 43.9101 17.9558 43.0775 17.9558 42.0505C17.9558 41.0234 17.1233 40.1909 16.0962 40.1909C15.0692 40.1909 14.2366 41.0234 14.2366 42.0505C14.2366 43.0775 15.0692 43.9101 16.0962 43.9101Z" stroke="url(#paint33_linear_3_3701)" stroke-width="0.756431" stroke-miterlimit="22.9256"/>
<path d="M40.2484 16.02V23.2661C40.2484 25.6623 39.0753 35.2319 39.05 37.6441C38.9914 35.3225 37.8516 25.6623 37.8516 23.2661V16.0193" stroke="url(#paint34_linear_3_3701)" stroke-width="0.756431" stroke-miterlimit="22.9256"/>
<path d="M40.2516 16.0755C40.9368 15.8837 41.4463 15.2508 41.4463 14.5057V6.56761C41.4463 3.43491 36.6538 3.33438 36.6538 6.56761V14.5057C36.6538 15.2502 37.1596 15.8824 37.8448 16.0749" stroke="url(#paint35_linear_3_3701)" stroke-width="0.756431" stroke-miterlimit="22.9256"/>
</g>
<defs>
<linearGradient id="paint0_linear_3_3701" x1="3.7396" y1="62.8904" x2="53.6832" y2="65.8367" gradientUnits="userSpaceOnUse">
<stop stop-color="#37A0E7"/>
<stop offset="1" stop-color="#C507D9"/>
</linearGradient>
<linearGradient id="paint1_linear_3_3701" x1="19.5584" y1="48.0572" x2="36.1044" y2="49.6841" gradientUnits="userSpaceOnUse">
<stop stop-color="#37A0E7"/>
<stop offset="1" stop-color="#C507D9"/>
</linearGradient>
<linearGradient id="paint2_linear_3_3701" x1="3.7396" y1="41.2589" x2="53.3772" y2="46.1394" gradientUnits="userSpaceOnUse">
<stop stop-color="#37A0E7"/>
<stop offset="1" stop-color="#C507D9"/>
</linearGradient>
<linearGradient id="paint3_linear_3_3701" x1="14.2855" y1="38.972" x2="41.943" y2="41.2382" gradientUnits="userSpaceOnUse">
<stop stop-color="#37A0E7"/>
<stop offset="1" stop-color="#C507D9"/>
</linearGradient>
<linearGradient id="paint4_linear_3_3701" x1="3.73914" y1="17.4025" x2="53.6833" y2="20.3489" gradientUnits="userSpaceOnUse">
<stop stop-color="#37A0E7"/>
<stop offset="1" stop-color="#C507D9"/>
</linearGradient>
<linearGradient id="paint5_linear_3_3701" x1="8.39305" y1="64.0025" x2="30.6255" y2="64.9741" gradientUnits="userSpaceOnUse">
<stop stop-color="#37A0E7"/>
<stop offset="1" stop-color="#C507D9"/>
</linearGradient>
<linearGradient id="paint6_linear_3_3701" x1="43.7036" y1="63.9717" x2="47.4031" y2="64.1332" gradientUnits="userSpaceOnUse">
<stop stop-color="#37A0E7"/>
<stop offset="1" stop-color="#C507D9"/>
</linearGradient>
<linearGradient id="paint7_linear_3_3701" x1="39.9189" y1="63.9717" x2="43.6184" y2="64.1332" gradientUnits="userSpaceOnUse">
<stop stop-color="#37A0E7"/>
<stop offset="1" stop-color="#C507D9"/>
</linearGradient>
<linearGradient id="paint8_linear_3_3701" x1="43.7036" y1="61.129" x2="47.4031" y2="61.2904" gradientUnits="userSpaceOnUse">
<stop stop-color="#37A0E7"/>
<stop offset="1" stop-color="#C507D9"/>
</linearGradient>
<linearGradient id="paint9_linear_3_3701" x1="36.1343" y1="63.9717" x2="39.8338" y2="64.1332" gradientUnits="userSpaceOnUse">
<stop stop-color="#37A0E7"/>
<stop offset="1" stop-color="#C507D9"/>
</linearGradient>
<linearGradient id="paint10_linear_3_3701" x1="43.7036" y1="58.2855" x2="47.4031" y2="58.4469" gradientUnits="userSpaceOnUse">
<stop stop-color="#37A0E7"/>
<stop offset="1" stop-color="#C507D9"/>
</linearGradient>
<linearGradient id="paint11_linear_3_3701" x1="39.9189" y1="58.2855" x2="43.6184" y2="58.4469" gradientUnits="userSpaceOnUse">
<stop stop-color="#37A0E7"/>
<stop offset="1" stop-color="#C507D9"/>
</linearGradient>
<linearGradient id="paint12_linear_3_3701" x1="36.1343" y1="58.2855" x2="39.8338" y2="58.4469" gradientUnits="userSpaceOnUse">
<stop stop-color="#37A0E7"/>
<stop offset="1" stop-color="#C507D9"/>
</linearGradient>
<linearGradient id="paint13_linear_3_3701" x1="39.9189" y1="61.129" x2="43.6184" y2="61.2904" gradientUnits="userSpaceOnUse">
<stop stop-color="#37A0E7"/>
<stop offset="1" stop-color="#C507D9"/>
</linearGradient>
<linearGradient id="paint14_linear_3_3701" x1="36.1343" y1="61.129" x2="39.8338" y2="61.2904" gradientUnits="userSpaceOnUse">
<stop stop-color="#37A0E7"/>
<stop offset="1" stop-color="#C507D9"/>
</linearGradient>
<linearGradient id="paint15_linear_3_3701" x1="39.5988" y1="73.7605" x2="43.9965" y2="73.9046" gradientUnits="userSpaceOnUse">
<stop stop-color="#37A0E7"/>
<stop offset="1" stop-color="#C507D9"/>
</linearGradient>
<linearGradient id="paint16_linear_3_3701" x1="39.2091" y1="78.2062" x2="44.4371" y2="78.5489" gradientUnits="userSpaceOnUse">
<stop stop-color="#37A0E7"/>
<stop offset="1" stop-color="#C507D9"/>
</linearGradient>
<linearGradient id="paint17_linear_3_3701" x1="2.81279" y1="59.6927" x2="6.45139" y2="59.8119" gradientUnits="userSpaceOnUse">
<stop stop-color="#37A0E7"/>
<stop offset="1" stop-color="#C507D9"/>
</linearGradient>
<linearGradient id="paint18_linear_3_3701" x1="2.81279" y1="68.2489" x2="6.45139" y2="68.3682" gradientUnits="userSpaceOnUse">
<stop stop-color="#37A0E7"/>
<stop offset="1" stop-color="#C507D9"/>
</linearGradient>
<linearGradient id="paint19_linear_3_3701" x1="2.10142" y1="7.04174" x2="55.1654" y2="12.5711" gradientUnits="userSpaceOnUse">
<stop stop-color="#37A0E7"/>
<stop offset="1" stop-color="#C507D9"/>
</linearGradient>
<linearGradient id="paint20_linear_3_3701" x1="24.8315" y1="13.9411" x2="30.3944" y2="14.1235" gradientUnits="userSpaceOnUse">
<stop stop-color="#37A0E7"/>
<stop offset="1" stop-color="#C507D9"/>
</linearGradient>
<linearGradient id="paint21_linear_3_3701" x1="20.0577" y1="37.8607" x2="23.6963" y2="37.98" gradientUnits="userSpaceOnUse">
<stop stop-color="#37A0E7"/>
<stop offset="1" stop-color="#C507D9"/>
</linearGradient>
<linearGradient id="paint22_linear_3_3701" x1="25.7435" y1="37.8607" x2="29.3821" y2="37.98" gradientUnits="userSpaceOnUse">
<stop stop-color="#37A0E7"/>
<stop offset="1" stop-color="#C507D9"/>
</linearGradient>
<linearGradient id="paint23_linear_3_3701" x1="31.4295" y1="37.8607" x2="35.0681" y2="37.98" gradientUnits="userSpaceOnUse">
<stop stop-color="#37A0E7"/>
<stop offset="1" stop-color="#C507D9"/>
</linearGradient>
<linearGradient id="paint24_linear_3_3701" x1="37.1158" y1="37.8607" x2="40.7544" y2="37.98" gradientUnits="userSpaceOnUse">
<stop stop-color="#37A0E7"/>
<stop offset="1" stop-color="#C507D9"/>
</linearGradient>
<linearGradient id="paint25_linear_3_3701" x1="20.0577" y1="41.5806" x2="23.6963" y2="41.6998" gradientUnits="userSpaceOnUse">
<stop stop-color="#37A0E7"/>
<stop offset="1" stop-color="#C507D9"/>
</linearGradient>
<linearGradient id="paint26_linear_3_3701" x1="25.7435" y1="41.5806" x2="29.3821" y2="41.6998" gradientUnits="userSpaceOnUse">
<stop stop-color="#37A0E7"/>
<stop offset="1" stop-color="#C507D9"/>
</linearGradient>
<linearGradient id="paint27_linear_3_3701" x1="31.4295" y1="41.5806" x2="35.0681" y2="41.6998" gradientUnits="userSpaceOnUse">
<stop stop-color="#37A0E7"/>
<stop offset="1" stop-color="#C507D9"/>
</linearGradient>
<linearGradient id="paint28_linear_3_3701" x1="37.1158" y1="41.5806" x2="40.7544" y2="41.6998" gradientUnits="userSpaceOnUse">
<stop stop-color="#37A0E7"/>
<stop offset="1" stop-color="#C507D9"/>
</linearGradient>
<linearGradient id="paint29_linear_3_3701" x1="39.1942" y1="69.5236" x2="44.4216" y2="69.8662" gradientUnits="userSpaceOnUse">
<stop stop-color="#37A0E7"/>
<stop offset="1" stop-color="#C507D9"/>
</linearGradient>
<linearGradient id="paint30_linear_3_3701" x1="35.9357" y1="73.654" x2="38.5603" y2="73.697" gradientUnits="userSpaceOnUse">
<stop stop-color="#37A0E7"/>
<stop offset="1" stop-color="#C507D9"/>
</linearGradient>
<linearGradient id="paint31_linear_3_3701" x1="44.912" y1="73.6799" x2="47.5366" y2="73.7229" gradientUnits="userSpaceOnUse">
<stop stop-color="#37A0E7"/>
<stop offset="1" stop-color="#C507D9"/>
</linearGradient>
<linearGradient id="paint32_linear_3_3701" x1="14.3716" y1="37.9668" x2="18.0102" y2="38.0861" gradientUnits="userSpaceOnUse">
<stop stop-color="#37A0E7"/>
<stop offset="1" stop-color="#C507D9"/>
</linearGradient>
<linearGradient id="paint33_linear_3_3701" x1="14.3716" y1="41.6866" x2="18.0102" y2="41.8059" gradientUnits="userSpaceOnUse">
<stop stop-color="#37A0E7"/>
<stop offset="1" stop-color="#C507D9"/>
</linearGradient>
<linearGradient id="paint34_linear_3_3701" x1="37.9386" y1="24.7163" x2="40.286" y2="24.7248" gradientUnits="userSpaceOnUse">
<stop stop-color="#37A0E7"/>
<stop offset="1" stop-color="#C507D9"/>
</linearGradient>
<linearGradient id="paint35_linear_3_3701" x1="36.8278" y1="8.9642" x2="41.5206" y2="9.02616" gradientUnits="userSpaceOnUse">
<stop stop-color="#37A0E7"/>
<stop offset="1" stop-color="#C507D9"/>
</linearGradient>
<clipPath id="clip0_3_3701">
<rect width="54.9961" height="80" fill="white"/>
</clipPath>
</defs>
</svg>
