<svg width="80" height="80" viewBox="0 0 80 80" fill="none" xmlns="http://www.w3.org/2000/svg">
<g clip-path="url(#clip0_3_3181)">
<rect width="80" height="80" fill="white"/>
<g clip-path="url(#clip1_3_3181)">
<g clip-path="url(#clip2_3_3181)">
<path d="M79.8852 0.113159H0.113281V79.8851H79.8852V0.113159Z" stroke="url(#paint0_linear_3_3181)" stroke-width="0.756448" stroke-miterlimit="22.9256"/>
<path d="M0.113281 11.5092H79.8852" stroke="url(#paint1_linear_3_3181)" stroke-width="0.756448" stroke-miterlimit="22.9256"/>
<path d="M0.113281 22.9052H79.8852" stroke="url(#paint2_linear_3_3181)" stroke-width="0.756448" stroke-miterlimit="22.9256"/>
<path d="M0.113281 68.4891H79.8852" stroke="url(#paint3_linear_3_3181)" stroke-width="0.756448" stroke-miterlimit="22.9256"/>
<path d="M0.113281 57.0947H79.8852" stroke="url(#paint4_linear_3_3181)" stroke-width="0.756448" stroke-miterlimit="22.9256"/>
<path d="M45.6971 28.604H5.81201V51.396H45.6971V28.604Z" stroke="url(#paint5_linear_3_3181)" stroke-width="0.756448" stroke-miterlimit="22.9256"/>
<path d="M65.6405 25.7554H59.9434V31.4525H65.6405V25.7554Z" stroke="url(#paint6_linear_3_3181)" stroke-width="0.756448" stroke-miterlimit="22.9256"/>
<path d="M65.6405 42.8485H59.9434V48.5457H65.6405V42.8485Z" stroke="url(#paint7_linear_3_3181)" stroke-width="0.756448" stroke-miterlimit="22.9256"/>
<path d="M74.1864 34.3011H68.4893V39.9983H74.1864V34.3011Z" stroke="url(#paint8_linear_3_3181)" stroke-width="0.756448" stroke-miterlimit="22.9256"/>
<path d="M57.0932 34.3011H51.396V39.9983H57.0932V34.3011Z" stroke="url(#paint9_linear_3_3181)" stroke-width="0.756448" stroke-miterlimit="22.9256"/>
<path d="M57.0932 48.5474H51.396V54.2445H57.0932V48.5474Z" stroke="url(#paint10_linear_3_3181)" stroke-width="0.756448" stroke-miterlimit="22.9256"/>
<path d="M74.1864 48.5474H68.4893V54.2445H74.1864V48.5474Z" stroke="url(#paint11_linear_3_3181)" stroke-width="0.756448" stroke-miterlimit="22.9256"/>
<path d="M17.208 8.66055C18.7812 8.66055 20.0565 7.3852 20.0565 5.81197C20.0565 4.23873 18.7812 2.96338 17.208 2.96338C15.6347 2.96338 14.3594 4.23873 14.3594 5.81197C14.3594 7.3852 15.6347 8.66055 17.208 8.66055Z" stroke="url(#paint12_linear_3_3181)" stroke-width="0.756448" stroke-miterlimit="22.9256"/>
<path d="M28.604 8.66055C30.1772 8.66055 31.4525 7.3852 31.4525 5.81197C31.4525 4.23873 30.1772 2.96338 28.604 2.96338C27.0307 2.96338 25.7554 4.23873 25.7554 5.81197C25.7554 7.3852 27.0307 8.66055 28.604 8.66055Z" stroke="url(#paint13_linear_3_3181)" stroke-width="0.756448" stroke-miterlimit="22.9256"/>
<path d="M40 8.66055C41.5732 8.66055 42.8485 7.3852 42.8485 5.81197C42.8485 4.23873 41.5732 2.96338 40 2.96338C38.4267 2.96338 37.1514 4.23873 37.1514 5.81197C37.1514 7.3852 38.4267 8.66055 40 8.66055Z" stroke="url(#paint14_linear_3_3181)" stroke-width="0.756448" stroke-miterlimit="22.9256"/>
<path d="M51.396 8.66055C52.9692 8.66055 54.2445 7.3852 54.2445 5.81197C54.2445 4.23873 52.9692 2.96338 51.396 2.96338C49.8227 2.96338 48.5474 4.23873 48.5474 5.81197C48.5474 7.3852 49.8227 8.66055 51.396 8.66055Z" stroke="url(#paint15_linear_3_3181)" stroke-width="0.756448" stroke-miterlimit="22.9256"/>
<path d="M62.7919 8.66055C64.3652 8.66055 65.6405 7.3852 65.6405 5.81197C65.6405 4.23873 64.3652 2.96338 62.7919 2.96338C61.2187 2.96338 59.9434 4.23873 59.9434 5.81197C59.9434 7.3852 61.2187 8.66055 62.7919 8.66055Z" stroke="url(#paint16_linear_3_3181)" stroke-width="0.756448" stroke-miterlimit="22.9256"/>
<path d="M74.1879 8.66055C75.7612 8.66055 77.0365 7.3852 77.0365 5.81197C77.0365 4.23873 75.7612 2.96338 74.1879 2.96338C72.6147 2.96338 71.3394 4.23873 71.3394 5.81197C71.3394 7.3852 72.6147 8.66055 74.1879 8.66055Z" stroke="url(#paint17_linear_3_3181)" stroke-width="0.756448" stroke-miterlimit="22.9256"/>
<path d="M5.81197 8.66055C7.3852 8.66055 8.66055 7.3852 8.66055 5.81197C8.66055 4.23873 7.3852 2.96338 5.81197 2.96338C4.23873 2.96338 2.96338 4.23873 2.96338 5.81197C2.96338 7.3852 4.23873 8.66055 5.81197 8.66055Z" stroke="url(#paint18_linear_3_3181)" stroke-width="0.756448" stroke-miterlimit="22.9256"/>
<path d="M51.396 65.6405C52.9692 65.6405 54.2445 64.3652 54.2445 62.7919C54.2445 61.2187 52.9692 59.9434 51.396 59.9434C49.8227 59.9434 48.5474 61.2187 48.5474 62.7919C48.5474 64.3652 49.8227 65.6405 51.396 65.6405Z" stroke="url(#paint19_linear_3_3181)" stroke-width="0.756448" stroke-miterlimit="22.9256"/>
<path d="M11.5092 77.0365C13.0825 77.0365 14.3578 75.7612 14.3578 74.1879C14.3578 72.6147 13.0825 71.3394 11.5092 71.3394C9.936 71.3394 8.66064 72.6147 8.66064 74.1879C8.66064 75.7612 9.936 77.0365 11.5092 77.0365Z" stroke="url(#paint20_linear_3_3181)" stroke-width="0.756448" stroke-miterlimit="22.9256"/>
<path d="M20.0566 77.0365C21.6298 77.0365 22.9052 75.7612 22.9052 74.1879C22.9052 72.6147 21.6298 71.3394 20.0566 71.3394C18.4834 71.3394 17.208 72.6147 17.208 74.1879C17.208 75.7612 18.4834 77.0365 20.0566 77.0365Z" stroke="url(#paint21_linear_3_3181)" stroke-width="0.756448" stroke-miterlimit="22.9256"/>
<path d="M34.3012 77.0365C35.8745 77.0365 37.1498 75.7612 37.1498 74.1879C37.1498 72.6147 35.8745 71.3394 34.3012 71.3394C32.728 71.3394 31.4526 72.6147 31.4526 74.1879C31.4526 75.7612 32.728 77.0365 34.3012 77.0365Z" stroke="url(#paint22_linear_3_3181)" stroke-width="0.756448" stroke-miterlimit="22.9256"/>
<path d="M42.8486 77.0365C44.4218 77.0365 45.6972 75.7612 45.6972 74.1879C45.6972 72.6147 44.4218 71.3394 42.8486 71.3394C41.2754 71.3394 40 72.6147 40 74.1879C40 75.7612 41.2754 77.0365 42.8486 77.0365Z" stroke="url(#paint23_linear_3_3181)" stroke-width="0.756448" stroke-miterlimit="22.9256"/>
<path d="M57.0932 77.0365C58.6664 77.0365 59.9418 75.7612 59.9418 74.1879C59.9418 72.6147 58.6664 71.3394 57.0932 71.3394C55.52 71.3394 54.2446 72.6147 54.2446 74.1879C54.2446 75.7612 55.52 77.0365 57.0932 77.0365Z" stroke="url(#paint24_linear_3_3181)" stroke-width="0.756448" stroke-miterlimit="22.9256"/>
<path d="M65.6406 77.0365C67.2138 77.0365 68.4892 75.7612 68.4892 74.1879C68.4892 72.6147 67.2138 71.3394 65.6406 71.3394C64.0673 71.3394 62.792 72.6147 62.792 74.1879C62.792 75.7612 64.0673 77.0365 65.6406 77.0365Z" stroke="url(#paint25_linear_3_3181)" stroke-width="0.756448" stroke-miterlimit="22.9256"/>
</g>
</g>
</g>
<defs>
<linearGradient id="paint0_linear_3_3181" x1="3.01003" y1="32.1954" x2="81.0518" y2="34.7532" gradientUnits="userSpaceOnUse">
<stop stop-color="#37A0E7"/>
<stop offset="1" stop-color="#C507D9"/>
</linearGradient>
<linearGradient id="paint1_linear_3_3181" x1="3.01003" y1="11.9113" x2="12.9806" y2="37.9794" gradientUnits="userSpaceOnUse">
<stop stop-color="#37A0E7"/>
<stop offset="1" stop-color="#C507D9"/>
</linearGradient>
<linearGradient id="paint2_linear_3_3181" x1="3.01003" y1="23.3073" x2="12.9806" y2="49.3754" gradientUnits="userSpaceOnUse">
<stop stop-color="#37A0E7"/>
<stop offset="1" stop-color="#C507D9"/>
</linearGradient>
<linearGradient id="paint3_linear_3_3181" x1="3.01003" y1="68.8913" x2="12.9806" y2="94.9594" gradientUnits="userSpaceOnUse">
<stop stop-color="#37A0E7"/>
<stop offset="1" stop-color="#C507D9"/>
</linearGradient>
<linearGradient id="paint4_linear_3_3181" x1="3.01003" y1="57.4969" x2="12.9806" y2="83.565" gradientUnits="userSpaceOnUse">
<stop stop-color="#37A0E7"/>
<stop offset="1" stop-color="#C507D9"/>
</linearGradient>
<linearGradient id="paint5_linear_3_3181" x1="7.26035" y1="37.7703" x2="46.1943" y2="40.0034" gradientUnits="userSpaceOnUse">
<stop stop-color="#37A0E7"/>
<stop offset="1" stop-color="#C507D9"/>
</linearGradient>
<linearGradient id="paint6_linear_3_3181" x1="60.1502" y1="28.0466" x2="65.7238" y2="28.2293" gradientUnits="userSpaceOnUse">
<stop stop-color="#37A0E7"/>
<stop offset="1" stop-color="#C507D9"/>
</linearGradient>
<linearGradient id="paint7_linear_3_3181" x1="60.1502" y1="45.1398" x2="65.7238" y2="45.3224" gradientUnits="userSpaceOnUse">
<stop stop-color="#37A0E7"/>
<stop offset="1" stop-color="#C507D9"/>
</linearGradient>
<linearGradient id="paint8_linear_3_3181" x1="68.6961" y1="36.5924" x2="74.2697" y2="36.7751" gradientUnits="userSpaceOnUse">
<stop stop-color="#37A0E7"/>
<stop offset="1" stop-color="#C507D9"/>
</linearGradient>
<linearGradient id="paint9_linear_3_3181" x1="51.6029" y1="36.5924" x2="57.1765" y2="36.7751" gradientUnits="userSpaceOnUse">
<stop stop-color="#37A0E7"/>
<stop offset="1" stop-color="#C507D9"/>
</linearGradient>
<linearGradient id="paint10_linear_3_3181" x1="51.6029" y1="50.8386" x2="57.1765" y2="51.0213" gradientUnits="userSpaceOnUse">
<stop stop-color="#37A0E7"/>
<stop offset="1" stop-color="#C507D9"/>
</linearGradient>
<linearGradient id="paint11_linear_3_3181" x1="68.6961" y1="50.8386" x2="74.2697" y2="51.0213" gradientUnits="userSpaceOnUse">
<stop stop-color="#37A0E7"/>
<stop offset="1" stop-color="#C507D9"/>
</linearGradient>
<linearGradient id="paint12_linear_3_3181" x1="14.5663" y1="5.25463" x2="20.1399" y2="5.43731" gradientUnits="userSpaceOnUse">
<stop stop-color="#37A0E7"/>
<stop offset="1" stop-color="#C507D9"/>
</linearGradient>
<linearGradient id="paint13_linear_3_3181" x1="25.9623" y1="5.25463" x2="31.5359" y2="5.43731" gradientUnits="userSpaceOnUse">
<stop stop-color="#37A0E7"/>
<stop offset="1" stop-color="#C507D9"/>
</linearGradient>
<linearGradient id="paint14_linear_3_3181" x1="37.3582" y1="5.25463" x2="42.9319" y2="5.43731" gradientUnits="userSpaceOnUse">
<stop stop-color="#37A0E7"/>
<stop offset="1" stop-color="#C507D9"/>
</linearGradient>
<linearGradient id="paint15_linear_3_3181" x1="48.7542" y1="5.25463" x2="54.3279" y2="5.43731" gradientUnits="userSpaceOnUse">
<stop stop-color="#37A0E7"/>
<stop offset="1" stop-color="#C507D9"/>
</linearGradient>
<linearGradient id="paint16_linear_3_3181" x1="60.1502" y1="5.25463" x2="65.7238" y2="5.43731" gradientUnits="userSpaceOnUse">
<stop stop-color="#37A0E7"/>
<stop offset="1" stop-color="#C507D9"/>
</linearGradient>
<linearGradient id="paint17_linear_3_3181" x1="71.5462" y1="5.25463" x2="77.1198" y2="5.43731" gradientUnits="userSpaceOnUse">
<stop stop-color="#37A0E7"/>
<stop offset="1" stop-color="#C507D9"/>
</linearGradient>
<linearGradient id="paint18_linear_3_3181" x1="3.17026" y1="5.25463" x2="8.74387" y2="5.43731" gradientUnits="userSpaceOnUse">
<stop stop-color="#37A0E7"/>
<stop offset="1" stop-color="#C507D9"/>
</linearGradient>
<linearGradient id="paint19_linear_3_3181" x1="48.7542" y1="62.2346" x2="54.3279" y2="62.4173" gradientUnits="userSpaceOnUse">
<stop stop-color="#37A0E7"/>
<stop offset="1" stop-color="#C507D9"/>
</linearGradient>
<linearGradient id="paint20_linear_3_3181" x1="8.86753" y1="73.6306" x2="14.4411" y2="73.8133" gradientUnits="userSpaceOnUse">
<stop stop-color="#37A0E7"/>
<stop offset="1" stop-color="#C507D9"/>
</linearGradient>
<linearGradient id="paint21_linear_3_3181" x1="17.4149" y1="73.6306" x2="22.9885" y2="73.8133" gradientUnits="userSpaceOnUse">
<stop stop-color="#37A0E7"/>
<stop offset="1" stop-color="#C507D9"/>
</linearGradient>
<linearGradient id="paint22_linear_3_3181" x1="31.6595" y1="73.6306" x2="37.2331" y2="73.8133" gradientUnits="userSpaceOnUse">
<stop stop-color="#37A0E7"/>
<stop offset="1" stop-color="#C507D9"/>
</linearGradient>
<linearGradient id="paint23_linear_3_3181" x1="40.2069" y1="73.6306" x2="45.7805" y2="73.8133" gradientUnits="userSpaceOnUse">
<stop stop-color="#37A0E7"/>
<stop offset="1" stop-color="#C507D9"/>
</linearGradient>
<linearGradient id="paint24_linear_3_3181" x1="54.4515" y1="73.6306" x2="60.0251" y2="73.8133" gradientUnits="userSpaceOnUse">
<stop stop-color="#37A0E7"/>
<stop offset="1" stop-color="#C507D9"/>
</linearGradient>
<linearGradient id="paint25_linear_3_3181" x1="62.9989" y1="73.6306" x2="68.5725" y2="73.8133" gradientUnits="userSpaceOnUse">
<stop stop-color="#37A0E7"/>
<stop offset="1" stop-color="#C507D9"/>
</linearGradient>
<clipPath id="clip0_3_3181">
<rect width="80" height="80" fill="white"/>
</clipPath>
<clipPath id="clip1_3_3181">
<rect width="80" height="80" fill="white"/>
</clipPath>
<clipPath id="clip2_3_3181">
<rect width="80" height="80" fill="white"/>
</clipPath>
</defs>
</svg>
