<svg width="80" height="80" viewBox="0 0 80 80" fill="none" xmlns="http://www.w3.org/2000/svg">
<g clip-path="url(#clip0_3_2632)">
<rect width="80" height="80" fill="white"/>
<g clip-path="url(#clip1_3_2632)">
<path d="M17.2068 57.0005H5.81152V62.6989H17.2068V57.0005Z" stroke="url(#paint0_linear_3_2632)" stroke-width="0.755117" stroke-miterlimit="22.9256"/>
<path d="M74.1863 57.0005H62.791V62.6989H74.1863V57.0005Z" stroke="url(#paint1_linear_3_2632)" stroke-width="0.755117" stroke-miterlimit="22.9256"/>
<path d="M79.8864 17.1146H0.114746V57.0005H79.8864V17.1146Z" stroke="url(#paint2_linear_3_2632)" stroke-width="0.755117" stroke-miterlimit="22.9256"/>
<path d="M45.6974 22.8115H5.81152V45.6037H45.6974V22.8115Z" stroke="url(#paint3_linear_3_2632)" stroke-width="0.755117" stroke-miterlimit="22.9256"/>
<path d="M51.3957 22.8115H45.6973V45.6037H51.3957V22.8115Z" stroke="url(#paint4_linear_3_2632)" stroke-width="0.755117" stroke-miterlimit="22.9256"/>
<path d="M74.1878 42.7536C75.7609 42.7536 77.0362 41.4783 77.0362 39.9052C77.0362 38.332 75.7609 37.0568 74.1878 37.0568C72.6146 37.0568 71.3394 38.332 71.3394 39.9052C71.3394 41.4783 72.6146 42.7536 74.1878 42.7536Z" stroke="url(#paint5_linear_3_2632)" stroke-width="0.755117" stroke-miterlimit="22.9256"/>
<path d="M75.6116 44.1786H72.7632V47.027H75.6116V44.1786Z" stroke="url(#paint6_linear_3_2632)" stroke-width="0.755117" stroke-miterlimit="22.9256"/>
<path d="M75.6116 49.8771H72.7632V52.7255H75.6116V49.8771Z" stroke="url(#paint7_linear_3_2632)" stroke-width="0.755117" stroke-miterlimit="22.9256"/>
<path d="M71.3362 47.0286H68.4878V49.877H71.3362V47.0286Z" stroke="url(#paint8_linear_3_2632)" stroke-width="0.755117" stroke-miterlimit="22.9256"/>
<path d="M79.8562 47.0286H77.0078V49.877H79.8562V47.0286Z" stroke="url(#paint9_linear_3_2632)" stroke-width="0.755117" stroke-miterlimit="22.9256"/>
<path d="M68.4897 34.2084H51.396V51.3021H68.4897V34.2084Z" stroke="url(#paint10_linear_3_2632)" stroke-width="0.755117" stroke-miterlimit="22.9256"/>
<path d="M79.8866 22.8115H51.396V34.2068H79.8866V22.8115Z" stroke="url(#paint11_linear_3_2632)" stroke-width="0.755117" stroke-miterlimit="22.9256"/>
<path d="M57.0942 51.3021V34.2084" stroke="url(#paint12_linear_3_2632)" stroke-width="0.755117" stroke-miterlimit="22.9256"/>
<path d="M62.791 51.3021V34.2084" stroke="url(#paint13_linear_3_2632)" stroke-width="0.755117" stroke-miterlimit="22.9256"/>
<path d="M51.396 45.6036H68.4897" stroke="url(#paint14_linear_3_2632)" stroke-width="0.755117" stroke-miterlimit="22.9256"/>
<path d="M51.396 39.9052H68.4897" stroke="url(#paint15_linear_3_2632)" stroke-width="0.755117" stroke-miterlimit="22.9256"/>
<path d="M5.81152 34.2083C6.1013 34.2083 11.51 34.2083 11.51 28.5099C11.51 39.9052 40.0005 39.9052 45.6974 34.2083" stroke="url(#paint16_linear_3_2632)" stroke-width="0.755117" stroke-miterlimit="22.9256"/>
<path d="M45.6972 34.2084C45.4074 34.2084 39.9988 28.51 39.9988 22.8131C39.9988 34.2084 26.1706 36.7909 18.7256 36.1636" stroke="url(#paint17_linear_3_2632)" stroke-width="0.755117" stroke-miterlimit="22.9256"/>
<path d="M61.229 30.1526L61.229 33.0018L64.0782 33.0018L64.0782 30.1526L61.229 30.1526Z" stroke="url(#paint18_linear_3_2632)" stroke-width="0.377559" stroke-miterlimit="22.9256"/>
<path d="M66.9268 30.1526L66.9268 33.0018L69.776 33.0018L69.776 30.1526L66.9268 30.1526Z" stroke="url(#paint19_linear_3_2632)" stroke-width="0.377559" stroke-miterlimit="22.9256"/>
<path d="M72.625 30.1526L72.625 33.0018L75.4742 33.0018L75.4742 30.1526L72.625 30.1526Z" stroke="url(#paint20_linear_3_2632)" stroke-width="0.377559" stroke-miterlimit="22.9256"/>
<path d="M55.5313 30.1526L55.5312 33.0018L58.3805 33.0018L58.3805 30.1526L55.5313 30.1526Z" stroke="url(#paint21_linear_3_2632)" stroke-width="0.377559" stroke-miterlimit="22.9256"/>
<path d="M61.229 24.4546L61.229 27.3038L64.0782 27.3038L64.0782 24.4546L61.229 24.4546Z" stroke="url(#paint22_linear_3_2632)" stroke-width="0.377559" stroke-miterlimit="22.9256"/>
<path d="M66.9268 24.4546L66.9268 27.3038L69.776 27.3038L69.776 24.4546L66.9268 24.4546Z" stroke="url(#paint23_linear_3_2632)" stroke-width="0.377559" stroke-miterlimit="22.9256"/>
<path d="M72.625 24.4546L72.625 27.3038L75.4742 27.3038L75.4742 24.4546L72.625 24.4546Z" stroke="url(#paint24_linear_3_2632)" stroke-width="0.377559" stroke-miterlimit="22.9256"/>
<path d="M55.5313 24.4546L55.5312 27.3038L58.3805 27.3038L58.3805 24.4546L55.5313 24.4546Z" stroke="url(#paint25_linear_3_2632)" stroke-width="0.377559" stroke-miterlimit="22.9256"/>
<path d="M16.981 35.4789C18.8757 35.4518 22.9055 34.2067 22.9055 28.5099C22.9055 34.2083 26.4545 35.3467 28.3492 35.3197" stroke="url(#paint26_linear_3_2632)" stroke-width="0.755117" stroke-miterlimit="22.9256"/>
</g>
</g>
<defs>
<linearGradient id="paint0_linear_3_2632" x1="6.22532" y1="59.2923" x2="17.3377" y2="60.0206" gradientUnits="userSpaceOnUse">
<stop stop-color="#37A0E7"/>
<stop offset="1" stop-color="#C507D9"/>
</linearGradient>
<linearGradient id="paint1_linear_3_2632" x1="63.2048" y1="59.2923" x2="74.3172" y2="60.0206" gradientUnits="userSpaceOnUse">
<stop stop-color="#37A0E7"/>
<stop offset="1" stop-color="#C507D9"/>
</linearGradient>
<linearGradient id="paint2_linear_3_2632" x1="3.01148" y1="33.1557" x2="80.8026" y2="38.2548" gradientUnits="userSpaceOnUse">
<stop stop-color="#37A0E7"/>
<stop offset="1" stop-color="#C507D9"/>
</linearGradient>
<linearGradient id="paint3_linear_3_2632" x1="7.25989" y1="31.9779" x2="46.1945" y2="34.211" gradientUnits="userSpaceOnUse">
<stop stop-color="#37A0E7"/>
<stop offset="1" stop-color="#C507D9"/>
</linearGradient>
<linearGradient id="paint4_linear_3_2632" x1="45.9042" y1="31.9779" x2="51.4846" y2="32.0237" gradientUnits="userSpaceOnUse">
<stop stop-color="#37A0E7"/>
<stop offset="1" stop-color="#C507D9"/>
</linearGradient>
<linearGradient id="paint5_linear_3_2632" x1="71.5462" y1="39.3479" x2="77.1195" y2="39.5305" gradientUnits="userSpaceOnUse">
<stop stop-color="#37A0E7"/>
<stop offset="1" stop-color="#C507D9"/>
</linearGradient>
<linearGradient id="paint6_linear_3_2632" x1="72.8666" y1="45.3242" x2="75.6533" y2="45.4155" gradientUnits="userSpaceOnUse">
<stop stop-color="#37A0E7"/>
<stop offset="1" stop-color="#C507D9"/>
</linearGradient>
<linearGradient id="paint7_linear_3_2632" x1="72.8666" y1="51.0226" x2="75.6533" y2="51.114" gradientUnits="userSpaceOnUse">
<stop stop-color="#37A0E7"/>
<stop offset="1" stop-color="#C507D9"/>
</linearGradient>
<linearGradient id="paint8_linear_3_2632" x1="68.5912" y1="48.1741" x2="71.3779" y2="48.2655" gradientUnits="userSpaceOnUse">
<stop stop-color="#37A0E7"/>
<stop offset="1" stop-color="#C507D9"/>
</linearGradient>
<linearGradient id="paint9_linear_3_2632" x1="77.1112" y1="48.1741" x2="79.8979" y2="48.2655" gradientUnits="userSpaceOnUse">
<stop stop-color="#37A0E7"/>
<stop offset="1" stop-color="#C507D9"/>
</linearGradient>
<linearGradient id="paint10_linear_3_2632" x1="52.0167" y1="41.083" x2="68.7397" y2="41.6311" gradientUnits="userSpaceOnUse">
<stop stop-color="#37A0E7"/>
<stop offset="1" stop-color="#C507D9"/>
</linearGradient>
<linearGradient id="paint11_linear_3_2632" x1="52.4306" y1="27.3944" x2="80.147" y2="29.6656" gradientUnits="userSpaceOnUse">
<stop stop-color="#37A0E7"/>
<stop offset="1" stop-color="#C507D9"/>
</linearGradient>
<linearGradient id="paint12_linear_3_2632" x1="57.1306" y1="41.083" x2="58.1099" y2="41.0849" gradientUnits="userSpaceOnUse">
<stop stop-color="#37A0E7"/>
<stop offset="1" stop-color="#C507D9"/>
</linearGradient>
<linearGradient id="paint13_linear_3_2632" x1="62.8273" y1="41.083" x2="63.8067" y2="41.0849" gradientUnits="userSpaceOnUse">
<stop stop-color="#37A0E7"/>
<stop offset="1" stop-color="#C507D9"/>
</linearGradient>
<linearGradient id="paint14_linear_3_2632" x1="52.0167" y1="46.0058" x2="64.7584" y2="53.1442" gradientUnits="userSpaceOnUse">
<stop stop-color="#37A0E7"/>
<stop offset="1" stop-color="#C507D9"/>
</linearGradient>
<linearGradient id="paint15_linear_3_2632" x1="52.0167" y1="40.3073" x2="64.7584" y2="47.4457" gradientUnits="userSpaceOnUse">
<stop stop-color="#37A0E7"/>
<stop offset="1" stop-color="#C507D9"/>
</linearGradient>
<linearGradient id="paint16_linear_3_2632" x1="7.25989" y1="32.3065" x2="45.5876" y2="37.614" gradientUnits="userSpaceOnUse">
<stop stop-color="#37A0E7"/>
<stop offset="1" stop-color="#C507D9"/>
</linearGradient>
<linearGradient id="paint17_linear_3_2632" x1="19.705" y1="28.2174" x2="46.0062" y2="29.9476" gradientUnits="userSpaceOnUse">
<stop stop-color="#37A0E7"/>
<stop offset="1" stop-color="#C507D9"/>
</linearGradient>
<linearGradient id="paint18_linear_3_2632" x1="62.3749" y1="32.8984" x2="62.4662" y2="30.1109" gradientUnits="userSpaceOnUse">
<stop stop-color="#37A0E7"/>
<stop offset="1" stop-color="#C507D9"/>
</linearGradient>
<linearGradient id="paint19_linear_3_2632" x1="68.0726" y1="32.8984" x2="68.164" y2="30.1109" gradientUnits="userSpaceOnUse">
<stop stop-color="#37A0E7"/>
<stop offset="1" stop-color="#C507D9"/>
</linearGradient>
<linearGradient id="paint20_linear_3_2632" x1="73.7709" y1="32.8984" x2="73.8622" y2="30.1109" gradientUnits="userSpaceOnUse">
<stop stop-color="#37A0E7"/>
<stop offset="1" stop-color="#C507D9"/>
</linearGradient>
<linearGradient id="paint21_linear_3_2632" x1="56.6771" y1="32.8984" x2="56.7685" y2="30.1109" gradientUnits="userSpaceOnUse">
<stop stop-color="#37A0E7"/>
<stop offset="1" stop-color="#C507D9"/>
</linearGradient>
<linearGradient id="paint22_linear_3_2632" x1="62.3749" y1="27.2004" x2="62.4662" y2="24.4129" gradientUnits="userSpaceOnUse">
<stop stop-color="#37A0E7"/>
<stop offset="1" stop-color="#C507D9"/>
</linearGradient>
<linearGradient id="paint23_linear_3_2632" x1="68.0726" y1="27.2004" x2="68.164" y2="24.4129" gradientUnits="userSpaceOnUse">
<stop stop-color="#37A0E7"/>
<stop offset="1" stop-color="#C507D9"/>
</linearGradient>
<linearGradient id="paint24_linear_3_2632" x1="73.7709" y1="27.2004" x2="73.8622" y2="24.4129" gradientUnits="userSpaceOnUse">
<stop stop-color="#37A0E7"/>
<stop offset="1" stop-color="#C507D9"/>
</linearGradient>
<linearGradient id="paint25_linear_3_2632" x1="56.6771" y1="27.2004" x2="56.7685" y2="24.4129" gradientUnits="userSpaceOnUse">
<stop stop-color="#37A0E7"/>
<stop offset="1" stop-color="#C507D9"/>
</linearGradient>
<linearGradient id="paint26_linear_3_2632" x1="17.3938" y1="31.3126" x2="28.4956" y2="31.9062" gradientUnits="userSpaceOnUse">
<stop stop-color="#37A0E7"/>
<stop offset="1" stop-color="#C507D9"/>
</linearGradient>
<clipPath id="clip0_3_2632">
<rect width="80" height="80" fill="white"/>
</clipPath>
<clipPath id="clip1_3_2632">
<rect width="80" height="45.812" fill="white" transform="translate(0 17)"/>
</clipPath>
</defs>
</svg>
