<svg width="69" height="80" viewBox="0 0 69 80" fill="none" xmlns="http://www.w3.org/2000/svg">
<path d="M68.4897 34.3026H0.11438V74.1876H68.4897V34.3026Z" stroke="url(#paint0_linear_3_3659)" stroke-width="0.758386" stroke-miterlimit="22.9256"/>
<path d="M45.6967 0.11499H22.9055V34.3027H45.6967V0.11499Z" stroke="url(#paint1_linear_3_3659)" stroke-width="0.758386" stroke-miterlimit="22.9256"/>
<path d="M40.0012 17.2089H28.6047V34.3027H40.0012V17.2089Z" stroke="url(#paint2_linear_3_3659)" stroke-width="0.758386" stroke-miterlimit="22.9256"/>
<path d="M51.3959 40H17.2083V57.0938H51.3959V40Z" stroke="url(#paint3_linear_3_3659)" stroke-width="0.758386" stroke-miterlimit="22.9256"/>
<path d="M23.0234 48.5979L45.8146 42.8988" stroke="url(#paint4_linear_3_3659)" stroke-width="0.758386" stroke-miterlimit="22.9256"/>
<path fill-rule="evenodd" clip-rule="evenodd" d="M22.9055 51.3965H45.6985V40H23.0515L22.9055 51.3965Z" stroke="url(#paint5_linear_3_3659)" stroke-width="0.758386" stroke-miterlimit="22.9256"/>
<path d="M5.81174 74.1876H0.11438V79.885H5.81174V74.1876Z" stroke="url(#paint6_linear_3_3659)" stroke-width="0.758386" stroke-miterlimit="22.9256"/>
<path d="M68.4897 74.1876H62.7924V79.885H68.4897V74.1876Z" stroke="url(#paint7_linear_3_3659)" stroke-width="0.758386" stroke-miterlimit="22.9256"/>
<path d="M45.6985 40C37.0637 40.9481 29.4455 44.6842 22.9073 51.3965" stroke="url(#paint8_linear_3_3659)" stroke-width="0.758386" stroke-miterlimit="22.9256"/>
<defs>
<linearGradient id="paint0_linear_3_3659" x1="2.59728" y1="50.3433" x2="69.3507" y2="54.0939" gradientUnits="userSpaceOnUse">
<stop stop-color="#37A0E7"/>
<stop offset="1" stop-color="#C507D9"/>
</linearGradient>
<linearGradient id="paint1_linear_3_3659" x1="23.7331" y1="13.8644" x2="46.0433" y2="14.3518" gradientUnits="userSpaceOnUse">
<stop stop-color="#37A0E7"/>
<stop offset="1" stop-color="#C507D9"/>
</linearGradient>
<linearGradient id="paint2_linear_3_3659" x1="29.0186" y1="24.0836" x2="40.1745" y2="24.3273" gradientUnits="userSpaceOnUse">
<stop stop-color="#37A0E7"/>
<stop offset="1" stop-color="#C507D9"/>
</linearGradient>
<linearGradient id="paint3_linear_3_3659" x1="18.4497" y1="46.8747" x2="51.7886" y2="49.06" gradientUnits="userSpaceOnUse">
<stop stop-color="#37A0E7"/>
<stop offset="1" stop-color="#C507D9"/>
</linearGradient>
<linearGradient id="paint4_linear_3_3659" x1="23.8511" y1="45.1908" x2="45.7949" y2="48.067" gradientUnits="userSpaceOnUse">
<stop stop-color="#37A0E7"/>
<stop offset="1" stop-color="#C507D9"/>
</linearGradient>
<linearGradient id="paint5_linear_3_3659" x1="23.7332" y1="44.5834" x2="45.9602" y2="46.0403" gradientUnits="userSpaceOnUse">
<stop stop-color="#37A0E7"/>
<stop offset="1" stop-color="#C507D9"/>
</linearGradient>
<linearGradient id="paint6_linear_3_3659" x1="0.321267" y1="76.479" x2="5.89506" y2="76.6616" gradientUnits="userSpaceOnUse">
<stop stop-color="#37A0E7"/>
<stop offset="1" stop-color="#C507D9"/>
</linearGradient>
<linearGradient id="paint7_linear_3_3659" x1="62.9992" y1="76.479" x2="68.573" y2="76.6616" gradientUnits="userSpaceOnUse">
<stop stop-color="#37A0E7"/>
<stop offset="1" stop-color="#C507D9"/>
</linearGradient>
<linearGradient id="paint8_linear_3_3659" x1="23.735" y1="44.5834" x2="45.9603" y2="46.0401" gradientUnits="userSpaceOnUse">
<stop stop-color="#37A0E7"/>
<stop offset="1" stop-color="#C507D9"/>
</linearGradient>
</defs>
</svg>
