<svg width="64" height="80" viewBox="0 0 64 80" fill="none" xmlns="http://www.w3.org/2000/svg">
<g clip-path="url(#clip0_3_3752)">
<path fill-rule="evenodd" clip-rule="evenodd" d="M26.6672 63.9573H63.8526V79.8939H26.6672V63.9573Z" stroke="url(#paint0_linear_3_3752)" stroke-width="0.755479" stroke-miterlimit="22.9256"/>
<path fill-rule="evenodd" clip-rule="evenodd" d="M34.6355 69.2693H55.8842V79.8939H34.6355V69.2693Z" stroke="url(#paint1_linear_3_3752)" stroke-width="0.755479" stroke-miterlimit="22.9256"/>
<path fill-rule="evenodd" clip-rule="evenodd" d="M5.41846 69.2693H26.6672V79.8939H5.41846V69.2693Z" stroke="url(#paint2_linear_3_3752)" stroke-width="0.755479" stroke-miterlimit="22.9256"/>
<path d="M26.672 69.2693H21.3552V44.942M21.3552 33.6181V32.084H37.2919V49.2758" stroke="url(#paint3_linear_3_3752)" stroke-width="0.755479" stroke-miterlimit="22.9256"/>
<path d="M24.7992 37.0625L26.6668 35.1949L32.033 40.5611C33.95 42.4781 34.4522 44.5647 34.054 46.3064M30.3155 50.083C28.5638 50.502 26.4558 50.0089 24.5208 48.0738L19.1545 42.7076L21.0335 40.8286" stroke="url(#paint4_linear_3_3752)" stroke-width="0.755479" stroke-miterlimit="22.9256"/>
<path fill-rule="evenodd" clip-rule="evenodd" d="M21.0325 44.5866L28.5452 37.0739L32.3018 40.83L24.7891 48.3427L21.0325 44.5866Z" stroke="url(#paint5_linear_3_3752)" stroke-width="0.755479" stroke-miterlimit="22.9256"/>
<path fill-rule="evenodd" clip-rule="evenodd" d="M16.0427 61.301V58.6452H21.3553V61.301H16.0427Z" stroke="url(#paint6_linear_3_3752)" stroke-width="0.755479" stroke-miterlimit="22.9256"/>
<path d="M10.7372 52.5222C13.8287 53.6177 16.0431 56.5676 16.0431 60.0349C16.0431 64.4357 12.4756 68.0032 8.07477 68.0032C3.67395 68.0032 0.106445 64.4357 0.106445 60.0349C0.106445 56.5652 2.32372 53.6139 5.41898 52.5198" stroke="url(#paint7_linear_3_3752)" stroke-width="0.755479" stroke-miterlimit="22.9256"/>
<path d="M16.0427 58.6452C16.0427 55.9889 21.3548 55.9889 21.3548 58.6452" stroke="url(#paint8_linear_3_3752)" stroke-width="0.755479" stroke-miterlimit="22.9256"/>
<path fill-rule="evenodd" clip-rule="evenodd" d="M16.0427 63.9572V61.301H21.3553V63.9572H16.0427Z" stroke="url(#paint9_linear_3_3752)" stroke-width="0.755479" stroke-miterlimit="22.9256"/>
<path d="M17.6389 56.7458V54.0876" stroke="url(#paint10_linear_3_3752)" stroke-width="0.755479" stroke-miterlimit="22.9256"/>
<path d="M19.7959 56.7458V54.0876" stroke="url(#paint11_linear_3_3752)" stroke-width="0.755479" stroke-miterlimit="22.9256"/>
<path d="M5.41846 52.6338V46.754H10.7305V52.639" stroke="url(#paint12_linear_3_3752)" stroke-width="0.755479" stroke-miterlimit="22.9256"/>
<path d="M6.85374 41.3916H5.42227C5.16002 41.3916 4.09058 41.3522 4.09058 40V11.5783C4.09058 10.832 4.67732 10.8077 4.82175 10.8077H5.41847V5.49567H10.7305V10.8077H11.3966C11.5282 10.8077 12.0589 10.8167 12.0589 11.5109V23.126V26.6099M12.0589 29.986V40.0262C12.0589 41.4049 10.9999 41.3916 10.7415 41.3916H9.29574" stroke="url(#paint13_linear_3_3752)" stroke-width="0.755479" stroke-miterlimit="22.9256"/>
<path d="M6.74634 46.7492V41.4391M9.4026 41.4391V46.754" stroke="url(#paint14_linear_3_3752)" stroke-width="0.755479" stroke-miterlimit="22.9256"/>
<path d="M22.9348 42.7323L16.9438 36.7413L20.7004 32.9847L26.6952 38.9795M30.4447 42.729L35.7258 48.0101C39.482 51.7663 46.9947 51.7663 50.7508 55.5229C53.4146 58.1986 53.7125 61.3433 52.6531 63.9501M37.5174 63.9454C35.5572 59.9987 34.9305 54.7214 31.9764 51.7667L26.6848 46.4751" stroke="url(#paint15_linear_3_3752)" stroke-width="0.755479" stroke-miterlimit="22.9256"/>
<path fill-rule="evenodd" clip-rule="evenodd" d="M10.3704 28.2899L12.2484 26.4118L19.7611 33.9245L17.8831 35.8026L10.3704 28.2899Z" stroke="url(#paint16_linear_3_3752)" stroke-width="0.755479" stroke-miterlimit="22.9256"/>
<path d="M7.9707 5.41868C7.9707 0.106629 7.9707 0.106628 13.2828 0.106628" stroke="url(#paint17_linear_3_3752)" stroke-width="0.755479" stroke-miterlimit="22.9256"/>
<path d="M50.5723 77.2376C52.0393 77.2376 53.2285 76.0484 53.2285 74.5814C53.2285 73.1144 52.0393 71.9251 50.5723 71.9251C49.1053 71.9251 47.916 73.1144 47.916 74.5814C47.916 76.0484 49.1053 77.2376 50.5723 77.2376Z" stroke="url(#paint18_linear_3_3752)" stroke-width="0.755479" stroke-miterlimit="22.9256"/>
<path d="M21.3552 77.2376C22.8223 77.2376 24.0115 76.0484 24.0115 74.5814C24.0115 73.1144 22.8223 71.9251 21.3552 71.9251C19.8882 71.9251 18.699 73.1144 18.699 74.5814C18.699 76.0484 19.8882 77.2376 21.3552 77.2376Z" stroke="url(#paint19_linear_3_3752)" stroke-width="0.755479" stroke-miterlimit="22.9256"/>
<path d="M26.6673 61.3015C28.1343 61.3015 29.3235 60.1122 29.3235 58.6452C29.3235 57.1782 28.1343 55.989 26.6673 55.989C25.2002 55.989 24.011 57.1782 24.011 58.6452C24.011 60.1122 25.2002 61.3015 26.6673 61.3015Z" stroke="url(#paint20_linear_3_3752)" stroke-width="0.755479" stroke-miterlimit="22.9256"/>
<path d="M5.41846 10.8353H10.7305" stroke="url(#paint21_linear_3_3752)" stroke-width="0.755479" stroke-miterlimit="22.9256"/>
<path d="M5.41846 16.1473H10.7305" stroke="url(#paint22_linear_3_3752)" stroke-width="0.755479" stroke-miterlimit="22.9256"/>
<path d="M5.41846 21.4598H10.7305" stroke="url(#paint23_linear_3_3752)" stroke-width="0.755479" stroke-miterlimit="22.9256"/>
<path d="M5.41846 32.0844H10.7305" stroke="url(#paint24_linear_3_3752)" stroke-width="0.755479" stroke-miterlimit="22.9256"/>
<path d="M5.41846 26.7719H10.7305" stroke="url(#paint25_linear_3_3752)" stroke-width="0.755479" stroke-miterlimit="22.9256"/>
<path d="M5.41846 37.3965H10.7305" stroke="url(#paint26_linear_3_3752)" stroke-width="0.755479" stroke-miterlimit="22.9256"/>
<path d="M5.4185 79.8939H0.106445" stroke="url(#paint27_linear_3_3752)" stroke-width="0.755479" stroke-miterlimit="22.9256"/>
</g>
<defs>
<linearGradient id="paint0_linear_3_3752" x1="28.0175" y1="70.3666" x2="64.2237" y2="73.1354" gradientUnits="userSpaceOnUse">
<stop stop-color="#37A0E7"/>
<stop offset="1" stop-color="#C507D9"/>
</linearGradient>
<linearGradient id="paint1_linear_3_3752" x1="35.4071" y1="73.5422" x2="56.1282" y2="74.9004" gradientUnits="userSpaceOnUse">
<stop stop-color="#37A0E7"/>
<stop offset="1" stop-color="#C507D9"/>
</linearGradient>
<linearGradient id="paint2_linear_3_3752" x1="6.19006" y1="73.5422" x2="26.9112" y2="74.9004" gradientUnits="userSpaceOnUse">
<stop stop-color="#37A0E7"/>
<stop offset="1" stop-color="#C507D9"/>
</linearGradient>
<linearGradient id="paint3_linear_3_3752" x1="21.9339" y1="47.039" x2="37.5386" y2="47.2582" gradientUnits="userSpaceOnUse">
<stop stop-color="#37A0E7"/>
<stop offset="1" stop-color="#C507D9"/>
</linearGradient>
<linearGradient id="paint4_linear_3_3752" x1="19.7002" y1="41.2382" x2="34.4007" y2="41.72" gradientUnits="userSpaceOnUse">
<stop stop-color="#37A0E7"/>
<stop offset="1" stop-color="#C507D9"/>
</linearGradient>
<linearGradient id="paint5_linear_3_3752" x1="21.4417" y1="41.6059" x2="32.4666" y2="41.9673" gradientUnits="userSpaceOnUse">
<stop stop-color="#37A0E7"/>
<stop offset="1" stop-color="#C507D9"/>
</linearGradient>
<linearGradient id="paint6_linear_3_3752" x1="16.2356" y1="59.7133" x2="21.4163" y2="60.0529" gradientUnits="userSpaceOnUse">
<stop stop-color="#37A0E7"/>
<stop offset="1" stop-color="#C507D9"/>
</linearGradient>
<linearGradient id="paint7_linear_3_3752" x1="0.68515" y1="58.7468" x2="16.2752" y2="59.2727" gradientUnits="userSpaceOnUse">
<stop stop-color="#37A0E7"/>
<stop offset="1" stop-color="#C507D9"/>
</linearGradient>
<linearGradient id="paint8_linear_3_3752" x1="16.2356" y1="57.4542" x2="21.3986" y2="57.9054" gradientUnits="userSpaceOnUse">
<stop stop-color="#37A0E7"/>
<stop offset="1" stop-color="#C507D9"/>
</linearGradient>
<linearGradient id="paint9_linear_3_3752" x1="16.2356" y1="62.3692" x2="21.4163" y2="62.7088" gradientUnits="userSpaceOnUse">
<stop stop-color="#37A0E7"/>
<stop offset="1" stop-color="#C507D9"/>
</linearGradient>
<linearGradient id="paint10_linear_3_3752" x1="17.6752" y1="55.1566" x2="18.6544" y2="55.1687" gradientUnits="userSpaceOnUse">
<stop stop-color="#37A0E7"/>
<stop offset="1" stop-color="#C507D9"/>
</linearGradient>
<linearGradient id="paint11_linear_3_3752" x1="19.8322" y1="55.1566" x2="20.8114" y2="55.1687" gradientUnits="userSpaceOnUse">
<stop stop-color="#37A0E7"/>
<stop offset="1" stop-color="#C507D9"/>
</linearGradient>
<linearGradient id="paint12_linear_3_3752" x1="5.61135" y1="49.1208" x2="10.8092" y2="49.2746" gradientUnits="userSpaceOnUse">
<stop stop-color="#37A0E7"/>
<stop offset="1" stop-color="#C507D9"/>
</linearGradient>
<linearGradient id="paint13_linear_3_3752" x1="4.37993" y1="19.9321" x2="12.1834" y2="19.9889" gradientUnits="userSpaceOnUse">
<stop stop-color="#37A0E7"/>
<stop offset="1" stop-color="#C507D9"/>
</linearGradient>
<linearGradient id="paint14_linear_3_3752" x1="6.84279" y1="43.5766" x2="9.44354" y2="43.6192" gradientUnits="userSpaceOnUse">
<stop stop-color="#37A0E7"/>
<stop offset="1" stop-color="#C507D9"/>
</linearGradient>
<linearGradient id="paint15_linear_3_3752" x1="18.2613" y1="45.4382" x2="53.7399" y2="46.8006" gradientUnits="userSpaceOnUse">
<stop stop-color="#37A0E7"/>
<stop offset="1" stop-color="#C507D9"/>
</linearGradient>
<linearGradient id="paint16_linear_3_3752" x1="10.7114" y1="30.1885" x2="19.8985" y2="30.4896" gradientUnits="userSpaceOnUse">
<stop stop-color="#37A0E7"/>
<stop offset="1" stop-color="#C507D9"/>
</linearGradient>
<linearGradient id="paint17_linear_3_3752" x1="8.1636" y1="2.243" x2="13.3604" y2="2.41332" gradientUnits="userSpaceOnUse">
<stop stop-color="#37A0E7"/>
<stop offset="1" stop-color="#C507D9"/>
</linearGradient>
<linearGradient id="paint18_linear_3_3752" x1="48.1089" y1="74.0617" x2="53.3062" y2="74.232" gradientUnits="userSpaceOnUse">
<stop stop-color="#37A0E7"/>
<stop offset="1" stop-color="#C507D9"/>
</linearGradient>
<linearGradient id="paint19_linear_3_3752" x1="18.8919" y1="74.0617" x2="24.0892" y2="74.232" gradientUnits="userSpaceOnUse">
<stop stop-color="#37A0E7"/>
<stop offset="1" stop-color="#C507D9"/>
</linearGradient>
<linearGradient id="paint20_linear_3_3752" x1="24.2039" y1="58.1255" x2="29.4012" y2="58.2959" gradientUnits="userSpaceOnUse">
<stop stop-color="#37A0E7"/>
<stop offset="1" stop-color="#C507D9"/>
</linearGradient>
<linearGradient id="paint21_linear_3_3752" x1="5.61135" y1="11.2374" x2="10.6607" y2="12.1165" gradientUnits="userSpaceOnUse">
<stop stop-color="#37A0E7"/>
<stop offset="1" stop-color="#C507D9"/>
</linearGradient>
<linearGradient id="paint22_linear_3_3752" x1="5.61135" y1="16.5495" x2="10.6607" y2="17.4286" gradientUnits="userSpaceOnUse">
<stop stop-color="#37A0E7"/>
<stop offset="1" stop-color="#C507D9"/>
</linearGradient>
<linearGradient id="paint23_linear_3_3752" x1="5.61135" y1="21.862" x2="10.6607" y2="22.7411" gradientUnits="userSpaceOnUse">
<stop stop-color="#37A0E7"/>
<stop offset="1" stop-color="#C507D9"/>
</linearGradient>
<linearGradient id="paint24_linear_3_3752" x1="5.61135" y1="32.4866" x2="10.6607" y2="33.3657" gradientUnits="userSpaceOnUse">
<stop stop-color="#37A0E7"/>
<stop offset="1" stop-color="#C507D9"/>
</linearGradient>
<linearGradient id="paint25_linear_3_3752" x1="5.61135" y1="27.1741" x2="10.6607" y2="28.0532" gradientUnits="userSpaceOnUse">
<stop stop-color="#37A0E7"/>
<stop offset="1" stop-color="#C507D9"/>
</linearGradient>
<linearGradient id="paint26_linear_3_3752" x1="5.61135" y1="37.7987" x2="10.6607" y2="38.6778" gradientUnits="userSpaceOnUse">
<stop stop-color="#37A0E7"/>
<stop offset="1" stop-color="#C507D9"/>
</linearGradient>
<linearGradient id="paint27_linear_3_3752" x1="0.299341" y1="80.2961" x2="5.34872" y2="81.1752" gradientUnits="userSpaceOnUse">
<stop stop-color="#37A0E7"/>
<stop offset="1" stop-color="#C507D9"/>
</linearGradient>
<clipPath id="clip0_3_3752">
<rect width="63.9589" height="80" fill="white"/>
</clipPath>
</defs>
</svg>
