<svg width="80" height="80" viewBox="0 0 80 80" fill="none" xmlns="http://www.w3.org/2000/svg">
<g clip-path="url(#clip0_3_3290)">
<rect width="80" height="80" fill="white"/>
<g clip-path="url(#clip1_3_3290)">
<path d="M79.8864 20.1146H0.114746V60.1167H79.8864V20.1146Z" stroke="url(#paint0_linear_3_3290)" stroke-width="0.755117" stroke-miterlimit="22.9256"/>
<path d="M45.6977 28.5867H11.5103V54.4183H45.6977V28.5867Z" stroke="url(#paint1_linear_3_3290)" stroke-width="0.755117" stroke-miterlimit="22.9256"/>
<path d="M74.1882 25.8114H68.4897V28.6598H74.1882V25.8114Z" stroke="url(#paint2_linear_3_3290)" stroke-width="0.755117" stroke-miterlimit="22.9256"/>
<path d="M55.2458 34.285C58.393 34.285 60.9442 31.7338 60.9442 28.5866C60.9442 25.4395 58.393 22.8882 55.2458 22.8882C52.0986 22.8882 49.5474 25.4395 49.5474 28.5866C49.5474 31.7338 52.0986 34.285 55.2458 34.285Z" stroke="url(#paint3_linear_3_3290)" stroke-width="0.755117" stroke-miterlimit="22.9256"/>
<path d="M57.0944 37.323H51.396V40.1714H57.0944V37.323Z" stroke="url(#paint4_linear_3_3290)" stroke-width="0.755117" stroke-miterlimit="22.9256"/>
<path d="M57.0944 43.0214H51.396V45.8698H57.0944V43.0214Z" stroke="url(#paint5_linear_3_3290)" stroke-width="0.755117" stroke-miterlimit="22.9256"/>
<path d="M57.0944 48.7198H51.396V51.5683H57.0944V48.7198Z" stroke="url(#paint6_linear_3_3290)" stroke-width="0.755117" stroke-miterlimit="22.9256"/>
<path d="M57.0944 54.4182H51.396V57.2666H57.0944V54.4182Z" stroke="url(#paint7_linear_3_3290)" stroke-width="0.755117" stroke-miterlimit="22.9256"/>
<path d="M65.4578 39.966C67.0309 39.966 68.3062 38.6907 68.3062 37.1176C68.3062 35.5444 67.0309 34.2692 65.4578 34.2692C63.8847 34.2692 62.6094 35.5444 62.6094 37.1176C62.6094 38.6907 63.8847 39.966 65.4578 39.966Z" stroke="url(#paint8_linear_3_3290)" stroke-width="0.755117" stroke-miterlimit="22.9256"/>
<path d="M74.0047 39.966C75.5778 39.966 76.8531 38.6907 76.8531 37.1176C76.8531 35.5444 75.5778 34.2692 74.0047 34.2692C72.4315 34.2692 71.1562 35.5444 71.1562 37.1176C71.1562 38.6907 72.4315 39.966 74.0047 39.966Z" stroke="url(#paint9_linear_3_3290)" stroke-width="0.755117" stroke-miterlimit="22.9256"/>
<path d="M65.4578 48.5129C67.0309 48.5129 68.3062 47.2376 68.3062 45.6645C68.3062 44.0913 67.0309 42.816 65.4578 42.816C63.8847 42.816 62.6094 44.0913 62.6094 45.6645C62.6094 47.2376 63.8847 48.5129 65.4578 48.5129Z" stroke="url(#paint10_linear_3_3290)" stroke-width="0.755117" stroke-miterlimit="22.9256"/>
<path d="M74.0047 48.5129C75.5778 48.5129 76.8531 47.2376 76.8531 45.6645C76.8531 44.0913 75.5778 42.816 74.0047 42.816C72.4315 42.816 71.1562 44.0913 71.1562 45.6645C71.1562 47.2376 72.4315 48.5129 74.0047 48.5129Z" stroke="url(#paint11_linear_3_3290)" stroke-width="0.755117" stroke-miterlimit="22.9256"/>
<path d="M65.4578 57.0596C67.0309 57.0596 68.3062 55.7844 68.3062 54.2112C68.3062 52.6381 67.0309 51.3628 65.4578 51.3628C63.8847 51.3628 62.6094 52.6381 62.6094 54.2112C62.6094 55.7844 63.8847 57.0596 65.4578 57.0596Z" stroke="url(#paint12_linear_3_3290)" stroke-width="0.755117" stroke-miterlimit="22.9256"/>
<path d="M74.0047 57.0596C75.5778 57.0596 76.8531 55.7844 76.8531 54.2112C76.8531 52.6381 75.5778 51.3628 74.0047 51.3628C72.4315 51.3628 71.1562 52.6381 71.1562 54.2112C71.1562 55.7844 72.4315 57.0596 74.0047 57.0596Z" stroke="url(#paint13_linear_3_3290)" stroke-width="0.755117" stroke-miterlimit="22.9256"/>
<path d="M8.46406 24.587H2.76562V27.4355H8.46406V24.587Z" stroke="url(#paint14_linear_3_3290)" stroke-width="0.755117" stroke-miterlimit="22.9256"/>
<path d="M8.46406 30.2855H2.76562V33.1339H8.46406V30.2855Z" stroke="url(#paint15_linear_3_3290)" stroke-width="0.755117" stroke-miterlimit="22.9256"/>
<path d="M8.46406 35.9823H2.76562V38.8307H8.46406V35.9823Z" stroke="url(#paint16_linear_3_3290)" stroke-width="0.755117" stroke-miterlimit="22.9256"/>
<path d="M8.46406 41.6808H2.76562V44.5292H8.46406V41.6808Z" stroke="url(#paint17_linear_3_3290)" stroke-width="0.755117" stroke-miterlimit="22.9256"/>
<path d="M5.8118 57.2667C7.38494 57.2667 8.66022 55.9914 8.66022 54.4182C8.66022 52.8451 7.38494 51.5698 5.8118 51.5698C4.23866 51.5698 2.96338 52.8451 2.96338 54.4182C2.96338 55.9914 4.23866 57.2667 5.8118 57.2667Z" stroke="url(#paint18_linear_3_3290)" stroke-width="0.755117" stroke-miterlimit="22.9256"/>
<path d="M21.7744 42.5613V43.3215H17.5161C17.5103 43.1311 17.541 42.948 17.6084 42.7722C17.7168 42.4822 17.8896 42.1965 18.127 41.9153C18.3672 41.634 18.7129 41.3088 19.1641 40.9397C19.8643 40.3655 20.3374 39.9114 20.5835 39.5774C20.8296 39.2405 20.9526 38.9226 20.9526 38.6238C20.9526 38.3103 20.8398 38.0466 20.6143 37.8328C20.3916 37.616 20.1001 37.5076 19.7397 37.5076C19.3589 37.5076 19.0542 37.6218 18.8257 37.8503C18.5972 38.0789 18.4814 38.3953 18.4785 38.7996L17.6655 38.7161C17.7212 38.1096 17.9307 37.6482 18.2939 37.3318C18.6572 37.0125 19.145 36.8528 19.7573 36.8528C20.3755 36.8528 20.8647 37.0242 21.2251 37.3669C21.5854 37.7097 21.7656 38.1345 21.7656 38.6414C21.7656 38.8992 21.7129 39.1526 21.6074 39.4016C21.502 39.6506 21.3262 39.9128 21.0801 40.1882C20.8369 40.4636 20.4312 40.8416 19.8628 41.322C19.3882 41.7205 19.0835 41.9915 18.9487 42.135C18.814 42.2756 18.7026 42.4177 18.6147 42.5613H21.7744ZM23.0708 43.3215V42.4207H23.9717V43.3215H23.0708ZM25.1846 37.7229V36.9626H29.355V37.5779C28.9448 38.0144 28.5376 38.5945 28.1333 39.3181C27.7319 40.0417 27.4214 40.7859 27.2017 41.5505C27.0435 42.0896 26.9424 42.6799 26.8984 43.3215H26.0854C26.0942 42.8147 26.1938 42.2024 26.3843 41.4846C26.5747 40.7668 26.8472 40.0754 27.2017 39.4104C27.5591 38.7424 27.9385 38.1799 28.3398 37.7229H25.1846ZM34.8086 43.3215L32.3125 36.8792H33.2354L34.9097 41.5593C35.0444 41.9343 35.1572 42.2859 35.248 42.614C35.3477 42.2625 35.4634 41.9109 35.5952 41.5593L37.3354 36.8792H38.2056L35.6831 43.3215H34.8086Z" fill="url(#paint19_linear_3_3290)"/>
</g>
</g>
<defs>
<linearGradient id="paint0_linear_3_3290" x1="3.01148" y1="36.2024" x2="80.8045" y2="41.2869" gradientUnits="userSpaceOnUse">
<stop stop-color="#37A0E7"/>
<stop offset="1" stop-color="#C507D9"/>
</linearGradient>
<linearGradient id="paint1_linear_3_3290" x1="12.7517" y1="38.9755" x2="46.1707" y2="40.4251" gradientUnits="userSpaceOnUse">
<stop stop-color="#37A0E7"/>
<stop offset="1" stop-color="#C507D9"/>
</linearGradient>
<linearGradient id="paint2_linear_3_3290" x1="68.6967" y1="26.957" x2="74.2536" y2="27.3213" gradientUnits="userSpaceOnUse">
<stop stop-color="#37A0E7"/>
<stop offset="1" stop-color="#C507D9"/>
</linearGradient>
<linearGradient id="paint3_linear_3_3290" x1="49.9612" y1="27.4717" x2="61.1109" y2="27.8371" gradientUnits="userSpaceOnUse">
<stop stop-color="#37A0E7"/>
<stop offset="1" stop-color="#C507D9"/>
</linearGradient>
<linearGradient id="paint4_linear_3_3290" x1="51.6029" y1="38.4686" x2="57.1599" y2="38.8329" gradientUnits="userSpaceOnUse">
<stop stop-color="#37A0E7"/>
<stop offset="1" stop-color="#C507D9"/>
</linearGradient>
<linearGradient id="paint5_linear_3_3290" x1="51.6029" y1="44.1669" x2="57.1599" y2="44.5313" gradientUnits="userSpaceOnUse">
<stop stop-color="#37A0E7"/>
<stop offset="1" stop-color="#C507D9"/>
</linearGradient>
<linearGradient id="paint6_linear_3_3290" x1="51.6029" y1="49.8654" x2="57.1599" y2="50.2298" gradientUnits="userSpaceOnUse">
<stop stop-color="#37A0E7"/>
<stop offset="1" stop-color="#C507D9"/>
</linearGradient>
<linearGradient id="paint7_linear_3_3290" x1="51.6029" y1="55.5638" x2="57.1599" y2="55.9281" gradientUnits="userSpaceOnUse">
<stop stop-color="#37A0E7"/>
<stop offset="1" stop-color="#C507D9"/>
</linearGradient>
<linearGradient id="paint8_linear_3_3290" x1="62.8162" y1="36.5603" x2="68.3895" y2="36.7429" gradientUnits="userSpaceOnUse">
<stop stop-color="#37A0E7"/>
<stop offset="1" stop-color="#C507D9"/>
</linearGradient>
<linearGradient id="paint9_linear_3_3290" x1="71.3631" y1="36.5603" x2="76.9364" y2="36.7429" gradientUnits="userSpaceOnUse">
<stop stop-color="#37A0E7"/>
<stop offset="1" stop-color="#C507D9"/>
</linearGradient>
<linearGradient id="paint10_linear_3_3290" x1="62.8162" y1="45.1072" x2="68.3895" y2="45.2898" gradientUnits="userSpaceOnUse">
<stop stop-color="#37A0E7"/>
<stop offset="1" stop-color="#C507D9"/>
</linearGradient>
<linearGradient id="paint11_linear_3_3290" x1="71.3631" y1="45.1072" x2="76.9364" y2="45.2898" gradientUnits="userSpaceOnUse">
<stop stop-color="#37A0E7"/>
<stop offset="1" stop-color="#C507D9"/>
</linearGradient>
<linearGradient id="paint12_linear_3_3290" x1="62.8162" y1="53.6539" x2="68.3895" y2="53.8366" gradientUnits="userSpaceOnUse">
<stop stop-color="#37A0E7"/>
<stop offset="1" stop-color="#C507D9"/>
</linearGradient>
<linearGradient id="paint13_linear_3_3290" x1="71.3631" y1="53.6539" x2="76.9364" y2="53.8366" gradientUnits="userSpaceOnUse">
<stop stop-color="#37A0E7"/>
<stop offset="1" stop-color="#C507D9"/>
</linearGradient>
<linearGradient id="paint14_linear_3_3290" x1="2.97255" y1="25.7326" x2="8.52949" y2="26.097" gradientUnits="userSpaceOnUse">
<stop stop-color="#37A0E7"/>
<stop offset="1" stop-color="#C507D9"/>
</linearGradient>
<linearGradient id="paint15_linear_3_3290" x1="2.97255" y1="31.4311" x2="8.52949" y2="31.7954" gradientUnits="userSpaceOnUse">
<stop stop-color="#37A0E7"/>
<stop offset="1" stop-color="#C507D9"/>
</linearGradient>
<linearGradient id="paint16_linear_3_3290" x1="2.97255" y1="37.1279" x2="8.52949" y2="37.4922" gradientUnits="userSpaceOnUse">
<stop stop-color="#37A0E7"/>
<stop offset="1" stop-color="#C507D9"/>
</linearGradient>
<linearGradient id="paint17_linear_3_3290" x1="2.97255" y1="42.8263" x2="8.52949" y2="43.1907" gradientUnits="userSpaceOnUse">
<stop stop-color="#37A0E7"/>
<stop offset="1" stop-color="#C507D9"/>
</linearGradient>
<linearGradient id="paint18_linear_3_3290" x1="3.17025" y1="53.8609" x2="8.74353" y2="54.0436" gradientUnits="userSpaceOnUse">
<stop stop-color="#37A0E7"/>
<stop offset="1" stop-color="#C507D9"/>
</linearGradient>
<linearGradient id="paint19_linear_3_3290" x1="18.0648" y1="39.8083" x2="40.1148" y2="41.2732" gradientUnits="userSpaceOnUse">
<stop stop-color="#37A0E7"/>
<stop offset="1" stop-color="#C507D9"/>
</linearGradient>
<clipPath id="clip0_3_3290">
<rect width="80" height="80" fill="white"/>
</clipPath>
<clipPath id="clip1_3_3290">
<rect width="80" height="40.2297" fill="white" transform="translate(0 20)"/>
</clipPath>
</defs>
</svg>
