<svg width="80" height="80" viewBox="0 0 80 80" fill="none" xmlns="http://www.w3.org/2000/svg">
<g clip-path="url(#clip0_3_3096)">
<rect width="80" height="80" fill="white"/>
<g clip-path="url(#clip1_3_3096)">
<path d="M79.8859 23.1141H0.114014V57.3019H79.8859V23.1141Z" stroke="url(#paint0_linear_3_3096)" stroke-width="0.75641" stroke-miterlimit="22.9256"/>
<path d="M67.3767 43.362C70.5233 43.362 73.0742 40.8112 73.0742 37.6645C73.0742 34.5179 70.5233 31.967 67.3767 31.967C64.23 31.967 61.6792 34.5179 61.6792 37.6645C61.6792 40.8112 64.23 43.362 67.3767 43.362Z" stroke="url(#paint1_linear_3_3096)" stroke-width="0.75641" stroke-miterlimit="22.9256"/>
<path d="M74.1885 28.8116H45.6982V48.8228H74.1885V28.8116Z" stroke="url(#paint2_linear_3_3096)" stroke-width="0.75641" stroke-miterlimit="22.9256"/>
<path d="M40.0008 28.8116H11.5105V45.9055H40.0008V28.8116Z" stroke="url(#paint3_linear_3_3096)" stroke-width="0.75641" stroke-miterlimit="22.9256"/>
<path d="M17.208 48.755H11.5105V51.6045H17.208V48.755Z" stroke="url(#paint4_linear_3_3096)" stroke-width="0.75641" stroke-miterlimit="22.9256"/>
<path d="M28.6028 48.755H22.9053V51.6045H28.6028V48.755Z" stroke="url(#paint5_linear_3_3096)" stroke-width="0.75641" stroke-miterlimit="22.9256"/>
<path d="M39.9992 48.755H34.3018V51.6045H39.9992V48.755Z" stroke="url(#paint6_linear_3_3096)" stroke-width="0.75641" stroke-miterlimit="22.9256"/>
<path d="M8.66086 48.755H2.96338V51.6045H8.66086V48.755Z" stroke="url(#paint7_linear_3_3096)" stroke-width="0.75641" stroke-miterlimit="22.9256"/>
<path d="M18.5247 35.4095V36.0009H15.2126C15.2081 35.8527 15.232 35.7103 15.2844 35.5736C15.3687 35.348 15.5032 35.1259 15.6877 34.9071C15.8746 34.6884 16.1435 34.4354 16.4944 34.1483C17.039 33.7017 17.407 33.3485 17.5984 33.0887C17.7898 32.8267 17.8855 32.5795 17.8855 32.347C17.8855 32.1032 17.7978 31.8982 17.6223 31.7318C17.4491 31.5632 17.2224 31.4789 16.9421 31.4789C16.6459 31.4789 16.4089 31.5677 16.2312 31.7455C16.0535 31.9232 15.9635 32.1693 15.9612 32.4838L15.3289 32.4188C15.3722 31.9471 15.5351 31.5883 15.8176 31.3422C16.1002 31.0938 16.4796 30.9696 16.9558 30.9696C17.4366 30.9696 17.8171 31.1029 18.0974 31.3695C18.3777 31.6361 18.5178 31.9665 18.5178 32.3607C18.5178 32.5612 18.4768 32.7583 18.3948 32.952C18.3127 33.1457 18.176 33.3497 17.9846 33.5638C17.7955 33.778 17.4799 34.072 17.0378 34.4457C16.6687 34.7556 16.4317 34.9663 16.3269 35.078C16.2221 35.1874 16.1355 35.2979 16.0671 35.4095H18.5247ZM19.1877 33.5297C19.1877 32.9372 19.2481 32.461 19.3689 32.101C19.4919 31.7386 19.6731 31.4595 19.9124 31.2635C20.1539 31.0676 20.4569 30.9696 20.8215 30.9696C21.0904 30.9696 21.3263 31.0243 21.5291 31.1337C21.7319 31.2408 21.8993 31.3969 22.0315 31.6019C22.1637 31.8047 22.2673 32.0531 22.3425 32.347C22.4177 32.6387 22.4553 33.0329 22.4553 33.5297C22.4553 34.1176 22.3949 34.5927 22.2742 34.955C22.1534 35.315 21.9722 35.5941 21.7307 35.7924C21.4915 35.9883 21.1884 36.0863 20.8215 36.0863C20.3385 36.0863 19.9591 35.9131 19.6833 35.5668C19.3529 35.1498 19.1877 34.4707 19.1877 33.5297ZM19.8201 33.5297C19.8201 34.3523 19.9158 34.9003 20.1072 35.1737C20.3009 35.4449 20.539 35.5804 20.8215 35.5804C21.1041 35.5804 21.3411 35.4437 21.5325 35.1703C21.7262 34.8969 21.823 34.35 21.823 33.5297C21.823 32.7048 21.7262 32.1568 21.5325 31.8856C21.3411 31.6145 21.1018 31.4789 20.8147 31.4789C20.5321 31.4789 20.3066 31.5985 20.1379 31.8378C19.926 32.1431 19.8201 32.7071 19.8201 33.5297ZM23.4294 36.0009V35.3002H24.1301V36.0009H23.4294ZM25.0325 33.5297C25.0325 32.9372 25.0929 32.461 25.2136 32.101C25.3367 31.7386 25.5178 31.4595 25.7571 31.2635C25.9986 31.0676 26.3017 30.9696 26.6663 30.9696C26.9351 30.9696 27.171 31.0243 27.3738 31.1337C27.5766 31.2408 27.7441 31.3969 27.8762 31.6019C28.0084 31.8047 28.1121 32.0531 28.1873 32.347C28.2625 32.6387 28.3 33.0329 28.3 33.5297C28.3 34.1176 28.2397 34.5927 28.1189 34.955C27.9981 35.315 27.817 35.5941 27.5754 35.7924C27.3362 35.9883 27.0331 36.0863 26.6663 36.0863C26.1832 36.0863 25.8038 35.9131 25.5281 35.5668C25.1977 35.1498 25.0325 34.4707 25.0325 33.5297ZM25.6648 33.5297C25.6648 34.3523 25.7605 34.9003 25.9519 35.1737C26.1456 35.4449 26.3837 35.5804 26.6663 35.5804C26.9488 35.5804 27.1858 35.4437 27.3772 35.1703C27.5709 34.8969 27.6677 34.35 27.6677 33.5297C27.6677 32.7048 27.5709 32.1568 27.3772 31.8856C27.1858 31.6145 26.9465 31.4789 26.6594 31.4789C26.3769 31.4789 26.1513 31.5985 25.9827 31.8378C25.7708 32.1431 25.6648 32.7071 25.6648 33.5297ZM28.929 33.5297C28.929 32.9372 28.9893 32.461 29.1101 32.101C29.2332 31.7386 29.4143 31.4595 29.6536 31.2635C29.8951 31.0676 30.1982 30.9696 30.5627 30.9696C30.8316 30.9696 31.0675 31.0243 31.2703 31.1337C31.4731 31.2408 31.6405 31.3969 31.7727 31.6019C31.9049 31.8047 32.0085 32.0531 32.0837 32.347C32.1589 32.6387 32.1965 33.0329 32.1965 33.5297C32.1965 34.1176 32.1361 34.5927 32.0154 34.955C31.8946 35.315 31.7135 35.5941 31.4719 35.7924C31.2327 35.9883 30.9296 36.0863 30.5627 36.0863C30.0797 36.0863 29.7003 35.9131 29.4246 35.5668C29.0942 35.1498 28.929 34.4707 28.929 33.5297ZM29.5613 33.5297C29.5613 34.3523 29.657 34.9003 29.8484 35.1737C30.0421 35.4449 30.2802 35.5804 30.5627 35.5804C30.8453 35.5804 31.0823 35.4437 31.2737 35.1703C31.4674 34.8969 31.5642 34.35 31.5642 33.5297C31.5642 32.7048 31.4674 32.1568 31.2737 31.8856C31.0823 31.6145 30.843 31.4789 30.5559 31.4789C30.2734 31.4789 30.0478 31.5985 29.8792 31.8378C29.6672 32.1431 29.5613 32.7071 29.5613 33.5297ZM32.8254 33.5297C32.8254 32.9372 32.8858 32.461 33.0066 32.101C33.1296 31.7386 33.3108 31.4595 33.55 31.2635C33.7916 31.0676 34.0946 30.9696 34.4592 30.9696C34.7281 30.9696 34.9639 31.0243 35.1667 31.1337C35.3695 31.2408 35.537 31.3969 35.6692 31.6019C35.8014 31.8047 35.905 32.0531 35.9802 32.347C36.0554 32.6387 36.093 33.0329 36.093 33.5297C36.093 34.1176 36.0326 34.5927 35.9119 34.955C35.7911 35.315 35.6099 35.5941 35.3684 35.7924C35.1292 35.9883 34.8261 36.0863 34.4592 36.0863C33.9762 36.0863 33.5968 35.9131 33.321 35.5668C32.9906 35.1498 32.8254 34.4707 32.8254 33.5297ZM33.4578 33.5297C33.4578 34.3523 33.5535 34.9003 33.7449 35.1737C33.9386 35.4449 34.1767 35.5804 34.4592 35.5804C34.7418 35.5804 34.9788 35.4437 35.1702 35.1703C35.3639 34.8969 35.4607 34.35 35.4607 33.5297C35.4607 32.7048 35.3639 32.1568 35.1702 31.8856C34.9788 31.6145 34.7395 31.4789 34.4524 31.4789C34.1698 31.4789 33.9443 31.5985 33.7756 31.8378C33.5637 32.1431 33.4578 32.7071 33.4578 33.5297Z" fill="url(#paint8_linear_3_3096)"/>
<path d="M18.5254 42.411V43.0023H15.2134C15.2088 42.8542 15.2327 42.7118 15.2852 42.5751C15.3695 42.3495 15.5039 42.1273 15.6885 41.9086C15.8753 41.6898 16.1442 41.4369 16.4951 41.1498C17.0397 40.7032 17.4077 40.35 17.5991 40.0902C17.7905 39.8282 17.8862 39.5809 17.8862 39.3485C17.8862 39.1047 17.7985 38.8996 17.623 38.7333C17.4499 38.5647 17.2231 38.4803 16.9429 38.4803C16.6466 38.4803 16.4097 38.5692 16.2319 38.7469C16.0542 38.9247 15.9642 39.1708 15.9619 39.4852L15.3296 39.4203C15.3729 38.9486 15.5358 38.5897 15.8184 38.3436C16.1009 38.0953 16.4803 37.9711 16.9565 37.9711C17.4373 37.9711 17.8179 38.1044 18.0981 38.371C18.3784 38.6376 18.5186 38.968 18.5186 39.3622C18.5186 39.5627 18.4775 39.7598 18.3955 39.9535C18.3135 40.1472 18.1768 40.3511 17.9854 40.5653C17.7962 40.7795 17.4806 41.0734 17.0386 41.4471C16.6694 41.757 16.4325 41.9678 16.3276 42.0795C16.2228 42.1888 16.1362 42.2994 16.0679 42.411H18.5254ZM19.1919 41.6796L19.8071 41.5975C19.8778 41.9462 19.9974 42.198 20.166 42.3529C20.3369 42.5056 20.5443 42.5819 20.7881 42.5819C21.0775 42.5819 21.3213 42.4816 21.5195 42.2811C21.7201 42.0806 21.8203 41.8322 21.8203 41.536C21.8203 41.2535 21.728 41.021 21.5435 40.8387C21.3589 40.6542 21.1242 40.5619 20.8394 40.5619C20.7231 40.5619 20.5785 40.5847 20.4053 40.6302L20.4736 40.0902C20.5146 40.0948 20.5477 40.097 20.5728 40.097C20.8348 40.097 21.0706 40.0287 21.2803 39.892C21.4899 39.7552 21.5947 39.5445 21.5947 39.2596C21.5947 39.0341 21.5184 38.8472 21.3657 38.6991C21.2131 38.551 21.016 38.4769 20.7744 38.4769C20.5352 38.4769 20.3358 38.5521 20.1763 38.7025C20.0168 38.8529 19.9142 39.0785 19.8687 39.3793L19.2534 39.2699C19.3286 38.8575 19.4995 38.5385 19.7661 38.3129C20.0327 38.085 20.3643 37.9711 20.7607 37.9711C21.0342 37.9711 21.286 38.0303 21.5161 38.1488C21.7463 38.265 21.9217 38.4245 22.0425 38.6273C22.1655 38.8301 22.2271 39.0455 22.2271 39.2733C22.2271 39.4898 22.1689 39.6869 22.0527 39.8646C21.9365 40.0424 21.7645 40.1836 21.5366 40.2885C21.8328 40.3568 22.063 40.4992 22.2271 40.7157C22.3911 40.9299 22.4731 41.1988 22.4731 41.5223C22.4731 41.9598 22.3136 42.3313 21.9946 42.6366C21.6756 42.9397 21.2723 43.0912 20.7847 43.0912C20.3449 43.0912 19.9792 42.9602 19.6875 42.6981C19.3981 42.4361 19.2329 42.0966 19.1919 41.6796ZM23.085 40.5311C23.085 39.9387 23.1453 39.4624 23.2661 39.1024C23.3892 38.7401 23.5703 38.461 23.8096 38.265C24.0511 38.0691 24.3542 37.9711 24.7188 37.9711C24.9876 37.9711 25.2235 38.0258 25.4263 38.1351C25.6291 38.2422 25.7965 38.3983 25.9287 38.6034C26.0609 38.8062 26.1646 39.0546 26.2397 39.3485C26.3149 39.6402 26.3525 40.0344 26.3525 40.5311C26.3525 41.119 26.2922 41.5941 26.1714 41.9564C26.0506 42.3164 25.8695 42.5956 25.6279 42.7938C25.3887 42.9898 25.0856 43.0878 24.7188 43.0878C24.2357 43.0878 23.8563 42.9146 23.5806 42.5682C23.2502 42.1512 23.085 41.4722 23.085 40.5311ZM23.7173 40.5311C23.7173 41.3537 23.813 41.9017 24.0044 42.1752C24.1981 42.4463 24.4362 42.5819 24.7188 42.5819C25.0013 42.5819 25.2383 42.4452 25.4297 42.1718C25.6234 41.8983 25.7202 41.3514 25.7202 40.5311C25.7202 39.7063 25.6234 39.1582 25.4297 38.8871C25.2383 38.6159 24.999 38.4803 24.7119 38.4803C24.4294 38.4803 24.2038 38.6 24.0352 38.8392C23.8232 39.1446 23.7173 39.7085 23.7173 40.5311ZM27.3267 43.0023V42.3016H28.0273V43.0023H27.3267ZM29.022 41.8436L29.6133 41.7889C29.6634 42.0669 29.7591 42.2686 29.9004 42.3939C30.0417 42.5192 30.2228 42.5819 30.4438 42.5819C30.633 42.5819 30.7982 42.5386 30.9395 42.452C31.083 42.3654 31.2004 42.2504 31.2915 42.1068C31.3826 41.961 31.459 41.765 31.5205 41.5189C31.582 41.2728 31.6128 41.0222 31.6128 40.767C31.6128 40.7396 31.6117 40.6986 31.6094 40.6439C31.4863 40.8399 31.3177 40.9994 31.1035 41.1224C30.8916 41.2432 30.6615 41.3036 30.4131 41.3036C29.9984 41.3036 29.6475 41.1532 29.3604 40.8524C29.0732 40.5516 28.9297 40.1552 28.9297 39.663C28.9297 39.1548 29.0789 38.7458 29.3774 38.4359C29.6782 38.126 30.0542 37.9711 30.5054 37.9711C30.8312 37.9711 31.1286 38.0588 31.3975 38.2343C31.6686 38.4097 31.8737 38.6604 32.0127 38.9862C32.154 39.3098 32.2246 39.7792 32.2246 40.3944C32.2246 41.0347 32.1551 41.5451 32.0161 41.9257C31.8771 42.3039 31.6698 42.5922 31.394 42.7904C31.1206 42.9886 30.7993 43.0878 30.4302 43.0878C30.0382 43.0878 29.7181 42.9795 29.4697 42.7631C29.2214 42.5443 29.0721 42.2378 29.022 41.8436ZM31.541 39.6322C31.541 39.279 31.4465 38.9987 31.2573 38.7914C31.0705 38.584 30.8449 38.4803 30.5806 38.4803C30.3071 38.4803 30.069 38.592 29.8662 38.8153C29.6634 39.0386 29.562 39.328 29.562 39.6835C29.562 40.0025 29.6577 40.2622 29.8491 40.4628C30.0428 40.661 30.2809 40.7601 30.5635 40.7601C30.8483 40.7601 31.0819 40.661 31.2642 40.4628C31.4487 40.2622 31.541 39.9854 31.541 39.6322Z" fill="url(#paint9_linear_3_3096)"/>
<path d="M54.2451 33.0858H48.5476V35.9353H54.2451V33.0858Z" stroke="url(#paint10_linear_3_3096)" stroke-width="0.75641" stroke-miterlimit="22.9256"/>
</g>
</g>
<defs>
<linearGradient id="paint0_linear_3_3096" x1="3.01076" y1="36.8636" x2="80.6821" y2="42.8035" gradientUnits="userSpaceOnUse">
<stop stop-color="#37A0E7"/>
<stop offset="1" stop-color="#C507D9"/>
</linearGradient>
<linearGradient id="paint1_linear_3_3096" x1="62.093" y1="36.5498" x2="73.2408" y2="36.9152" gradientUnits="userSpaceOnUse">
<stop stop-color="#37A0E7"/>
<stop offset="1" stop-color="#C507D9"/>
</linearGradient>
<linearGradient id="paint2_linear_3_3096" x1="46.7328" y1="36.8596" x2="74.5745" y2="38.1588" gradientUnits="userSpaceOnUse">
<stop stop-color="#37A0E7"/>
<stop offset="1" stop-color="#C507D9"/>
</linearGradient>
<linearGradient id="paint3_linear_3_3096" x1="12.5451" y1="35.6864" x2="40.3643" y2="37.206" gradientUnits="userSpaceOnUse">
<stop stop-color="#37A0E7"/>
<stop offset="1" stop-color="#C507D9"/>
</linearGradient>
<linearGradient id="paint4_linear_3_3096" x1="11.7174" y1="49.901" x2="17.2734" y2="50.2651" gradientUnits="userSpaceOnUse">
<stop stop-color="#37A0E7"/>
<stop offset="1" stop-color="#C507D9"/>
</linearGradient>
<linearGradient id="paint5_linear_3_3096" x1="23.1122" y1="49.901" x2="28.6682" y2="50.2651" gradientUnits="userSpaceOnUse">
<stop stop-color="#37A0E7"/>
<stop offset="1" stop-color="#C507D9"/>
</linearGradient>
<linearGradient id="paint6_linear_3_3096" x1="34.5086" y1="49.901" x2="40.0647" y2="50.2651" gradientUnits="userSpaceOnUse">
<stop stop-color="#37A0E7"/>
<stop offset="1" stop-color="#C507D9"/>
</linearGradient>
<linearGradient id="paint7_linear_3_3096" x1="3.17027" y1="49.901" x2="8.7263" y2="50.2651" gradientUnits="userSpaceOnUse">
<stop stop-color="#37A0E7"/>
<stop offset="1" stop-color="#C507D9"/>
</linearGradient>
<linearGradient id="paint8_linear_3_3096" x1="15.7996" y1="32.0117" x2="36.9066" y2="35.0555" gradientUnits="userSpaceOnUse">
<stop stop-color="#37A0E7"/>
<stop offset="1" stop-color="#C507D9"/>
</linearGradient>
<linearGradient id="paint9_linear_3_3096" x1="15.764" y1="39.4154" x2="36.0635" y2="41.7439" gradientUnits="userSpaceOnUse">
<stop stop-color="#37A0E7"/>
<stop offset="1" stop-color="#C507D9"/>
</linearGradient>
<linearGradient id="paint10_linear_3_3096" x1="48.7545" y1="34.2318" x2="54.3105" y2="34.5959" gradientUnits="userSpaceOnUse">
<stop stop-color="#37A0E7"/>
<stop offset="1" stop-color="#C507D9"/>
</linearGradient>
<clipPath id="clip0_3_3096">
<rect width="80" height="80" fill="white"/>
</clipPath>
<clipPath id="clip1_3_3096">
<rect width="80" height="34.416" fill="white" transform="translate(0 23)"/>
</clipPath>
</defs>
</svg>
