<svg width="80" height="80" viewBox="0 0 80 80" fill="none" xmlns="http://www.w3.org/2000/svg">
<g clip-path="url(#clip0_3_3113)">
<rect width="80" height="80" fill="white"/>
<g clip-path="url(#clip1_3_3113)">
<path d="M8.17188 27.2271C8.46566 41.9942 32.5226 44.1419 32.579 32.9135" stroke="url(#paint0_linear_3_3113)" stroke-width="0.758592" stroke-miterlimit="22.9256"/>
<path d="M35.4292 64.3067H12.6055V67.1599H35.4292V64.3067Z" stroke="url(#paint1_linear_3_3113)" stroke-width="0.758592" stroke-miterlimit="22.9256"/>
<path d="M1.17285 65.7325H46.8999" stroke="url(#paint2_linear_3_3113)" stroke-width="0.758592" stroke-miterlimit="22.9256"/>
<path d="M12.6353 64.3067C1.61263 64.3067 1.31055 61.4536 1.31055 61.4536" stroke="url(#paint3_linear_3_3113)" stroke-width="0.758592" stroke-miterlimit="22.9256"/>
<path d="M12.6056 67.1599C1.19287 67.1599 1.19287 69.9218 1.19287 69.9218" stroke="url(#paint4_linear_3_3113)" stroke-width="0.758592" stroke-miterlimit="22.9256"/>
<path d="M35.3994 64.3067C46.4221 64.3067 46.7241 61.4536 46.7241 61.4536" stroke="url(#paint5_linear_3_3113)" stroke-width="0.758592" stroke-miterlimit="22.9256"/>
<path d="M35.4292 67.1599C46.8419 67.1599 46.8419 69.9218 46.8419 69.9218" stroke="url(#paint6_linear_3_3113)" stroke-width="0.758592" stroke-miterlimit="22.9256"/>
<path d="M35.3496 74.3832H12.5259V77.2364H35.3496V74.3832Z" stroke="url(#paint7_linear_3_3113)" stroke-width="0.758592" stroke-miterlimit="22.9256"/>
<path d="M1.09473 75.8107H46.8218" stroke="url(#paint8_linear_3_3113)" stroke-width="0.758592" stroke-miterlimit="22.9256"/>
<path d="M12.5571 74.3833C1.5345 74.3833 1.23242 71.5301 1.23242 71.5301" stroke="url(#paint9_linear_3_3113)" stroke-width="0.758592" stroke-miterlimit="22.9256"/>
<path d="M12.5255 77.2365C1.11279 77.2365 1.11279 79.9983 1.11279 79.9983" stroke="url(#paint10_linear_3_3113)" stroke-width="0.758592" stroke-miterlimit="22.9256"/>
<path d="M35.3193 74.3833C46.342 74.3833 46.6441 71.5301 46.6441 71.5301" stroke="url(#paint11_linear_3_3113)" stroke-width="0.758592" stroke-miterlimit="22.9256"/>
<path d="M35.3511 77.2365C46.7638 77.2365 46.7638 79.9983 46.7638 79.9983" stroke="url(#paint12_linear_3_3113)" stroke-width="0.758592" stroke-miterlimit="22.9256"/>
<path d="M61.1061 55.7472H58.2529V61.4535H61.1061V55.7472Z" stroke="url(#paint13_linear_3_3113)" stroke-width="0.758592" stroke-miterlimit="22.9256"/>
<path fill-rule="evenodd" clip-rule="evenodd" d="M58.2529 50.0425L63.9593 55.7472H58.2529V50.0425Z" stroke="url(#paint14_linear_3_3113)" stroke-width="0.758592" stroke-miterlimit="22.9256"/>
<path d="M63.9228 55.7273L67.9577 59.7622L65.9394 61.7805L61.0796 56.919" stroke="url(#paint15_linear_3_3113)" stroke-width="0.758592" stroke-miterlimit="22.9256"/>
<path d="M35.3691 52.894H12.5454V55.7472H35.3691V52.894Z" stroke="url(#paint16_linear_3_3113)" stroke-width="0.758592" stroke-miterlimit="22.9256"/>
<path d="M1.11279 54.3214H46.8399" stroke="url(#paint17_linear_3_3113)" stroke-width="0.758592" stroke-miterlimit="22.9256"/>
<path d="M12.5752 52.894C1.55257 52.894 1.25049 50.0408 1.25049 50.0408" stroke="url(#paint18_linear_3_3113)" stroke-width="0.758592" stroke-miterlimit="22.9256"/>
<path d="M12.5455 55.7472C1.13281 55.7472 1.13281 58.5091 1.13281 58.5091" stroke="url(#paint19_linear_3_3113)" stroke-width="0.758592" stroke-miterlimit="22.9256"/>
<path d="M35.3394 52.894C46.362 52.894 46.6641 50.0408 46.6641 50.0408" stroke="url(#paint20_linear_3_3113)" stroke-width="0.758592" stroke-miterlimit="22.9256"/>
<path d="M35.3691 55.7472C46.7818 55.7472 46.7818 58.5091 46.7818 58.5091" stroke="url(#paint21_linear_3_3113)" stroke-width="0.758592" stroke-miterlimit="22.9256"/>
<path d="M61.1061 72.8662H58.2529V78.5726H61.1061V72.8662Z" stroke="url(#paint22_linear_3_3113)" stroke-width="0.758592" stroke-miterlimit="22.9256"/>
<path fill-rule="evenodd" clip-rule="evenodd" d="M58.2529 67.1599L63.9593 72.8662H58.2529V67.1599Z" stroke="url(#paint23_linear_3_3113)" stroke-width="0.758592" stroke-miterlimit="22.9256"/>
<path d="M63.9228 72.8463L67.9577 76.8813L65.9394 78.8979L61.0796 74.038" stroke="url(#paint24_linear_3_3113)" stroke-width="0.758592" stroke-miterlimit="22.9256"/>
<path fill-rule="evenodd" clip-rule="evenodd" d="M46.8398 38.7593C50.6441 38.7593 58.2525 39.468 58.2525 35.6638V21.6403H46.8398V38.7576V38.7593Z" stroke="url(#paint25_linear_3_3113)" stroke-width="0.758592" stroke-miterlimit="22.9256"/>
<path fill-rule="evenodd" clip-rule="evenodd" d="M49.4757 12.865C52.2841 15.6734 55.3264 18.7158 58.2526 21.642H46.84C46.84 17.8377 46.6673 10.0566 49.4757 12.865Z" stroke="url(#paint26_linear_3_3113)" stroke-width="0.758592" stroke-miterlimit="22.9256"/>
<path d="M47.9556 12.4451L52.5465 21.6419" stroke="url(#paint27_linear_3_3113)" stroke-width="0.758592" stroke-miterlimit="22.9256"/>
<path d="M72.5187 56.0742H69.6655V61.7805H72.5187V56.0742Z" stroke="url(#paint28_linear_3_3113)" stroke-width="0.758592" stroke-miterlimit="22.9256"/>
<path fill-rule="evenodd" clip-rule="evenodd" d="M69.6655 50.3678L75.3702 56.0741H69.6655V50.3678Z" stroke="url(#paint29_linear_3_3113)" stroke-width="0.758592" stroke-miterlimit="22.9256"/>
<path d="M75.3334 56.0543L79.3684 60.0892L77.3517 62.1058L72.4902 57.246" stroke="url(#paint30_linear_3_3113)" stroke-width="0.758592" stroke-miterlimit="22.9256"/>
<path d="M72.5187 73.1915H69.6655V78.8979H72.5187V73.1915Z" stroke="url(#paint31_linear_3_3113)" stroke-width="0.758592" stroke-miterlimit="22.9256"/>
<path fill-rule="evenodd" clip-rule="evenodd" d="M69.6655 67.4869L75.3702 73.1916H69.6655V67.4869Z" stroke="url(#paint32_linear_3_3113)" stroke-width="0.758592" stroke-miterlimit="22.9256"/>
<path d="M75.3334 73.1716L79.3684 77.2066L77.3517 79.2249L72.4902 74.3634" stroke="url(#paint33_linear_3_3113)" stroke-width="0.758592" stroke-miterlimit="22.9256"/>
<path fill-rule="evenodd" clip-rule="evenodd" d="M37.7711 19.4875C40.2956 22.5216 40.2989 22.5382 37.7711 25.1939C35.22 22.3407 35.2217 22.4635 37.7711 19.4875Z" stroke="url(#paint34_linear_3_3113)" stroke-width="0.758592" stroke-miterlimit="22.9256"/>
<path d="M34.918 30.9002L37.7711 25.1938" stroke="url(#paint35_linear_3_3113)" stroke-width="0.758592" stroke-miterlimit="22.9256"/>
<path d="M37.771 25.1938L40.6242 30.9002" stroke="url(#paint36_linear_3_3113)" stroke-width="0.758592" stroke-miterlimit="22.9256"/>
<path d="M24.0163 44.3345C33.47 44.3345 41.1337 36.6708 41.1337 27.2171C41.1337 17.7634 33.47 10.0997 24.0163 10.0997C14.5626 10.0997 6.89893 17.7634 6.89893 27.2171C6.89893 36.6708 14.5626 44.3345 24.0163 44.3345Z" stroke="url(#paint37_linear_3_3113)" stroke-width="0.758592" stroke-miterlimit="22.9256"/>
<path d="M39.4027 23.3548C39.7114 24.5914 39.8757 25.8844 39.8757 27.2172C39.8757 35.9758 32.7752 43.0764 24.0165 43.0764C15.2578 43.0764 8.15723 35.9758 8.15723 27.2172C8.15723 18.4585 15.2578 11.3579 24.0165 11.3579C30.0996 11.3579 35.3827 14.7837 38.0433 19.8095" stroke="url(#paint38_linear_3_3113)" stroke-width="0.758592" stroke-miterlimit="22.9256"/>
<path fill-rule="evenodd" clip-rule="evenodd" d="M29.7228 21.5125C32.2473 24.5465 32.2506 24.5631 29.7228 27.2188C27.1717 24.3656 27.1733 24.4884 29.7228 21.5125Z" stroke="url(#paint39_linear_3_3113)" stroke-width="0.758592" stroke-miterlimit="22.9256"/>
<path d="M26.8696 32.9235L29.7228 27.2172" stroke="url(#paint40_linear_3_3113)" stroke-width="0.758592" stroke-miterlimit="22.9256"/>
<path d="M29.7227 27.2172L32.5758 32.9235" stroke="url(#paint41_linear_3_3113)" stroke-width="0.758592" stroke-miterlimit="22.9256"/>
<path d="M52.5465 38.6299C52.1216 42.225 42.2624 39.7585 41.1338 44.3362" stroke="url(#paint42_linear_3_3113)" stroke-width="0.758592" stroke-miterlimit="22.9256"/>
<path d="M49.6933 47.1894C54.4206 47.1894 58.2528 45.912 58.2528 44.3362C58.2528 42.7604 54.4206 41.483 49.6933 41.483C44.966 41.483 41.1338 42.7604 41.1338 44.3362C41.1338 45.912 44.966 47.1894 49.6933 47.1894Z" stroke="url(#paint43_linear_3_3113)" stroke-width="0.758592" stroke-miterlimit="22.9256"/>
<path d="M49.6933 46.5968C53.4379 46.5968 56.4735 45.5847 56.4735 44.3362C56.4735 43.0877 53.4379 42.0756 49.6933 42.0756C45.9487 42.0756 42.9131 43.0877 42.9131 44.3362C42.9131 45.5847 45.9487 46.5968 49.6933 46.5968Z" stroke="url(#paint44_linear_3_3113)" stroke-width="0.758592" stroke-miterlimit="22.9256"/>
<path d="M49.6938 42.909L49.6938 45.7622L55.4002 45.7622L55.4002 42.909L49.6938 42.909Z" stroke="url(#paint45_linear_3_3113)" stroke-width="0.536406" stroke-miterlimit="22.9256"/>
<path d="M55.3994 44.3362C57.2003 41.8863 58.0617 43.7337 58.2526 44.3362" stroke="url(#paint46_linear_3_3113)" stroke-width="0.758592" stroke-miterlimit="22.9256"/>
<path d="M41.1353 1.54028H6.89893V4.39345H41.1353V1.54028Z" stroke="url(#paint47_linear_3_3113)" stroke-width="0.758592" stroke-miterlimit="22.9256"/>
<path d="M58.2526 0.114502H41.1353V5.82084H58.2526V0.114502Z" stroke="url(#paint48_linear_3_3113)" stroke-width="0.758592" stroke-miterlimit="22.9256"/>
<path d="M6.89921 0.114502H1.19287V5.82084H6.89921V0.114502Z" stroke="url(#paint49_linear_3_3113)" stroke-width="0.758592" stroke-miterlimit="22.9256"/>
<path d="M58.2527 2.96765C75.3701 15.8061 12.4509 4.39341 6.89893 10.0997" stroke="url(#paint50_linear_3_3113)" stroke-width="0.758592" stroke-miterlimit="22.9256"/>
<path d="M52.5462 1.54028H46.8398V4.39345H52.5462V1.54028Z" stroke="url(#paint51_linear_3_3113)" stroke-width="0.758592" stroke-miterlimit="22.9256"/>
<path d="M66.8122 21.5125H63.959V38.6298H66.8122V21.5125Z" stroke="url(#paint52_linear_3_3113)" stroke-width="0.758592" stroke-miterlimit="22.9256"/>
<path fill-rule="evenodd" clip-rule="evenodd" d="M65.3847 15.8062L66.8122 21.5125H63.959L65.3847 15.8062Z" stroke="url(#paint53_linear_3_3113)" stroke-width="0.758592" stroke-miterlimit="22.9256"/>
<path d="M72.5187 21.5125H69.6655V38.6298H72.5187V21.5125Z" stroke="url(#paint54_linear_3_3113)" stroke-width="0.758592" stroke-miterlimit="22.9256"/>
<path fill-rule="evenodd" clip-rule="evenodd" d="M71.0913 15.8062L72.5187 21.5125H69.6655L71.0913 15.8062Z" stroke="url(#paint55_linear_3_3113)" stroke-width="0.758592" stroke-miterlimit="22.9256"/>
<path d="M78.2233 21.5125H75.3701V38.6298H78.2233V21.5125Z" stroke="url(#paint56_linear_3_3113)" stroke-width="0.758592" stroke-miterlimit="22.9256"/>
<path fill-rule="evenodd" clip-rule="evenodd" d="M76.7975 15.8062L78.2233 21.5125H75.3701L76.7975 15.8062Z" stroke="url(#paint57_linear_3_3113)" stroke-width="0.758592" stroke-miterlimit="22.9256"/>
</g>
</g>
<defs>
<linearGradient id="paint0_linear_3_3113" x1="9.05817" y1="32.3799" x2="32.8688" y2="33.8665" gradientUnits="userSpaceOnUse">
<stop stop-color="#37A0E7"/>
<stop offset="1" stop-color="#C507D9"/>
</linearGradient>
<linearGradient id="paint1_linear_3_3113" x1="13.4343" y1="65.4542" x2="34.3493" y2="70.9376" gradientUnits="userSpaceOnUse">
<stop stop-color="#37A0E7"/>
<stop offset="1" stop-color="#C507D9"/>
</linearGradient>
<linearGradient id="paint2_linear_3_3113" x1="2.83333" y1="66.1347" x2="16.6295" y2="86.8108" gradientUnits="userSpaceOnUse">
<stop stop-color="#37A0E7"/>
<stop offset="1" stop-color="#C507D9"/>
</linearGradient>
<linearGradient id="paint3_linear_3_3113" x1="1.72178" y1="62.601" x2="12.6282" y2="64.0198" gradientUnits="userSpaceOnUse">
<stop stop-color="#37A0E7"/>
<stop offset="1" stop-color="#C507D9"/>
</linearGradient>
<linearGradient id="paint4_linear_3_3113" x1="1.6073" y1="68.2707" x2="12.5831" y2="69.7571" gradientUnits="userSpaceOnUse">
<stop stop-color="#37A0E7"/>
<stop offset="1" stop-color="#C507D9"/>
</linearGradient>
<linearGradient id="paint5_linear_3_3113" x1="35.8106" y1="62.601" x2="46.7171" y2="64.0198" gradientUnits="userSpaceOnUse">
<stop stop-color="#37A0E7"/>
<stop offset="1" stop-color="#C507D9"/>
</linearGradient>
<linearGradient id="paint6_linear_3_3113" x1="35.8436" y1="68.2707" x2="46.8195" y2="69.7571" gradientUnits="userSpaceOnUse">
<stop stop-color="#37A0E7"/>
<stop offset="1" stop-color="#C507D9"/>
</linearGradient>
<linearGradient id="paint7_linear_3_3113" x1="13.3547" y1="75.5307" x2="34.2697" y2="81.0142" gradientUnits="userSpaceOnUse">
<stop stop-color="#37A0E7"/>
<stop offset="1" stop-color="#C507D9"/>
</linearGradient>
<linearGradient id="paint8_linear_3_3113" x1="2.75521" y1="76.2128" x2="16.5514" y2="96.889" gradientUnits="userSpaceOnUse">
<stop stop-color="#37A0E7"/>
<stop offset="1" stop-color="#C507D9"/>
</linearGradient>
<linearGradient id="paint9_linear_3_3113" x1="1.64365" y1="72.6776" x2="12.5501" y2="74.0964" gradientUnits="userSpaceOnUse">
<stop stop-color="#37A0E7"/>
<stop offset="1" stop-color="#C507D9"/>
</linearGradient>
<linearGradient id="paint10_linear_3_3113" x1="1.52722" y1="78.3472" x2="12.5031" y2="79.8337" gradientUnits="userSpaceOnUse">
<stop stop-color="#37A0E7"/>
<stop offset="1" stop-color="#C507D9"/>
</linearGradient>
<linearGradient id="paint11_linear_3_3113" x1="35.7306" y1="72.6776" x2="46.637" y2="74.0964" gradientUnits="userSpaceOnUse">
<stop stop-color="#37A0E7"/>
<stop offset="1" stop-color="#C507D9"/>
</linearGradient>
<linearGradient id="paint12_linear_3_3113" x1="35.7655" y1="78.3472" x2="46.7413" y2="79.8337" gradientUnits="userSpaceOnUse">
<stop stop-color="#37A0E7"/>
<stop offset="1" stop-color="#C507D9"/>
</linearGradient>
<linearGradient id="paint13_linear_3_3113" x1="58.3565" y1="58.0421" x2="61.1501" y2="58.0879" gradientUnits="userSpaceOnUse">
<stop stop-color="#37A0E7"/>
<stop offset="1" stop-color="#C507D9"/>
</linearGradient>
<linearGradient id="paint14_linear_3_3113" x1="58.4601" y1="52.3368" x2="64.0427" y2="52.5198" gradientUnits="userSpaceOnUse">
<stop stop-color="#37A0E7"/>
<stop offset="1" stop-color="#C507D9"/>
</linearGradient>
<linearGradient id="paint15_linear_3_3113" x1="61.3294" y1="58.1618" x2="68.0562" y2="58.4123" gradientUnits="userSpaceOnUse">
<stop stop-color="#37A0E7"/>
<stop offset="1" stop-color="#C507D9"/>
</linearGradient>
<linearGradient id="paint16_linear_3_3113" x1="13.3742" y1="54.0415" x2="34.2892" y2="59.5249" gradientUnits="userSpaceOnUse">
<stop stop-color="#37A0E7"/>
<stop offset="1" stop-color="#C507D9"/>
</linearGradient>
<linearGradient id="paint17_linear_3_3113" x1="2.77327" y1="54.7236" x2="16.5694" y2="75.3998" gradientUnits="userSpaceOnUse">
<stop stop-color="#37A0E7"/>
<stop offset="1" stop-color="#C507D9"/>
</linearGradient>
<linearGradient id="paint18_linear_3_3113" x1="1.66172" y1="51.1883" x2="12.5681" y2="52.6071" gradientUnits="userSpaceOnUse">
<stop stop-color="#37A0E7"/>
<stop offset="1" stop-color="#C507D9"/>
</linearGradient>
<linearGradient id="paint19_linear_3_3113" x1="1.54724" y1="56.858" x2="12.5231" y2="58.3444" gradientUnits="userSpaceOnUse">
<stop stop-color="#37A0E7"/>
<stop offset="1" stop-color="#C507D9"/>
</linearGradient>
<linearGradient id="paint20_linear_3_3113" x1="35.7506" y1="51.1883" x2="46.657" y2="52.6071" gradientUnits="userSpaceOnUse">
<stop stop-color="#37A0E7"/>
<stop offset="1" stop-color="#C507D9"/>
</linearGradient>
<linearGradient id="paint21_linear_3_3113" x1="35.7836" y1="56.858" x2="46.7594" y2="58.3444" gradientUnits="userSpaceOnUse">
<stop stop-color="#37A0E7"/>
<stop offset="1" stop-color="#C507D9"/>
</linearGradient>
<linearGradient id="paint22_linear_3_3113" x1="58.3565" y1="75.1612" x2="61.1501" y2="75.2069" gradientUnits="userSpaceOnUse">
<stop stop-color="#37A0E7"/>
<stop offset="1" stop-color="#C507D9"/>
</linearGradient>
<linearGradient id="paint23_linear_3_3113" x1="58.4601" y1="69.4548" x2="64.0427" y2="69.6378" gradientUnits="userSpaceOnUse">
<stop stop-color="#37A0E7"/>
<stop offset="1" stop-color="#C507D9"/>
</linearGradient>
<linearGradient id="paint24_linear_3_3113" x1="61.3294" y1="75.2801" x2="68.0562" y2="75.5307" gradientUnits="userSpaceOnUse">
<stop stop-color="#37A0E7"/>
<stop offset="1" stop-color="#C507D9"/>
</linearGradient>
<linearGradient id="paint25_linear_3_3113" x1="47.2543" y1="28.5461" x2="58.4261" y2="28.7895" gradientUnits="userSpaceOnUse">
<stop stop-color="#37A0E7"/>
<stop offset="1" stop-color="#C507D9"/>
</linearGradient>
<linearGradient id="paint26_linear_3_3113" x1="47.2524" y1="16.0372" x2="58.4138" y2="16.4826" gradientUnits="userSpaceOnUse">
<stop stop-color="#37A0E7"/>
<stop offset="1" stop-color="#C507D9"/>
</linearGradient>
<linearGradient id="paint27_linear_3_3113" x1="48.1223" y1="16.1438" x2="52.6173" y2="16.2174" gradientUnits="userSpaceOnUse">
<stop stop-color="#37A0E7"/>
<stop offset="1" stop-color="#C507D9"/>
</linearGradient>
<linearGradient id="paint28_linear_3_3113" x1="69.7691" y1="58.3691" x2="72.5627" y2="58.4149" gradientUnits="userSpaceOnUse">
<stop stop-color="#37A0E7"/>
<stop offset="1" stop-color="#C507D9"/>
</linearGradient>
<linearGradient id="paint29_linear_3_3113" x1="69.8727" y1="52.6627" x2="75.4536" y2="52.8456" gradientUnits="userSpaceOnUse">
<stop stop-color="#37A0E7"/>
<stop offset="1" stop-color="#C507D9"/>
</linearGradient>
<linearGradient id="paint30_linear_3_3113" x1="72.74" y1="58.488" x2="79.4669" y2="58.7386" gradientUnits="userSpaceOnUse">
<stop stop-color="#37A0E7"/>
<stop offset="1" stop-color="#C507D9"/>
</linearGradient>
<linearGradient id="paint31_linear_3_3113" x1="69.7691" y1="75.4865" x2="72.5627" y2="75.5323" gradientUnits="userSpaceOnUse">
<stop stop-color="#37A0E7"/>
<stop offset="1" stop-color="#C507D9"/>
</linearGradient>
<linearGradient id="paint32_linear_3_3113" x1="69.8727" y1="69.7812" x2="75.4536" y2="69.9641" gradientUnits="userSpaceOnUse">
<stop stop-color="#37A0E7"/>
<stop offset="1" stop-color="#C507D9"/>
</linearGradient>
<linearGradient id="paint33_linear_3_3113" x1="72.74" y1="75.6061" x2="79.4669" y2="75.8566" gradientUnits="userSpaceOnUse">
<stop stop-color="#37A0E7"/>
<stop offset="1" stop-color="#C507D9"/>
</linearGradient>
<linearGradient id="paint34_linear_3_3113" x1="35.9967" y1="21.7825" x2="39.7236" y2="21.864" gradientUnits="userSpaceOnUse">
<stop stop-color="#37A0E7"/>
<stop offset="1" stop-color="#C507D9"/>
</linearGradient>
<linearGradient id="paint35_linear_3_3113" x1="35.0216" y1="27.4888" x2="37.8151" y2="27.5346" gradientUnits="userSpaceOnUse">
<stop stop-color="#37A0E7"/>
<stop offset="1" stop-color="#C507D9"/>
</linearGradient>
<linearGradient id="paint36_linear_3_3113" x1="37.8746" y1="27.4888" x2="40.6681" y2="27.5346" gradientUnits="userSpaceOnUse">
<stop stop-color="#37A0E7"/>
<stop offset="1" stop-color="#C507D9"/>
</linearGradient>
<linearGradient id="paint37_linear_3_3113" x1="8.14209" y1="23.8681" x2="41.6343" y2="24.9658" gradientUnits="userSpaceOnUse">
<stop stop-color="#37A0E7"/>
<stop offset="1" stop-color="#C507D9"/>
</linearGradient>
<linearGradient id="paint38_linear_3_3113" x1="9.30902" y1="24.1143" x2="40.3396" y2="25.1313" gradientUnits="userSpaceOnUse">
<stop stop-color="#37A0E7"/>
<stop offset="1" stop-color="#C507D9"/>
</linearGradient>
<linearGradient id="paint39_linear_3_3113" x1="27.9483" y1="23.8074" x2="31.6753" y2="23.8889" gradientUnits="userSpaceOnUse">
<stop stop-color="#37A0E7"/>
<stop offset="1" stop-color="#C507D9"/>
</linearGradient>
<linearGradient id="paint40_linear_3_3113" x1="26.9732" y1="29.5121" x2="29.7668" y2="29.5579" gradientUnits="userSpaceOnUse">
<stop stop-color="#37A0E7"/>
<stop offset="1" stop-color="#C507D9"/>
</linearGradient>
<linearGradient id="paint41_linear_3_3113" x1="29.8263" y1="29.5121" x2="32.6198" y2="29.5579" gradientUnits="userSpaceOnUse">
<stop stop-color="#37A0E7"/>
<stop offset="1" stop-color="#C507D9"/>
</linearGradient>
<linearGradient id="paint42_linear_3_3113" x1="41.5482" y1="40.9248" x2="52.6775" y2="41.6543" gradientUnits="userSpaceOnUse">
<stop stop-color="#37A0E7"/>
<stop offset="1" stop-color="#C507D9"/>
</linearGradient>
<linearGradient id="paint43_linear_3_3113" x1="41.7554" y1="43.778" x2="58.3606" y2="45.4107" gradientUnits="userSpaceOnUse">
<stop stop-color="#37A0E7"/>
<stop offset="1" stop-color="#C507D9"/>
</linearGradient>
<linearGradient id="paint44_linear_3_3113" x1="43.4055" y1="43.8939" x2="56.559" y2="45.1869" gradientUnits="userSpaceOnUse">
<stop stop-color="#37A0E7"/>
<stop offset="1" stop-color="#C507D9"/>
</linearGradient>
<linearGradient id="paint45_linear_3_3113" x1="51.9888" y1="45.6586" x2="52.0346" y2="42.8651" gradientUnits="userSpaceOnUse">
<stop stop-color="#37A0E7"/>
<stop offset="1" stop-color="#C507D9"/>
</linearGradient>
<linearGradient id="paint46_linear_3_3113" x1="55.503" y1="43.5976" x2="58.2814" y2="43.8079" gradientUnits="userSpaceOnUse">
<stop stop-color="#37A0E7"/>
<stop offset="1" stop-color="#C507D9"/>
</linearGradient>
<linearGradient id="paint47_linear_3_3113" x1="8.14215" y1="2.68775" x2="37.1807" y2="14.1079" gradientUnits="userSpaceOnUse">
<stop stop-color="#37A0E7"/>
<stop offset="1" stop-color="#C507D9"/>
</linearGradient>
<linearGradient id="paint48_linear_3_3113" x1="41.7568" y1="2.40945" x2="58.3604" y2="4.04182" gradientUnits="userSpaceOnUse">
<stop stop-color="#37A0E7"/>
<stop offset="1" stop-color="#C507D9"/>
</linearGradient>
<linearGradient id="paint49_linear_3_3113" x1="1.40008" y1="2.40945" x2="6.98266" y2="2.59241" gradientUnits="userSpaceOnUse">
<stop stop-color="#37A0E7"/>
<stop offset="1" stop-color="#C507D9"/>
</linearGradient>
<linearGradient id="paint50_linear_3_3113" x1="8.87057" y1="5.836" x2="58.9296" y2="18.3263" gradientUnits="userSpaceOnUse">
<stop stop-color="#37A0E7"/>
<stop offset="1" stop-color="#C507D9"/>
</linearGradient>
<linearGradient id="paint51_linear_3_3113" x1="47.0471" y1="2.68775" x2="52.6117" y2="3.05252" gradientUnits="userSpaceOnUse">
<stop stop-color="#37A0E7"/>
<stop offset="1" stop-color="#C507D9"/>
</linearGradient>
<linearGradient id="paint52_linear_3_3113" x1="64.0626" y1="28.3966" x2="66.8568" y2="28.4119" gradientUnits="userSpaceOnUse">
<stop stop-color="#37A0E7"/>
<stop offset="1" stop-color="#C507D9"/>
</linearGradient>
<linearGradient id="paint53_linear_3_3113" x1="64.0626" y1="18.1011" x2="66.8561" y2="18.1469" gradientUnits="userSpaceOnUse">
<stop stop-color="#37A0E7"/>
<stop offset="1" stop-color="#C507D9"/>
</linearGradient>
<linearGradient id="paint54_linear_3_3113" x1="69.7691" y1="28.3966" x2="72.5633" y2="28.4119" gradientUnits="userSpaceOnUse">
<stop stop-color="#37A0E7"/>
<stop offset="1" stop-color="#C507D9"/>
</linearGradient>
<linearGradient id="paint55_linear_3_3113" x1="69.7691" y1="18.1011" x2="72.5627" y2="18.1469" gradientUnits="userSpaceOnUse">
<stop stop-color="#37A0E7"/>
<stop offset="1" stop-color="#C507D9"/>
</linearGradient>
<linearGradient id="paint56_linear_3_3113" x1="75.4737" y1="28.3966" x2="78.2679" y2="28.4119" gradientUnits="userSpaceOnUse">
<stop stop-color="#37A0E7"/>
<stop offset="1" stop-color="#C507D9"/>
</linearGradient>
<linearGradient id="paint57_linear_3_3113" x1="75.4737" y1="18.1011" x2="78.2673" y2="18.1469" gradientUnits="userSpaceOnUse">
<stop stop-color="#37A0E7"/>
<stop offset="1" stop-color="#C507D9"/>
</linearGradient>
<clipPath id="clip0_3_3113">
<rect width="80" height="80" fill="white"/>
</clipPath>
<clipPath id="clip1_3_3113">
<rect width="78.5297" height="80" fill="white" transform="translate(1)"/>
</clipPath>
</defs>
</svg>
