<svg width="80" height="38" viewBox="0 0 80 38" fill="none" xmlns="http://www.w3.org/2000/svg">
<g clip-path="url(#clip0_3_2586)">
<path fill-rule="evenodd" clip-rule="evenodd" d="M32.0217 16.0637V37.3394H0.107422L0.200366 0.105835H24.0428L32.0217 8.08477V13.4041H29.3621V16.0637H32.0217Z" stroke="url(#paint0_linear_3_2586)" stroke-width="0.756945" stroke-miterlimit="22.9256"/>
<path d="M26.701 10.7444H5.42529V32.0201H26.701V10.7444Z" stroke="url(#paint1_linear_3_2586)" stroke-width="0.756945" stroke-miterlimit="22.9256"/>
<path d="M79.8937 5.42517H37.3408V37.3395H79.8937V5.42517Z" stroke="url(#paint2_linear_3_2586)" stroke-width="0.756945" stroke-miterlimit="22.9256"/>
<path d="M42.6587 13.404C44.1275 13.404 45.3183 12.2132 45.3183 10.7444C45.3183 9.27548 44.1275 8.08472 42.6587 8.08472C41.1898 8.08472 39.999 9.27548 39.999 10.7444C39.999 12.2132 41.1898 13.404 42.6587 13.404Z" stroke="url(#paint3_linear_3_2586)" stroke-width="0.756945" stroke-miterlimit="22.9256"/>
<path d="M50.6377 13.404C52.1066 13.404 53.2973 12.2132 53.2973 10.7444C53.2973 9.27548 52.1066 8.08472 50.6377 8.08472C49.1688 8.08472 47.978 9.27548 47.978 10.7444C47.978 12.2132 49.1688 13.404 50.6377 13.404Z" stroke="url(#paint4_linear_3_2586)" stroke-width="0.756945" stroke-miterlimit="22.9256"/>
<path d="M58.6167 13.404C60.0856 13.404 61.2763 12.2132 61.2763 10.7444C61.2763 9.27548 60.0856 8.08472 58.6167 8.08472C57.1478 8.08472 55.957 9.27548 55.957 10.7444C55.957 12.2132 57.1478 13.404 58.6167 13.404Z" stroke="url(#paint5_linear_3_2586)" stroke-width="0.756945" stroke-miterlimit="22.9256"/>
<path d="M66.5957 13.404C68.0646 13.404 69.2553 12.2132 69.2553 10.7444C69.2553 9.27548 68.0646 8.08472 66.5957 8.08472C65.1268 8.08472 63.936 9.27548 63.936 10.7444C63.936 12.2132 65.1268 13.404 66.5957 13.404Z" stroke="url(#paint6_linear_3_2586)" stroke-width="0.756945" stroke-miterlimit="22.9256"/>
<path d="M74.5732 13.404C76.0421 13.404 77.2329 12.2132 77.2329 10.7444C77.2329 9.27548 76.0421 8.08472 74.5732 8.08472C73.1043 8.08472 71.9136 9.27548 71.9136 10.7444C71.9136 12.2132 73.1043 13.404 74.5732 13.404Z" stroke="url(#paint7_linear_3_2586)" stroke-width="0.756945" stroke-miterlimit="22.9256"/>
<path d="M42.6587 34.6798C44.1275 34.6798 45.3183 33.489 45.3183 32.0201C45.3183 30.5512 44.1275 29.3605 42.6587 29.3605C41.1898 29.3605 39.999 30.5512 39.999 32.0201C39.999 33.489 41.1898 34.6798 42.6587 34.6798Z" stroke="url(#paint8_linear_3_2586)" stroke-width="0.756945" stroke-miterlimit="22.9256"/>
<path d="M50.6377 34.6798C52.1066 34.6798 53.2973 33.489 53.2973 32.0201C53.2973 30.5512 52.1066 29.3605 50.6377 29.3605C49.1688 29.3605 47.978 30.5512 47.978 32.0201C47.978 33.489 49.1688 34.6798 50.6377 34.6798Z" stroke="url(#paint9_linear_3_2586)" stroke-width="0.756945" stroke-miterlimit="22.9256"/>
<path d="M58.6167 34.6798C60.0856 34.6798 61.2763 33.489 61.2763 32.0201C61.2763 30.5512 60.0856 29.3605 58.6167 29.3605C57.1478 29.3605 55.957 30.5512 55.957 32.0201C55.957 33.489 57.1478 34.6798 58.6167 34.6798Z" stroke="url(#paint10_linear_3_2586)" stroke-width="0.756945" stroke-miterlimit="22.9256"/>
<path d="M66.5957 34.6798C68.0646 34.6798 69.2553 33.489 69.2553 32.0201C69.2553 30.5512 68.0646 29.3605 66.5957 29.3605C65.1268 29.3605 63.936 30.5512 63.936 32.0201C63.936 33.489 65.1268 34.6798 66.5957 34.6798Z" stroke="url(#paint11_linear_3_2586)" stroke-width="0.756945" stroke-miterlimit="22.9256"/>
<path d="M74.5732 34.6798C76.0421 34.6798 77.2329 33.489 77.2329 32.0201C77.2329 30.5512 76.0421 29.3605 74.5732 29.3605C73.1043 29.3605 71.9136 30.5512 71.9136 32.0201C71.9136 33.489 73.1043 34.6798 74.5732 34.6798Z" stroke="url(#paint12_linear_3_2586)" stroke-width="0.756945" stroke-miterlimit="22.9256"/>
<path fill-rule="evenodd" clip-rule="evenodd" d="M39.999 17.3935H45.3183V14.7339H39.999V17.3935Z" stroke="url(#paint13_linear_3_2586)" stroke-width="0.756945" stroke-miterlimit="22.9256"/>
<path d="M39.999 16.0637H45.3183" stroke="url(#paint14_linear_3_2586)" stroke-width="0.756945" stroke-miterlimit="22.9256"/>
<path fill-rule="evenodd" clip-rule="evenodd" d="M47.978 17.3935H53.2973V14.7339H47.978V17.3935Z" stroke="url(#paint15_linear_3_2586)" stroke-width="0.756945" stroke-miterlimit="22.9256"/>
<path d="M47.978 16.0637H53.2973" stroke="url(#paint16_linear_3_2586)" stroke-width="0.756945" stroke-miterlimit="22.9256"/>
<path fill-rule="evenodd" clip-rule="evenodd" d="M55.957 17.3935H61.2763V14.7339H55.957V17.3935Z" stroke="url(#paint17_linear_3_2586)" stroke-width="0.756945" stroke-miterlimit="22.9256"/>
<path d="M55.957 16.0637H61.2763" stroke="url(#paint18_linear_3_2586)" stroke-width="0.756945" stroke-miterlimit="22.9256"/>
<path fill-rule="evenodd" clip-rule="evenodd" d="M63.936 17.3935H69.2553V14.7339H63.936V17.3935Z" stroke="url(#paint19_linear_3_2586)" stroke-width="0.756945" stroke-miterlimit="22.9256"/>
<path d="M63.936 16.0637H69.2553" stroke="url(#paint20_linear_3_2586)" stroke-width="0.756945" stroke-miterlimit="22.9256"/>
<path fill-rule="evenodd" clip-rule="evenodd" d="M71.9136 17.3935H77.2329V14.7339H71.9136V17.3935Z" stroke="url(#paint21_linear_3_2586)" stroke-width="0.756945" stroke-miterlimit="22.9256"/>
<path d="M71.9136 16.0637H77.2329" stroke="url(#paint22_linear_3_2586)" stroke-width="0.756945" stroke-miterlimit="22.9256"/>
<path fill-rule="evenodd" clip-rule="evenodd" d="M39.999 28.0321H45.3183V25.3724H39.999V28.0321Z" stroke="url(#paint23_linear_3_2586)" stroke-width="0.756945" stroke-miterlimit="22.9256"/>
<path d="M39.999 26.7023H45.3183" stroke="url(#paint24_linear_3_2586)" stroke-width="0.756945" stroke-miterlimit="22.9256"/>
<path fill-rule="evenodd" clip-rule="evenodd" d="M47.978 28.0321H53.2973V25.3724H47.978V28.0321Z" stroke="url(#paint25_linear_3_2586)" stroke-width="0.756945" stroke-miterlimit="22.9256"/>
<path d="M47.978 26.7023H53.2973" stroke="url(#paint26_linear_3_2586)" stroke-width="0.756945" stroke-miterlimit="22.9256"/>
<path fill-rule="evenodd" clip-rule="evenodd" d="M55.957 28.0321H61.2763V25.3724H55.957V28.0321Z" stroke="url(#paint27_linear_3_2586)" stroke-width="0.756945" stroke-miterlimit="22.9256"/>
<path d="M55.957 26.7023H61.2763" stroke="url(#paint28_linear_3_2586)" stroke-width="0.756945" stroke-miterlimit="22.9256"/>
<path fill-rule="evenodd" clip-rule="evenodd" d="M63.936 28.0321H69.2553V25.3724H63.936V28.0321Z" stroke="url(#paint29_linear_3_2586)" stroke-width="0.756945" stroke-miterlimit="22.9256"/>
<path d="M63.936 26.7023H69.2553" stroke="url(#paint30_linear_3_2586)" stroke-width="0.756945" stroke-miterlimit="22.9256"/>
<path fill-rule="evenodd" clip-rule="evenodd" d="M71.9136 28.0321H77.2329V25.3724H71.9136V28.0321Z" stroke="url(#paint31_linear_3_2586)" stroke-width="0.756945" stroke-miterlimit="22.9256"/>
<path d="M71.9136 26.7023H77.2329" stroke="url(#paint32_linear_3_2586)" stroke-width="0.756945" stroke-miterlimit="22.9256"/>
</g>
<defs>
<linearGradient id="paint0_linear_3_2586" x1="1.26632" y1="15.0802" x2="32.4973" y2="15.9576" gradientUnits="userSpaceOnUse">
<stop stop-color="#37A0E7"/>
<stop offset="1" stop-color="#C507D9"/>
</linearGradient>
<linearGradient id="paint1_linear_3_2586" x1="6.19788" y1="19.3009" x2="27.0122" y2="19.9831" gradientUnits="userSpaceOnUse">
<stop stop-color="#37A0E7"/>
<stop offset="1" stop-color="#C507D9"/>
</linearGradient>
<linearGradient id="paint2_linear_3_2586" x1="38.886" y1="18.2603" x2="80.4813" y2="20.078" gradientUnits="userSpaceOnUse">
<stop stop-color="#37A0E7"/>
<stop offset="1" stop-color="#C507D9"/>
</linearGradient>
<linearGradient id="paint3_linear_3_2586" x1="40.1922" y1="10.224" x2="45.3961" y2="10.3946" gradientUnits="userSpaceOnUse">
<stop stop-color="#37A0E7"/>
<stop offset="1" stop-color="#C507D9"/>
</linearGradient>
<linearGradient id="paint4_linear_3_2586" x1="48.1712" y1="10.224" x2="53.3751" y2="10.3946" gradientUnits="userSpaceOnUse">
<stop stop-color="#37A0E7"/>
<stop offset="1" stop-color="#C507D9"/>
</linearGradient>
<linearGradient id="paint5_linear_3_2586" x1="56.1502" y1="10.224" x2="61.3541" y2="10.3946" gradientUnits="userSpaceOnUse">
<stop stop-color="#37A0E7"/>
<stop offset="1" stop-color="#C507D9"/>
</linearGradient>
<linearGradient id="paint6_linear_3_2586" x1="64.1292" y1="10.224" x2="69.3331" y2="10.3946" gradientUnits="userSpaceOnUse">
<stop stop-color="#37A0E7"/>
<stop offset="1" stop-color="#C507D9"/>
</linearGradient>
<linearGradient id="paint7_linear_3_2586" x1="72.1067" y1="10.224" x2="77.3107" y2="10.3946" gradientUnits="userSpaceOnUse">
<stop stop-color="#37A0E7"/>
<stop offset="1" stop-color="#C507D9"/>
</linearGradient>
<linearGradient id="paint8_linear_3_2586" x1="40.1922" y1="31.4998" x2="45.3961" y2="31.6703" gradientUnits="userSpaceOnUse">
<stop stop-color="#37A0E7"/>
<stop offset="1" stop-color="#C507D9"/>
</linearGradient>
<linearGradient id="paint9_linear_3_2586" x1="48.1712" y1="31.4998" x2="53.3751" y2="31.6703" gradientUnits="userSpaceOnUse">
<stop stop-color="#37A0E7"/>
<stop offset="1" stop-color="#C507D9"/>
</linearGradient>
<linearGradient id="paint10_linear_3_2586" x1="56.1502" y1="31.4998" x2="61.3541" y2="31.6703" gradientUnits="userSpaceOnUse">
<stop stop-color="#37A0E7"/>
<stop offset="1" stop-color="#C507D9"/>
</linearGradient>
<linearGradient id="paint11_linear_3_2586" x1="64.1292" y1="31.4998" x2="69.3331" y2="31.6703" gradientUnits="userSpaceOnUse">
<stop stop-color="#37A0E7"/>
<stop offset="1" stop-color="#C507D9"/>
</linearGradient>
<linearGradient id="paint12_linear_3_2586" x1="72.1067" y1="31.4998" x2="77.3107" y2="31.6703" gradientUnits="userSpaceOnUse">
<stop stop-color="#37A0E7"/>
<stop offset="1" stop-color="#C507D9"/>
</linearGradient>
<linearGradient id="paint13_linear_3_2586" x1="40.1922" y1="15.8035" x2="45.3794" y2="16.1435" gradientUnits="userSpaceOnUse">
<stop stop-color="#37A0E7"/>
<stop offset="1" stop-color="#C507D9"/>
</linearGradient>
<linearGradient id="paint14_linear_3_2586" x1="40.1922" y1="16.4659" x2="45.248" y2="17.3473" gradientUnits="userSpaceOnUse">
<stop stop-color="#37A0E7"/>
<stop offset="1" stop-color="#C507D9"/>
</linearGradient>
<linearGradient id="paint15_linear_3_2586" x1="48.1712" y1="15.8035" x2="53.3584" y2="16.1435" gradientUnits="userSpaceOnUse">
<stop stop-color="#37A0E7"/>
<stop offset="1" stop-color="#C507D9"/>
</linearGradient>
<linearGradient id="paint16_linear_3_2586" x1="48.1712" y1="16.4659" x2="53.227" y2="17.3473" gradientUnits="userSpaceOnUse">
<stop stop-color="#37A0E7"/>
<stop offset="1" stop-color="#C507D9"/>
</linearGradient>
<linearGradient id="paint17_linear_3_2586" x1="56.1502" y1="15.8035" x2="61.3374" y2="16.1435" gradientUnits="userSpaceOnUse">
<stop stop-color="#37A0E7"/>
<stop offset="1" stop-color="#C507D9"/>
</linearGradient>
<linearGradient id="paint18_linear_3_2586" x1="56.1502" y1="16.4659" x2="61.206" y2="17.3473" gradientUnits="userSpaceOnUse">
<stop stop-color="#37A0E7"/>
<stop offset="1" stop-color="#C507D9"/>
</linearGradient>
<linearGradient id="paint19_linear_3_2586" x1="64.1292" y1="15.8035" x2="69.3164" y2="16.1435" gradientUnits="userSpaceOnUse">
<stop stop-color="#37A0E7"/>
<stop offset="1" stop-color="#C507D9"/>
</linearGradient>
<linearGradient id="paint20_linear_3_2586" x1="64.1292" y1="16.4659" x2="69.185" y2="17.3473" gradientUnits="userSpaceOnUse">
<stop stop-color="#37A0E7"/>
<stop offset="1" stop-color="#C507D9"/>
</linearGradient>
<linearGradient id="paint21_linear_3_2586" x1="72.1067" y1="15.8035" x2="77.294" y2="16.1435" gradientUnits="userSpaceOnUse">
<stop stop-color="#37A0E7"/>
<stop offset="1" stop-color="#C507D9"/>
</linearGradient>
<linearGradient id="paint22_linear_3_2586" x1="72.1067" y1="16.4659" x2="77.1626" y2="17.3473" gradientUnits="userSpaceOnUse">
<stop stop-color="#37A0E7"/>
<stop offset="1" stop-color="#C507D9"/>
</linearGradient>
<linearGradient id="paint23_linear_3_2586" x1="40.1922" y1="26.4421" x2="45.3794" y2="26.7821" gradientUnits="userSpaceOnUse">
<stop stop-color="#37A0E7"/>
<stop offset="1" stop-color="#C507D9"/>
</linearGradient>
<linearGradient id="paint24_linear_3_2586" x1="40.1922" y1="27.1044" x2="45.248" y2="27.9859" gradientUnits="userSpaceOnUse">
<stop stop-color="#37A0E7"/>
<stop offset="1" stop-color="#C507D9"/>
</linearGradient>
<linearGradient id="paint25_linear_3_2586" x1="48.1712" y1="26.4421" x2="53.3584" y2="26.7821" gradientUnits="userSpaceOnUse">
<stop stop-color="#37A0E7"/>
<stop offset="1" stop-color="#C507D9"/>
</linearGradient>
<linearGradient id="paint26_linear_3_2586" x1="48.1712" y1="27.1044" x2="53.227" y2="27.9859" gradientUnits="userSpaceOnUse">
<stop stop-color="#37A0E7"/>
<stop offset="1" stop-color="#C507D9"/>
</linearGradient>
<linearGradient id="paint27_linear_3_2586" x1="56.1502" y1="26.4421" x2="61.3374" y2="26.7821" gradientUnits="userSpaceOnUse">
<stop stop-color="#37A0E7"/>
<stop offset="1" stop-color="#C507D9"/>
</linearGradient>
<linearGradient id="paint28_linear_3_2586" x1="56.1502" y1="27.1044" x2="61.206" y2="27.9859" gradientUnits="userSpaceOnUse">
<stop stop-color="#37A0E7"/>
<stop offset="1" stop-color="#C507D9"/>
</linearGradient>
<linearGradient id="paint29_linear_3_2586" x1="64.1292" y1="26.4421" x2="69.3164" y2="26.7821" gradientUnits="userSpaceOnUse">
<stop stop-color="#37A0E7"/>
<stop offset="1" stop-color="#C507D9"/>
</linearGradient>
<linearGradient id="paint30_linear_3_2586" x1="64.1292" y1="27.1044" x2="69.185" y2="27.9859" gradientUnits="userSpaceOnUse">
<stop stop-color="#37A0E7"/>
<stop offset="1" stop-color="#C507D9"/>
</linearGradient>
<linearGradient id="paint31_linear_3_2586" x1="72.1067" y1="26.4421" x2="77.294" y2="26.7821" gradientUnits="userSpaceOnUse">
<stop stop-color="#37A0E7"/>
<stop offset="1" stop-color="#C507D9"/>
</linearGradient>
<linearGradient id="paint32_linear_3_2586" x1="72.1067" y1="27.1044" x2="77.1626" y2="27.9859" gradientUnits="userSpaceOnUse">
<stop stop-color="#37A0E7"/>
<stop offset="1" stop-color="#C507D9"/>
</linearGradient>
<clipPath id="clip0_3_2586">
<rect width="80" height="37.4467" fill="white"/>
</clipPath>
</defs>
</svg>
