<svg width="24" height="24" viewBox="0 0 24 24" fill="none" xmlns="http://www.w3.org/2000/svg">
    <path fill-rule="evenodd" clip-rule="evenodd" d="M5.78734 13.019C5.83031 13.0333 5.87449 13.0437 5.91934 13.05C6.20226 13.7167 6.48359 14.384 6.76334 15.052C7.26634 16.254 7.77334 17.492 7.88434 17.848C8.02334 18.286 8.16934 18.584 8.32934 18.788C8.41234 18.892 8.50734 18.984 8.61934 19.054C8.67768 19.0905 8.74011 19.1201 8.80534 19.142C9.12534 19.262 9.41734 19.212 9.60034 19.151C9.70773 19.1144 9.80991 19.0639 9.90434 19.001L9.90934 18.999L12.7353 17.237L16.0003 19.739C16.0483 19.776 16.1003 19.807 16.1563 19.832C16.5483 20.002 16.9283 20.062 17.2863 20.014C17.6423 19.964 17.9253 19.815 18.1363 19.646C18.3786 19.4507 18.5718 19.2014 18.7003 18.918L18.7093 18.896L18.7123 18.888L18.7143 18.884V18.882L18.7153 18.881C18.7327 18.838 18.7461 18.7935 18.7553 18.748L21.7353 3.72301C21.7448 3.67492 21.7494 3.62602 21.7493 3.57701C21.7493 3.13701 21.5833 2.71801 21.1943 2.46501C20.8603 2.24801 20.4893 2.23801 20.2543 2.25601C20.0023 2.27601 19.7683 2.33801 19.6113 2.38801C19.5235 2.41586 19.4367 2.44722 19.3513 2.48201L19.3403 2.48701L2.62634 9.04301L2.62434 9.04401C2.56779 9.06481 2.51208 9.08783 2.45734 9.11301C2.3248 9.1726 2.19766 9.24353 2.07734 9.32501C1.85034 9.48001 1.32734 9.90601 1.41634 10.61C1.48634 11.17 1.87034 11.515 2.10534 11.681C2.23334 11.772 2.35534 11.837 2.44534 11.88C2.48534 11.9 2.57134 11.934 2.60834 11.95L2.61834 11.953L5.78734 13.019ZM19.9253 3.86701H19.9233C19.9147 3.87083 19.9061 3.8745 19.8973 3.87801L3.16334 10.443C3.15473 10.4465 3.14606 10.4498 3.13734 10.453L3.12734 10.456C3.09677 10.468 3.06674 10.4814 3.03734 10.496C3.06517 10.512 3.09388 10.5263 3.12334 10.539L6.26534 11.597C6.32149 11.6159 6.37519 11.6414 6.42534 11.673L16.8023 5.59801L16.8123 5.59301C16.8526 5.56851 16.894 5.54583 16.9363 5.52501C17.0083 5.48801 17.1233 5.43401 17.2533 5.39401C17.3433 5.36601 17.6103 5.28701 17.8983 5.38001C18.0511 5.42816 18.1872 5.5183 18.2912 5.64013C18.3952 5.76196 18.4628 5.91058 18.4863 6.06901C18.5236 6.20776 18.5246 6.35374 18.4893 6.49301C18.4193 6.76801 18.2273 6.98201 18.0513 7.14601C17.9013 7.28601 15.9563 9.16201 14.0373 11.014L11.4243 13.534L10.9593 13.984L16.8313 18.486C16.9106 18.5193 16.9967 18.533 17.0823 18.526C17.1255 18.5202 17.1661 18.5021 17.1993 18.474C17.2399 18.4398 17.2747 18.3993 17.3023 18.354L17.3043 18.353L20.1943 3.78001C20.1033 3.80191 20.014 3.83066 19.9273 3.86601L19.9253 3.86701ZM11.4643 16.261L10.2923 15.363L10.0083 17.168L11.4643 16.261ZM9.21734 13.581L10.3823 12.456L12.9953 9.93401L13.9683 8.99601L7.44834 12.813L7.48334 12.895C7.89454 13.8664 8.30121 14.8398 8.70334 15.815L8.98634 14.015C9.01195 13.8481 9.09338 13.6957 9.21734 13.581Z" fill="white"/>
</svg>
