<svg width="81" height="81" viewBox="0 0 81 81" fill="none" xmlns="http://www.w3.org/2000/svg">
    <path d="M79.6369 57.168H1V68.4008H79.6369V57.168Z" stroke="url(#paint0_linear_592_5411)" stroke-miterlimit="22.9256"/>
    <path d="M45.9359 23.4688H34.7031V57.1696H45.9359V23.4688Z" stroke="url(#paint1_linear_592_5411)" stroke-miterlimit="22.9256"/>
    <path d="M62.7895 1H17.8535V23.468H62.7895V1Z" stroke="url(#paint2_linear_592_5411)" stroke-miterlimit="22.9256"/>
    <path d="M57.1696 6.61719H23.4688V17.85H57.1696V6.61719Z" stroke="url(#paint3_linear_592_5411)" stroke-miterlimit="22.9256"/>
    <path fill-rule="evenodd" clip-rule="evenodd" d="M17.8524 79.6352H6.61719L12.2348 68.4023L17.8524 79.6352Z" stroke="url(#paint4_linear_592_5411)" stroke-miterlimit="22.9256"/>
    <path fill-rule="evenodd" clip-rule="evenodd" d="M74.0223 79.6352H62.7871L68.4047 68.4023L74.0223 79.6352Z" stroke="url(#paint5_linear_592_5411)" stroke-miterlimit="22.9256"/>
    <path d="M28.9726 15.5906C28.4733 15.5906 28.0308 15.4533 27.6475 15.1765C27.2618 14.902 26.966 14.5115 26.753 14.0075C26.5401 13.5035 26.4336 12.9119 26.4336 12.2328C26.4336 11.556 26.5401 10.9644 26.753 10.4604C26.966 9.95639 27.2618 9.56596 27.6475 9.2891C28.0308 9.01461 28.4733 8.875 28.9726 8.875C29.4814 8.875 29.9239 9.01461 30.3049 9.2891C30.6858 9.56596 30.9816 9.95639 31.1946 10.4604C31.4076 10.9644 31.514 11.556 31.514 12.2328C31.514 12.9119 31.4076 13.5035 31.1946 14.0075C30.9816 14.5115 30.6858 14.902 30.3049 15.1765C29.9239 15.4533 29.4814 15.5906 28.9726 15.5906ZM28.9726 15.4107C29.4435 15.4107 29.8529 15.2806 30.2055 15.0203C30.5557 14.76 30.8302 14.3932 31.0289 13.9176C31.2254 13.442 31.3224 12.8811 31.3224 12.2328C31.3224 11.5797 31.2254 11.0165 31.0289 10.5456C30.8302 10.0724 30.5557 9.70558 30.2055 9.44765C29.8529 9.18736 29.4435 9.05721 28.9726 9.05721C28.5112 9.05721 28.1018 9.18736 27.7469 9.44765C27.3919 9.70558 27.1151 10.0724 26.9187 10.5456C26.7223 11.0165 26.6229 11.5797 26.6229 12.2328C26.6229 12.8811 26.7223 13.442 26.9187 13.9176C27.1151 14.3932 27.3919 14.76 27.7469 15.0203C28.1018 15.2806 28.5112 15.4107 28.9726 15.4107ZM32.5978 16.4L33.0261 15.096L32.8628 15.5906C32.7871 15.5906 32.7232 15.5645 32.6735 15.5149C32.6215 15.4652 32.5978 15.406 32.5978 15.3445C32.5978 15.2735 32.6215 15.2143 32.6688 15.167C32.7161 15.1197 32.7753 15.096 32.8439 15.096C32.9196 15.096 32.9811 15.1244 33.0261 15.1765C33.0687 15.2309 33.0924 15.2877 33.0924 15.3445C33.0924 15.3752 33.09 15.406 33.0876 15.4391C33.0829 15.4699 33.0782 15.4983 33.0734 15.5243C33.0663 15.5503 33.0592 15.5811 33.0545 15.619L32.7682 16.4H32.5978ZM36.7152 15.5906C36.2135 15.5906 35.7734 15.4533 35.3877 15.1765C35.0043 14.902 34.7062 14.5115 34.4956 14.0075C34.2826 13.5035 34.1761 12.9119 34.1761 12.2328C34.1761 11.556 34.2826 10.9644 34.4956 10.4604C34.7062 9.95639 35.0043 9.56596 35.3877 9.2891C35.7734 9.01461 36.2135 8.875 36.7152 8.875C37.2239 8.875 37.6664 9.01461 38.0474 9.2891C38.4284 9.56596 38.7242 9.95639 38.9371 10.4604C39.1477 10.9644 39.2542 11.556 39.2542 12.2328C39.2542 12.9119 39.1477 13.5035 38.9371 14.0075C38.7242 14.5115 38.4284 14.902 38.0474 15.1765C37.6664 15.4533 37.2239 15.5906 36.7152 15.5906ZM36.7152 15.4107C37.1837 15.4107 37.5954 15.2806 37.948 15.0203C38.2982 14.76 38.5727 14.3932 38.7691 13.9176C38.9655 13.442 39.0649 12.8811 39.0649 12.2328C39.0649 11.5797 38.9655 11.0165 38.7691 10.5456C38.5727 10.0724 38.2982 9.70558 37.948 9.44765C37.5954 9.18736 37.1837 9.05721 36.7152 9.05721C36.2537 9.05721 35.8444 9.18736 35.4894 9.44765C35.1345 9.70558 34.8576 10.0724 34.6612 10.5456C34.4648 11.0165 34.3654 11.5797 34.3654 12.2328C34.3654 12.8811 34.4648 13.442 34.6612 13.9176C34.8576 14.3932 35.1345 14.76 35.4894 15.0203C35.8444 15.2806 36.2537 15.4107 36.7152 15.4107ZM42.9172 15.5906C42.4156 15.5906 41.9731 15.4533 41.5897 15.1765C41.2064 14.902 40.9082 14.5115 40.6953 14.0075C40.4847 13.5035 40.3782 12.9119 40.3782 12.2328C40.3782 11.556 40.4847 10.9644 40.6953 10.4604C40.9082 9.95639 41.2064 9.56596 41.5897 9.2891C41.9731 9.01461 42.4156 8.875 42.9172 8.875C43.4236 8.875 43.8685 9.01461 44.2495 9.2891C44.6281 9.56596 44.9262 9.95639 45.1368 10.4604C45.3498 10.9644 45.4563 11.556 45.4563 12.2328C45.4563 12.9119 45.3498 13.5035 45.1368 14.0075C44.9262 14.5115 44.6281 14.902 44.2495 15.1765C43.8685 15.4533 43.4236 15.5906 42.9172 15.5906ZM42.9172 15.4107C43.3858 15.4107 43.7975 15.2806 44.1477 15.0203C44.5003 14.76 44.7748 14.3932 44.9712 13.9176C45.1676 13.442 45.267 12.8811 45.267 12.2328C45.267 11.5797 45.1676 11.0165 44.9712 10.5456C44.7748 10.0724 44.5003 9.70558 44.1477 9.44765C43.7975 9.18736 43.3858 9.05721 42.9172 9.05721C42.4534 9.05721 42.0441 9.18736 41.6891 9.44765C41.3342 9.70558 41.0597 10.0724 40.8633 10.5456C40.6669 11.0165 40.5675 11.5797 40.5675 12.2328C40.5675 12.8811 40.6669 13.442 40.8633 13.9176C41.0597 14.3932 41.3342 14.76 41.6891 15.0203C42.0441 15.2806 42.4534 15.4107 42.9172 15.4107ZM49.1193 15.5906C48.6177 15.5906 48.1752 15.4533 47.7918 15.1765C47.4085 14.902 47.1103 14.5115 46.8974 14.0075C46.6844 13.5035 46.5779 12.9119 46.5779 12.2328C46.5779 11.556 46.6844 10.9644 46.8974 10.4604C47.1103 9.95639 47.4085 9.56596 47.7918 9.2891C48.1752 9.01461 48.6177 8.875 49.1193 8.875C49.6257 8.875 50.0706 9.01461 50.4492 9.2891C50.8301 9.56596 51.1259 9.95639 51.3389 10.4604C51.5519 10.9644 51.6583 11.556 51.6583 12.2328C51.6583 12.9119 51.5519 13.5035 51.3389 14.0075C51.1259 14.5115 50.8301 14.902 50.4492 15.1765C50.0706 15.4533 49.6257 15.5906 49.1193 15.5906ZM49.1193 15.4107C49.5878 15.4107 49.9972 15.2806 50.3498 15.0203C50.7024 14.76 50.9769 14.3932 51.1733 13.9176C51.3697 13.442 51.4667 12.8811 51.4667 12.2328C51.4667 11.5797 51.3697 11.0165 51.1733 10.5456C50.9769 10.0724 50.7024 9.70558 50.3498 9.44765C49.9972 9.18736 49.5878 9.05721 49.1193 9.05721C48.6555 9.05721 48.2461 9.18736 47.8912 9.44765C47.5363 9.70558 47.2594 10.0724 47.063 10.5456C46.8666 11.0165 46.7696 11.5797 46.7696 12.2328C46.7696 12.8811 46.8666 13.442 47.063 13.9176C47.2594 14.3932 47.5363 14.76 47.8912 15.0203C48.2461 15.2806 48.6555 15.4107 49.1193 15.4107ZM54.027 15.5622L54.1122 9.5V9.0856H52.3138V8.90339H54.2069V15.5622H54.027Z" stroke="url(#paint6_linear_592_5411)"/>
    <defs>
        <linearGradient id="paint0_linear_592_5411" x1="3.85553" y1="61.6855" x2="77.0179" y2="78.4722" gradientUnits="userSpaceOnUse">
            <stop stop-color="#37A0E7"/>
            <stop offset="1" stop-color="#C507D9"/>
        </linearGradient>
        <linearGradient id="paint1_linear_592_5411" x1="35.111" y1="37.0224" x2="46.1107" y2="37.1425" gradientUnits="userSpaceOnUse">
            <stop stop-color="#37A0E7"/>
            <stop offset="1" stop-color="#C507D9"/>
        </linearGradient>
        <linearGradient id="paint2_linear_592_5411" x1="19.4853" y1="10.0361" x2="63.3056" y2="12.9085" gradientUnits="userSpaceOnUse">
            <stop stop-color="#37A0E7"/>
            <stop offset="1" stop-color="#C507D9"/>
        </linearGradient>
        <linearGradient id="paint3_linear_592_5411" x1="24.6925" y1="11.1347" x2="57.3818" y2="14.3491" gradientUnits="userSpaceOnUse">
            <stop stop-color="#37A0E7"/>
            <stop offset="1" stop-color="#C507D9"/>
        </linearGradient>
        <linearGradient id="paint4_linear_592_5411" x1="7.02517" y1="72.9199" x2="18.0167" y2="73.2802" gradientUnits="userSpaceOnUse">
            <stop stop-color="#37A0E7"/>
            <stop offset="1" stop-color="#C507D9"/>
        </linearGradient>
        <linearGradient id="paint5_linear_592_5411" x1="63.1951" y1="72.9199" x2="74.1866" y2="73.2802" gradientUnits="userSpaceOnUse">
            <stop stop-color="#37A0E7"/>
            <stop offset="1" stop-color="#C507D9"/>
        </linearGradient>
        <linearGradient id="paint6_linear_592_5411" x1="27.4421" y1="11.9014" x2="54.2499" y2="15.1442" gradientUnits="userSpaceOnUse">
            <stop stop-color="#37A0E7"/>
            <stop offset="1" stop-color="#C507D9"/>
        </linearGradient>
    </defs>
</svg>
