<?xml version="1.0" standalone="no"?>
<!DOCTYPE svg PUBLIC "-//W3C//DTD SVG 20010904//EN"
 "http://www.w3.org/TR/2001/REC-SVG-20010904/DTD/svg10.dtd">
<svg version="1.0" xmlns="http://www.w3.org/2000/svg"
 width="640.000000pt" height="640.000000pt" viewBox="0 0 640.000000 640.000000"
 preserveAspectRatio="xMidYMid meet">
<metadata>
Created by potrace 1.14, written by Peter Selinger 2001-2017
</metadata>
<g transform="translate(0.000000,640.000000) scale(0.100000,-0.100000)"
fill="#000000" stroke="none">
<path d="M3067 6274 c-1 -1 -47 -5 -102 -8 -55 -4 -113 -9 -130 -11 -16 -3
-48 -7 -70 -10 -113 -16 -165 -25 -187 -31 -10 -3 -30 -8 -45 -10 -15 -3 -70
-16 -123 -30 -52 -14 -102 -27 -110 -29 -61 -15 -372 -135 -430 -165 -8 -5
-53 -27 -99 -51 -106 -53 -205 -110 -209 -121 -2 -4 -8 -8 -14 -8 -6 0 -26
-11 -44 -25 -18 -14 -36 -25 -39 -25 -13 0 -239 -173 -319 -244 -158 -141
-312 -305 -406 -431 -25 -33 -47 -62 -50 -65 -12 -11 -98 -138 -124 -181 -16
-28 -25 -56 -22 -70 3 -13 5 -29 5 -36 2 -22 71 -62 100 -57 48 8 65 24 126
117 126 192 321 416 500 572 104 92 372 285 394 285 6 0 11 3 11 8 0 4 10 12
23 18 12 6 55 29 94 52 83 46 299 147 338 158 6 1 48 17 95 34 83 31 124 43
269 81 84 22 94 24 211 44 126 21 146 24 250 32 166 12 484 6 580 -12 14 -2
41 -6 60 -8 52 -7 223 -38 230 -42 4 -2 22 -7 41 -10 44 -8 236 -62 269 -77
14 -5 33 -14 42 -19 10 -5 25 -9 33 -9 8 0 23 -4 33 -9 9 -5 33 -16 52 -24
144 -61 187 -81 200 -95 13 -14 13 -15 0 -6 -8 6 -51 23 -95 38 -44 15 -87 30
-95 33 -34 13 -247 69 -290 77 -19 3 -46 8 -60 11 -14 3 -41 8 -60 11 -19 3
-46 7 -60 9 -84 14 -190 20 -375 19 -169 0 -350 -8 -350 -14 0 -2 -38 -9 -80
-14 -117 -14 -348 -73 -490 -124 -167 -61 -179 -66 -187 -77 -4 -5 -8 -6 -8
-2 0 16 -275 -135 -412 -226 -302 -201 -507 -402 -746 -732 -64 -88 -80 -134
-63 -177 12 -31 64 -68 89 -63 10 2 23 4 30 4 16 1 66 50 82 81 14 26 101 148
135 189 194 234 399 418 630 565 124 79 386 206 525 254 115 40 321 93 415
108 28 4 57 9 65 10 42 8 206 22 335 28 22 1 48 -2 58 -6 11 -6 17 -5 17 2 0
6 4 9 9 6 5 -4 53 -8 108 -11 96 -5 131 -8 206 -21 20 -3 47 -7 60 -8 12 -2
47 -8 77 -15 30 -6 64 -13 75 -15 11 -2 61 -16 110 -31 50 -15 99 -29 110 -32
11 -2 29 -8 40 -13 11 -4 56 -22 100 -39 75 -29 246 -109 235 -110 -3 -1 -41
13 -85 30 -44 16 -87 32 -95 34 -125 34 -299 74 -345 80 -33 3 -62 8 -65 10
-37 23 -543 23 -630 0 -8 -2 -37 -6 -64 -10 -47 -6 -131 -23 -226 -46 -125
-31 -416 -140 -431 -162 -3 -5 -8 -8 -10 -7 -24 9 -372 -202 -429 -260 -3 -3
-27 -23 -55 -45 -201 -160 -505 -525 -505 -606 0 -46 29 -88 69 -99 55 -15 89
6 146 91 27 41 83 115 124 164 239 289 530 503 869 639 98 40 223 81 271 91 9
2 43 10 76 18 81 21 121 28 260 43 85 9 358 10 437 1 85 -10 250 -37 260 -43
5 -3 21 -8 36 -10 42 -7 174 -45 207 -59 17 -7 62 -24 100 -39 71 -27 215 -95
203 -96 -3 0 -50 15 -105 34 -119 41 -222 66 -378 91 -60 10 -451 14 -493 5
-20 -5 -57 -10 -82 -13 -25 -3 -65 -10 -90 -16 -25 -5 -57 -12 -71 -14 -110
-20 -355 -112 -488 -184 -65 -35 -191 -112 -201 -123 -3 -3 -18 -14 -35 -24
-121 -77 -319 -270 -439 -430 -106 -139 -118 -177 -78 -231 16 -23 54 -42 77
-40 47 4 67 21 129 107 70 99 94 127 185 223 91 96 274 245 301 245 5 0 10 4
10 9 0 5 9 13 20 16 11 3 26 12 32 19 12 11 178 94 258 129 87 37 283 93 359
103 20 2 43 6 51 9 57 17 359 25 455 12 28 -3 75 -9 105 -13 120 -14 409 -101
418 -126 2 -4 11 -8 21 -8 9 0 26 -7 37 -15 18 -14 17 -14 -10 -5 -59 21 -198
49 -291 57 -88 9 -279 9 -365 0 -171 -17 -393 -83 -565 -169 -71 -36 -202
-114 -215 -128 -3 -3 -39 -31 -80 -62 -165 -124 -374 -373 -374 -444 0 -45 28
-81 71 -93 54 -15 89 7 148 92 55 78 204 234 275 288 25 18 47 36 50 39 3 3
34 25 70 48 102 67 303 160 381 177 8 2 39 10 67 19 29 8 52 13 52 11 0 -3 10
-1 23 4 41 16 149 25 282 25 163 -1 237 -8 340 -36 22 -5 48 -12 57 -13 10 -2
22 -6 26 -9 5 -3 19 -7 33 -10 32 -6 217 -84 243 -102 16 -11 17 -14 5 -14 -9
0 -19 3 -23 7 -3 4 -12 8 -19 9 -7 2 -21 5 -32 8 -50 11 -121 28 -135 31 -195
40 -511 6 -713 -77 -207 -84 -414 -239 -543 -403 -21 -27 -41 -52 -44 -55 -22
-21 -42 -80 -36 -105 10 -41 59 -83 93 -79 15 1 33 2 40 3 7 1 38 34 69 74 66
82 161 179 219 222 22 17 42 32 45 35 6 6 25 18 90 55 44 26 172 85 194 90 6
1 18 5 26 8 64 27 241 52 355 50 160 -3 305 -36 449 -102 183 -85 342 -214
444 -362 20 -30 40 -55 45 -57 4 -2 7 -7 7 -12 0 -4 15 -35 33 -67 31 -54 68
-149 96 -248 38 -133 42 -340 11 -492 -6 -29 -11 -55 -11 -58 1 -15 -64 -184
-89 -230 -49 -90 -53 -98 -100 -160 -60 -82 -171 -192 -250 -247 -116 -83
-311 -167 -425 -185 -16 -3 -50 -9 -75 -14 -44 -8 -306 -5 -345 4 -11 3 -41
10 -68 16 -120 28 -240 80 -359 157 -210 135 -379 359 -458 607 -33 104 -177
94 -193 -14 -8 -48 121 -341 174 -398 11 -11 19 -23 19 -27 0 -12 91 -116 155
-178 207 -200 466 -326 750 -364 67 -9 307 -8 370 1 175 27 346 88 504 181 73
43 85 45 45 10 -46 -41 -191 -154 -197 -154 -3 0 -26 -13 -50 -30 -43 -28
-224 -119 -250 -124 -7 -2 -21 -6 -32 -10 -55 -21 -75 -27 -140 -42 -129 -29
-236 -40 -374 -38 -75 1 -152 5 -171 9 -19 3 -46 8 -60 10 -14 2 -34 6 -45 9
-11 2 -33 7 -50 11 -155 35 -330 113 -480 213 -90 61 -259 215 -325 297 -71
88 -134 195 -211 357 -27 55 -57 154 -84 277 -17 73 -26 87 -73 107 -31 13
-39 12 -71 -3 -20 -10 -42 -31 -50 -47 -14 -30 -13 -40 15 -176 10 -49 67
-206 102 -285 39 -87 139 -258 153 -263 5 -2 9 -8 9 -13 0 -5 6 -17 14 -26 8
-10 31 -38 51 -63 85 -105 295 -300 323 -300 6 0 12 -4 14 -8 5 -15 119 -84
218 -133 185 -91 383 -148 580 -166 120 -11 410 -6 410 7 0 3 13 6 29 7 47 3
194 41 288 74 120 42 268 117 370 186 47 32 95 65 107 73 49 33 -99 -104 -173
-160 -18 -14 -38 -30 -44 -36 -59 -53 -291 -180 -422 -231 -83 -32 -210 -72
-255 -79 -14 -3 -32 -7 -40 -9 -8 -3 -33 -7 -55 -10 -22 -4 -47 -8 -55 -10
-57 -16 -346 -23 -440 -11 -113 14 -190 27 -245 41 -115 30 -140 37 -160 45
-11 4 -47 18 -80 30 -112 42 -230 103 -341 176 -62 41 -118 79 -125 86 -8 7
-38 33 -68 58 -70 58 -176 168 -241 250 -28 36 -58 73 -66 83 -8 9 -14 19 -14
21 0 2 -16 28 -35 58 -96 145 -213 422 -240 568 -7 35 -14 71 -20 100 -3 14
-8 48 -10 75 -7 64 -20 97 -47 114 -50 31 -102 22 -139 -23 -55 -67 54 -510
188 -764 73 -138 98 -182 105 -182 5 0 8 -5 8 -11 0 -11 116 -169 171 -233
152 -176 388 -362 594 -468 151 -78 370 -157 510 -184 11 -2 44 -9 74 -15 94
-19 207 -28 356 -28 116 -1 142 1 250 13 194 23 425 88 595 168 25 12 51 23
58 24 8 1 21 9 30 17 10 7 35 23 57 33 60 30 159 93 239 152 l71 53 -60 -58
c-33 -32 -78 -71 -99 -88 -21 -16 -46 -37 -56 -45 -28 -23 -55 -44 -72 -55 -8
-5 -48 -32 -89 -60 -237 -158 -607 -299 -869 -330 -14 -2 -54 -7 -90 -12 -79
-10 -403 -10 -480 0 -475 63 -875 241 -1215 542 -106 93 -265 264 -265 284 0
6 -4 11 -9 11 -5 0 -17 13 -28 28 -10 16 -45 69 -77 118 -59 88 -145 248 -180
334 -45 109 -72 183 -81 220 -2 8 -12 49 -24 90 -34 125 -52 236 -66 403 -7
82 -34 113 -110 122 -20 3 -66 -30 -78 -55 -13 -27 -13 -46 -3 -155 11 -109
45 -300 66 -370 5 -16 19 -61 30 -100 49 -164 173 -439 250 -550 16 -24 30
-48 30 -54 0 -6 4 -11 8 -11 4 0 16 -15 27 -32 73 -126 291 -364 450 -493 39
-31 79 -63 89 -72 11 -9 62 -44 115 -78 140 -91 260 -153 446 -230 90 -37 260
-88 368 -109 104 -22 125 -25 170 -31 20 -3 56 -8 80 -11 56 -8 383 -9 472 -1
77 7 137 15 175 23 14 3 40 8 59 10 19 3 37 6 41 9 4 2 22 7 41 10 103 18 420
127 457 157 6 6 12 8 12 5 0 -16 402 220 430 253 3 3 25 21 50 39 34 25 28 17
-25 -34 -38 -37 -110 -98 -160 -136 -49 -38 -95 -73 -101 -78 -61 -50 -384
-231 -413 -231 -6 0 -11 -4 -11 -10 0 -5 -7 -10 -16 -10 -8 0 -25 -5 -37 -12
-12 -7 -26 -13 -32 -15 -5 -1 -68 -23 -139 -48 -116 -41 -239 -75 -320 -89
-16 -3 -52 -10 -80 -16 -208 -42 -626 -44 -819 -4 -16 3 -38 7 -50 9 -39 5
-91 16 -132 27 -22 5 -51 12 -64 15 -28 5 -285 88 -316 102 -118 54 -281 135
-283 142 -2 5 -8 9 -14 9 -22 0 -206 121 -323 212 -83 65 -237 209 -295 276
-30 35 -62 71 -70 80 -71 79 -199 260 -256 362 -10 19 -21 37 -24 40 -6 6
-101 200 -129 262 -58 131 -146 442 -166 581 -3 27 -8 57 -10 66 -5 29 -18
172 -20 236 -2 33 -3 66 -4 73 0 7 -13 25 -29 41 -23 24 -34 28 -71 27 -36 -2
-49 -8 -71 -34 -22 -26 -26 -40 -24 -89 2 -74 15 -246 19 -253 2 -3 6 -30 9
-60 3 -30 8 -66 11 -80 3 -14 8 -38 10 -55 3 -16 8 -38 11 -47 3 -9 7 -26 9
-37 3 -12 7 -30 10 -41 3 -11 7 -30 10 -42 12 -54 49 -174 57 -183 4 -5 8 -15
8 -22 0 -19 71 -197 116 -289 33 -69 65 -127 124 -229 10 -16 26 -45 36 -62
11 -18 22 -33 27 -33 4 0 7 -5 7 -11 0 -12 147 -209 207 -277 146 -165 330
-331 493 -444 86 -59 260 -169 260 -163 0 2 23 -9 50 -25 28 -17 52 -30 54
-30 2 0 48 -21 101 -46 54 -25 105 -47 114 -49 9 -2 45 -15 81 -28 80 -31 254
-81 335 -97 33 -7 67 -14 75 -17 8 -3 31 -7 50 -9 18 -2 49 -6 68 -9 159 -25
439 -35 597 -21 88 8 177 18 200 22 24 5 132 24 160 29 36 6 179 44 223 59 23
8 42 13 42 11 0 -2 24 6 53 17 28 11 63 23 77 27 87 28 356 156 447 214 24 15
47 27 52 27 5 0 11 4 13 8 2 4 21 19 43 32 22 13 84 57 137 97 88 66 130 93
96 60 -36 -34 -178 -157 -218 -188 -64 -50 -256 -181 -310 -210 -25 -13 -47
-27 -50 -30 -10 -14 -260 -133 -365 -174 -208 -82 -468 -154 -615 -171 -25 -2
-56 -7 -70 -10 -24 -4 -79 -10 -190 -19 -68 -6 -339 -6 -400 -1 -171 16 -192
19 -334 43 -23 4 -261 62 -316 77 -22 6 -146 51 -210 76 -30 11 -68 26 -85 32
-137 52 -524 281 -627 370 -14 13 -39 32 -54 43 -81 58 -251 223 -356 344
-465 537 -702 1157 -723 1884 -3 98 -1 89 -24 116 -31 36 -73 42 -120 19 -47
-23 -54 -45 -53 -158 0 -80 10 -239 16 -280 7 -42 19 -144 20 -167 1 -13 3
-23 6 -23 3 0 6 -8 6 -17 1 -25 15 -106 19 -114 2 -3 7 -21 10 -40 9 -46 13
-64 15 -64 1 0 3 -7 5 -15 5 -25 45 -161 70 -235 117 -349 331 -723 578 -1010
131 -152 334 -343 492 -462 130 -97 342 -233 365 -233 5 0 10 -3 12 -7 5 -13
233 -122 358 -171 120 -48 327 -110 455 -138 35 -8 119 -24 150 -30 17 -2 37
-7 45 -9 9 -3 40 -7 70 -10 30 -3 82 -8 115 -12 78 -9 512 -10 590 -1 60 7
101 13 173 24 20 3 48 7 62 9 14 2 70 13 125 25 700 149 1335 543 1776 1100
42 52 91 118 110 145 19 28 37 52 40 55 11 10 128 208 176 300 49 93 158 342
168 385 2 6 12 35 22 65 30 84 53 162 69 232 2 10 6 26 8 36 15 60 26 112 31
142 29 173 33 204 42 320 13 156 6 517 -11 605 -2 11 -7 47 -11 80 -4 32 -9
68 -12 80 -2 11 -5 29 -7 40 -2 11 -6 29 -9 40 -3 11 -8 31 -11 45 -18 94 -29
139 -61 245 -50 166 -135 377 -212 524 -81 155 -72 140 -174 295 -135 206
-212 299 -405 491 -147 147 -172 168 -304 268 -58 43 -113 85 -123 93 -9 8
-20 14 -22 14 -3 0 -36 20 -73 44 -260 168 -665 341 -922 392 -14 3 -33 7 -42
10 -9 3 -27 7 -40 9 -13 3 -45 9 -73 15 -86 17 -99 19 -230 35 -104 13 -468
28 -478 19z m2178 -5154 c-3 -5 -12 -10 -18 -10 -7 0 -6 4 3 10 19 12 23 12
15 0z"/>
<path d="M4793 3615 c-87 -26 -161 -94 -198 -180 -43 -100 -9 -245 74 -322 63
-58 131 -82 221 -79 84 3 129 23 193 84 52 50 100 160 92 212 -17 109 -29 137
-81 198 -68 79 -200 118 -301 87z"/>
</g>
</svg>
