<svg width="82" height="80" viewBox="0 0 82 80" fill="none" xmlns="http://www.w3.org/2000/svg">
    <path d="M7.05223 11.6875H1.36328V74.2588H7.05223V11.6875Z" stroke="url(#paint0_linear_592_5532)" stroke-miterlimit="22.9256"/>
    <path d="M80.9995 11.6875H75.3105V74.2588H80.9995V11.6875Z" stroke="url(#paint1_linear_592_5532)" stroke-miterlimit="22.9256"/>
    <path d="M18.4272 6H12.7383V51.5068H18.4272V6Z" stroke="url(#paint2_linear_592_5532)" stroke-miterlimit="22.9256"/>
    <path d="M29.8042 6H24.1152V45.8179H29.8042V6Z" stroke="url(#paint3_linear_592_5532)" stroke-miterlimit="22.9256"/>
    <path d="M29.8042 45.8164H24.1152V51.5054H29.8042V45.8164Z" stroke="url(#paint4_linear_592_5532)" stroke-miterlimit="22.9256"/>
    <path d="M28.6051 51.5078H25.3125V57.1968H28.6051V51.5078Z" stroke="url(#paint5_linear_592_5532)" stroke-miterlimit="22.9256"/>
    <path d="M41.1811 6H35.4922V40.1289H41.1811V6Z" stroke="url(#paint6_linear_592_5532)" stroke-miterlimit="22.9256"/>
    <path d="M39.4823 40.1289H37.1914V57.1934H39.4823V40.1289Z" stroke="url(#paint7_linear_592_5532)" stroke-miterlimit="22.9256"/>
    <path d="M52.5561 6H46.8672V45.8179H52.5561V6Z" stroke="url(#paint8_linear_592_5532)" stroke-miterlimit="22.9256"/>
    <path d="M54.0102 45.8164H45.4121V54.8938H54.0102V45.8164Z" stroke="url(#paint9_linear_592_5532)" stroke-miterlimit="22.9256"/>
    <path d="M51.4371 54.8984H47.9863V62.8855H51.4371V54.8984Z" stroke="url(#paint10_linear_592_5532)" stroke-miterlimit="22.9256"/>
    <path d="M17.3082 51.5078H13.8574V62.8833H17.3082V51.5078Z" stroke="url(#paint11_linear_592_5532)" stroke-miterlimit="22.9256"/>
    <path d="M69.6216 6H58.2461V51.5068H69.6216V6Z" stroke="url(#paint12_linear_592_5532)" stroke-miterlimit="22.9256"/>
    <path d="M63.9336 62.8857V51.5078" stroke="url(#paint13_linear_592_5532)" stroke-miterlimit="22.9256"/>
    <path fill-rule="evenodd" clip-rule="evenodd" d="M7.04883 11.6875H12.7378V28.752H7.04883V11.6875ZM18.4267 11.6875H24.1133V28.752H18.4267V11.6875ZM29.8023 11.6875H35.4912V28.752H29.8023V11.6875ZM41.1802 11.6875H46.8667V28.752H41.1802V11.6875ZM52.5557 11.6875H58.2446V28.752H52.5557V11.6875ZM69.6201 11.6875H75.3091V28.752H69.6201V11.6875Z" stroke="url(#paint14_linear_592_5532)" stroke-miterlimit="22.9256"/>
    <defs>
        <linearGradient id="paint0_linear_592_5532" x1="1.56986" y1="36.8521" x2="7.14136" y2="36.8687" gradientUnits="userSpaceOnUse">
            <stop stop-color="#37A0E7"/>
            <stop offset="1" stop-color="#C507D9"/>
        </linearGradient>
        <linearGradient id="paint1_linear_592_5532" x1="75.5171" y1="36.8521" x2="81.0886" y2="36.8687" gradientUnits="userSpaceOnUse">
            <stop stop-color="#37A0E7"/>
            <stop offset="1" stop-color="#C507D9"/>
        </linearGradient>
        <linearGradient id="paint2_linear_592_5532" x1="12.9449" y1="24.3017" x2="18.5163" y2="24.3245" gradientUnits="userSpaceOnUse">
            <stop stop-color="#37A0E7"/>
            <stop offset="1" stop-color="#C507D9"/>
        </linearGradient>
        <linearGradient id="paint3_linear_592_5532" x1="24.3218" y1="22.0137" x2="29.8932" y2="22.0398" gradientUnits="userSpaceOnUse">
            <stop stop-color="#37A0E7"/>
            <stop offset="1" stop-color="#C507D9"/>
        </linearGradient>
        <linearGradient id="paint4_linear_592_5532" x1="24.3218" y1="48.1044" x2="29.8874" y2="48.2868" gradientUnits="userSpaceOnUse">
            <stop stop-color="#37A0E7"/>
            <stop offset="1" stop-color="#C507D9"/>
        </linearGradient>
        <linearGradient id="paint5_linear_592_5532" x1="25.4321" y1="53.7958" x2="28.6555" y2="53.8569" gradientUnits="userSpaceOnUse">
            <stop stop-color="#37A0E7"/>
            <stop offset="1" stop-color="#C507D9"/>
        </linearGradient>
        <linearGradient id="paint6_linear_592_5532" x1="35.6988" y1="19.7258" x2="41.2701" y2="19.7562" gradientUnits="userSpaceOnUse">
            <stop stop-color="#37A0E7"/>
            <stop offset="1" stop-color="#C507D9"/>
        </linearGradient>
        <linearGradient id="paint7_linear_592_5532" x1="37.2746" y1="46.9918" x2="39.5182" y2="47.0017" gradientUnits="userSpaceOnUse">
            <stop stop-color="#37A0E7"/>
            <stop offset="1" stop-color="#C507D9"/>
        </linearGradient>
        <linearGradient id="paint8_linear_592_5532" x1="47.0738" y1="22.0137" x2="52.6452" y2="22.0398" gradientUnits="userSpaceOnUse">
            <stop stop-color="#37A0E7"/>
            <stop offset="1" stop-color="#C507D9"/>
        </linearGradient>
        <linearGradient id="paint9_linear_592_5532" x1="45.7243" y1="49.4671" x2="54.1369" y2="49.7283" gradientUnits="userSpaceOnUse">
            <stop stop-color="#37A0E7"/>
            <stop offset="1" stop-color="#C507D9"/>
        </linearGradient>
        <linearGradient id="paint10_linear_592_5532" x1="48.1116" y1="58.1106" x2="51.4905" y2="58.1585" gradientUnits="userSpaceOnUse">
            <stop stop-color="#37A0E7"/>
            <stop offset="1" stop-color="#C507D9"/>
        </linearGradient>
        <linearGradient id="paint11_linear_592_5532" x1="13.9827" y1="56.0828" x2="17.3619" y2="56.1163" gradientUnits="userSpaceOnUse">
            <stop stop-color="#37A0E7"/>
            <stop offset="1" stop-color="#C507D9"/>
        </linearGradient>
        <linearGradient id="paint12_linear_592_5532" x1="58.6592" y1="24.3017" x2="69.7992" y2="24.3929" gradientUnits="userSpaceOnUse">
            <stop stop-color="#37A0E7"/>
            <stop offset="1" stop-color="#C507D9"/>
        </linearGradient>
        <linearGradient id="paint13_linear_592_5532" x1="63.9699" y1="56.0837" x2="64.9493" y2="56.0865" gradientUnits="userSpaceOnUse">
            <stop stop-color="#37A0E7"/>
            <stop offset="1" stop-color="#C507D9"/>
        </linearGradient>
        <linearGradient id="paint14_linear_592_5532" x1="9.52755" y1="18.5504" x2="75.2494" y2="27.1667" gradientUnits="userSpaceOnUse">
            <stop stop-color="#37A0E7"/>
            <stop offset="1" stop-color="#C507D9"/>
        </linearGradient>
    </defs>
</svg>