<svg width="82" height="80" viewBox="0 0 82 80" fill="none" xmlns="http://www.w3.org/2000/svg">
    <path d="M18.2367 71.4688H6.82617V77.1752H18.2367V71.4688Z" stroke="url(#paint0_linear_592_5423)" stroke-miterlimit="22.9256"/>
    <path d="M75.2934 71.4688H63.8828V77.1752H75.2934V71.4688Z" stroke="url(#paint1_linear_592_5423)" stroke-miterlimit="22.9256"/>
    <path fill-rule="evenodd" clip-rule="evenodd" d="M52.4699 8.70312H75.2934V37.233V48.6435H52.4699H35.3529C32.2016 48.6435 29.6465 46.0908 29.6465 42.9395C29.6465 39.7882 32.2016 37.233 35.3529 37.233H52.4699V8.70312Z" stroke="url(#paint2_linear_592_5423)" stroke-miterlimit="22.9256"/>
    <path fill-rule="evenodd" clip-rule="evenodd" d="M6.8256 71.4681H75.2935C78.4328 71.4681 81 68.9009 81 65.7617V25.8212C81 22.6844 78.4328 20.1172 75.2935 20.1172V37.2342V48.6447H52.4701H35.3531C32.2018 48.6447 29.6467 46.0919 29.6467 42.9406C29.6467 39.7893 32.2018 37.2342 35.3531 37.2342H52.4701V20.1172H6.8256C3.68632 20.1172 1.11914 22.6844 1.11914 25.8212V65.7617C1.11914 68.9009 3.68632 71.4681 6.8256 71.4681Z" stroke="url(#paint3_linear_592_5423)" stroke-miterlimit="22.9256"/>
    <path d="M69.5863 3H58.1758V8.70646H69.5863V3Z" stroke="url(#paint4_linear_592_5423)" stroke-miterlimit="22.9256"/>
    <path d="M35.3537 45.2348C36.6202 45.2348 37.6469 44.2081 37.6469 42.9416C37.6469 41.6751 36.6202 40.6484 35.3537 40.6484C34.0872 40.6484 33.0605 41.6751 33.0605 42.9416C33.0605 44.2081 34.0872 45.2348 35.3537 45.2348Z" stroke="url(#paint5_linear_592_5423)" stroke-miterlimit="22.9256"/>
    <path d="M49.6169 65.7651C51.1927 65.7651 52.4701 64.4876 52.4701 62.9118C52.4701 61.336 51.1927 60.0586 49.6169 60.0586C48.0411 60.0586 46.7637 61.336 46.7637 62.9118C46.7637 64.4876 48.0411 65.7651 49.6169 65.7651Z" stroke="url(#paint6_linear_592_5423)" stroke-miterlimit="22.9256"/>
    <path d="M29.6467 42.9414H1.11914" stroke="url(#paint7_linear_592_5423)" stroke-miterlimit="22.9256"/>
    <path d="M41.0586 71.468V48.6445" stroke="url(#paint8_linear_592_5423)" stroke-miterlimit="22.9256"/>
    <path d="M58.1756 54.3516H41.0586" stroke="url(#paint9_linear_592_5423)" stroke-miterlimit="22.9256"/>
    <path d="M58.1758 71.468V48.6445" stroke="url(#paint10_linear_592_5423)" stroke-miterlimit="22.9256"/>
    <path d="M37.6465 42.9408H52.4703V37.2344" stroke="url(#paint11_linear_592_5423)" stroke-miterlimit="22.9256"/>
    <path d="M75.293 48.6445H80.9994" stroke="url(#paint12_linear_592_5423)" stroke-miterlimit="22.9256"/>
    <defs>
        <linearGradient id="paint0_linear_592_5423" x1="7.24052" y1="73.7637" x2="18.3678" y2="74.493" gradientUnits="userSpaceOnUse">
            <stop stop-color="#37A0E7"/>
            <stop offset="1" stop-color="#C507D9"/>
        </linearGradient>
        <linearGradient id="paint1_linear_592_5423" x1="64.2972" y1="73.7637" x2="75.4244" y2="74.493" gradientUnits="userSpaceOnUse">
            <stop stop-color="#37A0E7"/>
            <stop offset="1" stop-color="#C507D9"/>
        </linearGradient>
        <linearGradient id="paint2_linear_592_5423" x1="31.3041" y1="24.7661" x2="75.9462" y2="26.4383" gradientUnits="userSpaceOnUse">
            <stop stop-color="#37A0E7"/>
            <stop offset="1" stop-color="#C507D9"/>
        </linearGradient>
        <linearGradient id="paint3_linear_592_5423" x1="4.01984" y1="40.7692" x2="82.0493" y2="44.7474" gradientUnits="userSpaceOnUse">
            <stop stop-color="#37A0E7"/>
            <stop offset="1" stop-color="#C507D9"/>
        </linearGradient>
        <linearGradient id="paint4_linear_592_5423" x1="58.5901" y1="5.29499" x2="69.7174" y2="6.02422" gradientUnits="userSpaceOnUse">
            <stop stop-color="#37A0E7"/>
            <stop offset="1" stop-color="#C507D9"/>
        </linearGradient>
        <linearGradient id="paint5_linear_592_5423" x1="33.2271" y1="42.4929" x2="37.714" y2="42.64" gradientUnits="userSpaceOnUse">
            <stop stop-color="#37A0E7"/>
            <stop offset="1" stop-color="#C507D9"/>
        </linearGradient>
        <linearGradient id="paint6_linear_592_5423" x1="46.9709" y1="62.3536" x2="52.5536" y2="62.5366" gradientUnits="userSpaceOnUse">
            <stop stop-color="#37A0E7"/>
            <stop offset="1" stop-color="#C507D9"/>
        </linearGradient>
        <linearGradient id="paint7_linear_592_5423" x1="2.15506" y1="43.3436" x2="17.0622" y2="57.2815" gradientUnits="userSpaceOnUse">
            <stop stop-color="#37A0E7"/>
            <stop offset="1" stop-color="#C507D9"/>
        </linearGradient>
        <linearGradient id="paint8_linear_592_5423" x1="41.0949" y1="57.8235" x2="42.0743" y2="57.8249" gradientUnits="userSpaceOnUse">
            <stop stop-color="#37A0E7"/>
            <stop offset="1" stop-color="#C507D9"/>
        </linearGradient>
        <linearGradient id="paint9_linear_592_5423" x1="41.6802" y1="54.7537" x2="54.4309" y2="61.9069" gradientUnits="userSpaceOnUse">
            <stop stop-color="#37A0E7"/>
            <stop offset="1" stop-color="#C507D9"/>
        </linearGradient>
        <linearGradient id="paint10_linear_592_5423" x1="58.2121" y1="57.8235" x2="59.1915" y2="57.8249" gradientUnits="userSpaceOnUse">
            <stop stop-color="#37A0E7"/>
            <stop offset="1" stop-color="#C507D9"/>
        </linearGradient>
        <linearGradient id="paint11_linear_592_5423" x1="38.1848" y1="39.5294" x2="52.5982" y2="40.7565" gradientUnits="userSpaceOnUse">
            <stop stop-color="#37A0E7"/>
            <stop offset="1" stop-color="#C507D9"/>
        </linearGradient>
        <linearGradient id="paint12_linear_592_5423" x1="75.5002" y1="49.0467" x2="80.9" y2="50.0566" gradientUnits="userSpaceOnUse">
            <stop stop-color="#37A0E7"/>
            <stop offset="1" stop-color="#C507D9"/>
        </linearGradient>
    </defs>
</svg>
